<?xml version="1.0" encoding="utf-8" standalone="no"?>
<!DOCTYPE svg PUBLIC "-//W3C//DTD SVG 1.1//EN"
  "http://www.w3.org/Graphics/SVG/1.1/DTD/svg11.dtd">
<svg xmlns:xlink="http://www.w3.org/1999/xlink" width="578.252031pt" height="189.113516pt" viewBox="0 0 578.252031 189.113516" xmlns="http://www.w3.org/2000/svg" version="1.1">
 <metadata>
  <rdf:RDF xmlns:dc="http://purl.org/dc/elements/1.1/" xmlns:cc="http://creativecommons.org/ns#" xmlns:rdf="http://www.w3.org/1999/02/22-rdf-syntax-ns#">
   <cc:Work>
    <dc:type rdf:resource="http://purl.org/dc/dcmitype/StillImage"/>
    <dc:date>2026-05-28T09:22:30.499106</dc:date>
    <dc:format>image/svg+xml</dc:format>
    <dc:creator>
     <cc:Agent>
      <dc:title>Matplotlib v3.10.9, https://matplotlib.org/</dc:title>
     </cc:Agent>
    </dc:creator>
   </cc:Work>
  </rdf:RDF>
 </metadata>
 <defs>
  <style type="text/css">*{stroke-linejoin: round; stroke-linecap: butt}</style>
 </defs>
 <g id="figure_1">
  <g id="patch_1">
   <path d="M 0 189.113516 
L 578.252031 189.113516 
L 578.252031 0 
L 0 0 
z
" style="fill: #ffffff"/>
  </g>
  <g id="axes_1">
   <g id="patch_2">
    <path d="M 33.852031 171.138828 
L 290.472031 171.138828 
L 290.472031 15.898828 
L 33.852031 15.898828 
z
" style="fill: #fafaf8"/>
   </g>
   <g id="matplotlib.axis_1">
    <g id="xtick_1">
     <g id="line2d_1">
      <defs>
       <path id="ma0c1931e51" d="M 0 0 
L 0 2 
" style="stroke: #dddddd; stroke-width: 0.8"/>
      </defs>
      <g>
       <use xlink:href="#ma0c1931e51" x="33.852031" y="171.138828" style="fill: #dddddd; stroke: #dddddd; stroke-width: 0.8"/>
      </g>
     </g>
     <g id="text_1">
      <!-- Jan -->
      <g style="fill: #aaaaaa" transform="translate(28.456563 180.457734) scale(0.07 -0.07)">
       <defs>
        <path id="DejaVuSans-4a" d="M 628 4666 
L 1259 4666 
L 1259 325 
Q 1259 -519 939 -900 
Q 619 -1281 -91 -1281 
L -331 -1281 
L -331 -750 
L -134 -750 
Q 284 -750 456 -515 
Q 628 -281 628 325 
L 628 4666 
z
" transform="scale(0.015625)"/>
        <path id="DejaVuSans-61" d="M 2194 1759 
Q 1497 1759 1228 1600 
Q 959 1441 959 1056 
Q 959 750 1161 570 
Q 1363 391 1709 391 
Q 2188 391 2477 730 
Q 2766 1069 2766 1631 
L 2766 1759 
L 2194 1759 
z
M 3341 1997 
L 3341 0 
L 2766 0 
L 2766 531 
Q 2569 213 2275 61 
Q 1981 -91 1556 -91 
Q 1019 -91 701 211 
Q 384 513 384 1019 
Q 384 1609 779 1909 
Q 1175 2209 1959 2209 
L 2766 2209 
L 2766 2266 
Q 2766 2663 2505 2880 
Q 2244 3097 1772 3097 
Q 1472 3097 1187 3025 
Q 903 2953 641 2809 
L 641 3341 
Q 956 3463 1253 3523 
Q 1550 3584 1831 3584 
Q 2591 3584 2966 3190 
Q 3341 2797 3341 1997 
z
" transform="scale(0.015625)"/>
        <path id="DejaVuSans-6e" d="M 3513 2113 
L 3513 0 
L 2938 0 
L 2938 2094 
Q 2938 2591 2744 2837 
Q 2550 3084 2163 3084 
Q 1697 3084 1428 2787 
Q 1159 2491 1159 1978 
L 1159 0 
L 581 0 
L 581 3500 
L 1159 3500 
L 1159 2956 
Q 1366 3272 1645 3428 
Q 1925 3584 2291 3584 
Q 2894 3584 3203 3211 
Q 3513 2838 3513 2113 
z
" transform="scale(0.015625)"/>
       </defs>
       <use xlink:href="#DejaVuSans-4a"/>
       <use xlink:href="#DejaVuSans-61" transform="translate(29.492188 0)"/>
       <use xlink:href="#DejaVuSans-6e" transform="translate(90.771484 0)"/>
      </g>
     </g>
    </g>
    <g id="xtick_2">
     <g id="line2d_2">
      <g>
       <use xlink:href="#ma0c1931e51" x="55.707031" y="171.138828" style="fill: #dddddd; stroke: #dddddd; stroke-width: 0.8"/>
      </g>
     </g>
     <g id="text_2">
      <!-- Feb -->
      <g style="fill: #aaaaaa" transform="translate(49.510937 180.457734) scale(0.07 -0.07)">
       <defs>
        <path id="DejaVuSans-46" d="M 628 4666 
L 3309 4666 
L 3309 4134 
L 1259 4134 
L 1259 2759 
L 3109 2759 
L 3109 2228 
L 1259 2228 
L 1259 0 
L 628 0 
L 628 4666 
z
" transform="scale(0.015625)"/>
        <path id="DejaVuSans-65" d="M 3597 1894 
L 3597 1613 
L 953 1613 
Q 991 1019 1311 708 
Q 1631 397 2203 397 
Q 2534 397 2845 478 
Q 3156 559 3463 722 
L 3463 178 
Q 3153 47 2828 -22 
Q 2503 -91 2169 -91 
Q 1331 -91 842 396 
Q 353 884 353 1716 
Q 353 2575 817 3079 
Q 1281 3584 2069 3584 
Q 2775 3584 3186 3129 
Q 3597 2675 3597 1894 
z
M 3022 2063 
Q 3016 2534 2758 2815 
Q 2500 3097 2075 3097 
Q 1594 3097 1305 2825 
Q 1016 2553 972 2059 
L 3022 2063 
z
" transform="scale(0.015625)"/>
        <path id="DejaVuSans-62" d="M 3116 1747 
Q 3116 2381 2855 2742 
Q 2594 3103 2138 3103 
Q 1681 3103 1420 2742 
Q 1159 2381 1159 1747 
Q 1159 1113 1420 752 
Q 1681 391 2138 391 
Q 2594 391 2855 752 
Q 3116 1113 3116 1747 
z
M 1159 2969 
Q 1341 3281 1617 3432 
Q 1894 3584 2278 3584 
Q 2916 3584 3314 3078 
Q 3713 2572 3713 1747 
Q 3713 922 3314 415 
Q 2916 -91 2278 -91 
Q 1894 -91 1617 61 
Q 1341 213 1159 525 
L 1159 0 
L 581 0 
L 581 4863 
L 1159 4863 
L 1159 2969 
z
" transform="scale(0.015625)"/>
       </defs>
       <use xlink:href="#DejaVuSans-46"/>
       <use xlink:href="#DejaVuSans-65" transform="translate(52.019531 0)"/>
       <use xlink:href="#DejaVuSans-62" transform="translate(113.542969 0)"/>
      </g>
     </g>
    </g>
    <g id="xtick_3">
     <g id="line2d_3">
      <g>
       <use xlink:href="#ma0c1931e51" x="75.447031" y="171.138828" style="fill: #dddddd; stroke: #dddddd; stroke-width: 0.8"/>
      </g>
     </g>
     <g id="text_3">
      <!-- Mar -->
      <g style="fill: #aaaaaa" transform="translate(68.843516 180.457734) scale(0.07 -0.07)">
       <defs>
        <path id="DejaVuSans-4d" d="M 628 4666 
L 1569 4666 
L 2759 1491 
L 3956 4666 
L 4897 4666 
L 4897 0 
L 4281 0 
L 4281 4097 
L 3078 897 
L 2444 897 
L 1241 4097 
L 1241 0 
L 628 0 
L 628 4666 
z
" transform="scale(0.015625)"/>
        <path id="DejaVuSans-72" d="M 2631 2963 
Q 2534 3019 2420 3045 
Q 2306 3072 2169 3072 
Q 1681 3072 1420 2755 
Q 1159 2438 1159 1844 
L 1159 0 
L 581 0 
L 581 3500 
L 1159 3500 
L 1159 2956 
Q 1341 3275 1631 3429 
Q 1922 3584 2338 3584 
Q 2397 3584 2469 3576 
Q 2541 3569 2628 3553 
L 2631 2963 
z
" transform="scale(0.015625)"/>
       </defs>
       <use xlink:href="#DejaVuSans-4d"/>
       <use xlink:href="#DejaVuSans-61" transform="translate(86.279297 0)"/>
       <use xlink:href="#DejaVuSans-72" transform="translate(147.558594 0)"/>
      </g>
     </g>
    </g>
    <g id="xtick_4">
     <g id="line2d_4">
      <g>
       <use xlink:href="#ma0c1931e51" x="97.302031" y="171.138828" style="fill: #dddddd; stroke: #dddddd; stroke-width: 0.8"/>
      </g>
     </g>
     <g id="text_4">
      <!-- Apr -->
      <g style="fill: #aaaaaa" transform="translate(91.247031 180.457734) scale(0.07 -0.07)">
       <defs>
        <path id="DejaVuSans-41" d="M 2188 4044 
L 1331 1722 
L 3047 1722 
L 2188 4044 
z
M 1831 4666 
L 2547 4666 
L 4325 0 
L 3669 0 
L 3244 1197 
L 1141 1197 
L 716 0 
L 50 0 
L 1831 4666 
z
" transform="scale(0.015625)"/>
        <path id="DejaVuSans-70" d="M 1159 525 
L 1159 -1331 
L 581 -1331 
L 581 3500 
L 1159 3500 
L 1159 2969 
Q 1341 3281 1617 3432 
Q 1894 3584 2278 3584 
Q 2916 3584 3314 3078 
Q 3713 2572 3713 1747 
Q 3713 922 3314 415 
Q 2916 -91 2278 -91 
Q 1894 -91 1617 61 
Q 1341 213 1159 525 
z
M 3116 1747 
Q 3116 2381 2855 2742 
Q 2594 3103 2138 3103 
Q 1681 3103 1420 2742 
Q 1159 2381 1159 1747 
Q 1159 1113 1420 752 
Q 1681 391 2138 391 
Q 2594 391 2855 752 
Q 3116 1113 3116 1747 
z
" transform="scale(0.015625)"/>
       </defs>
       <use xlink:href="#DejaVuSans-41"/>
       <use xlink:href="#DejaVuSans-70" transform="translate(68.408203 0)"/>
       <use xlink:href="#DejaVuSans-72" transform="translate(131.884766 0)"/>
      </g>
     </g>
    </g>
    <g id="xtick_5">
     <g id="line2d_5">
      <g>
       <use xlink:href="#ma0c1931e51" x="118.452031" y="171.138828" style="fill: #dddddd; stroke: #dddddd; stroke-width: 0.8"/>
      </g>
     </g>
     <g id="text_5">
      <!-- May -->
      <g style="fill: #aaaaaa" transform="translate(111.215781 180.457734) scale(0.07 -0.07)">
       <defs>
        <path id="DejaVuSans-79" d="M 2059 -325 
Q 1816 -950 1584 -1140 
Q 1353 -1331 966 -1331 
L 506 -1331 
L 506 -850 
L 844 -850 
Q 1081 -850 1212 -737 
Q 1344 -625 1503 -206 
L 1606 56 
L 191 3500 
L 800 3500 
L 1894 763 
L 2988 3500 
L 3597 3500 
L 2059 -325 
z
" transform="scale(0.015625)"/>
       </defs>
       <use xlink:href="#DejaVuSans-4d"/>
       <use xlink:href="#DejaVuSans-61" transform="translate(86.279297 0)"/>
       <use xlink:href="#DejaVuSans-79" transform="translate(147.558594 0)"/>
      </g>
     </g>
    </g>
    <g id="xtick_6">
     <g id="line2d_6">
      <g>
       <use xlink:href="#ma0c1931e51" x="140.307031" y="171.138828" style="fill: #dddddd; stroke: #dddddd; stroke-width: 0.8"/>
      </g>
     </g>
     <g id="text_6">
      <!-- Jun -->
      <g style="fill: #aaaaaa" transform="translate(134.838281 180.457734) scale(0.07 -0.07)">
       <defs>
        <path id="DejaVuSans-75" d="M 544 1381 
L 544 3500 
L 1119 3500 
L 1119 1403 
Q 1119 906 1312 657 
Q 1506 409 1894 409 
Q 2359 409 2629 706 
Q 2900 1003 2900 1516 
L 2900 3500 
L 3475 3500 
L 3475 0 
L 2900 0 
L 2900 538 
Q 2691 219 2414 64 
Q 2138 -91 1772 -91 
Q 1169 -91 856 284 
Q 544 659 544 1381 
z
M 1991 3584 
L 1991 3584 
z
" transform="scale(0.015625)"/>
       </defs>
       <use xlink:href="#DejaVuSans-4a"/>
       <use xlink:href="#DejaVuSans-75" transform="translate(29.492188 0)"/>
       <use xlink:href="#DejaVuSans-6e" transform="translate(92.871094 0)"/>
      </g>
     </g>
    </g>
    <g id="xtick_7">
     <g id="line2d_7">
      <g>
       <use xlink:href="#ma0c1931e51" x="161.457031" y="171.138828" style="fill: #dddddd; stroke: #dddddd; stroke-width: 0.8"/>
      </g>
     </g>
     <g id="text_7">
      <!-- Jul -->
      <g style="fill: #aaaaaa" transform="translate(157.234062 180.457734) scale(0.07 -0.07)">
       <defs>
        <path id="DejaVuSans-6c" d="M 603 4863 
L 1178 4863 
L 1178 0 
L 603 0 
L 603 4863 
z
" transform="scale(0.015625)"/>
       </defs>
       <use xlink:href="#DejaVuSans-4a"/>
       <use xlink:href="#DejaVuSans-75" transform="translate(29.492188 0)"/>
       <use xlink:href="#DejaVuSans-6c" transform="translate(92.871094 0)"/>
      </g>
     </g>
    </g>
    <g id="xtick_8">
     <g id="line2d_8">
      <g>
       <use xlink:href="#ma0c1931e51" x="183.312031" y="171.138828" style="fill: #dddddd; stroke: #dddddd; stroke-width: 0.8"/>
      </g>
     </g>
     <g id="text_8">
      <!-- Aug -->
      <g style="fill: #aaaaaa" transform="translate(176.477734 180.457734) scale(0.07 -0.07)">
       <defs>
        <path id="DejaVuSans-67" d="M 2906 1791 
Q 2906 2416 2648 2759 
Q 2391 3103 1925 3103 
Q 1463 3103 1205 2759 
Q 947 2416 947 1791 
Q 947 1169 1205 825 
Q 1463 481 1925 481 
Q 2391 481 2648 825 
Q 2906 1169 2906 1791 
z
M 3481 434 
Q 3481 -459 3084 -895 
Q 2688 -1331 1869 -1331 
Q 1566 -1331 1297 -1286 
Q 1028 -1241 775 -1147 
L 775 -588 
Q 1028 -725 1275 -790 
Q 1522 -856 1778 -856 
Q 2344 -856 2625 -561 
Q 2906 -266 2906 331 
L 2906 616 
Q 2728 306 2450 153 
Q 2172 0 1784 0 
Q 1141 0 747 490 
Q 353 981 353 1791 
Q 353 2603 747 3093 
Q 1141 3584 1784 3584 
Q 2172 3584 2450 3431 
Q 2728 3278 2906 2969 
L 2906 3500 
L 3481 3500 
L 3481 434 
z
" transform="scale(0.015625)"/>
       </defs>
       <use xlink:href="#DejaVuSans-41"/>
       <use xlink:href="#DejaVuSans-75" transform="translate(68.408203 0)"/>
       <use xlink:href="#DejaVuSans-67" transform="translate(131.787109 0)"/>
      </g>
     </g>
    </g>
    <g id="xtick_9">
     <g id="line2d_9">
      <g>
       <use xlink:href="#ma0c1931e51" x="205.167031" y="171.138828" style="fill: #dddddd; stroke: #dddddd; stroke-width: 0.8"/>
      </g>
     </g>
     <g id="text_9">
      <!-- Sep -->
      <g style="fill: #aaaaaa" transform="translate(198.569531 180.457734) scale(0.07 -0.07)">
       <defs>
        <path id="DejaVuSans-53" d="M 3425 4513 
L 3425 3897 
Q 3066 4069 2747 4153 
Q 2428 4238 2131 4238 
Q 1616 4238 1336 4038 
Q 1056 3838 1056 3469 
Q 1056 3159 1242 3001 
Q 1428 2844 1947 2747 
L 2328 2669 
Q 3034 2534 3370 2195 
Q 3706 1856 3706 1288 
Q 3706 609 3251 259 
Q 2797 -91 1919 -91 
Q 1588 -91 1214 -16 
Q 841 59 441 206 
L 441 856 
Q 825 641 1194 531 
Q 1563 422 1919 422 
Q 2459 422 2753 634 
Q 3047 847 3047 1241 
Q 3047 1584 2836 1778 
Q 2625 1972 2144 2069 
L 1759 2144 
Q 1053 2284 737 2584 
Q 422 2884 422 3419 
Q 422 4038 858 4394 
Q 1294 4750 2059 4750 
Q 2388 4750 2728 4690 
Q 3069 4631 3425 4513 
z
" transform="scale(0.015625)"/>
       </defs>
       <use xlink:href="#DejaVuSans-53"/>
       <use xlink:href="#DejaVuSans-65" transform="translate(63.476562 0)"/>
       <use xlink:href="#DejaVuSans-70" transform="translate(125 0)"/>
      </g>
     </g>
    </g>
    <g id="xtick_10">
     <g id="line2d_10">
      <g>
       <use xlink:href="#ma0c1931e51" x="226.317031" y="171.138828" style="fill: #dddddd; stroke: #dddddd; stroke-width: 0.8"/>
      </g>
     </g>
     <g id="text_10">
      <!-- Oct -->
      <g style="fill: #aaaaaa" transform="translate(220.265312 180.457734) scale(0.07 -0.07)">
       <defs>
        <path id="DejaVuSans-4f" d="M 2522 4238 
Q 1834 4238 1429 3725 
Q 1025 3213 1025 2328 
Q 1025 1447 1429 934 
Q 1834 422 2522 422 
Q 3209 422 3611 934 
Q 4013 1447 4013 2328 
Q 4013 3213 3611 3725 
Q 3209 4238 2522 4238 
z
M 2522 4750 
Q 3503 4750 4090 4092 
Q 4678 3434 4678 2328 
Q 4678 1225 4090 567 
Q 3503 -91 2522 -91 
Q 1538 -91 948 565 
Q 359 1222 359 2328 
Q 359 3434 948 4092 
Q 1538 4750 2522 4750 
z
" transform="scale(0.015625)"/>
        <path id="DejaVuSans-63" d="M 3122 3366 
L 3122 2828 
Q 2878 2963 2633 3030 
Q 2388 3097 2138 3097 
Q 1578 3097 1268 2742 
Q 959 2388 959 1747 
Q 959 1106 1268 751 
Q 1578 397 2138 397 
Q 2388 397 2633 464 
Q 2878 531 3122 666 
L 3122 134 
Q 2881 22 2623 -34 
Q 2366 -91 2075 -91 
Q 1284 -91 818 406 
Q 353 903 353 1747 
Q 353 2603 823 3093 
Q 1294 3584 2113 3584 
Q 2378 3584 2631 3529 
Q 2884 3475 3122 3366 
z
" transform="scale(0.015625)"/>
        <path id="DejaVuSans-74" d="M 1172 4494 
L 1172 3500 
L 2356 3500 
L 2356 3053 
L 1172 3053 
L 1172 1153 
Q 1172 725 1289 603 
Q 1406 481 1766 481 
L 2356 481 
L 2356 0 
L 1766 0 
Q 1100 0 847 248 
Q 594 497 594 1153 
L 594 3053 
L 172 3053 
L 172 3500 
L 594 3500 
L 594 4494 
L 1172 4494 
z
" transform="scale(0.015625)"/>
       </defs>
       <use xlink:href="#DejaVuSans-4f"/>
       <use xlink:href="#DejaVuSans-63" transform="translate(78.710938 0)"/>
       <use xlink:href="#DejaVuSans-74" transform="translate(133.691406 0)"/>
      </g>
     </g>
    </g>
    <g id="xtick_11">
     <g id="line2d_11">
      <g>
       <use xlink:href="#ma0c1931e51" x="248.172031" y="171.138828" style="fill: #dddddd; stroke: #dddddd; stroke-width: 0.8"/>
      </g>
     </g>
     <g id="text_11">
      <!-- Nov -->
      <g style="fill: #aaaaaa" transform="translate(241.340469 180.457734) scale(0.07 -0.07)">
       <defs>
        <path id="DejaVuSans-4e" d="M 628 4666 
L 1478 4666 
L 3547 763 
L 3547 4666 
L 4159 4666 
L 4159 0 
L 3309 0 
L 1241 3903 
L 1241 0 
L 628 0 
L 628 4666 
z
" transform="scale(0.015625)"/>
        <path id="DejaVuSans-6f" d="M 1959 3097 
Q 1497 3097 1228 2736 
Q 959 2375 959 1747 
Q 959 1119 1226 758 
Q 1494 397 1959 397 
Q 2419 397 2687 759 
Q 2956 1122 2956 1747 
Q 2956 2369 2687 2733 
Q 2419 3097 1959 3097 
z
M 1959 3584 
Q 2709 3584 3137 3096 
Q 3566 2609 3566 1747 
Q 3566 888 3137 398 
Q 2709 -91 1959 -91 
Q 1206 -91 779 398 
Q 353 888 353 1747 
Q 353 2609 779 3096 
Q 1206 3584 1959 3584 
z
" transform="scale(0.015625)"/>
        <path id="DejaVuSans-76" d="M 191 3500 
L 800 3500 
L 1894 563 
L 2988 3500 
L 3597 3500 
L 2284 0 
L 1503 0 
L 191 3500 
z
" transform="scale(0.015625)"/>
       </defs>
       <use xlink:href="#DejaVuSans-4e"/>
       <use xlink:href="#DejaVuSans-6f" transform="translate(74.804688 0)"/>
       <use xlink:href="#DejaVuSans-76" transform="translate(135.986328 0)"/>
      </g>
     </g>
    </g>
    <g id="xtick_12">
     <g id="line2d_12">
      <g>
       <use xlink:href="#ma0c1931e51" x="269.322031" y="171.138828" style="fill: #dddddd; stroke: #dddddd; stroke-width: 0.8"/>
      </g>
     </g>
     <g id="text_12">
      <!-- Dec -->
      <g style="fill: #aaaaaa" transform="translate(262.548984 180.457734) scale(0.07 -0.07)">
       <defs>
        <path id="DejaVuSans-44" d="M 1259 4147 
L 1259 519 
L 2022 519 
Q 2988 519 3436 956 
Q 3884 1394 3884 2338 
Q 3884 3275 3436 3711 
Q 2988 4147 2022 4147 
L 1259 4147 
z
M 628 4666 
L 1925 4666 
Q 3281 4666 3915 4102 
Q 4550 3538 4550 2338 
Q 4550 1131 3912 565 
Q 3275 0 1925 0 
L 628 0 
L 628 4666 
z
" transform="scale(0.015625)"/>
       </defs>
       <use xlink:href="#DejaVuSans-44"/>
       <use xlink:href="#DejaVuSans-65" transform="translate(77.001953 0)"/>
       <use xlink:href="#DejaVuSans-63" transform="translate(138.525391 0)"/>
      </g>
     </g>
    </g>
   </g>
   <g id="matplotlib.axis_2">
    <g id="ytick_1">
     <g id="line2d_13">
      <path d="M 33.852031 147.300005 
L 290.472031 147.300005 
" clip-path="url(#p5907b3f33e)" style="fill: none; stroke: #eeeeee; stroke-width: 0.6; stroke-linecap: square"/>
     </g>
     <g id="line2d_14"/>
     <g id="text_13">
      <!-- 60 -->
      <g style="fill: #999999" transform="translate(21.944531 149.959459) scale(0.07 -0.07)">
       <defs>
        <path id="DejaVuSans-36" d="M 2113 2584 
Q 1688 2584 1439 2293 
Q 1191 2003 1191 1497 
Q 1191 994 1439 701 
Q 1688 409 2113 409 
Q 2538 409 2786 701 
Q 3034 994 3034 1497 
Q 3034 2003 2786 2293 
Q 2538 2584 2113 2584 
z
M 3366 4563 
L 3366 3988 
Q 3128 4100 2886 4159 
Q 2644 4219 2406 4219 
Q 1781 4219 1451 3797 
Q 1122 3375 1075 2522 
Q 1259 2794 1537 2939 
Q 1816 3084 2150 3084 
Q 2853 3084 3261 2657 
Q 3669 2231 3669 1497 
Q 3669 778 3244 343 
Q 2819 -91 2113 -91 
Q 1303 -91 875 529 
Q 447 1150 447 2328 
Q 447 3434 972 4092 
Q 1497 4750 2381 4750 
Q 2619 4750 2861 4703 
Q 3103 4656 3366 4563 
z
" transform="scale(0.015625)"/>
        <path id="DejaVuSans-30" d="M 2034 4250 
Q 1547 4250 1301 3770 
Q 1056 3291 1056 2328 
Q 1056 1369 1301 889 
Q 1547 409 2034 409 
Q 2525 409 2770 889 
Q 3016 1369 3016 2328 
Q 3016 3291 2770 3770 
Q 2525 4250 2034 4250 
z
M 2034 4750 
Q 2819 4750 3233 4129 
Q 3647 3509 3647 2328 
Q 3647 1150 3233 529 
Q 2819 -91 2034 -91 
Q 1250 -91 836 529 
Q 422 1150 422 2328 
Q 422 3509 836 4129 
Q 1250 4750 2034 4750 
z
" transform="scale(0.015625)"/>
       </defs>
       <use xlink:href="#DejaVuSans-36"/>
       <use xlink:href="#DejaVuSans-30" transform="translate(63.623047 0)"/>
      </g>
     </g>
    </g>
    <g id="ytick_2">
     <g id="line2d_15">
      <path d="M 33.852031 114.487236 
L 290.472031 114.487236 
" clip-path="url(#p5907b3f33e)" style="fill: none; stroke: #eeeeee; stroke-width: 0.6; stroke-linecap: square"/>
     </g>
     <g id="line2d_16"/>
     <g id="text_14">
      <!-- 80 -->
      <g style="fill: #999999" transform="translate(21.944531 117.14669) scale(0.07 -0.07)">
       <defs>
        <path id="DejaVuSans-38" d="M 2034 2216 
Q 1584 2216 1326 1975 
Q 1069 1734 1069 1313 
Q 1069 891 1326 650 
Q 1584 409 2034 409 
Q 2484 409 2743 651 
Q 3003 894 3003 1313 
Q 3003 1734 2745 1975 
Q 2488 2216 2034 2216 
z
M 1403 2484 
Q 997 2584 770 2862 
Q 544 3141 544 3541 
Q 544 4100 942 4425 
Q 1341 4750 2034 4750 
Q 2731 4750 3128 4425 
Q 3525 4100 3525 3541 
Q 3525 3141 3298 2862 
Q 3072 2584 2669 2484 
Q 3125 2378 3379 2068 
Q 3634 1759 3634 1313 
Q 3634 634 3220 271 
Q 2806 -91 2034 -91 
Q 1263 -91 848 271 
Q 434 634 434 1313 
Q 434 1759 690 2068 
Q 947 2378 1403 2484 
z
M 1172 3481 
Q 1172 3119 1398 2916 
Q 1625 2713 2034 2713 
Q 2441 2713 2670 2916 
Q 2900 3119 2900 3481 
Q 2900 3844 2670 4047 
Q 2441 4250 2034 4250 
Q 1625 4250 1398 4047 
Q 1172 3844 1172 3481 
z
" transform="scale(0.015625)"/>
       </defs>
       <use xlink:href="#DejaVuSans-38"/>
       <use xlink:href="#DejaVuSans-30" transform="translate(63.623047 0)"/>
      </g>
     </g>
    </g>
    <g id="ytick_3">
     <g id="line2d_17">
      <path d="M 33.852031 81.674467 
L 290.472031 81.674467 
" clip-path="url(#p5907b3f33e)" style="fill: none; stroke: #eeeeee; stroke-width: 0.6; stroke-linecap: square"/>
     </g>
     <g id="line2d_18"/>
     <g id="text_15">
      <!-- 100 -->
      <g style="fill: #999999" transform="translate(17.490781 84.333921) scale(0.07 -0.07)">
       <defs>
        <path id="DejaVuSans-31" d="M 794 531 
L 1825 531 
L 1825 4091 
L 703 3866 
L 703 4441 
L 1819 4666 
L 2450 4666 
L 2450 531 
L 3481 531 
L 3481 0 
L 794 0 
L 794 531 
z
" transform="scale(0.015625)"/>
       </defs>
       <use xlink:href="#DejaVuSans-31"/>
       <use xlink:href="#DejaVuSans-30" transform="translate(63.623047 0)"/>
       <use xlink:href="#DejaVuSans-30" transform="translate(127.246094 0)"/>
      </g>
     </g>
    </g>
    <g id="ytick_4">
     <g id="line2d_19">
      <path d="M 33.852031 48.861698 
L 290.472031 48.861698 
" clip-path="url(#p5907b3f33e)" style="fill: none; stroke: #eeeeee; stroke-width: 0.6; stroke-linecap: square"/>
     </g>
     <g id="line2d_20"/>
     <g id="text_16">
      <!-- 120 -->
      <g style="fill: #999999" transform="translate(17.490781 51.521152) scale(0.07 -0.07)">
       <defs>
        <path id="DejaVuSans-32" d="M 1228 531 
L 3431 531 
L 3431 0 
L 469 0 
L 469 531 
Q 828 903 1448 1529 
Q 2069 2156 2228 2338 
Q 2531 2678 2651 2914 
Q 2772 3150 2772 3378 
Q 2772 3750 2511 3984 
Q 2250 4219 1831 4219 
Q 1534 4219 1204 4116 
Q 875 4013 500 3803 
L 500 4441 
Q 881 4594 1212 4672 
Q 1544 4750 1819 4750 
Q 2544 4750 2975 4387 
Q 3406 4025 3406 3419 
Q 3406 3131 3298 2873 
Q 3191 2616 2906 2266 
Q 2828 2175 2409 1742 
Q 1991 1309 1228 531 
z
" transform="scale(0.015625)"/>
       </defs>
       <use xlink:href="#DejaVuSans-31"/>
       <use xlink:href="#DejaVuSans-32" transform="translate(63.623047 0)"/>
       <use xlink:href="#DejaVuSans-30" transform="translate(127.246094 0)"/>
      </g>
     </g>
    </g>
    <g id="ytick_5">
     <g id="line2d_21">
      <path d="M 33.852031 16.048929 
L 290.472031 16.048929 
" clip-path="url(#p5907b3f33e)" style="fill: none; stroke: #eeeeee; stroke-width: 0.6; stroke-linecap: square"/>
     </g>
     <g id="line2d_22"/>
     <g id="text_17">
      <!-- 140 -->
      <g style="fill: #999999" transform="translate(17.490781 18.708383) scale(0.07 -0.07)">
       <defs>
        <path id="DejaVuSans-34" d="M 2419 4116 
L 825 1625 
L 2419 1625 
L 2419 4116 
z
M 2253 4666 
L 3047 4666 
L 3047 1625 
L 3713 1625 
L 3713 1100 
L 3047 1100 
L 3047 0 
L 2419 0 
L 2419 1100 
L 313 1100 
L 313 1709 
L 2253 4666 
z
" transform="scale(0.015625)"/>
       </defs>
       <use xlink:href="#DejaVuSans-31"/>
       <use xlink:href="#DejaVuSans-34" transform="translate(63.623047 0)"/>
       <use xlink:href="#DejaVuSans-30" transform="translate(127.246094 0)"/>
      </g>
     </g>
    </g>
    <g id="text_18">
     <!-- Electricity demand (MW) -->
     <g style="fill: #aaaaaa" transform="translate(12.138984 133.625352) rotate(-90) scale(0.065 -0.065)">
      <defs>
       <path id="DejaVuSans-45" d="M 628 4666 
L 3578 4666 
L 3578 4134 
L 1259 4134 
L 1259 2753 
L 3481 2753 
L 3481 2222 
L 1259 2222 
L 1259 531 
L 3634 531 
L 3634 0 
L 628 0 
L 628 4666 
z
" transform="scale(0.015625)"/>
       <path id="DejaVuSans-69" d="M 603 3500 
L 1178 3500 
L 1178 0 
L 603 0 
L 603 3500 
z
M 603 4863 
L 1178 4863 
L 1178 4134 
L 603 4134 
L 603 4863 
z
" transform="scale(0.015625)"/>
       <path id="DejaVuSans-20" transform="scale(0.015625)"/>
       <path id="DejaVuSans-64" d="M 2906 2969 
L 2906 4863 
L 3481 4863 
L 3481 0 
L 2906 0 
L 2906 525 
Q 2725 213 2448 61 
Q 2172 -91 1784 -91 
Q 1150 -91 751 415 
Q 353 922 353 1747 
Q 353 2572 751 3078 
Q 1150 3584 1784 3584 
Q 2172 3584 2448 3432 
Q 2725 3281 2906 2969 
z
M 947 1747 
Q 947 1113 1208 752 
Q 1469 391 1925 391 
Q 2381 391 2643 752 
Q 2906 1113 2906 1747 
Q 2906 2381 2643 2742 
Q 2381 3103 1925 3103 
Q 1469 3103 1208 2742 
Q 947 2381 947 1747 
z
" transform="scale(0.015625)"/>
       <path id="DejaVuSans-6d" d="M 3328 2828 
Q 3544 3216 3844 3400 
Q 4144 3584 4550 3584 
Q 5097 3584 5394 3201 
Q 5691 2819 5691 2113 
L 5691 0 
L 5113 0 
L 5113 2094 
Q 5113 2597 4934 2840 
Q 4756 3084 4391 3084 
Q 3944 3084 3684 2787 
Q 3425 2491 3425 1978 
L 3425 0 
L 2847 0 
L 2847 2094 
Q 2847 2600 2669 2842 
Q 2491 3084 2119 3084 
Q 1678 3084 1418 2786 
Q 1159 2488 1159 1978 
L 1159 0 
L 581 0 
L 581 3500 
L 1159 3500 
L 1159 2956 
Q 1356 3278 1631 3431 
Q 1906 3584 2284 3584 
Q 2666 3584 2933 3390 
Q 3200 3197 3328 2828 
z
" transform="scale(0.015625)"/>
       <path id="DejaVuSans-28" d="M 1984 4856 
Q 1566 4138 1362 3434 
Q 1159 2731 1159 2009 
Q 1159 1288 1364 580 
Q 1569 -128 1984 -844 
L 1484 -844 
Q 1016 -109 783 600 
Q 550 1309 550 2009 
Q 550 2706 781 3412 
Q 1013 4119 1484 4856 
L 1984 4856 
z
" transform="scale(0.015625)"/>
       <path id="DejaVuSans-57" d="M 213 4666 
L 850 4666 
L 1831 722 
L 2809 4666 
L 3519 4666 
L 4500 722 
L 5478 4666 
L 6119 4666 
L 4947 0 
L 4153 0 
L 3169 4050 
L 2175 0 
L 1381 0 
L 213 4666 
z
" transform="scale(0.015625)"/>
       <path id="DejaVuSans-29" d="M 513 4856 
L 1013 4856 
Q 1481 4119 1714 3412 
Q 1947 2706 1947 2009 
Q 1947 1309 1714 600 
Q 1481 -109 1013 -844 
L 513 -844 
Q 928 -128 1133 580 
Q 1338 1288 1338 2009 
Q 1338 2731 1133 3434 
Q 928 4138 513 4856 
z
" transform="scale(0.015625)"/>
      </defs>
      <use xlink:href="#DejaVuSans-45"/>
      <use xlink:href="#DejaVuSans-6c" transform="translate(63.183594 0)"/>
      <use xlink:href="#DejaVuSans-65" transform="translate(90.966797 0)"/>
      <use xlink:href="#DejaVuSans-63" transform="translate(152.490234 0)"/>
      <use xlink:href="#DejaVuSans-74" transform="translate(207.470703 0)"/>
      <use xlink:href="#DejaVuSans-72" transform="translate(246.679688 0)"/>
      <use xlink:href="#DejaVuSans-69" transform="translate(287.792969 0)"/>
      <use xlink:href="#DejaVuSans-63" transform="translate(315.576172 0)"/>
      <use xlink:href="#DejaVuSans-69" transform="translate(370.556641 0)"/>
      <use xlink:href="#DejaVuSans-74" transform="translate(398.339844 0)"/>
      <use xlink:href="#DejaVuSans-79" transform="translate(437.548828 0)"/>
      <use xlink:href="#DejaVuSans-20" transform="translate(496.728516 0)"/>
      <use xlink:href="#DejaVuSans-64" transform="translate(528.515625 0)"/>
      <use xlink:href="#DejaVuSans-65" transform="translate(591.992188 0)"/>
      <use xlink:href="#DejaVuSans-6d" transform="translate(653.515625 0)"/>
      <use xlink:href="#DejaVuSans-61" transform="translate(750.927734 0)"/>
      <use xlink:href="#DejaVuSans-6e" transform="translate(812.207031 0)"/>
      <use xlink:href="#DejaVuSans-64" transform="translate(875.585938 0)"/>
      <use xlink:href="#DejaVuSans-20" transform="translate(939.0625 0)"/>
      <use xlink:href="#DejaVuSans-28" transform="translate(970.849609 0)"/>
      <use xlink:href="#DejaVuSans-4d" transform="translate(1009.863281 0)"/>
      <use xlink:href="#DejaVuSans-57" transform="translate(1096.142578 0)"/>
      <use xlink:href="#DejaVuSans-29" transform="translate(1195.019531 0)"/>
     </g>
    </g>
   </g>
   <g id="line2d_23">
    <path d="M 33.852031 87.712646 
L 34.557031 89.490441 
L 35.262031 92.988423 
L 35.967031 97.050793 
L 37.377031 106.981001 
L 38.082031 111.076234 
L 38.787031 113.529464 
L 39.492031 115.316375 
L 40.902031 116.293757 
L 41.607031 114.006682 
L 42.312031 112.286489 
L 43.017031 113.576634 
L 43.722031 118.610154 
L 45.132031 122.89109 
L 45.837031 121.991898 
L 46.542031 122.76403 
L 47.247031 125.7255 
L 47.952031 126.145774 
L 48.657031 123.340686 
L 49.362031 121.122028 
L 50.067031 117.329783 
L 50.772031 116.381722 
L 51.477031 113.69392 
L 52.182031 111.836893 
L 52.887031 109.657329 
L 53.592031 109.290787 
L 54.297031 107.043676 
L 55.707031 103.408839 
L 56.412031 102.672533 
L 57.117031 103.05408 
L 57.822031 105.399952 
L 58.527031 106.213105 
L 59.232031 111.409353 
L 59.937031 119.907797 
L 61.347031 134.088397 
L 62.052031 137.628589 
L 62.757031 139.998634 
L 63.462031 144.143732 
L 64.167031 143.925569 
L 64.872031 140.841536 
L 65.577031 137.003849 
L 66.282031 134.227228 
L 66.987031 133.830568 
L 67.692031 135.962617 
L 69.102031 129.903633 
L 69.807031 124.330558 
L 71.922031 114.195891 
L 72.627031 109.822713 
L 73.332031 110.285009 
L 74.037031 114.889153 
L 75.447031 130.75257 
L 76.152031 135.129986 
L 76.857031 137.104282 
L 77.562031 137.064541 
L 78.267031 134.823424 
L 78.972031 133.325951 
L 79.677031 131.522871 
L 80.382031 125.604286 
L 81.087031 124.504102 
L 81.792031 126.388677 
L 82.497031 129.668857 
L 83.202031 133.713053 
L 83.907031 137.095101 
L 84.612031 139.478834 
L 85.317031 144.592654 
L 86.022031 147.699657 
L 86.727031 149.716661 
L 87.432031 149.411055 
L 88.137031 150.725164 
L 89.547031 151.835535 
L 90.252031 153.333008 
L 91.662031 154.779547 
L 92.367031 157.16328 
L 93.072031 157.234588 
L 93.777031 157.682812 
L 94.482031 158.385707 
L 95.892031 160.624198 
L 96.597031 161.546688 
L 97.302031 161.800477 
L 98.007031 162.811113 
L 99.417031 162.881643 
L 100.122031 162.387757 
L 100.827031 161.564613 
L 101.532031 161.303144 
L 102.237031 161.448405 
L 102.942031 160.702734 
L 103.647031 158.949922 
L 104.352031 158.572244 
L 105.057031 159.385704 
L 105.762031 160.615577 
L 106.467031 161.157884 
L 107.172031 161.070727 
L 107.877031 161.264408 
L 108.582031 163.181849 
L 109.287031 164.063096 
L 109.992031 163.656367 
L 110.697031 163.414266 
L 112.107031 163.588578 
L 112.812031 164.082464 
L 113.517031 164.02436 
L 114.222031 163.772575 
L 114.927031 163.917836 
L 115.632031 163.530474 
L 116.337031 162.679519 
L 117.042031 162.45675 
L 118.452031 162.464021 
L 119.157031 161.692489 
L 119.862031 159.773984 
L 120.567031 157.299586 
L 121.272031 157.143507 
L 121.977031 157.836111 
L 122.682031 158.28484 
L 123.387031 158.987199 
L 124.092031 159.952943 
L 125.502031 163.737879 
L 126.207031 162.46973 
L 126.912031 159.192054 
L 129.027031 147.372825 
L 129.732031 144.465839 
L 130.437031 144.875548 
L 132.552031 147.749453 
L 133.257031 147.476313 
L 133.962031 146.452039 
L 134.667031 144.120597 
L 135.372031 140.930716 
L 136.077031 139.486977 
L 136.782031 140.667331 
L 138.192031 143.950742 
L 138.897031 146.666284 
L 139.602031 147.939779 
L 140.307031 148.090669 
L 141.012031 147.212603 
L 141.717031 143.323239 
L 143.127031 137.088778 
L 143.832031 135.11385 
L 144.537031 134.012447 
L 145.242031 131.135509 
L 145.947031 128.970684 
L 146.652031 130.4139 
L 147.357031 133.357303 
L 148.062031 135.265767 
L 148.767031 134.724561 
L 149.472031 133.338313 
L 150.177031 137.212211 
L 150.882031 141.836201 
L 151.587031 143.725676 
L 152.292031 141.769737 
L 152.997031 140.582882 
L 153.702031 143.193965 
L 154.407031 144.447284 
L 155.112031 141.228531 
L 155.817031 135.522128 
L 157.227031 122.390755 
L 158.637031 110.493711 
L 159.342031 106.867464 
L 160.047031 103.911738 
L 160.752031 103.252989 
L 161.457031 106.077502 
L 162.162031 109.787465 
L 162.867031 112.594376 
L 163.572031 114.234033 
L 164.277031 115.061168 
L 164.982031 115.464648 
L 165.687031 114.082728 
L 166.392031 109.311575 
L 167.802031 98.104913 
L 168.507031 92.950454 
L 169.212031 89.530959 
L 169.917031 84.971633 
L 170.622031 82.651622 
L 172.032031 81.400833 
L 172.737031 81.71353 
L 173.442031 81.895097 
L 174.147031 81.199093 
L 174.852031 83.135798 
L 175.557031 84.689197 
L 176.262031 85.617201 
L 176.967031 91.760187 
L 177.672031 95.240204 
L 178.377031 97.963695 
L 179.082031 99.244744 
L 179.787031 100.949448 
L 180.492031 101.352928 
L 181.197031 107.178621 
L 181.902031 105.792983 
L 182.607031 105.437905 
L 183.312031 106.260838 
L 184.017031 112.663973 
L 184.722031 116.298599 
L 185.427031 117.875447 
L 186.132031 113.549295 
L 186.837031 112.072534 
L 187.542031 113.322101 
L 188.247031 113.464097 
L 188.952031 108.49423 
L 189.657031 105.966697 
L 190.362031 106.269622 
L 191.067031 105.900432 
L 191.772031 107.377193 
L 192.477031 105.408178 
L 193.182031 103.808354 
L 193.887031 104.291141 
L 194.592031 103.619026 
L 195.297031 101.176691 
L 196.002031 101.261889 
L 196.707031 99.974456 
L 197.412031 99.046748 
L 198.117031 100.892699 
L 198.822031 102.255862 
L 199.527031 103.145705 
L 200.232031 104.840194 
L 200.937031 105.076854 
L 201.642031 104.546735 
L 202.347031 105.370313 
L 203.052031 105.260177 
L 204.462031 104.562178 
L 205.872031 106.051904 
L 206.577031 107.935459 
L 207.282031 108.580135 
L 207.987031 108.734525 
L 208.692031 109.798099 
L 209.397031 113.151789 
L 210.102031 117.689133 
L 211.512031 128.496419 
L 212.922031 143.223489 
L 213.627031 149.030261 
L 214.332031 152.829965 
L 215.742031 156.749751 
L 216.447031 157.67609 
L 217.152031 158.130682 
L 217.857031 159.082752 
L 218.562031 160.506569 
L 219.267031 160.772463 
L 220.677031 157.556009 
L 221.382031 156.312313 
L 222.087031 154.219474 
L 223.497031 148.095345 
L 224.202031 145.356052 
L 224.907031 143.996349 
L 226.317031 140.348389 
L 227.022031 139.755129 
L 227.727031 139.586343 
L 228.432031 138.575483 
L 229.137031 138.875547 
L 229.842031 139.785741 
L 231.252031 143.326495 
L 231.957031 144.936838 
L 233.367031 147.71743 
L 234.777031 150.968123 
L 236.187031 152.45844 
L 236.892031 152.788511 
L 239.007031 155.129009 
L 239.712031 156.549312 
L 240.417031 157.159442 
L 241.122031 157.349482 
L 242.532031 158.119646 
L 243.237031 157.579531 
L 243.942031 157.19945 
L 244.647031 156.159229 
L 245.352031 156.06921 
L 246.057031 158.205195 
L 246.762031 159.561404 
L 247.467031 158.780587 
L 248.172031 157.505627 
L 248.877031 156.709235 
L 249.582031 156.494749 
L 250.287031 157.383561 
L 250.992031 155.598336 
L 251.697031 153.433867 
L 252.402031 152.286883 
L 253.107031 151.685641 
L 253.812031 149.280675 
L 254.517031 146.385466 
L 255.927031 138.458328 
L 257.337031 133.056405 
L 258.042031 131.391428 
L 258.747031 130.466441 
L 260.157031 125.351263 
L 260.862031 123.871284 
L 261.567031 122.909298 
L 262.272031 125.545511 
L 262.977031 126.498247 
L 263.682031 126.220751 
L 264.387031 127.783979 
L 265.092031 129.83745 
L 265.797031 131.206431 
L 266.502031 130.817936 
L 267.207031 126.753071 
L 267.912031 126.709507 
L 269.322031 130.677181 
L 270.027031 132.088196 
L 272.142031 129.694496 
L 272.847031 126.275713 
L 273.552031 122.136161 
L 274.257031 119.496588 
L 274.962031 112.357078 
L 275.667031 107.983763 
L 276.372031 104.477319 
L 277.077031 102.646177 
L 277.782031 99.685179 
L 278.487031 95.954713 
L 279.192031 90.617126 
L 279.897031 89.555452 
L 280.602031 90.363882 
L 281.307031 91.454776 
L 282.012031 93.061896 
L 283.422031 102.071509 
L 284.127031 107.623379 
L 284.832031 114.373284 
L 286.242031 125.769227 
L 286.947031 127.775692 
L 287.652031 126.324414 
L 288.357031 127.999715 
L 289.062031 128.058155 
L 289.767031 127.253621 
L 290.472031 124.938881 
L 290.472031 124.938881 
" clip-path="url(#p5907b3f33e)" style="fill: none; stroke: #2166ac; stroke-opacity: 0.9; stroke-width: 1.5; stroke-linecap: round"/>
   </g>
   <g id="line2d_24">
    <path d="M 33.852031 99.574048 
L 34.557031 100.140643 
L 35.262031 98.835758 
L 35.967031 96.834281 
L 38.082031 78.173447 
L 38.787031 75.858013 
L 39.492031 69.372834 
L 40.197031 66.39024 
L 40.902031 66.81212 
L 41.607031 72.679196 
L 42.312031 74.219549 
L 43.017031 80.174925 
L 43.722031 82.166591 
L 45.132031 97.521062 
L 45.837031 102.622867 
L 46.542031 104.4968 
L 47.247031 110.373687 
L 48.657031 114.749466 
L 49.362031 112.963834 
L 50.067031 110.226519 
L 50.772031 109.853695 
L 51.477031 110.48161 
L 52.182031 110.628777 
L 52.887031 112.561576 
L 53.592031 110.914462 
L 54.297031 113.032424 
L 55.002031 113.158783 
L 55.707031 106.333881 
L 56.412031 97.83308 
L 57.822031 87.299737 
L 58.527031 90.038831 
L 59.232031 91.208551 
L 59.937031 91.393757 
L 60.642031 96.033646 
L 61.347031 103.792789 
L 62.052031 108.900566 
L 63.462031 112.575437 
L 64.167031 113.433231 
L 64.872031 115.441251 
L 66.987031 126.631572 
L 67.692031 126.816778 
L 69.807031 125.647058 
L 70.512031 124.574815 
L 71.217031 125.452105 
L 71.922031 123.356356 
L 72.627031 124.292132 
L 74.037031 126.736806 
L 74.742031 128.638083 
L 75.447031 127.460012 
L 76.152031 123.23044 
L 76.857031 122.130954 
L 77.562031 123.032362 
L 78.267031 123.515705 
L 78.972031 121.755699 
L 79.677031 118.978802 
L 80.382031 120.083694 
L 81.087031 121.912144 
L 81.792031 124.112151 
L 82.497031 123.310371 
L 83.202031 120.50414 
L 83.907031 121.814366 
L 84.612031 122.313035 
L 85.317031 121.814366 
L 86.727031 121.824144 
L 87.432031 124.014373 
L 88.137031 128.766388 
L 88.842031 130.40906 
L 89.547031 134.545073 
L 90.252031 134.965519 
L 90.957031 135.71841 
L 91.662031 135.307742 
L 92.367031 133.880182 
L 93.072031 133.479292 
L 93.777031 133.596626 
L 94.482031 132.882846 
L 95.187031 130.976173 
L 95.892031 130.698008 
L 96.597031 131.35304 
L 97.302031 134.268447 
L 98.007031 135.228552 
L 98.712031 134.002592 
L 99.417031 129.758144 
L 100.122031 132.544343 
L 100.827031 134.435251 
L 101.532031 133.663452 
L 102.237031 132.380336 
L 102.942031 131.733955 
L 103.647031 132.274214 
L 104.352031 136.191094 
L 105.057031 137.570684 
L 105.762031 136.326158 
L 106.467031 136.692763 
L 107.172031 138.004821 
L 107.877031 138.390721 
L 108.582031 139.818549 
L 109.287031 139.509829 
L 109.992031 139.548419 
L 110.697031 136.93395 
L 111.402031 135.708719 
L 112.107031 130.827091 
L 112.812031 129.042306 
L 113.517031 129.129133 
L 114.222031 129.399263 
L 114.927031 127.575887 
L 116.337031 130.933213 
L 117.747031 134.574422 
L 118.452031 132.975722 
L 119.157031 129.364164 
L 119.862031 128.954732 
L 120.567031 127.87706 
L 121.272031 129.557587 
L 121.977031 130.92234 
L 122.682031 131.04016 
L 123.387031 130.883066 
L 124.092031 131.364166 
L 124.797031 132.591462 
L 125.502031 130.941977 
L 126.207031 124.020029 
L 126.912031 118.610109 
L 127.617031 111.000875 
L 128.322031 106.975345 
L 129.027031 107.800088 
L 129.732031 107.750996 
L 130.437031 106.396062 
L 131.142031 107.593902 
L 132.552031 112.021985 
L 133.257031 115.595871 
L 133.962031 116.489342 
L 134.667031 116.793711 
L 135.372031 119.130482 
L 136.077031 117.117717 
L 137.487031 114.466758 
L 138.897031 103.955978 
L 139.602031 97.888708 
L 140.307031 94.982532 
L 141.012031 94.890437 
L 141.717031 90.736306 
L 142.422031 87.884904 
L 143.127031 82.406135 
L 143.832031 77.947354 
L 145.242031 75.009253 
L 145.947031 74.352169 
L 146.652031 74.089336 
L 147.357031 73.535508 
L 148.062031 76.135681 
L 148.767031 77.26211 
L 149.472031 77.252723 
L 150.177031 76.389128 
L 150.882031 78.078771 
L 151.587031 82.171462 
L 152.292031 84.508802 
L 152.997031 84.978148 
L 153.702031 85.963773 
L 154.407031 82.622034 
L 155.112031 78.435474 
L 155.817031 72.587431 
L 156.522031 63.106655 
L 157.227031 57.746731 
L 157.932031 58.159755 
L 158.637031 57.136582 
L 159.342031 59.276797 
L 160.047031 60.954792 
L 160.752031 61.768689 
L 161.457031 65.771808 
L 162.162031 65.669861 
L 162.867031 61.466151 
L 164.277031 56.165828 
L 164.982031 53.180212 
L 165.687031 49.525893 
L 166.392031 46.606206 
L 167.097031 44.769628 
L 168.507031 39.759068 
L 170.622031 46.898174 
L 172.032031 49.836699 
L 173.442031 53.745313 
L 174.147031 49.789607 
L 174.852031 45.061597 
L 175.557031 43.630008 
L 176.967031 39.777904 
L 177.672031 40.295913 
L 178.377031 43.074326 
L 179.787031 55.789094 
L 180.492031 60.168625 
L 181.197031 65.659521 
L 181.902031 70.099373 
L 182.607031 72.537471 
L 183.312031 68.531533 
L 184.017031 62.113789 
L 184.722031 57.077477 
L 187.542031 28.501618 
L 188.247031 26.918347 
L 188.952031 23.572568 
L 189.657031 22.955192 
L 190.362031 25.255415 
L 191.772031 35.521781 
L 192.477031 41.665668 
L 193.182031 44.364199 
L 193.887031 49.173757 
L 194.592031 51.065716 
L 195.297031 52.390087 
L 196.002031 52.320383 
L 196.707031 51.852372 
L 197.412031 54.202384 
L 199.527031 72.843156 
L 200.232031 76.517539 
L 200.937031 78.817763 
L 201.642031 79.90315 
L 202.347031 77.154831 
L 203.052031 73.012437 
L 203.757031 67.930729 
L 204.462031 64.790679 
L 205.167031 62.226692 
L 205.872031 60.776859 
L 206.577031 60.308226 
L 207.282031 61.576479 
L 207.987031 64.968035 
L 208.692031 65.167466 
L 209.397031 64.274773 
L 210.102031 65.480858 
L 210.807031 67.522655 
L 211.512031 70.70406 
L 212.217031 74.512249 
L 212.922031 75.851289 
L 213.627031 79.50753 
L 214.332031 84.816203 
L 215.037031 92.119189 
L 215.742031 97.019502 
L 216.447031 100.580776 
L 217.857031 109.640658 
L 218.562031 112.138298 
L 219.267031 113.942677 
L 219.972031 109.95405 
L 220.677031 108.054704 
L 221.382031 105.652031 
L 222.792031 95.557006 
L 224.202031 89.526581 
L 224.907031 88.911973 
L 225.612031 87.714328 
L 226.317031 87.496042 
L 227.022031 87.906308 
L 227.727031 87.595338 
L 228.432031 88.166061 
L 229.137031 89.122365 
L 229.842031 88.518567 
L 230.547031 89.243125 
L 231.252031 92.113488 
L 231.957031 93.265349 
L 233.367031 101.031122 
L 234.072031 103.121192 
L 234.777031 107.858686 
L 235.482031 109.911599 
L 236.187031 110.153118 
L 236.892031 112.559022 
L 237.597031 113.153531 
L 239.007031 115.800953 
L 239.712031 116.497644 
L 240.417031 118.922125 
L 241.122031 120.02754 
L 241.827031 119.618815 
L 242.532031 120.482711 
L 243.237031 120.947171 
L 243.942031 120.826412 
L 244.647031 121.049353 
L 246.057031 119.33085 
L 246.762031 124.515473 
L 247.467031 124.49091 
L 248.172031 120.243741 
L 248.877031 119.028467 
L 250.287031 114.258012 
L 250.992031 114.608781 
L 251.697031 105.308502 
L 252.402031 104.23176 
L 253.107031 104.316766 
L 253.812031 104.156199 
L 254.517031 105.10071 
L 255.927031 101.180992 
L 256.632031 102.465526 
L 257.337031 102.352184 
L 258.042031 100.113695 
L 258.747031 96.779573 
L 259.452031 92.46316 
L 260.157031 90.319122 
L 261.567031 84.718175 
L 262.272031 85.001528 
L 262.977031 90.319122 
L 263.682031 93.681579 
L 264.387031 100.907084 
L 265.092031 106.829164 
L 265.797031 106.177452 
L 266.502031 106.338018 
L 267.207031 105.006259 
L 267.912031 97.965927 
L 268.617031 93.744242 
L 269.322031 86.970043 
L 270.027031 82.080359 
L 270.732031 81.946033 
L 271.437031 81.25061 
L 272.142031 79.521597 
L 272.847031 80.055797 
L 273.552031 78.211296 
L 274.962031 69.019031 
L 275.667031 66.428667 
L 276.372031 62.255863 
L 277.077031 59.141378 
L 278.487031 58.032662 
L 279.192031 60.915324 
L 279.897031 61.751901 
L 280.602031 63.556084 
L 281.307031 68.384039 
L 282.012031 70.712343 
L 282.717031 71.175988 
L 283.422031 76.719569 
L 284.127031 84.228602 
L 284.832031 88.905368 
L 285.537031 89.772182 
L 286.242031 86.75849 
L 286.947031 86.738332 
L 287.652031 88.240138 
L 288.357031 86.617381 
L 289.062031 80.126352 
L 289.767031 78.265052 
L 290.472031 79.172856 
L 291.177031 82.545369 
L 291.177031 82.545369 
" clip-path="url(#p5907b3f33e)" style="fill: none; stroke: #d6604d; stroke-opacity: 0.9; stroke-width: 1.5; stroke-linecap: round"/>
   </g>
   <g id="patch_3">
    <path d="M 33.852031 171.138828 
L 33.852031 15.898828 
" style="fill: none; stroke: #dddddd; stroke-width: 0.8; stroke-linejoin: miter; stroke-linecap: square"/>
   </g>
   <g id="patch_4">
    <path d="M 33.852031 171.138828 
L 290.472031 171.138828 
" style="fill: none; stroke: #dddddd; stroke-width: 0.8; stroke-linejoin: miter; stroke-linecap: square"/>
   </g>
   <g id="text_19">
    <!-- CISO-VEA +31.4%  ·  CAISO Valley Electric -->
    <g style="fill: #222222" transform="translate(33.852031 12.898828) scale(0.075 -0.075)">
     <defs>
      <path id="DejaVuSans-Bold-43" d="M 4288 256 
Q 3956 84 3597 -3 
Q 3238 -91 2847 -91 
Q 1681 -91 1000 561 
Q 319 1213 319 2328 
Q 319 3447 1000 4098 
Q 1681 4750 2847 4750 
Q 3238 4750 3597 4662 
Q 3956 4575 4288 4403 
L 4288 3438 
Q 3953 3666 3628 3772 
Q 3303 3878 2944 3878 
Q 2300 3878 1931 3465 
Q 1563 3053 1563 2328 
Q 1563 1606 1931 1193 
Q 2300 781 2944 781 
Q 3303 781 3628 887 
Q 3953 994 4288 1222 
L 4288 256 
z
" transform="scale(0.015625)"/>
      <path id="DejaVuSans-Bold-49" d="M 588 4666 
L 1791 4666 
L 1791 0 
L 588 0 
L 588 4666 
z
" transform="scale(0.015625)"/>
      <path id="DejaVuSans-Bold-53" d="M 3834 4519 
L 3834 3531 
Q 3450 3703 3084 3790 
Q 2719 3878 2394 3878 
Q 1963 3878 1756 3759 
Q 1550 3641 1550 3391 
Q 1550 3203 1689 3098 
Q 1828 2994 2194 2919 
L 2706 2816 
Q 3484 2659 3812 2340 
Q 4141 2022 4141 1434 
Q 4141 663 3683 286 
Q 3225 -91 2284 -91 
Q 1841 -91 1394 -6 
Q 947 78 500 244 
L 500 1259 
Q 947 1022 1364 901 
Q 1781 781 2169 781 
Q 2563 781 2772 912 
Q 2981 1044 2981 1288 
Q 2981 1506 2839 1625 
Q 2697 1744 2272 1838 
L 1806 1941 
Q 1106 2091 782 2419 
Q 459 2747 459 3303 
Q 459 4000 909 4375 
Q 1359 4750 2203 4750 
Q 2588 4750 2994 4692 
Q 3400 4634 3834 4519 
z
" transform="scale(0.015625)"/>
      <path id="DejaVuSans-Bold-4f" d="M 2719 3878 
Q 2169 3878 1866 3472 
Q 1563 3066 1563 2328 
Q 1563 1594 1866 1187 
Q 2169 781 2719 781 
Q 3272 781 3575 1187 
Q 3878 1594 3878 2328 
Q 3878 3066 3575 3472 
Q 3272 3878 2719 3878 
z
M 2719 4750 
Q 3844 4750 4481 4106 
Q 5119 3463 5119 2328 
Q 5119 1197 4481 553 
Q 3844 -91 2719 -91 
Q 1597 -91 958 553 
Q 319 1197 319 2328 
Q 319 3463 958 4106 
Q 1597 4750 2719 4750 
z
" transform="scale(0.015625)"/>
      <path id="DejaVuSans-Bold-2d" d="M 347 2297 
L 2309 2297 
L 2309 1388 
L 347 1388 
L 347 2297 
z
" transform="scale(0.015625)"/>
      <path id="DejaVuSans-Bold-56" d="M 31 4666 
L 1241 4666 
L 2478 1222 
L 3713 4666 
L 4922 4666 
L 3194 0 
L 1759 0 
L 31 4666 
z
" transform="scale(0.015625)"/>
      <path id="DejaVuSans-Bold-45" d="M 588 4666 
L 3834 4666 
L 3834 3756 
L 1791 3756 
L 1791 2888 
L 3713 2888 
L 3713 1978 
L 1791 1978 
L 1791 909 
L 3903 909 
L 3903 0 
L 588 0 
L 588 4666 
z
" transform="scale(0.015625)"/>
      <path id="DejaVuSans-Bold-41" d="M 3419 850 
L 1538 850 
L 1241 0 
L 31 0 
L 1759 4666 
L 3194 4666 
L 4922 0 
L 3713 0 
L 3419 850 
z
M 1838 1716 
L 3116 1716 
L 2478 3572 
L 1838 1716 
z
" transform="scale(0.015625)"/>
      <path id="DejaVuSans-Bold-20" transform="scale(0.015625)"/>
      <path id="DejaVuSans-Bold-2b" d="M 3053 4013 
L 3053 2375 
L 4684 2375 
L 4684 1638 
L 3053 1638 
L 3053 0 
L 2309 0 
L 2309 1638 
L 678 1638 
L 678 2375 
L 2309 2375 
L 2309 4013 
L 3053 4013 
z
" transform="scale(0.015625)"/>
      <path id="DejaVuSans-Bold-33" d="M 2981 2516 
Q 3453 2394 3698 2092 
Q 3944 1791 3944 1325 
Q 3944 631 3412 270 
Q 2881 -91 1863 -91 
Q 1503 -91 1142 -33 
Q 781 25 428 141 
L 428 1069 
Q 766 900 1098 814 
Q 1431 728 1753 728 
Q 2231 728 2486 893 
Q 2741 1059 2741 1369 
Q 2741 1688 2480 1852 
Q 2219 2016 1709 2016 
L 1228 2016 
L 1228 2791 
L 1734 2791 
Q 2188 2791 2409 2933 
Q 2631 3075 2631 3366 
Q 2631 3634 2415 3781 
Q 2200 3928 1806 3928 
Q 1516 3928 1219 3862 
Q 922 3797 628 3669 
L 628 4550 
Q 984 4650 1334 4700 
Q 1684 4750 2022 4750 
Q 2931 4750 3382 4451 
Q 3834 4153 3834 3553 
Q 3834 3144 3618 2883 
Q 3403 2622 2981 2516 
z
" transform="scale(0.015625)"/>
      <path id="DejaVuSans-Bold-31" d="M 750 831 
L 1813 831 
L 1813 3847 
L 722 3622 
L 722 4441 
L 1806 4666 
L 2950 4666 
L 2950 831 
L 4013 831 
L 4013 0 
L 750 0 
L 750 831 
z
" transform="scale(0.015625)"/>
      <path id="DejaVuSans-Bold-2e" d="M 653 1209 
L 1778 1209 
L 1778 0 
L 653 0 
L 653 1209 
z
" transform="scale(0.015625)"/>
      <path id="DejaVuSans-Bold-34" d="M 2356 3675 
L 1038 1722 
L 2356 1722 
L 2356 3675 
z
M 2156 4666 
L 3494 4666 
L 3494 1722 
L 4159 1722 
L 4159 850 
L 3494 850 
L 3494 0 
L 2356 0 
L 2356 850 
L 288 850 
L 288 1881 
L 2156 4666 
z
" transform="scale(0.015625)"/>
      <path id="DejaVuSans-Bold-25" d="M 4959 1925 
Q 4738 1925 4616 1733 
Q 4494 1541 4494 1184 
Q 4494 825 4614 633 
Q 4734 441 4959 441 
Q 5184 441 5303 633 
Q 5422 825 5422 1184 
Q 5422 1541 5301 1733 
Q 5181 1925 4959 1925 
z
M 4959 2450 
Q 5541 2450 5875 2112 
Q 6209 1775 6209 1184 
Q 6209 594 5875 251 
Q 5541 -91 4959 -91 
Q 4378 -91 4042 251 
Q 3706 594 3706 1184 
Q 3706 1772 4042 2111 
Q 4378 2450 4959 2450 
z
M 2094 -91 
L 1403 -91 
L 4319 4750 
L 5013 4750 
L 2094 -91 
z
M 1453 4750 
Q 2034 4750 2367 4411 
Q 2700 4072 2700 3481 
Q 2700 2891 2367 2550 
Q 2034 2209 1453 2209 
Q 872 2209 539 2550 
Q 206 2891 206 3481 
Q 206 4072 539 4411 
Q 872 4750 1453 4750 
z
M 1453 4225 
Q 1228 4225 1106 4031 
Q 984 3838 984 3481 
Q 984 3122 1106 2926 
Q 1228 2731 1453 2731 
Q 1678 2731 1798 2926 
Q 1919 3122 1919 3481 
Q 1919 3838 1797 4031 
Q 1675 4225 1453 4225 
z
" transform="scale(0.015625)"/>
      <path id="DejaVuSans-Bold-b7" d="M 653 2828 
L 1778 2828 
L 1778 1619 
L 653 1619 
L 653 2828 
z
" transform="scale(0.015625)"/>
      <path id="DejaVuSans-Bold-61" d="M 2106 1575 
Q 1756 1575 1579 1456 
Q 1403 1338 1403 1106 
Q 1403 894 1545 773 
Q 1688 653 1941 653 
Q 2256 653 2472 879 
Q 2688 1106 2688 1447 
L 2688 1575 
L 2106 1575 
z
M 3816 1997 
L 3816 0 
L 2688 0 
L 2688 519 
Q 2463 200 2181 54 
Q 1900 -91 1497 -91 
Q 953 -91 614 226 
Q 275 544 275 1050 
Q 275 1666 698 1953 
Q 1122 2241 2028 2241 
L 2688 2241 
L 2688 2328 
Q 2688 2594 2478 2717 
Q 2269 2841 1825 2841 
Q 1466 2841 1156 2769 
Q 847 2697 581 2553 
L 581 3406 
Q 941 3494 1303 3539 
Q 1666 3584 2028 3584 
Q 2975 3584 3395 3211 
Q 3816 2838 3816 1997 
z
" transform="scale(0.015625)"/>
      <path id="DejaVuSans-Bold-6c" d="M 538 4863 
L 1656 4863 
L 1656 0 
L 538 0 
L 538 4863 
z
" transform="scale(0.015625)"/>
      <path id="DejaVuSans-Bold-65" d="M 4031 1759 
L 4031 1441 
L 1416 1441 
Q 1456 1047 1700 850 
Q 1944 653 2381 653 
Q 2734 653 3104 758 
Q 3475 863 3866 1075 
L 3866 213 
Q 3469 63 3072 -14 
Q 2675 -91 2278 -91 
Q 1328 -91 801 392 
Q 275 875 275 1747 
Q 275 2603 792 3093 
Q 1309 3584 2216 3584 
Q 3041 3584 3536 3087 
Q 4031 2591 4031 1759 
z
M 2881 2131 
Q 2881 2450 2695 2645 
Q 2509 2841 2209 2841 
Q 1884 2841 1681 2658 
Q 1478 2475 1428 2131 
L 2881 2131 
z
" transform="scale(0.015625)"/>
      <path id="DejaVuSans-Bold-79" d="M 78 3500 
L 1197 3500 
L 2138 1125 
L 2938 3500 
L 4056 3500 
L 2584 -331 
Q 2363 -916 2067 -1148 
Q 1772 -1381 1288 -1381 
L 641 -1381 
L 641 -647 
L 991 -647 
Q 1275 -647 1404 -556 
Q 1534 -466 1606 -231 
L 1638 -134 
L 78 3500 
z
" transform="scale(0.015625)"/>
      <path id="DejaVuSans-Bold-63" d="M 3366 3391 
L 3366 2478 
Q 3138 2634 2908 2709 
Q 2678 2784 2431 2784 
Q 1963 2784 1702 2511 
Q 1441 2238 1441 1747 
Q 1441 1256 1702 982 
Q 1963 709 2431 709 
Q 2694 709 2930 787 
Q 3166 866 3366 1019 
L 3366 103 
Q 3103 6 2833 -42 
Q 2563 -91 2291 -91 
Q 1344 -91 809 395 
Q 275 881 275 1747 
Q 275 2613 809 3098 
Q 1344 3584 2291 3584 
Q 2566 3584 2833 3536 
Q 3100 3488 3366 3391 
z
" transform="scale(0.015625)"/>
      <path id="DejaVuSans-Bold-74" d="M 1759 4494 
L 1759 3500 
L 2913 3500 
L 2913 2700 
L 1759 2700 
L 1759 1216 
Q 1759 972 1856 886 
Q 1953 800 2241 800 
L 2816 800 
L 2816 0 
L 1856 0 
Q 1194 0 917 276 
Q 641 553 641 1216 
L 641 2700 
L 84 2700 
L 84 3500 
L 641 3500 
L 641 4494 
L 1759 4494 
z
" transform="scale(0.015625)"/>
      <path id="DejaVuSans-Bold-72" d="M 3138 2547 
Q 2991 2616 2845 2648 
Q 2700 2681 2553 2681 
Q 2122 2681 1889 2404 
Q 1656 2128 1656 1613 
L 1656 0 
L 538 0 
L 538 3500 
L 1656 3500 
L 1656 2925 
Q 1872 3269 2151 3426 
Q 2431 3584 2822 3584 
Q 2878 3584 2943 3579 
Q 3009 3575 3134 3559 
L 3138 2547 
z
" transform="scale(0.015625)"/>
      <path id="DejaVuSans-Bold-69" d="M 538 3500 
L 1656 3500 
L 1656 0 
L 538 0 
L 538 3500 
z
M 538 4863 
L 1656 4863 
L 1656 3950 
L 538 3950 
L 538 4863 
z
" transform="scale(0.015625)"/>
     </defs>
     <use xlink:href="#DejaVuSans-Bold-43"/>
     <use xlink:href="#DejaVuSans-Bold-49" transform="translate(73.388672 0)"/>
     <use xlink:href="#DejaVuSans-Bold-53" transform="translate(110.595703 0)"/>
     <use xlink:href="#DejaVuSans-Bold-4f" transform="translate(182.617188 0)"/>
     <use xlink:href="#DejaVuSans-Bold-2d" transform="translate(269.501953 0)"/>
     <use xlink:href="#DejaVuSans-Bold-56" transform="translate(303.755859 0)"/>
     <use xlink:href="#DejaVuSans-Bold-45" transform="translate(381.148438 0)"/>
     <use xlink:href="#DejaVuSans-Bold-41" transform="translate(449.458984 0)"/>
     <use xlink:href="#DejaVuSans-Bold-20" transform="translate(526.851562 0)"/>
     <use xlink:href="#DejaVuSans-Bold-2b" transform="translate(561.666016 0)"/>
     <use xlink:href="#DejaVuSans-Bold-33" transform="translate(645.455078 0)"/>
     <use xlink:href="#DejaVuSans-Bold-31" transform="translate(715.035156 0)"/>
     <use xlink:href="#DejaVuSans-Bold-2e" transform="translate(784.615234 0)"/>
     <use xlink:href="#DejaVuSans-Bold-34" transform="translate(822.603516 0)"/>
     <use xlink:href="#DejaVuSans-Bold-25" transform="translate(892.183594 0)"/>
     <use xlink:href="#DejaVuSans-Bold-20" transform="translate(992.378906 0)"/>
     <use xlink:href="#DejaVuSans-Bold-20" transform="translate(1027.193359 0)"/>
     <use xlink:href="#DejaVuSans-Bold-b7" transform="translate(1062.007812 0)"/>
     <use xlink:href="#DejaVuSans-Bold-20" transform="translate(1099.996094 0)"/>
     <use xlink:href="#DejaVuSans-Bold-20" transform="translate(1134.810547 0)"/>
     <use xlink:href="#DejaVuSans-Bold-43" transform="translate(1169.625 0)"/>
     <use xlink:href="#DejaVuSans-Bold-41" transform="translate(1243.013672 0)"/>
     <use xlink:href="#DejaVuSans-Bold-49" transform="translate(1320.40625 0)"/>
     <use xlink:href="#DejaVuSans-Bold-53" transform="translate(1357.613281 0)"/>
     <use xlink:href="#DejaVuSans-Bold-4f" transform="translate(1429.634766 0)"/>
     <use xlink:href="#DejaVuSans-Bold-20" transform="translate(1514.644531 0)"/>
     <use xlink:href="#DejaVuSans-Bold-56" transform="translate(1549.458984 0)"/>
     <use xlink:href="#DejaVuSans-Bold-61" transform="translate(1621.351562 0)"/>
     <use xlink:href="#DejaVuSans-Bold-6c" transform="translate(1688.832031 0)"/>
     <use xlink:href="#DejaVuSans-Bold-6c" transform="translate(1723.109375 0)"/>
     <use xlink:href="#DejaVuSans-Bold-65" transform="translate(1757.386719 0)"/>
     <use xlink:href="#DejaVuSans-Bold-79" transform="translate(1825.208984 0)"/>
     <use xlink:href="#DejaVuSans-Bold-20" transform="translate(1890.394531 0)"/>
     <use xlink:href="#DejaVuSans-Bold-45" transform="translate(1925.208984 0)"/>
     <use xlink:href="#DejaVuSans-Bold-6c" transform="translate(1993.519531 0)"/>
     <use xlink:href="#DejaVuSans-Bold-65" transform="translate(2027.796875 0)"/>
     <use xlink:href="#DejaVuSans-Bold-63" transform="translate(2095.619141 0)"/>
     <use xlink:href="#DejaVuSans-Bold-74" transform="translate(2154.896484 0)"/>
     <use xlink:href="#DejaVuSans-Bold-72" transform="translate(2202.699219 0)"/>
     <use xlink:href="#DejaVuSans-Bold-69" transform="translate(2252.015625 0)"/>
     <use xlink:href="#DejaVuSans-Bold-63" transform="translate(2286.292969 0)"/>
    </g>
   </g>
   <g id="legend_1">
    <g id="line2d_25">
     <path d="M 248.134531 25.722656 
L 253.384531 25.722656 
L 258.634531 25.722656 
" style="fill: none; stroke: #2166ac; stroke-opacity: 0.9; stroke-width: 1.5; stroke-linecap: round"/>
    </g>
    <g id="text_20">
     <!-- 2022 -->
     <g style="fill: #555555" transform="translate(264.634531 28.347656) scale(0.075 -0.075)">
      <use xlink:href="#DejaVuSans-32"/>
      <use xlink:href="#DejaVuSans-30" transform="translate(63.623047 0)"/>
      <use xlink:href="#DejaVuSans-32" transform="translate(127.246094 0)"/>
      <use xlink:href="#DejaVuSans-32" transform="translate(190.869141 0)"/>
     </g>
    </g>
    <g id="line2d_26">
     <path d="M 248.134531 36.73125 
L 253.384531 36.73125 
L 258.634531 36.73125 
" style="fill: none; stroke: #d6604d; stroke-opacity: 0.9; stroke-width: 1.5; stroke-linecap: round"/>
    </g>
    <g id="text_21">
     <!-- 2024 -->
     <g style="fill: #555555" transform="translate(264.634531 39.35625) scale(0.075 -0.075)">
      <use xlink:href="#DejaVuSans-32"/>
      <use xlink:href="#DejaVuSans-30" transform="translate(63.623047 0)"/>
      <use xlink:href="#DejaVuSans-32" transform="translate(127.246094 0)"/>
      <use xlink:href="#DejaVuSans-34" transform="translate(190.869141 0)"/>
     </g>
    </g>
   </g>
  </g>
  <g id="axes_2">
   <g id="patch_5">
    <path d="M 314.432031 171.138828 
L 571.052031 171.138828 
L 571.052031 15.898828 
L 314.432031 15.898828 
z
" style="fill: #fafaf8"/>
   </g>
   <g id="matplotlib.axis_3">
    <g id="xtick_13">
     <g id="line2d_27">
      <g>
       <use xlink:href="#ma0c1931e51" x="314.432031" y="171.138828" style="fill: #dddddd; stroke: #dddddd; stroke-width: 0.8"/>
      </g>
     </g>
     <g id="text_22">
      <!-- Jan -->
      <g style="fill: #aaaaaa" transform="translate(309.036563 180.457734) scale(0.07 -0.07)">
       <use xlink:href="#DejaVuSans-4a"/>
       <use xlink:href="#DejaVuSans-61" transform="translate(29.492188 0)"/>
       <use xlink:href="#DejaVuSans-6e" transform="translate(90.771484 0)"/>
      </g>
     </g>
    </g>
    <g id="xtick_14">
     <g id="line2d_28">
      <g>
       <use xlink:href="#ma0c1931e51" x="336.287031" y="171.138828" style="fill: #dddddd; stroke: #dddddd; stroke-width: 0.8"/>
      </g>
     </g>
     <g id="text_23">
      <!-- Feb -->
      <g style="fill: #aaaaaa" transform="translate(330.090938 180.457734) scale(0.07 -0.07)">
       <use xlink:href="#DejaVuSans-46"/>
       <use xlink:href="#DejaVuSans-65" transform="translate(52.019531 0)"/>
       <use xlink:href="#DejaVuSans-62" transform="translate(113.542969 0)"/>
      </g>
     </g>
    </g>
    <g id="xtick_15">
     <g id="line2d_29">
      <g>
       <use xlink:href="#ma0c1931e51" x="356.027031" y="171.138828" style="fill: #dddddd; stroke: #dddddd; stroke-width: 0.8"/>
      </g>
     </g>
     <g id="text_24">
      <!-- Mar -->
      <g style="fill: #aaaaaa" transform="translate(349.423516 180.457734) scale(0.07 -0.07)">
       <use xlink:href="#DejaVuSans-4d"/>
       <use xlink:href="#DejaVuSans-61" transform="translate(86.279297 0)"/>
       <use xlink:href="#DejaVuSans-72" transform="translate(147.558594 0)"/>
      </g>
     </g>
    </g>
    <g id="xtick_16">
     <g id="line2d_30">
      <g>
       <use xlink:href="#ma0c1931e51" x="377.882031" y="171.138828" style="fill: #dddddd; stroke: #dddddd; stroke-width: 0.8"/>
      </g>
     </g>
     <g id="text_25">
      <!-- Apr -->
      <g style="fill: #aaaaaa" transform="translate(371.827031 180.457734) scale(0.07 -0.07)">
       <use xlink:href="#DejaVuSans-41"/>
       <use xlink:href="#DejaVuSans-70" transform="translate(68.408203 0)"/>
       <use xlink:href="#DejaVuSans-72" transform="translate(131.884766 0)"/>
      </g>
     </g>
    </g>
    <g id="xtick_17">
     <g id="line2d_31">
      <g>
       <use xlink:href="#ma0c1931e51" x="399.032031" y="171.138828" style="fill: #dddddd; stroke: #dddddd; stroke-width: 0.8"/>
      </g>
     </g>
     <g id="text_26">
      <!-- May -->
      <g style="fill: #aaaaaa" transform="translate(391.795781 180.457734) scale(0.07 -0.07)">
       <use xlink:href="#DejaVuSans-4d"/>
       <use xlink:href="#DejaVuSans-61" transform="translate(86.279297 0)"/>
       <use xlink:href="#DejaVuSans-79" transform="translate(147.558594 0)"/>
      </g>
     </g>
    </g>
    <g id="xtick_18">
     <g id="line2d_32">
      <g>
       <use xlink:href="#ma0c1931e51" x="420.887031" y="171.138828" style="fill: #dddddd; stroke: #dddddd; stroke-width: 0.8"/>
      </g>
     </g>
     <g id="text_27">
      <!-- Jun -->
      <g style="fill: #aaaaaa" transform="translate(415.418281 180.457734) scale(0.07 -0.07)">
       <use xlink:href="#DejaVuSans-4a"/>
       <use xlink:href="#DejaVuSans-75" transform="translate(29.492188 0)"/>
       <use xlink:href="#DejaVuSans-6e" transform="translate(92.871094 0)"/>
      </g>
     </g>
    </g>
    <g id="xtick_19">
     <g id="line2d_33">
      <g>
       <use xlink:href="#ma0c1931e51" x="442.037031" y="171.138828" style="fill: #dddddd; stroke: #dddddd; stroke-width: 0.8"/>
      </g>
     </g>
     <g id="text_28">
      <!-- Jul -->
      <g style="fill: #aaaaaa" transform="translate(437.814063 180.457734) scale(0.07 -0.07)">
       <use xlink:href="#DejaVuSans-4a"/>
       <use xlink:href="#DejaVuSans-75" transform="translate(29.492188 0)"/>
       <use xlink:href="#DejaVuSans-6c" transform="translate(92.871094 0)"/>
      </g>
     </g>
    </g>
    <g id="xtick_20">
     <g id="line2d_34">
      <g>
       <use xlink:href="#ma0c1931e51" x="463.892031" y="171.138828" style="fill: #dddddd; stroke: #dddddd; stroke-width: 0.8"/>
      </g>
     </g>
     <g id="text_29">
      <!-- Aug -->
      <g style="fill: #aaaaaa" transform="translate(457.057734 180.457734) scale(0.07 -0.07)">
       <use xlink:href="#DejaVuSans-41"/>
       <use xlink:href="#DejaVuSans-75" transform="translate(68.408203 0)"/>
       <use xlink:href="#DejaVuSans-67" transform="translate(131.787109 0)"/>
      </g>
     </g>
    </g>
    <g id="xtick_21">
     <g id="line2d_35">
      <g>
       <use xlink:href="#ma0c1931e51" x="485.747031" y="171.138828" style="fill: #dddddd; stroke: #dddddd; stroke-width: 0.8"/>
      </g>
     </g>
     <g id="text_30">
      <!-- Sep -->
      <g style="fill: #aaaaaa" transform="translate(479.149531 180.457734) scale(0.07 -0.07)">
       <use xlink:href="#DejaVuSans-53"/>
       <use xlink:href="#DejaVuSans-65" transform="translate(63.476562 0)"/>
       <use xlink:href="#DejaVuSans-70" transform="translate(125 0)"/>
      </g>
     </g>
    </g>
    <g id="xtick_22">
     <g id="line2d_36">
      <g>
       <use xlink:href="#ma0c1931e51" x="506.897031" y="171.138828" style="fill: #dddddd; stroke: #dddddd; stroke-width: 0.8"/>
      </g>
     </g>
     <g id="text_31">
      <!-- Oct -->
      <g style="fill: #aaaaaa" transform="translate(500.845313 180.457734) scale(0.07 -0.07)">
       <use xlink:href="#DejaVuSans-4f"/>
       <use xlink:href="#DejaVuSans-63" transform="translate(78.710938 0)"/>
       <use xlink:href="#DejaVuSans-74" transform="translate(133.691406 0)"/>
      </g>
     </g>
    </g>
    <g id="xtick_23">
     <g id="line2d_37">
      <g>
       <use xlink:href="#ma0c1931e51" x="528.752031" y="171.138828" style="fill: #dddddd; stroke: #dddddd; stroke-width: 0.8"/>
      </g>
     </g>
     <g id="text_32">
      <!-- Nov -->
      <g style="fill: #aaaaaa" transform="translate(521.920469 180.457734) scale(0.07 -0.07)">
       <use xlink:href="#DejaVuSans-4e"/>
       <use xlink:href="#DejaVuSans-6f" transform="translate(74.804688 0)"/>
       <use xlink:href="#DejaVuSans-76" transform="translate(135.986328 0)"/>
      </g>
     </g>
    </g>
    <g id="xtick_24">
     <g id="line2d_38">
      <g>
       <use xlink:href="#ma0c1931e51" x="549.902031" y="171.138828" style="fill: #dddddd; stroke: #dddddd; stroke-width: 0.8"/>
      </g>
     </g>
     <g id="text_33">
      <!-- Dec -->
      <g style="fill: #aaaaaa" transform="translate(543.128984 180.457734) scale(0.07 -0.07)">
       <use xlink:href="#DejaVuSans-44"/>
       <use xlink:href="#DejaVuSans-65" transform="translate(77.001953 0)"/>
       <use xlink:href="#DejaVuSans-63" transform="translate(138.525391 0)"/>
      </g>
     </g>
    </g>
   </g>
   <g id="matplotlib.axis_4">
    <g id="ytick_6">
     <g id="line2d_39">
      <path d="M 314.432031 160.586155 
L 571.052031 160.586155 
" clip-path="url(#p2df10532a1)" style="fill: none; stroke: #eeeeee; stroke-width: 0.6; stroke-linecap: square"/>
     </g>
     <g id="line2d_40"/>
     <g id="text_34">
      <!-- 11k -->
      <g style="fill: #999999" transform="translate(298.471094 163.245608) scale(0.07 -0.07)">
       <defs>
        <path id="DejaVuSans-6b" d="M 581 4863 
L 1159 4863 
L 1159 1991 
L 2875 3500 
L 3609 3500 
L 1753 1863 
L 3688 0 
L 2938 0 
L 1159 1709 
L 1159 0 
L 581 0 
L 581 4863 
z
" transform="scale(0.015625)"/>
       </defs>
       <use xlink:href="#DejaVuSans-31"/>
       <use xlink:href="#DejaVuSans-31" transform="translate(63.623047 0)"/>
       <use xlink:href="#DejaVuSans-6b" transform="translate(127.246094 0)"/>
      </g>
     </g>
    </g>
    <g id="ytick_7">
     <g id="line2d_41">
      <path d="M 314.432031 141.091023 
L 571.052031 141.091023 
" clip-path="url(#p2df10532a1)" style="fill: none; stroke: #eeeeee; stroke-width: 0.6; stroke-linecap: square"/>
     </g>
     <g id="line2d_42"/>
     <g id="text_35">
      <!-- 12k -->
      <g style="fill: #999999" transform="translate(298.471094 143.750476) scale(0.07 -0.07)">
       <use xlink:href="#DejaVuSans-31"/>
       <use xlink:href="#DejaVuSans-32" transform="translate(63.623047 0)"/>
       <use xlink:href="#DejaVuSans-6b" transform="translate(127.246094 0)"/>
      </g>
     </g>
    </g>
    <g id="ytick_8">
     <g id="line2d_43">
      <path d="M 314.432031 121.595891 
L 571.052031 121.595891 
" clip-path="url(#p2df10532a1)" style="fill: none; stroke: #eeeeee; stroke-width: 0.6; stroke-linecap: square"/>
     </g>
     <g id="line2d_44"/>
     <g id="text_36">
      <!-- 13k -->
      <g style="fill: #999999" transform="translate(298.471094 124.255345) scale(0.07 -0.07)">
       <defs>
        <path id="DejaVuSans-33" d="M 2597 2516 
Q 3050 2419 3304 2112 
Q 3559 1806 3559 1356 
Q 3559 666 3084 287 
Q 2609 -91 1734 -91 
Q 1441 -91 1130 -33 
Q 819 25 488 141 
L 488 750 
Q 750 597 1062 519 
Q 1375 441 1716 441 
Q 2309 441 2620 675 
Q 2931 909 2931 1356 
Q 2931 1769 2642 2001 
Q 2353 2234 1838 2234 
L 1294 2234 
L 1294 2753 
L 1863 2753 
Q 2328 2753 2575 2939 
Q 2822 3125 2822 3475 
Q 2822 3834 2567 4026 
Q 2313 4219 1838 4219 
Q 1578 4219 1281 4162 
Q 984 4106 628 3988 
L 628 4550 
Q 988 4650 1302 4700 
Q 1616 4750 1894 4750 
Q 2613 4750 3031 4423 
Q 3450 4097 3450 3541 
Q 3450 3153 3228 2886 
Q 3006 2619 2597 2516 
z
" transform="scale(0.015625)"/>
       </defs>
       <use xlink:href="#DejaVuSans-31"/>
       <use xlink:href="#DejaVuSans-33" transform="translate(63.623047 0)"/>
       <use xlink:href="#DejaVuSans-6b" transform="translate(127.246094 0)"/>
      </g>
     </g>
    </g>
    <g id="ytick_9">
     <g id="line2d_45">
      <path d="M 314.432031 102.10076 
L 571.052031 102.10076 
" clip-path="url(#p2df10532a1)" style="fill: none; stroke: #eeeeee; stroke-width: 0.6; stroke-linecap: square"/>
     </g>
     <g id="line2d_46"/>
     <g id="text_37">
      <!-- 14k -->
      <g style="fill: #999999" transform="translate(298.471094 104.760213) scale(0.07 -0.07)">
       <use xlink:href="#DejaVuSans-31"/>
       <use xlink:href="#DejaVuSans-34" transform="translate(63.623047 0)"/>
       <use xlink:href="#DejaVuSans-6b" transform="translate(127.246094 0)"/>
      </g>
     </g>
    </g>
    <g id="ytick_10">
     <g id="line2d_47">
      <path d="M 314.432031 82.605628 
L 571.052031 82.605628 
" clip-path="url(#p2df10532a1)" style="fill: none; stroke: #eeeeee; stroke-width: 0.6; stroke-linecap: square"/>
     </g>
     <g id="line2d_48"/>
     <g id="text_38">
      <!-- 15k -->
      <g style="fill: #999999" transform="translate(298.471094 85.265081) scale(0.07 -0.07)">
       <defs>
        <path id="DejaVuSans-35" d="M 691 4666 
L 3169 4666 
L 3169 4134 
L 1269 4134 
L 1269 2991 
Q 1406 3038 1543 3061 
Q 1681 3084 1819 3084 
Q 2600 3084 3056 2656 
Q 3513 2228 3513 1497 
Q 3513 744 3044 326 
Q 2575 -91 1722 -91 
Q 1428 -91 1123 -41 
Q 819 9 494 109 
L 494 744 
Q 775 591 1075 516 
Q 1375 441 1709 441 
Q 2250 441 2565 725 
Q 2881 1009 2881 1497 
Q 2881 1984 2565 2268 
Q 2250 2553 1709 2553 
Q 1456 2553 1204 2497 
Q 953 2441 691 2322 
L 691 4666 
z
" transform="scale(0.015625)"/>
       </defs>
       <use xlink:href="#DejaVuSans-31"/>
       <use xlink:href="#DejaVuSans-35" transform="translate(63.623047 0)"/>
       <use xlink:href="#DejaVuSans-6b" transform="translate(127.246094 0)"/>
      </g>
     </g>
    </g>
    <g id="ytick_11">
     <g id="line2d_49">
      <path d="M 314.432031 63.110496 
L 571.052031 63.110496 
" clip-path="url(#p2df10532a1)" style="fill: none; stroke: #eeeeee; stroke-width: 0.6; stroke-linecap: square"/>
     </g>
     <g id="line2d_50"/>
     <g id="text_39">
      <!-- 16k -->
      <g style="fill: #999999" transform="translate(298.471094 65.76995) scale(0.07 -0.07)">
       <use xlink:href="#DejaVuSans-31"/>
       <use xlink:href="#DejaVuSans-36" transform="translate(63.623047 0)"/>
       <use xlink:href="#DejaVuSans-6b" transform="translate(127.246094 0)"/>
      </g>
     </g>
    </g>
    <g id="ytick_12">
     <g id="line2d_51">
      <path d="M 314.432031 43.615365 
L 571.052031 43.615365 
" clip-path="url(#p2df10532a1)" style="fill: none; stroke: #eeeeee; stroke-width: 0.6; stroke-linecap: square"/>
     </g>
     <g id="line2d_52"/>
     <g id="text_40">
      <!-- 17k -->
      <g style="fill: #999999" transform="translate(298.471094 46.274818) scale(0.07 -0.07)">
       <defs>
        <path id="DejaVuSans-37" d="M 525 4666 
L 3525 4666 
L 3525 4397 
L 1831 0 
L 1172 0 
L 2766 4134 
L 525 4134 
L 525 4666 
z
" transform="scale(0.015625)"/>
       </defs>
       <use xlink:href="#DejaVuSans-31"/>
       <use xlink:href="#DejaVuSans-37" transform="translate(63.623047 0)"/>
       <use xlink:href="#DejaVuSans-6b" transform="translate(127.246094 0)"/>
      </g>
     </g>
    </g>
    <g id="ytick_13">
     <g id="line2d_53">
      <path d="M 314.432031 24.120233 
L 571.052031 24.120233 
" clip-path="url(#p2df10532a1)" style="fill: none; stroke: #eeeeee; stroke-width: 0.6; stroke-linecap: square"/>
     </g>
     <g id="line2d_54"/>
     <g id="text_41">
      <!-- 18k -->
      <g style="fill: #999999" transform="translate(298.471094 26.779686) scale(0.07 -0.07)">
       <use xlink:href="#DejaVuSans-31"/>
       <use xlink:href="#DejaVuSans-38" transform="translate(63.623047 0)"/>
       <use xlink:href="#DejaVuSans-6b" transform="translate(127.246094 0)"/>
      </g>
     </g>
    </g>
   </g>
   <g id="line2d_55">
    <path d="M 314.432031 157.604513 
L 315.137031 148.135347 
L 315.842031 146.150934 
L 316.547031 142.326414 
L 317.252031 128.529199 
L 317.957031 117.80593 
L 318.662031 116.261101 
L 319.367031 114.051439 
L 320.072031 110.806689 
L 320.777031 108.329597 
L 321.482031 110.023747 
L 322.187031 112.780988 
L 322.892031 105.82215 
L 323.597031 101.237258 
L 324.302031 103.048128 
L 325.007031 105.943786 
L 325.712031 107.427263 
L 326.417031 98.27362 
L 327.122031 91.582319 
L 327.827031 94.158708 
L 328.532031 94.342873 
L 329.237031 96.706772 
L 329.942031 95.543742 
L 330.647031 87.538593 
L 332.057031 95.127098 
L 333.467031 88.415168 
L 334.172031 82.823623 
L 334.877031 80.710387 
L 336.287031 95.246956 
L 336.992031 98.977754 
L 337.697031 101.498071 
L 338.402031 101.491675 
L 339.812031 106.123806 
L 340.517031 106.903555 
L 341.222031 105.259906 
L 341.927031 112.155466 
L 342.632031 120.185309 
L 343.337031 119.489028 
L 344.042031 115.194646 
L 344.747031 114.746482 
L 345.452031 117.738276 
L 346.157031 121.886163 
L 346.862031 116.455671 
L 347.567031 112.800137 
L 348.272031 118.971327 
L 348.977031 131.701126 
L 349.682031 141.652993 
L 350.387031 139.904183 
L 351.092031 133.158772 
L 351.797031 134.006915 
L 352.502031 137.071672 
L 353.207031 137.781769 
L 353.912031 131.983445 
L 354.617031 128.998037 
L 355.322031 131.11601 
L 356.027031 132.382061 
L 356.732031 133.17477 
L 357.437031 138.821309 
L 358.142031 143.321572 
L 358.847031 149.714487 
L 359.552031 147.721651 
L 360.257031 142.992229 
L 360.962031 143.267014 
L 361.667031 142.049489 
L 362.372031 124.912508 
L 363.077031 119.119677 
L 363.782031 116.610006 
L 364.487031 120.000232 
L 365.192031 125.758631 
L 365.897031 130.060857 
L 366.602031 136.389944 
L 367.307031 154.797131 
L 368.012031 160.276341 
L 368.717031 162.904867 
L 369.422031 163.150906 
L 370.127031 162.817926 
L 370.832031 163.494211 
L 371.537031 162.440712 
L 372.242031 157.604756 
L 372.947031 151.633405 
L 373.652031 142.587444 
L 374.357031 138.595671 
L 375.062031 138.35714 
L 375.767031 138.96949 
L 376.472031 138.439613 
L 377.177031 142.542094 
L 377.882031 147.647146 
L 378.587031 155.68677 
L 379.292031 160.258119 
L 379.997031 160.544599 
L 380.702031 159.218982 
L 381.407031 159.80264 
L 382.112031 157.821833 
L 382.817031 157.873941 
L 383.522031 158.864577 
L 384.227031 157.375657 
L 384.932031 154.303487 
L 386.342031 156.740822 
L 387.047031 159.933492 
L 387.752031 159.466263 
L 388.457031 156.209272 
L 389.162031 155.089296 
L 389.867031 158.147509 
L 391.277031 156.721397 
L 391.982031 153.361702 
L 392.687031 152.868769 
L 393.392031 154.279643 
L 394.097031 158.037244 
L 394.802031 158.993684 
L 395.507031 158.720931 
L 396.212031 159.307845 
L 396.917031 162.234711 
L 397.622031 163.51812 
L 398.327031 164.082464 
L 399.032031 160.908172 
L 399.737031 159.261606 
L 400.442031 159.235832 
L 401.147031 158.958104 
L 401.852031 156.939164 
L 402.557031 157.411361 
L 403.262031 158.423842 
L 403.967031 160.433404 
L 404.672031 161.288988 
L 405.377031 160.745115 
L 406.787031 157.877306 
L 407.492031 154.412708 
L 408.197031 152.130573 
L 408.902031 150.426933 
L 409.607031 146.429462 
L 410.312031 138.884024 
L 411.017031 127.773712 
L 411.722031 119.443323 
L 412.427031 118.390778 
L 413.837031 121.535907 
L 414.542031 125.264394 
L 415.247031 130.794597 
L 415.952031 140.50661 
L 416.657031 148.105545 
L 417.362031 147.623157 
L 418.067031 137.94287 
L 419.477031 113.128295 
L 420.182031 108.585154 
L 420.887031 106.79033 
L 421.592031 106.240717 
L 422.297031 108.217271 
L 423.002031 113.782344 
L 424.412031 121.383767 
L 425.117031 123.818166 
L 425.822031 124.399028 
L 426.527031 123.234649 
L 427.937031 109.003717 
L 428.642031 108.538427 
L 429.347031 107.167844 
L 430.052031 99.339434 
L 430.757031 95.201821 
L 431.462031 98.443723 
L 432.167031 107.614429 
L 432.872031 114.924093 
L 433.577031 116.805918 
L 434.282031 122.369534 
L 434.987031 130.082487 
L 435.692031 130.551587 
L 437.102031 116.327005 
L 437.807031 115.561528 
L 438.512031 117.160023 
L 439.217031 112.140092 
L 439.922031 104.432617 
L 440.627031 99.012583 
L 441.332031 96.84192 
L 442.037031 97.628827 
L 442.742031 92.852746 
L 443.447031 85.281637 
L 444.152031 81.983541 
L 444.857031 82.853881 
L 445.562031 86.162435 
L 446.267031 92.089235 
L 446.972031 94.581866 
L 447.677031 94.74279 
L 448.382031 95.943252 
L 449.087031 97.745926 
L 449.792031 98.328794 
L 450.497031 97.76492 
L 451.202031 92.649148 
L 451.907031 84.5215 
L 452.612031 80.148589 
L 453.317031 77.751277 
L 454.022031 72.367959 
L 454.727031 69.063484 
L 456.137031 57.341792 
L 456.842031 54.166312 
L 457.547031 56.571082 
L 458.252031 59.37752 
L 458.957031 61.26724 
L 459.662031 61.47023 
L 460.367031 66.206356 
L 461.777031 79.914108 
L 462.482031 77.831015 
L 463.187031 75.281478 
L 463.892031 74.162375 
L 464.597031 74.836042 
L 465.302031 74.768806 
L 466.007031 70.405797 
L 466.712031 64.701537 
L 467.417031 61.056297 
L 468.122031 58.68787 
L 470.237031 74.46669 
L 470.942031 81.811868 
L 473.057031 116.02705 
L 473.762031 120.038377 
L 474.467031 120.097856 
L 475.172031 115.843481 
L 475.877031 112.988494 
L 478.697031 94.705729 
L 479.402031 91.910453 
L 480.107031 89.919776 
L 480.812031 86.540558 
L 481.517031 82.120809 
L 482.222031 78.738442 
L 482.927031 78.493645 
L 484.337031 81.818351 
L 485.747031 84.480272 
L 486.452031 88.463997 
L 487.157031 90.726609 
L 487.862031 91.260546 
L 488.567031 93.318623 
L 489.272031 96.679196 
L 489.977031 101.139531 
L 490.682031 103.330863 
L 491.387031 102.639176 
L 492.092031 104.864712 
L 492.797031 109.489656 
L 493.502031 111.531344 
L 494.912031 115.079446 
L 496.322031 120.19192 
L 497.027031 120.197146 
L 498.437031 114.60118 
L 499.142031 118.382655 
L 501.257031 131.724233 
L 503.372031 153.87603 
L 504.077031 153.932918 
L 504.782031 152.778103 
L 505.487031 153.852056 
L 506.192031 156.127977 
L 506.897031 156.32691 
L 507.602031 155.652967 
L 509.012031 155.278124 
L 509.717031 156.41976 
L 510.422031 156.091271 
L 511.127031 155.598126 
L 511.832031 155.776102 
L 512.537031 155.807807 
L 513.242031 154.896361 
L 513.947031 155.324091 
L 514.652031 154.580956 
L 515.357031 154.860884 
L 516.062031 155.003853 
L 516.767031 155.4693 
L 518.882031 149.101199 
L 520.292031 146.58326 
L 520.997031 146.338809 
L 521.702031 145.81219 
L 522.407031 147.745522 
L 523.112031 150.770043 
L 523.817031 151.546888 
L 524.522031 151.862764 
L 525.227031 151.226768 
L 525.932031 151.068004 
L 527.342031 150.913997 
L 528.047031 150.406944 
L 528.752031 151.01832 
L 529.457031 149.57251 
L 530.162031 149.222701 
L 530.867031 147.520823 
L 531.572031 148.109178 
L 532.982031 145.974799 
L 533.687031 145.12553 
L 534.392031 145.457735 
L 535.097031 146.786389 
L 535.802031 144.308174 
L 536.507031 136.926961 
L 537.212031 133.796224 
L 537.917031 129.280116 
L 538.622031 121.578423 
L 539.327031 115.72389 
L 540.737031 102.42905 
L 541.442031 102.163299 
L 542.147031 100.999446 
L 542.852031 102.62851 
L 543.557031 110.516807 
L 544.262031 115.242165 
L 544.967031 118.835401 
L 545.672031 127.872924 
L 546.377031 130.810688 
L 547.082031 132.287945 
L 547.787031 132.584964 
L 548.492031 126.644932 
L 549.197031 127.275878 
L 549.902031 128.819721 
L 550.607031 122.692812 
L 551.312031 122.683884 
L 552.017031 125.481167 
L 552.722031 128.827495 
L 553.427031 133.560583 
L 554.132031 130.428294 
L 554.837031 129.181932 
L 555.542031 131.159717 
L 556.247031 129.024985 
L 556.952031 119.478724 
L 557.657031 111.57636 
L 558.362031 108.626788 
L 559.067031 107.322667 
L 561.182031 95.22037 
L 562.592031 95.909918 
L 563.297031 94.762745 
L 564.002031 77.656339 
L 564.707031 66.905369 
L 565.412031 62.397651 
L 566.117031 62.158619 
L 566.822031 62.754421 
L 567.527031 63.651121 
L 568.232031 66.224819 
L 568.937031 89.086638 
L 571.052031 115.476142 
L 571.052031 115.476142 
" clip-path="url(#p2df10532a1)" style="fill: none; stroke: #2166ac; stroke-opacity: 0.9; stroke-width: 1.5; stroke-linecap: round"/>
   </g>
   <g id="line2d_56">
    <path d="M 314.432031 80.132847 
L 315.137031 74.973939 
L 315.842031 72.538678 
L 316.547031 74.988368 
L 317.957031 72.491109 
L 318.662031 79.351902 
L 319.367031 79.950455 
L 320.072031 83.77736 
L 320.777031 92.803588 
L 321.482031 92.880317 
L 322.187031 89.405798 
L 322.892031 84.746513 
L 323.597031 68.783468 
L 324.302031 59.663709 
L 325.007031 55.595808 
L 326.417031 29.412955 
L 327.122031 22.955192 
L 327.827031 24.239365 
L 330.647031 80.553708 
L 331.352031 97.968248 
L 332.057031 110.374053 
L 332.762031 114.757798 
L 333.467031 112.320113 
L 334.172031 106.228036 
L 334.877031 102.251631 
L 336.287031 91.248502 
L 336.992031 88.400517 
L 337.697031 88.439591 
L 338.402031 87.205327 
L 339.107031 86.657135 
L 339.812031 86.612151 
L 340.517031 90.782093 
L 341.222031 97.752779 
L 341.927031 102.607495 
L 343.337031 108.60591 
L 344.042031 109.294296 
L 344.747031 109.557787 
L 345.452031 105.008399 
L 346.157031 95.862775 
L 346.862031 91.380397 
L 347.567031 88.074463 
L 348.272031 87.266742 
L 348.977031 87.840223 
L 349.682031 88.786973 
L 350.387031 91.135435 
L 351.092031 94.794011 
L 351.797031 96.979437 
L 353.207031 109.689941 
L 353.912031 113.269155 
L 354.617031 109.601185 
L 355.322031 109.800503 
L 356.027031 114.337932 
L 356.732031 117.686631 
L 357.437031 117.918373 
L 358.142031 116.916828 
L 358.847031 119.277424 
L 359.552031 125.603 
L 360.257031 125.800386 
L 360.962031 123.73207 
L 361.667031 120.556963 
L 362.372031 119.31003 
L 363.077031 120.707774 
L 363.782031 121.458056 
L 364.487031 122.411857 
L 366.602031 136.922909 
L 367.307031 135.506299 
L 368.012031 133.553655 
L 368.717031 132.059223 
L 369.422031 128.080947 
L 370.127031 125.140897 
L 370.832031 120.012142 
L 371.537031 115.757713 
L 372.242031 116.403996 
L 372.947031 115.667038 
L 373.652031 113.979817 
L 374.357031 114.781627 
L 375.062031 115.250332 
L 376.472031 125.567569 
L 377.177031 129.236588 
L 378.587031 134.575697 
L 379.292031 135.893965 
L 379.997031 134.936619 
L 380.702031 133.427955 
L 381.407031 132.27643 
L 382.112031 132.661354 
L 382.817031 133.176439 
L 383.522031 133.859124 
L 384.227031 136.600645 
L 384.932031 140.494269 
L 385.637031 142.229843 
L 387.047031 139.529701 
L 387.752031 139.376126 
L 388.457031 138.419671 
L 389.162031 138.298549 
L 390.572031 137.56614 
L 391.982031 139.580352 
L 392.687031 140.398879 
L 393.392031 143.196961 
L 394.097031 143.14886 
L 394.802031 142.271221 
L 395.507031 141.67674 
L 396.212031 137.819163 
L 396.917031 133.00571 
L 397.622031 129.093337 
L 398.327031 123.705554 
L 399.032031 119.572432 
L 399.737031 120.492029 
L 400.442031 121.78596 
L 401.147031 124.803249 
L 401.852031 126.544168 
L 402.557031 124.313555 
L 403.262031 124.274904 
L 403.967031 126.899945 
L 404.672031 127.825778 
L 405.377031 129.035736 
L 406.787031 134.756194 
L 407.492031 140.688558 
L 408.197031 144.316397 
L 408.902031 144.895947 
L 411.017031 140.455291 
L 411.722031 138.0625 
L 412.427031 132.324976 
L 413.132031 125.599347 
L 413.837031 120.272188 
L 414.542031 113.962121 
L 415.247031 106.40548 
L 415.952031 102.167915 
L 416.657031 99.833214 
L 417.362031 102.413162 
L 419.477031 120.56256 
L 420.182031 125.56147 
L 420.887031 125.065444 
L 421.592031 122.895296 
L 422.297031 118.377562 
L 423.707031 104.124469 
L 424.412031 99.641308 
L 425.117031 95.946591 
L 425.822031 96.836919 
L 427.232031 105.913005 
L 427.937031 107.50776 
L 428.642031 105.870276 
L 429.347031 103.271765 
L 430.052031 103.764653 
L 430.757031 100.409774 
L 432.167031 86.778942 
L 432.872031 84.402735 
L 433.577031 82.92507 
L 434.282031 76.556483 
L 434.987031 66.307832 
L 435.692031 60.746777 
L 436.397031 62.742635 
L 437.102031 59.345804 
L 437.807031 57.702659 
L 438.512031 60.634238 
L 439.217031 64.097772 
L 439.922031 64.924172 
L 440.627031 70.532681 
L 441.332031 73.450877 
L 442.037031 78.010086 
L 442.742031 78.252167 
L 443.447031 71.99576 
L 444.152031 63.663309 
L 444.857031 62.046285 
L 445.562031 54.364716 
L 446.972031 30.862743 
L 447.677031 26.991409 
L 448.382031 30.564931 
L 449.087031 38.421313 
L 449.792031 38.974868 
L 450.497031 36.961137 
L 451.202031 35.834424 
L 451.907031 36.032737 
L 452.612031 38.336715 
L 453.317031 38.270687 
L 454.022031 38.760966 
L 455.432031 50.203593 
L 456.842031 64.972138 
L 458.252031 68.581196 
L 458.957031 70.997398 
L 459.662031 72.822904 
L 460.367031 73.515278 
L 461.072031 73.921876 
L 461.777031 72.022318 
L 462.482031 65.333023 
L 463.187031 54.082147 
L 463.892031 45.474444 
L 465.302031 38.527401 
L 466.007031 34.027867 
L 466.712031 33.473075 
L 467.417031 38.848595 
L 468.122031 46.064857 
L 468.827031 48.469141 
L 469.532031 49.598813 
L 470.237031 54.383871 
L 470.942031 61.752714 
L 471.647031 66.494043 
L 473.762031 74.152769 
L 475.172031 70.741655 
L 475.877031 73.164512 
L 478.697031 96.66215 
L 479.402031 102.142643 
L 480.107031 103.236814 
L 480.812031 96.336061 
L 482.222031 69.139543 
L 482.927031 61.960075 
L 483.632031 57.449736 
L 484.337031 53.691298 
L 485.042031 55.330157 
L 485.747031 63.9867 
L 487.157031 88.78118 
L 487.862031 94.557674 
L 488.567031 99.294469 
L 489.272031 108.06531 
L 489.977031 114.17061 
L 490.682031 114.343309 
L 492.092031 110.535086 
L 492.797031 109.455508 
L 493.502031 107.293124 
L 494.207031 102.593559 
L 494.912031 99.442548 
L 495.617031 97.335858 
L 497.027031 95.88184 
L 497.732031 95.585921 
L 498.437031 96.236918 
L 499.142031 97.078662 
L 499.847031 98.406951 
L 500.552031 100.868839 
L 501.257031 102.88398 
L 501.962031 102.561409 
L 502.667031 101.448725 
L 503.372031 98.908435 
L 504.077031 97.369561 
L 504.782031 95.161045 
L 505.487031 95.005352 
L 506.192031 95.981822 
L 507.602031 103.406268 
L 509.012031 112.920997 
L 511.832031 125.248625 
L 513.242031 132.247792 
L 513.947031 133.279277 
L 514.652031 135.278253 
L 515.357031 135.641618 
L 516.062031 134.764207 
L 517.472031 131.465024 
L 518.177031 131.114294 
L 518.882031 131.425248 
L 519.587031 131.007718 
L 520.292031 129.835145 
L 520.997031 129.631703 
L 522.407031 131.540248 
L 523.112031 132.270254 
L 523.817031 132.409353 
L 524.522031 131.613365 
L 525.932031 130.953903 
L 526.637031 129.22049 
L 527.342031 126.591608 
L 528.047031 125.792755 
L 528.752031 123.964759 
L 530.162031 122.677863 
L 531.572031 118.756198 
L 532.277031 119.146094 
L 532.982031 119.215652 
L 533.687031 118.549401 
L 534.392031 119.06365 
L 535.097031 119.906495 
L 535.802031 119.005853 
L 536.507031 117.033324 
L 537.212031 115.718186 
L 537.917031 113.353253 
L 538.622031 112.653112 
L 539.327031 110.983783 
L 540.032031 109.966948 
L 540.737031 111.789369 
L 541.442031 114.261299 
L 542.147031 109.685602 
L 542.852031 106.163161 
L 543.557031 104.831543 
L 544.262031 103.200905 
L 544.967031 102.227299 
L 545.672031 99.305287 
L 546.377031 99.856993 
L 547.082031 103.643106 
L 547.787031 99.902371 
L 549.197031 90.896505 
L 550.607031 72.797382 
L 551.312031 66.82152 
L 552.017031 57.854695 
L 552.722031 53.486812 
L 553.427031 54.677268 
L 554.132031 59.590617 
L 554.837031 68.368376 
L 555.542031 80.024805 
L 556.247031 81.551041 
L 556.952031 84.394929 
L 557.657031 89.164941 
L 558.362031 87.612107 
L 559.067031 85.04648 
L 559.772031 85.276774 
L 560.477031 83.982083 
L 561.887031 90.455768 
L 562.592031 91.001493 
L 563.297031 86.953394 
L 564.707031 68.886821 
L 565.412031 65.859357 
L 566.117031 61.533564 
L 566.822031 59.759643 
L 567.527031 63.868214 
L 568.232031 75.798018 
L 568.937031 91.428662 
L 569.642031 100.36783 
L 570.347031 102.494788 
L 571.052031 108.135366 
L 571.757031 118.478223 
L 571.757031 118.478223 
" clip-path="url(#p2df10532a1)" style="fill: none; stroke: #d6604d; stroke-opacity: 0.9; stroke-width: 1.5; stroke-linecap: round"/>
   </g>
   <g id="patch_6">
    <path d="M 314.432031 171.138828 
L 314.432031 15.898828 
" style="fill: none; stroke: #dddddd; stroke-width: 0.8; stroke-linejoin: miter; stroke-linecap: square"/>
   </g>
   <g id="patch_7">
    <path d="M 314.432031 171.138828 
L 571.052031 171.138828 
" style="fill: none; stroke: #dddddd; stroke-width: 0.8; stroke-linejoin: miter; stroke-linecap: square"/>
   </g>
   <g id="text_42">
    <!-- PJM-DOM +9.3%  ·  Dominion Energy Virginia -->
    <g style="fill: #222222" transform="translate(314.432031 12.898828) scale(0.075 -0.075)">
     <defs>
      <path id="DejaVuSans-Bold-50" d="M 588 4666 
L 2584 4666 
Q 3475 4666 3951 4270 
Q 4428 3875 4428 3144 
Q 4428 2409 3951 2014 
Q 3475 1619 2584 1619 
L 1791 1619 
L 1791 0 
L 588 0 
L 588 4666 
z
M 1791 3794 
L 1791 2491 
L 2456 2491 
Q 2806 2491 2997 2661 
Q 3188 2831 3188 3144 
Q 3188 3456 2997 3625 
Q 2806 3794 2456 3794 
L 1791 3794 
z
" transform="scale(0.015625)"/>
      <path id="DejaVuSans-Bold-4a" d="M 588 4666 
L 1791 4666 
L 1791 453 
Q 1791 -419 1317 -850 
Q 844 -1281 -116 -1281 
L -359 -1281 
L -359 -372 
L -172 -372 
Q 203 -372 395 -162 
Q 588 47 588 453 
L 588 4666 
z
" transform="scale(0.015625)"/>
      <path id="DejaVuSans-Bold-4d" d="M 588 4666 
L 2119 4666 
L 3181 2169 
L 4250 4666 
L 5778 4666 
L 5778 0 
L 4641 0 
L 4641 3413 
L 3566 897 
L 2803 897 
L 1728 3413 
L 1728 0 
L 588 0 
L 588 4666 
z
" transform="scale(0.015625)"/>
      <path id="DejaVuSans-Bold-44" d="M 1791 3756 
L 1791 909 
L 2222 909 
Q 2959 909 3348 1275 
Q 3738 1641 3738 2338 
Q 3738 3031 3350 3393 
Q 2963 3756 2222 3756 
L 1791 3756 
z
M 588 4666 
L 1856 4666 
Q 2919 4666 3439 4514 
Q 3959 4363 4331 4000 
Q 4659 3684 4818 3271 
Q 4978 2859 4978 2338 
Q 4978 1809 4818 1395 
Q 4659 981 4331 666 
Q 3956 303 3431 151 
Q 2906 0 1856 0 
L 588 0 
L 588 4666 
z
" transform="scale(0.015625)"/>
      <path id="DejaVuSans-Bold-39" d="M 641 103 
L 641 966 
Q 928 831 1190 764 
Q 1453 697 1709 697 
Q 2247 697 2547 995 
Q 2847 1294 2900 1881 
Q 2688 1725 2447 1647 
Q 2206 1569 1925 1569 
Q 1209 1569 770 1986 
Q 331 2403 331 3084 
Q 331 3838 820 4291 
Q 1309 4744 2131 4744 
Q 3044 4744 3544 4128 
Q 4044 3513 4044 2388 
Q 4044 1231 3459 570 
Q 2875 -91 1856 -91 
Q 1528 -91 1228 -42 
Q 928 6 641 103 
z
M 2125 2350 
Q 2441 2350 2600 2554 
Q 2759 2759 2759 3169 
Q 2759 3575 2600 3781 
Q 2441 3988 2125 3988 
Q 1809 3988 1650 3781 
Q 1491 3575 1491 3169 
Q 1491 2759 1650 2554 
Q 1809 2350 2125 2350 
z
" transform="scale(0.015625)"/>
      <path id="DejaVuSans-Bold-6f" d="M 2203 2784 
Q 1831 2784 1636 2517 
Q 1441 2250 1441 1747 
Q 1441 1244 1636 976 
Q 1831 709 2203 709 
Q 2569 709 2762 976 
Q 2956 1244 2956 1747 
Q 2956 2250 2762 2517 
Q 2569 2784 2203 2784 
z
M 2203 3584 
Q 3106 3584 3614 3096 
Q 4122 2609 4122 1747 
Q 4122 884 3614 396 
Q 3106 -91 2203 -91 
Q 1297 -91 786 396 
Q 275 884 275 1747 
Q 275 2609 786 3096 
Q 1297 3584 2203 3584 
z
" transform="scale(0.015625)"/>
      <path id="DejaVuSans-Bold-6d" d="M 3781 2919 
Q 3994 3244 4286 3414 
Q 4578 3584 4928 3584 
Q 5531 3584 5847 3212 
Q 6163 2841 6163 2131 
L 6163 0 
L 5038 0 
L 5038 1825 
Q 5041 1866 5042 1909 
Q 5044 1953 5044 2034 
Q 5044 2406 4934 2573 
Q 4825 2741 4581 2741 
Q 4263 2741 4089 2478 
Q 3916 2216 3909 1719 
L 3909 0 
L 2784 0 
L 2784 1825 
Q 2784 2406 2684 2573 
Q 2584 2741 2328 2741 
Q 2006 2741 1831 2477 
Q 1656 2213 1656 1722 
L 1656 0 
L 531 0 
L 531 3500 
L 1656 3500 
L 1656 2988 
Q 1863 3284 2130 3434 
Q 2397 3584 2719 3584 
Q 3081 3584 3359 3409 
Q 3638 3234 3781 2919 
z
" transform="scale(0.015625)"/>
      <path id="DejaVuSans-Bold-6e" d="M 4056 2131 
L 4056 0 
L 2931 0 
L 2931 347 
L 2931 1631 
Q 2931 2084 2911 2256 
Q 2891 2428 2841 2509 
Q 2775 2619 2662 2680 
Q 2550 2741 2406 2741 
Q 2056 2741 1856 2470 
Q 1656 2200 1656 1722 
L 1656 0 
L 538 0 
L 538 3500 
L 1656 3500 
L 1656 2988 
Q 1909 3294 2193 3439 
Q 2478 3584 2822 3584 
Q 3428 3584 3742 3212 
Q 4056 2841 4056 2131 
z
" transform="scale(0.015625)"/>
      <path id="DejaVuSans-Bold-67" d="M 2919 594 
Q 2688 288 2409 144 
Q 2131 0 1766 0 
Q 1125 0 706 504 
Q 288 1009 288 1791 
Q 288 2575 706 3076 
Q 1125 3578 1766 3578 
Q 2131 3578 2409 3434 
Q 2688 3291 2919 2981 
L 2919 3500 
L 4044 3500 
L 4044 353 
Q 4044 -491 3511 -936 
Q 2978 -1381 1966 -1381 
Q 1638 -1381 1331 -1331 
Q 1025 -1281 716 -1178 
L 716 -306 
Q 1009 -475 1290 -558 
Q 1572 -641 1856 -641 
Q 2406 -641 2662 -400 
Q 2919 -159 2919 353 
L 2919 594 
z
M 2181 2772 
Q 1834 2772 1640 2515 
Q 1447 2259 1447 1791 
Q 1447 1309 1634 1061 
Q 1822 813 2181 813 
Q 2531 813 2725 1069 
Q 2919 1325 2919 1791 
Q 2919 2259 2725 2515 
Q 2531 2772 2181 2772 
z
" transform="scale(0.015625)"/>
     </defs>
     <use xlink:href="#DejaVuSans-Bold-50"/>
     <use xlink:href="#DejaVuSans-Bold-4a" transform="translate(73.291016 0)"/>
     <use xlink:href="#DejaVuSans-Bold-4d" transform="translate(110.498047 0)"/>
     <use xlink:href="#DejaVuSans-Bold-2d" transform="translate(210.009766 0)"/>
     <use xlink:href="#DejaVuSans-Bold-44" transform="translate(251.513672 0)"/>
     <use xlink:href="#DejaVuSans-Bold-4f" transform="translate(334.521484 0)"/>
     <use xlink:href="#DejaVuSans-Bold-4d" transform="translate(419.53125 0)"/>
     <use xlink:href="#DejaVuSans-Bold-20" transform="translate(519.042969 0)"/>
     <use xlink:href="#DejaVuSans-Bold-2b" transform="translate(553.857422 0)"/>
     <use xlink:href="#DejaVuSans-Bold-39" transform="translate(637.646484 0)"/>
     <use xlink:href="#DejaVuSans-Bold-2e" transform="translate(707.226562 0)"/>
     <use xlink:href="#DejaVuSans-Bold-33" transform="translate(745.214844 0)"/>
     <use xlink:href="#DejaVuSans-Bold-25" transform="translate(814.794922 0)"/>
     <use xlink:href="#DejaVuSans-Bold-20" transform="translate(914.990234 0)"/>
     <use xlink:href="#DejaVuSans-Bold-20" transform="translate(949.804688 0)"/>
     <use xlink:href="#DejaVuSans-Bold-b7" transform="translate(984.619141 0)"/>
     <use xlink:href="#DejaVuSans-Bold-20" transform="translate(1022.607422 0)"/>
     <use xlink:href="#DejaVuSans-Bold-20" transform="translate(1057.421875 0)"/>
     <use xlink:href="#DejaVuSans-Bold-44" transform="translate(1092.236328 0)"/>
     <use xlink:href="#DejaVuSans-Bold-6f" transform="translate(1175.244141 0)"/>
     <use xlink:href="#DejaVuSans-Bold-6d" transform="translate(1243.945312 0)"/>
     <use xlink:href="#DejaVuSans-Bold-69" transform="translate(1348.144531 0)"/>
     <use xlink:href="#DejaVuSans-Bold-6e" transform="translate(1382.421875 0)"/>
     <use xlink:href="#DejaVuSans-Bold-69" transform="translate(1453.613281 0)"/>
     <use xlink:href="#DejaVuSans-Bold-6f" transform="translate(1487.890625 0)"/>
     <use xlink:href="#DejaVuSans-Bold-6e" transform="translate(1556.591797 0)"/>
     <use xlink:href="#DejaVuSans-Bold-20" transform="translate(1627.783203 0)"/>
     <use xlink:href="#DejaVuSans-Bold-45" transform="translate(1662.597656 0)"/>
     <use xlink:href="#DejaVuSans-Bold-6e" transform="translate(1730.908203 0)"/>
     <use xlink:href="#DejaVuSans-Bold-65" transform="translate(1802.099609 0)"/>
     <use xlink:href="#DejaVuSans-Bold-72" transform="translate(1869.921875 0)"/>
     <use xlink:href="#DejaVuSans-Bold-67" transform="translate(1919.238281 0)"/>
     <use xlink:href="#DejaVuSans-Bold-79" transform="translate(1990.820312 0)"/>
     <use xlink:href="#DejaVuSans-Bold-20" transform="translate(2056.005859 0)"/>
     <use xlink:href="#DejaVuSans-Bold-56" transform="translate(2090.820312 0)"/>
     <use xlink:href="#DejaVuSans-Bold-69" transform="translate(2166.462891 0)"/>
     <use xlink:href="#DejaVuSans-Bold-72" transform="translate(2200.740234 0)"/>
     <use xlink:href="#DejaVuSans-Bold-67" transform="translate(2250.056641 0)"/>
     <use xlink:href="#DejaVuSans-Bold-69" transform="translate(2321.638672 0)"/>
     <use xlink:href="#DejaVuSans-Bold-6e" transform="translate(2355.916016 0)"/>
     <use xlink:href="#DejaVuSans-Bold-69" transform="translate(2427.107422 0)"/>
     <use xlink:href="#DejaVuSans-Bold-61" transform="translate(2461.384766 0)"/>
    </g>
   </g>
  </g>
 </g>
 <defs>
  <clipPath id="p5907b3f33e">
   <rect x="33.852031" y="15.898828" width="256.62" height="155.24"/>
  </clipPath>
  <clipPath id="p2df10532a1">
   <rect x="314.432031" y="15.898828" width="256.62" height="155.24"/>
  </clipPath>
 </defs>
</svg>
