<?xml version="1.0" encoding="utf-8" standalone="no"?>
<!DOCTYPE svg PUBLIC "-//W3C//DTD SVG 1.1//EN"
  "http://www.w3.org/Graphics/SVG/1.1/DTD/svg11.dtd">
<svg xmlns:xlink="http://www.w3.org/1999/xlink" width="578.167969pt" height="189.113516pt" viewBox="0 0 578.167969 189.113516" xmlns="http://www.w3.org/2000/svg" version="1.1">
 <metadata>
  <rdf:RDF xmlns:dc="http://purl.org/dc/elements/1.1/" xmlns:cc="http://creativecommons.org/ns#" xmlns:rdf="http://www.w3.org/1999/02/22-rdf-syntax-ns#">
   <cc:Work>
    <dc:type rdf:resource="http://purl.org/dc/dcmitype/StillImage"/>
    <dc:date>2026-05-28T09:22:30.179359</dc:date>
    <dc:format>image/svg+xml</dc:format>
    <dc:creator>
     <cc:Agent>
      <dc:title>Matplotlib v3.10.9, https://matplotlib.org/</dc:title>
     </cc:Agent>
    </dc:creator>
   </cc:Work>
  </rdf:RDF>
 </metadata>
 <defs>
  <style type="text/css">*{stroke-linejoin: round; stroke-linecap: butt}</style>
 </defs>
 <g id="figure_1">
  <g id="patch_1">
   <path d="M 0 189.113516 
L 578.167969 189.113516 
L 578.167969 0 
L 0 0 
z
" style="fill: #ffffff"/>
  </g>
  <g id="axes_1">
   <g id="patch_2">
    <path d="M 28.997969 171.138828 
L 288.002969 171.138828 
L 288.002969 15.898828 
L 28.997969 15.898828 
z
" style="fill: #fafaf8"/>
   </g>
   <g id="matplotlib.axis_1">
    <g id="xtick_1">
     <g id="line2d_1">
      <defs>
       <path id="meb7954a93f" d="M 0 0 
L 0 2 
" style="stroke: #dddddd; stroke-width: 0.8"/>
      </defs>
      <g>
       <use xlink:href="#meb7954a93f" x="28.997969" y="171.138828" style="fill: #dddddd; stroke: #dddddd; stroke-width: 0.8"/>
      </g>
     </g>
     <g id="text_1">
      <!-- Jan -->
      <g style="fill: #aaaaaa" transform="translate(23.6025 180.457734) scale(0.07 -0.07)">
       <defs>
        <path id="DejaVuSans-4a" d="M 628 4666 
L 1259 4666 
L 1259 325 
Q 1259 -519 939 -900 
Q 619 -1281 -91 -1281 
L -331 -1281 
L -331 -750 
L -134 -750 
Q 284 -750 456 -515 
Q 628 -281 628 325 
L 628 4666 
z
" transform="scale(0.015625)"/>
        <path id="DejaVuSans-61" d="M 2194 1759 
Q 1497 1759 1228 1600 
Q 959 1441 959 1056 
Q 959 750 1161 570 
Q 1363 391 1709 391 
Q 2188 391 2477 730 
Q 2766 1069 2766 1631 
L 2766 1759 
L 2194 1759 
z
M 3341 1997 
L 3341 0 
L 2766 0 
L 2766 531 
Q 2569 213 2275 61 
Q 1981 -91 1556 -91 
Q 1019 -91 701 211 
Q 384 513 384 1019 
Q 384 1609 779 1909 
Q 1175 2209 1959 2209 
L 2766 2209 
L 2766 2266 
Q 2766 2663 2505 2880 
Q 2244 3097 1772 3097 
Q 1472 3097 1187 3025 
Q 903 2953 641 2809 
L 641 3341 
Q 956 3463 1253 3523 
Q 1550 3584 1831 3584 
Q 2591 3584 2966 3190 
Q 3341 2797 3341 1997 
z
" transform="scale(0.015625)"/>
        <path id="DejaVuSans-6e" d="M 3513 2113 
L 3513 0 
L 2938 0 
L 2938 2094 
Q 2938 2591 2744 2837 
Q 2550 3084 2163 3084 
Q 1697 3084 1428 2787 
Q 1159 2491 1159 1978 
L 1159 0 
L 581 0 
L 581 3500 
L 1159 3500 
L 1159 2956 
Q 1366 3272 1645 3428 
Q 1925 3584 2291 3584 
Q 2894 3584 3203 3211 
Q 3513 2838 3513 2113 
z
" transform="scale(0.015625)"/>
       </defs>
       <use xlink:href="#DejaVuSans-4a"/>
       <use xlink:href="#DejaVuSans-61" transform="translate(29.492188 0)"/>
       <use xlink:href="#DejaVuSans-6e" transform="translate(90.771484 0)"/>
      </g>
     </g>
    </g>
    <g id="xtick_2">
     <g id="line2d_2">
      <g>
       <use xlink:href="#meb7954a93f" x="51.056087" y="171.138828" style="fill: #dddddd; stroke: #dddddd; stroke-width: 0.8"/>
      </g>
     </g>
     <g id="text_2">
      <!-- Feb -->
      <g style="fill: #aaaaaa" transform="translate(44.859993 180.457734) scale(0.07 -0.07)">
       <defs>
        <path id="DejaVuSans-46" d="M 628 4666 
L 3309 4666 
L 3309 4134 
L 1259 4134 
L 1259 2759 
L 3109 2759 
L 3109 2228 
L 1259 2228 
L 1259 0 
L 628 0 
L 628 4666 
z
" transform="scale(0.015625)"/>
        <path id="DejaVuSans-65" d="M 3597 1894 
L 3597 1613 
L 953 1613 
Q 991 1019 1311 708 
Q 1631 397 2203 397 
Q 2534 397 2845 478 
Q 3156 559 3463 722 
L 3463 178 
Q 3153 47 2828 -22 
Q 2503 -91 2169 -91 
Q 1331 -91 842 396 
Q 353 884 353 1716 
Q 353 2575 817 3079 
Q 1281 3584 2069 3584 
Q 2775 3584 3186 3129 
Q 3597 2675 3597 1894 
z
M 3022 2063 
Q 3016 2534 2758 2815 
Q 2500 3097 2075 3097 
Q 1594 3097 1305 2825 
Q 1016 2553 972 2059 
L 3022 2063 
z
" transform="scale(0.015625)"/>
        <path id="DejaVuSans-62" d="M 3116 1747 
Q 3116 2381 2855 2742 
Q 2594 3103 2138 3103 
Q 1681 3103 1420 2742 
Q 1159 2381 1159 1747 
Q 1159 1113 1420 752 
Q 1681 391 2138 391 
Q 2594 391 2855 752 
Q 3116 1113 3116 1747 
z
M 1159 2969 
Q 1341 3281 1617 3432 
Q 1894 3584 2278 3584 
Q 2916 3584 3314 3078 
Q 3713 2572 3713 1747 
Q 3713 922 3314 415 
Q 2916 -91 2278 -91 
Q 1894 -91 1617 61 
Q 1341 213 1159 525 
L 1159 0 
L 581 0 
L 581 4863 
L 1159 4863 
L 1159 2969 
z
" transform="scale(0.015625)"/>
       </defs>
       <use xlink:href="#DejaVuSans-46"/>
       <use xlink:href="#DejaVuSans-65" transform="translate(52.019531 0)"/>
       <use xlink:href="#DejaVuSans-62" transform="translate(113.542969 0)"/>
      </g>
     </g>
    </g>
    <g id="xtick_3">
     <g id="line2d_3">
      <g>
       <use xlink:href="#meb7954a93f" x="70.979548" y="171.138828" style="fill: #dddddd; stroke: #dddddd; stroke-width: 0.8"/>
      </g>
     </g>
     <g id="text_3">
      <!-- Mar -->
      <g style="fill: #aaaaaa" transform="translate(64.376033 180.457734) scale(0.07 -0.07)">
       <defs>
        <path id="DejaVuSans-4d" d="M 628 4666 
L 1569 4666 
L 2759 1491 
L 3956 4666 
L 4897 4666 
L 4897 0 
L 4281 0 
L 4281 4097 
L 3078 897 
L 2444 897 
L 1241 4097 
L 1241 0 
L 628 0 
L 628 4666 
z
" transform="scale(0.015625)"/>
        <path id="DejaVuSans-72" d="M 2631 2963 
Q 2534 3019 2420 3045 
Q 2306 3072 2169 3072 
Q 1681 3072 1420 2755 
Q 1159 2438 1159 1844 
L 1159 0 
L 581 0 
L 581 3500 
L 1159 3500 
L 1159 2956 
Q 1341 3275 1631 3429 
Q 1922 3584 2338 3584 
Q 2397 3584 2469 3576 
Q 2541 3569 2628 3553 
L 2631 2963 
z
" transform="scale(0.015625)"/>
       </defs>
       <use xlink:href="#DejaVuSans-4d"/>
       <use xlink:href="#DejaVuSans-61" transform="translate(86.279297 0)"/>
       <use xlink:href="#DejaVuSans-72" transform="translate(147.558594 0)"/>
      </g>
     </g>
    </g>
    <g id="xtick_4">
     <g id="line2d_4">
      <g>
       <use xlink:href="#meb7954a93f" x="93.037667" y="171.138828" style="fill: #dddddd; stroke: #dddddd; stroke-width: 0.8"/>
      </g>
     </g>
     <g id="text_4">
      <!-- Apr -->
      <g style="fill: #aaaaaa" transform="translate(86.982667 180.457734) scale(0.07 -0.07)">
       <defs>
        <path id="DejaVuSans-41" d="M 2188 4044 
L 1331 1722 
L 3047 1722 
L 2188 4044 
z
M 1831 4666 
L 2547 4666 
L 4325 0 
L 3669 0 
L 3244 1197 
L 1141 1197 
L 716 0 
L 50 0 
L 1831 4666 
z
" transform="scale(0.015625)"/>
        <path id="DejaVuSans-70" d="M 1159 525 
L 1159 -1331 
L 581 -1331 
L 581 3500 
L 1159 3500 
L 1159 2969 
Q 1341 3281 1617 3432 
Q 1894 3584 2278 3584 
Q 2916 3584 3314 3078 
Q 3713 2572 3713 1747 
Q 3713 922 3314 415 
Q 2916 -91 2278 -91 
Q 1894 -91 1617 61 
Q 1341 213 1159 525 
z
M 3116 1747 
Q 3116 2381 2855 2742 
Q 2594 3103 2138 3103 
Q 1681 3103 1420 2742 
Q 1159 2381 1159 1747 
Q 1159 1113 1420 752 
Q 1681 391 2138 391 
Q 2594 391 2855 752 
Q 3116 1113 3116 1747 
z
" transform="scale(0.015625)"/>
       </defs>
       <use xlink:href="#DejaVuSans-41"/>
       <use xlink:href="#DejaVuSans-70" transform="translate(68.408203 0)"/>
       <use xlink:href="#DejaVuSans-72" transform="translate(131.884766 0)"/>
      </g>
     </g>
    </g>
    <g id="xtick_5">
     <g id="line2d_5">
      <g>
       <use xlink:href="#meb7954a93f" x="114.384232" y="171.138828" style="fill: #dddddd; stroke: #dddddd; stroke-width: 0.8"/>
      </g>
     </g>
     <g id="text_5">
      <!-- May -->
      <g style="fill: #aaaaaa" transform="translate(107.147982 180.457734) scale(0.07 -0.07)">
       <defs>
        <path id="DejaVuSans-79" d="M 2059 -325 
Q 1816 -950 1584 -1140 
Q 1353 -1331 966 -1331 
L 506 -1331 
L 506 -850 
L 844 -850 
Q 1081 -850 1212 -737 
Q 1344 -625 1503 -206 
L 1606 56 
L 191 3500 
L 800 3500 
L 1894 763 
L 2988 3500 
L 3597 3500 
L 2059 -325 
z
" transform="scale(0.015625)"/>
       </defs>
       <use xlink:href="#DejaVuSans-4d"/>
       <use xlink:href="#DejaVuSans-61" transform="translate(86.279297 0)"/>
       <use xlink:href="#DejaVuSans-79" transform="translate(147.558594 0)"/>
      </g>
     </g>
    </g>
    <g id="xtick_6">
     <g id="line2d_6">
      <g>
       <use xlink:href="#meb7954a93f" x="136.442351" y="171.138828" style="fill: #dddddd; stroke: #dddddd; stroke-width: 0.8"/>
      </g>
     </g>
     <g id="text_6">
      <!-- Jun -->
      <g style="fill: #aaaaaa" transform="translate(130.973601 180.457734) scale(0.07 -0.07)">
       <defs>
        <path id="DejaVuSans-75" d="M 544 1381 
L 544 3500 
L 1119 3500 
L 1119 1403 
Q 1119 906 1312 657 
Q 1506 409 1894 409 
Q 2359 409 2629 706 
Q 2900 1003 2900 1516 
L 2900 3500 
L 3475 3500 
L 3475 0 
L 2900 0 
L 2900 538 
Q 2691 219 2414 64 
Q 2138 -91 1772 -91 
Q 1169 -91 856 284 
Q 544 659 544 1381 
z
M 1991 3584 
L 1991 3584 
z
" transform="scale(0.015625)"/>
       </defs>
       <use xlink:href="#DejaVuSans-4a"/>
       <use xlink:href="#DejaVuSans-75" transform="translate(29.492188 0)"/>
       <use xlink:href="#DejaVuSans-6e" transform="translate(92.871094 0)"/>
      </g>
     </g>
    </g>
    <g id="xtick_7">
     <g id="line2d_7">
      <g>
       <use xlink:href="#meb7954a93f" x="157.788917" y="171.138828" style="fill: #dddddd; stroke: #dddddd; stroke-width: 0.8"/>
      </g>
     </g>
     <g id="text_7">
      <!-- Jul -->
      <g style="fill: #aaaaaa" transform="translate(153.565948 180.457734) scale(0.07 -0.07)">
       <defs>
        <path id="DejaVuSans-6c" d="M 603 4863 
L 1178 4863 
L 1178 0 
L 603 0 
L 603 4863 
z
" transform="scale(0.015625)"/>
       </defs>
       <use xlink:href="#DejaVuSans-4a"/>
       <use xlink:href="#DejaVuSans-75" transform="translate(29.492188 0)"/>
       <use xlink:href="#DejaVuSans-6c" transform="translate(92.871094 0)"/>
      </g>
     </g>
    </g>
    <g id="xtick_8">
     <g id="line2d_8">
      <g>
       <use xlink:href="#meb7954a93f" x="179.847035" y="171.138828" style="fill: #dddddd; stroke: #dddddd; stroke-width: 0.8"/>
      </g>
     </g>
     <g id="text_8">
      <!-- Aug -->
      <g style="fill: #aaaaaa" transform="translate(173.012738 180.457734) scale(0.07 -0.07)">
       <defs>
        <path id="DejaVuSans-67" d="M 2906 1791 
Q 2906 2416 2648 2759 
Q 2391 3103 1925 3103 
Q 1463 3103 1205 2759 
Q 947 2416 947 1791 
Q 947 1169 1205 825 
Q 1463 481 1925 481 
Q 2391 481 2648 825 
Q 2906 1169 2906 1791 
z
M 3481 434 
Q 3481 -459 3084 -895 
Q 2688 -1331 1869 -1331 
Q 1566 -1331 1297 -1286 
Q 1028 -1241 775 -1147 
L 775 -588 
Q 1028 -725 1275 -790 
Q 1522 -856 1778 -856 
Q 2344 -856 2625 -561 
Q 2906 -266 2906 331 
L 2906 616 
Q 2728 306 2450 153 
Q 2172 0 1784 0 
Q 1141 0 747 490 
Q 353 981 353 1791 
Q 353 2603 747 3093 
Q 1141 3584 1784 3584 
Q 2172 3584 2450 3431 
Q 2728 3278 2906 2969 
L 2906 3500 
L 3481 3500 
L 3481 434 
z
" transform="scale(0.015625)"/>
       </defs>
       <use xlink:href="#DejaVuSans-41"/>
       <use xlink:href="#DejaVuSans-75" transform="translate(68.408203 0)"/>
       <use xlink:href="#DejaVuSans-67" transform="translate(131.787109 0)"/>
      </g>
     </g>
    </g>
    <g id="xtick_9">
     <g id="line2d_9">
      <g>
       <use xlink:href="#meb7954a93f" x="201.905153" y="171.138828" style="fill: #dddddd; stroke: #dddddd; stroke-width: 0.8"/>
      </g>
     </g>
     <g id="text_9">
      <!-- Sep -->
      <g style="fill: #aaaaaa" transform="translate(195.307653 180.457734) scale(0.07 -0.07)">
       <defs>
        <path id="DejaVuSans-53" d="M 3425 4513 
L 3425 3897 
Q 3066 4069 2747 4153 
Q 2428 4238 2131 4238 
Q 1616 4238 1336 4038 
Q 1056 3838 1056 3469 
Q 1056 3159 1242 3001 
Q 1428 2844 1947 2747 
L 2328 2669 
Q 3034 2534 3370 2195 
Q 3706 1856 3706 1288 
Q 3706 609 3251 259 
Q 2797 -91 1919 -91 
Q 1588 -91 1214 -16 
Q 841 59 441 206 
L 441 856 
Q 825 641 1194 531 
Q 1563 422 1919 422 
Q 2459 422 2753 634 
Q 3047 847 3047 1241 
Q 3047 1584 2836 1778 
Q 2625 1972 2144 2069 
L 1759 2144 
Q 1053 2284 737 2584 
Q 422 2884 422 3419 
Q 422 4038 858 4394 
Q 1294 4750 2059 4750 
Q 2388 4750 2728 4690 
Q 3069 4631 3425 4513 
z
" transform="scale(0.015625)"/>
       </defs>
       <use xlink:href="#DejaVuSans-53"/>
       <use xlink:href="#DejaVuSans-65" transform="translate(63.476562 0)"/>
       <use xlink:href="#DejaVuSans-70" transform="translate(125 0)"/>
      </g>
     </g>
    </g>
    <g id="xtick_10">
     <g id="line2d_10">
      <g>
       <use xlink:href="#meb7954a93f" x="223.251719" y="171.138828" style="fill: #dddddd; stroke: #dddddd; stroke-width: 0.8"/>
      </g>
     </g>
     <g id="text_10">
      <!-- Oct -->
      <g style="fill: #aaaaaa" transform="translate(217.2 180.457734) scale(0.07 -0.07)">
       <defs>
        <path id="DejaVuSans-4f" d="M 2522 4238 
Q 1834 4238 1429 3725 
Q 1025 3213 1025 2328 
Q 1025 1447 1429 934 
Q 1834 422 2522 422 
Q 3209 422 3611 934 
Q 4013 1447 4013 2328 
Q 4013 3213 3611 3725 
Q 3209 4238 2522 4238 
z
M 2522 4750 
Q 3503 4750 4090 4092 
Q 4678 3434 4678 2328 
Q 4678 1225 4090 567 
Q 3503 -91 2522 -91 
Q 1538 -91 948 565 
Q 359 1222 359 2328 
Q 359 3434 948 4092 
Q 1538 4750 2522 4750 
z
" transform="scale(0.015625)"/>
        <path id="DejaVuSans-63" d="M 3122 3366 
L 3122 2828 
Q 2878 2963 2633 3030 
Q 2388 3097 2138 3097 
Q 1578 3097 1268 2742 
Q 959 2388 959 1747 
Q 959 1106 1268 751 
Q 1578 397 2138 397 
Q 2388 397 2633 464 
Q 2878 531 3122 666 
L 3122 134 
Q 2881 22 2623 -34 
Q 2366 -91 2075 -91 
Q 1284 -91 818 406 
Q 353 903 353 1747 
Q 353 2603 823 3093 
Q 1294 3584 2113 3584 
Q 2378 3584 2631 3529 
Q 2884 3475 3122 3366 
z
" transform="scale(0.015625)"/>
        <path id="DejaVuSans-74" d="M 1172 4494 
L 1172 3500 
L 2356 3500 
L 2356 3053 
L 1172 3053 
L 1172 1153 
Q 1172 725 1289 603 
Q 1406 481 1766 481 
L 2356 481 
L 2356 0 
L 1766 0 
Q 1100 0 847 248 
Q 594 497 594 1153 
L 594 3053 
L 172 3053 
L 172 3500 
L 594 3500 
L 594 4494 
L 1172 4494 
z
" transform="scale(0.015625)"/>
       </defs>
       <use xlink:href="#DejaVuSans-4f"/>
       <use xlink:href="#DejaVuSans-63" transform="translate(78.710938 0)"/>
       <use xlink:href="#DejaVuSans-74" transform="translate(133.691406 0)"/>
      </g>
     </g>
    </g>
    <g id="xtick_11">
     <g id="line2d_11">
      <g>
       <use xlink:href="#meb7954a93f" x="245.309837" y="171.138828" style="fill: #dddddd; stroke: #dddddd; stroke-width: 0.8"/>
      </g>
     </g>
     <g id="text_11">
      <!-- Nov -->
      <g style="fill: #aaaaaa" transform="translate(238.478274 180.457734) scale(0.07 -0.07)">
       <defs>
        <path id="DejaVuSans-4e" d="M 628 4666 
L 1478 4666 
L 3547 763 
L 3547 4666 
L 4159 4666 
L 4159 0 
L 3309 0 
L 1241 3903 
L 1241 0 
L 628 0 
L 628 4666 
z
" transform="scale(0.015625)"/>
        <path id="DejaVuSans-6f" d="M 1959 3097 
Q 1497 3097 1228 2736 
Q 959 2375 959 1747 
Q 959 1119 1226 758 
Q 1494 397 1959 397 
Q 2419 397 2687 759 
Q 2956 1122 2956 1747 
Q 2956 2369 2687 2733 
Q 2419 3097 1959 3097 
z
M 1959 3584 
Q 2709 3584 3137 3096 
Q 3566 2609 3566 1747 
Q 3566 888 3137 398 
Q 2709 -91 1959 -91 
Q 1206 -91 779 398 
Q 353 888 353 1747 
Q 353 2609 779 3096 
Q 1206 3584 1959 3584 
z
" transform="scale(0.015625)"/>
        <path id="DejaVuSans-76" d="M 191 3500 
L 800 3500 
L 1894 563 
L 2988 3500 
L 3597 3500 
L 2284 0 
L 1503 0 
L 191 3500 
z
" transform="scale(0.015625)"/>
       </defs>
       <use xlink:href="#DejaVuSans-4e"/>
       <use xlink:href="#DejaVuSans-6f" transform="translate(74.804688 0)"/>
       <use xlink:href="#DejaVuSans-76" transform="translate(135.986328 0)"/>
      </g>
     </g>
    </g>
    <g id="xtick_12">
     <g id="line2d_12">
      <g>
       <use xlink:href="#meb7954a93f" x="266.656403" y="171.138828" style="fill: #dddddd; stroke: #dddddd; stroke-width: 0.8"/>
      </g>
     </g>
     <g id="text_12">
      <!-- Dec -->
      <g style="fill: #aaaaaa" transform="translate(259.883356 180.457734) scale(0.07 -0.07)">
       <defs>
        <path id="DejaVuSans-44" d="M 1259 4147 
L 1259 519 
L 2022 519 
Q 2988 519 3436 956 
Q 3884 1394 3884 2338 
Q 3884 3275 3436 3711 
Q 2988 4147 2022 4147 
L 1259 4147 
z
M 628 4666 
L 1925 4666 
Q 3281 4666 3915 4102 
Q 4550 3538 4550 2338 
Q 4550 1131 3912 565 
Q 3275 0 1925 0 
L 628 0 
L 628 4666 
z
" transform="scale(0.015625)"/>
       </defs>
       <use xlink:href="#DejaVuSans-44"/>
       <use xlink:href="#DejaVuSans-65" transform="translate(77.001953 0)"/>
       <use xlink:href="#DejaVuSans-63" transform="translate(138.525391 0)"/>
      </g>
     </g>
    </g>
   </g>
   <g id="matplotlib.axis_2">
    <g id="ytick_1">
     <g id="line2d_13">
      <path d="M 28.997969 151.224146 
L 288.002969 151.224146 
" clip-path="url(#pd39ee01718)" style="fill: none; stroke: #eeeeee; stroke-width: 0.6; stroke-linecap: square"/>
     </g>
     <g id="line2d_14"/>
     <g id="text_13">
      <!-- 3k -->
      <g style="fill: #999999" transform="translate(17.490781 153.883599) scale(0.07 -0.07)">
       <defs>
        <path id="DejaVuSans-33" d="M 2597 2516 
Q 3050 2419 3304 2112 
Q 3559 1806 3559 1356 
Q 3559 666 3084 287 
Q 2609 -91 1734 -91 
Q 1441 -91 1130 -33 
Q 819 25 488 141 
L 488 750 
Q 750 597 1062 519 
Q 1375 441 1716 441 
Q 2309 441 2620 675 
Q 2931 909 2931 1356 
Q 2931 1769 2642 2001 
Q 2353 2234 1838 2234 
L 1294 2234 
L 1294 2753 
L 1863 2753 
Q 2328 2753 2575 2939 
Q 2822 3125 2822 3475 
Q 2822 3834 2567 4026 
Q 2313 4219 1838 4219 
Q 1578 4219 1281 4162 
Q 984 4106 628 3988 
L 628 4550 
Q 988 4650 1302 4700 
Q 1616 4750 1894 4750 
Q 2613 4750 3031 4423 
Q 3450 4097 3450 3541 
Q 3450 3153 3228 2886 
Q 3006 2619 2597 2516 
z
" transform="scale(0.015625)"/>
        <path id="DejaVuSans-6b" d="M 581 4863 
L 1159 4863 
L 1159 1991 
L 2875 3500 
L 3609 3500 
L 1753 1863 
L 3688 0 
L 2938 0 
L 1159 1709 
L 1159 0 
L 581 0 
L 581 4863 
z
" transform="scale(0.015625)"/>
       </defs>
       <use xlink:href="#DejaVuSans-33"/>
       <use xlink:href="#DejaVuSans-6b" transform="translate(63.623047 0)"/>
      </g>
     </g>
    </g>
    <g id="ytick_2">
     <g id="line2d_15">
      <path d="M 28.997969 129.708554 
L 288.002969 129.708554 
" clip-path="url(#pd39ee01718)" style="fill: none; stroke: #eeeeee; stroke-width: 0.6; stroke-linecap: square"/>
     </g>
     <g id="line2d_16"/>
     <g id="text_14">
      <!-- 4k -->
      <g style="fill: #999999" transform="translate(17.490781 132.368007) scale(0.07 -0.07)">
       <defs>
        <path id="DejaVuSans-34" d="M 2419 4116 
L 825 1625 
L 2419 1625 
L 2419 4116 
z
M 2253 4666 
L 3047 4666 
L 3047 1625 
L 3713 1625 
L 3713 1100 
L 3047 1100 
L 3047 0 
L 2419 0 
L 2419 1100 
L 313 1100 
L 313 1709 
L 2253 4666 
z
" transform="scale(0.015625)"/>
       </defs>
       <use xlink:href="#DejaVuSans-34"/>
       <use xlink:href="#DejaVuSans-6b" transform="translate(63.623047 0)"/>
      </g>
     </g>
    </g>
    <g id="ytick_3">
     <g id="line2d_17">
      <path d="M 28.997969 108.192962 
L 288.002969 108.192962 
" clip-path="url(#pd39ee01718)" style="fill: none; stroke: #eeeeee; stroke-width: 0.6; stroke-linecap: square"/>
     </g>
     <g id="line2d_18"/>
     <g id="text_15">
      <!-- 4k -->
      <g style="fill: #999999" transform="translate(17.490781 110.852415) scale(0.07 -0.07)">
       <use xlink:href="#DejaVuSans-34"/>
       <use xlink:href="#DejaVuSans-6b" transform="translate(63.623047 0)"/>
      </g>
     </g>
    </g>
    <g id="ytick_4">
     <g id="line2d_19">
      <path d="M 28.997969 86.67737 
L 288.002969 86.67737 
" clip-path="url(#pd39ee01718)" style="fill: none; stroke: #eeeeee; stroke-width: 0.6; stroke-linecap: square"/>
     </g>
     <g id="line2d_20"/>
     <g id="text_16">
      <!-- 4k -->
      <g style="fill: #999999" transform="translate(17.490781 89.336823) scale(0.07 -0.07)">
       <use xlink:href="#DejaVuSans-34"/>
       <use xlink:href="#DejaVuSans-6b" transform="translate(63.623047 0)"/>
      </g>
     </g>
    </g>
    <g id="ytick_5">
     <g id="line2d_21">
      <path d="M 28.997969 65.161778 
L 288.002969 65.161778 
" clip-path="url(#pd39ee01718)" style="fill: none; stroke: #eeeeee; stroke-width: 0.6; stroke-linecap: square"/>
     </g>
     <g id="line2d_22"/>
     <g id="text_17">
      <!-- 5k -->
      <g style="fill: #999999" transform="translate(17.490781 67.821231) scale(0.07 -0.07)">
       <defs>
        <path id="DejaVuSans-35" d="M 691 4666 
L 3169 4666 
L 3169 4134 
L 1269 4134 
L 1269 2991 
Q 1406 3038 1543 3061 
Q 1681 3084 1819 3084 
Q 2600 3084 3056 2656 
Q 3513 2228 3513 1497 
Q 3513 744 3044 326 
Q 2575 -91 1722 -91 
Q 1428 -91 1123 -41 
Q 819 9 494 109 
L 494 744 
Q 775 591 1075 516 
Q 1375 441 1709 441 
Q 2250 441 2565 725 
Q 2881 1009 2881 1497 
Q 2881 1984 2565 2268 
Q 2250 2553 1709 2553 
Q 1456 2553 1204 2497 
Q 953 2441 691 2322 
L 691 4666 
z
" transform="scale(0.015625)"/>
       </defs>
       <use xlink:href="#DejaVuSans-35"/>
       <use xlink:href="#DejaVuSans-6b" transform="translate(63.623047 0)"/>
      </g>
     </g>
    </g>
    <g id="ytick_6">
     <g id="line2d_23">
      <path d="M 28.997969 43.646186 
L 288.002969 43.646186 
" clip-path="url(#pd39ee01718)" style="fill: none; stroke: #eeeeee; stroke-width: 0.6; stroke-linecap: square"/>
     </g>
     <g id="line2d_24"/>
     <g id="text_18">
      <!-- 6k -->
      <g style="fill: #999999" transform="translate(17.490781 46.305639) scale(0.07 -0.07)">
       <defs>
        <path id="DejaVuSans-36" d="M 2113 2584 
Q 1688 2584 1439 2293 
Q 1191 2003 1191 1497 
Q 1191 994 1439 701 
Q 1688 409 2113 409 
Q 2538 409 2786 701 
Q 3034 994 3034 1497 
Q 3034 2003 2786 2293 
Q 2538 2584 2113 2584 
z
M 3366 4563 
L 3366 3988 
Q 3128 4100 2886 4159 
Q 2644 4219 2406 4219 
Q 1781 4219 1451 3797 
Q 1122 3375 1075 2522 
Q 1259 2794 1537 2939 
Q 1816 3084 2150 3084 
Q 2853 3084 3261 2657 
Q 3669 2231 3669 1497 
Q 3669 778 3244 343 
Q 2819 -91 2113 -91 
Q 1303 -91 875 529 
Q 447 1150 447 2328 
Q 447 3434 972 4092 
Q 1497 4750 2381 4750 
Q 2619 4750 2861 4703 
Q 3103 4656 3366 4563 
z
" transform="scale(0.015625)"/>
       </defs>
       <use xlink:href="#DejaVuSans-36"/>
       <use xlink:href="#DejaVuSans-6b" transform="translate(63.623047 0)"/>
      </g>
     </g>
    </g>
    <g id="ytick_7">
     <g id="line2d_25">
      <path d="M 28.997969 22.130594 
L 288.002969 22.130594 
" clip-path="url(#pd39ee01718)" style="fill: none; stroke: #eeeeee; stroke-width: 0.6; stroke-linecap: square"/>
     </g>
     <g id="line2d_26"/>
     <g id="text_19">
      <!-- 6k -->
      <g style="fill: #999999" transform="translate(17.490781 24.790047) scale(0.07 -0.07)">
       <use xlink:href="#DejaVuSans-36"/>
       <use xlink:href="#DejaVuSans-6b" transform="translate(63.623047 0)"/>
      </g>
     </g>
    </g>
    <g id="text_20">
     <!-- Electricity demand (MW) -->
     <g style="fill: #aaaaaa" transform="translate(12.138984 133.625352) rotate(-90) scale(0.065 -0.065)">
      <defs>
       <path id="DejaVuSans-45" d="M 628 4666 
L 3578 4666 
L 3578 4134 
L 1259 4134 
L 1259 2753 
L 3481 2753 
L 3481 2222 
L 1259 2222 
L 1259 531 
L 3634 531 
L 3634 0 
L 628 0 
L 628 4666 
z
" transform="scale(0.015625)"/>
       <path id="DejaVuSans-69" d="M 603 3500 
L 1178 3500 
L 1178 0 
L 603 0 
L 603 3500 
z
M 603 4863 
L 1178 4863 
L 1178 4134 
L 603 4134 
L 603 4863 
z
" transform="scale(0.015625)"/>
       <path id="DejaVuSans-20" transform="scale(0.015625)"/>
       <path id="DejaVuSans-64" d="M 2906 2969 
L 2906 4863 
L 3481 4863 
L 3481 0 
L 2906 0 
L 2906 525 
Q 2725 213 2448 61 
Q 2172 -91 1784 -91 
Q 1150 -91 751 415 
Q 353 922 353 1747 
Q 353 2572 751 3078 
Q 1150 3584 1784 3584 
Q 2172 3584 2448 3432 
Q 2725 3281 2906 2969 
z
M 947 1747 
Q 947 1113 1208 752 
Q 1469 391 1925 391 
Q 2381 391 2643 752 
Q 2906 1113 2906 1747 
Q 2906 2381 2643 2742 
Q 2381 3103 1925 3103 
Q 1469 3103 1208 2742 
Q 947 2381 947 1747 
z
" transform="scale(0.015625)"/>
       <path id="DejaVuSans-6d" d="M 3328 2828 
Q 3544 3216 3844 3400 
Q 4144 3584 4550 3584 
Q 5097 3584 5394 3201 
Q 5691 2819 5691 2113 
L 5691 0 
L 5113 0 
L 5113 2094 
Q 5113 2597 4934 2840 
Q 4756 3084 4391 3084 
Q 3944 3084 3684 2787 
Q 3425 2491 3425 1978 
L 3425 0 
L 2847 0 
L 2847 2094 
Q 2847 2600 2669 2842 
Q 2491 3084 2119 3084 
Q 1678 3084 1418 2786 
Q 1159 2488 1159 1978 
L 1159 0 
L 581 0 
L 581 3500 
L 1159 3500 
L 1159 2956 
Q 1356 3278 1631 3431 
Q 1906 3584 2284 3584 
Q 2666 3584 2933 3390 
Q 3200 3197 3328 2828 
z
" transform="scale(0.015625)"/>
       <path id="DejaVuSans-28" d="M 1984 4856 
Q 1566 4138 1362 3434 
Q 1159 2731 1159 2009 
Q 1159 1288 1364 580 
Q 1569 -128 1984 -844 
L 1484 -844 
Q 1016 -109 783 600 
Q 550 1309 550 2009 
Q 550 2706 781 3412 
Q 1013 4119 1484 4856 
L 1984 4856 
z
" transform="scale(0.015625)"/>
       <path id="DejaVuSans-57" d="M 213 4666 
L 850 4666 
L 1831 722 
L 2809 4666 
L 3519 4666 
L 4500 722 
L 5478 4666 
L 6119 4666 
L 4947 0 
L 4153 0 
L 3169 4050 
L 2175 0 
L 1381 0 
L 213 4666 
z
" transform="scale(0.015625)"/>
       <path id="DejaVuSans-29" d="M 513 4856 
L 1013 4856 
Q 1481 4119 1714 3412 
Q 1947 2706 1947 2009 
Q 1947 1309 1714 600 
Q 1481 -109 1013 -844 
L 513 -844 
Q 928 -128 1133 580 
Q 1338 1288 1338 2009 
Q 1338 2731 1133 3434 
Q 928 4138 513 4856 
z
" transform="scale(0.015625)"/>
      </defs>
      <use xlink:href="#DejaVuSans-45"/>
      <use xlink:href="#DejaVuSans-6c" transform="translate(63.183594 0)"/>
      <use xlink:href="#DejaVuSans-65" transform="translate(90.966797 0)"/>
      <use xlink:href="#DejaVuSans-63" transform="translate(152.490234 0)"/>
      <use xlink:href="#DejaVuSans-74" transform="translate(207.470703 0)"/>
      <use xlink:href="#DejaVuSans-72" transform="translate(246.679688 0)"/>
      <use xlink:href="#DejaVuSans-69" transform="translate(287.792969 0)"/>
      <use xlink:href="#DejaVuSans-63" transform="translate(315.576172 0)"/>
      <use xlink:href="#DejaVuSans-69" transform="translate(370.556641 0)"/>
      <use xlink:href="#DejaVuSans-74" transform="translate(398.339844 0)"/>
      <use xlink:href="#DejaVuSans-79" transform="translate(437.548828 0)"/>
      <use xlink:href="#DejaVuSans-20" transform="translate(496.728516 0)"/>
      <use xlink:href="#DejaVuSans-64" transform="translate(528.515625 0)"/>
      <use xlink:href="#DejaVuSans-65" transform="translate(591.992188 0)"/>
      <use xlink:href="#DejaVuSans-6d" transform="translate(653.515625 0)"/>
      <use xlink:href="#DejaVuSans-61" transform="translate(750.927734 0)"/>
      <use xlink:href="#DejaVuSans-6e" transform="translate(812.207031 0)"/>
      <use xlink:href="#DejaVuSans-64" transform="translate(875.585938 0)"/>
      <use xlink:href="#DejaVuSans-20" transform="translate(939.0625 0)"/>
      <use xlink:href="#DejaVuSans-28" transform="translate(970.849609 0)"/>
      <use xlink:href="#DejaVuSans-4d" transform="translate(1009.863281 0)"/>
      <use xlink:href="#DejaVuSans-57" transform="translate(1096.142578 0)"/>
      <use xlink:href="#DejaVuSans-29" transform="translate(1195.019531 0)"/>
     </g>
    </g>
   </g>
   <g id="line2d_27">
    <path d="M 28.997969 142.464458 
L 29.709521 142.135877 
L 30.421073 142.32556 
L 31.132625 142.767632 
L 31.844178 142.557064 
L 32.55573 144.685912 
L 33.267282 147.295101 
L 33.978834 149.347238 
L 34.690386 150.499699 
L 35.401939 151.34609 
L 36.113491 152.434196 
L 36.825043 152.715554 
L 37.536595 152.648368 
L 38.9597 151.626161 
L 40.382804 152.510649 
L 41.094356 151.909835 
L 41.805908 151.729385 
L 42.517461 152.301368 
L 43.229013 152.490056 
L 43.940565 152.891885 
L 44.652117 152.516827 
L 45.363669 151.576221 
L 46.075221 151.653447 
L 46.786774 152.025416 
L 47.498326 152.836026 
L 48.92143 153.246234 
L 49.632982 154.026599 
L 50.344535 153.490267 
L 51.056087 152.195829 
L 51.767639 151.395701 
L 52.479191 150.087693 
L 54.613848 151.176515 
L 56.748504 158.466484 
L 57.460057 159.960323 
L 58.883161 161.187105 
L 59.594713 161.27238 
L 60.306265 161.001748 
L 61.017818 160.392059 
L 61.72937 160.111214 
L 63.152474 160.295805 
L 63.864026 159.6565 
L 64.575579 157.798328 
L 65.287131 155.095579 
L 65.998683 153.833053 
L 66.710235 152.861585 
L 67.421787 152.216407 
L 68.13334 151.907989 
L 68.844892 152.792035 
L 69.556444 155.222273 
L 70.267996 158.44289 
L 70.979548 160.410061 
L 71.691101 161.435975 
L 72.402653 162.005494 
L 73.114205 161.669168 
L 75.248862 159.619177 
L 75.960414 159.122942 
L 76.671966 159.055577 
L 77.383518 159.361803 
L 79.518175 161.908543 
L 80.229727 162.578075 
L 80.941279 163.55409 
L 81.652831 163.880371 
L 82.364384 163.877028 
L 83.787488 164.0151 
L 85.210592 164.082464 
L 85.922145 163.468984 
L 87.345249 160.705752 
L 88.056801 158.319709 
L 88.768353 157.621895 
L 89.479906 157.944833 
L 90.191458 157.982372 
L 90.90301 158.288665 
L 91.614562 159.388065 
L 92.326114 160.005452 
L 93.037667 161.429566 
L 93.749219 160.402194 
L 96.595428 150.143682 
L 97.30698 148.17507 
L 98.018532 147.145636 
L 98.730084 148.105407 
L 100.864741 157.574222 
L 101.576293 160.025898 
L 102.287845 161.490598 
L 102.999397 161.433139 
L 103.71095 158.901122 
L 105.134054 152.232298 
L 105.845606 150.248177 
L 106.557158 150.686494 
L 107.980263 152.166703 
L 108.691815 152.733159 
L 110.826471 151.797286 
L 112.249576 147.03132 
L 112.961128 145.059398 
L 113.67268 144.694517 
L 114.384232 145.04402 
L 115.095785 144.487846 
L 115.807337 142.769827 
L 117.230441 138.56078 
L 117.941993 138.910013 
L 118.653546 139.918905 
L 119.365098 140.657417 
L 120.788202 145.527017 
L 121.499754 146.182449 
L 122.211307 144.86064 
L 124.345963 131.015475 
L 125.057515 125.134495 
L 125.769068 121.067582 
L 126.48062 120.768844 
L 127.192172 122.455307 
L 127.903724 125.009627 
L 128.615276 126.178709 
L 129.326829 126.252337 
L 130.038381 124.650943 
L 131.461485 118.263775 
L 132.173037 116.461399 
L 132.88459 116.829287 
L 133.596142 117.946879 
L 134.307694 118.587585 
L 135.730798 121.131899 
L 136.442351 121.356841 
L 137.153903 119.603489 
L 137.865455 114.625681 
L 140.711664 88.756301 
L 141.423216 80.40584 
L 142.134768 73.502923 
L 142.84632 68.307531 
L 143.557873 67.921186 
L 144.269425 69.830392 
L 144.980977 71.367765 
L 145.692529 71.794396 
L 146.404081 74.692486 
L 147.827186 88.33017 
L 148.538738 90.057463 
L 149.961842 84.853564 
L 150.673395 87.046273 
L 151.384947 86.876371 
L 152.096499 82.923089 
L 152.808051 79.93617 
L 153.519603 75.876543 
L 154.231156 73.551466 
L 154.942708 74.889412 
L 155.65426 71.663221 
L 157.077364 69.459462 
L 157.788917 67.350419 
L 158.500469 67.840488 
L 159.212021 70.833517 
L 159.923573 71.633545 
L 160.635125 72.258057 
L 161.346678 69.977978 
L 162.05823 65.516661 
L 164.904439 38.027747 
L 166.327543 32.987436 
L 167.039095 32.64878 
L 167.750647 36.02572 
L 168.4622 37.927346 
L 169.173752 38.564863 
L 169.885304 39.032011 
L 170.596856 36.485585 
L 171.308408 36.246029 
L 172.731513 40.96407 
L 174.154617 52.491914 
L 174.866169 60.284133 
L 175.577721 69.718134 
L 176.289274 76.551347 
L 177.000826 81.236614 
L 177.712378 80.827946 
L 179.135482 72.053993 
L 180.558587 68.276483 
L 181.270139 65.519355 
L 181.981691 59.817115 
L 182.693243 58.538236 
L 184.116348 63.54731 
L 184.8279 62.57488 
L 185.539452 58.396139 
L 186.251004 61.993352 
L 186.962557 64.438503 
L 187.674109 67.901126 
L 188.385661 66.754962 
L 189.097213 63.828288 
L 189.808765 62.576489 
L 190.520318 65.566704 
L 191.23187 66.24207 
L 191.943422 69.022356 
L 193.366526 71.066953 
L 194.078079 74.509736 
L 194.789631 75.54115 
L 195.501183 72.962749 
L 196.212735 68.263877 
L 196.924287 66.013373 
L 197.63584 60.78311 
L 198.347392 57.735787 
L 199.058944 53.353284 
L 199.770496 52.384102 
L 200.482048 52.842541 
L 201.193601 54.065357 
L 201.905153 53.0695 
L 203.328257 58.167622 
L 204.039809 61.14406 
L 204.751362 62.148518 
L 205.462914 64.531659 
L 206.886018 74.790081 
L 207.59757 77.849637 
L 208.309123 82.860382 
L 209.732227 95.907543 
L 210.443779 100.145743 
L 211.155331 101.144931 
L 211.866884 103.504227 
L 212.578436 105.428309 
L 214.00154 103.973326 
L 214.713092 105.033252 
L 215.424645 104.48961 
L 216.136197 103.767264 
L 216.847749 101.53296 
L 217.559301 101.056834 
L 218.270853 100.437142 
L 218.982406 99.326264 
L 219.693958 96.91426 
L 220.40551 98.00807 
L 221.117062 97.105829 
L 221.828614 96.677865 
L 222.540167 95.451721 
L 223.251719 99.821806 
L 223.963271 101.897452 
L 225.386375 104.247297 
L 226.097928 107.398734 
L 227.521032 115.891862 
L 228.232584 116.112099 
L 229.655689 118.880948 
L 230.367241 118.823331 
L 231.078793 118.909756 
L 232.501897 124.855619 
L 233.925002 130.163656 
L 235.348106 135.077259 
L 236.059658 136.591725 
L 236.771211 135.534695 
L 237.482763 137.234398 
L 238.194315 139.795394 
L 240.328971 148.848808 
L 241.040524 152.474104 
L 241.752076 154.748093 
L 242.463628 154.534048 
L 243.17518 154.481865 
L 243.886732 154.256856 
L 244.598285 154.209775 
L 246.021389 155.05334 
L 246.732941 156.125301 
L 247.444493 156.992375 
L 248.156046 157.507783 
L 248.867598 157.470139 
L 249.57915 158.307322 
L 251.002254 158.513589 
L 251.713807 158.133801 
L 253.136911 156.304992 
L 253.848463 156.172724 
L 255.271568 154.191536 
L 255.98312 153.910241 
L 257.406224 153.781582 
L 258.117776 153.680512 
L 258.829329 153.405404 
L 259.540881 153.935508 
L 260.252433 155.575841 
L 260.963985 155.443573 
L 263.098642 153.023038 
L 263.810194 152.593746 
L 264.521746 152.031161 
L 265.233298 150.367859 
L 265.944851 149.019923 
L 266.656403 148.71991 
L 268.079507 150.907131 
L 268.791059 151.641006 
L 269.502612 151.424062 
L 270.214164 151.051943 
L 270.925716 151.268886 
L 271.637268 151.079535 
L 272.34882 149.586247 
L 273.060373 146.991029 
L 274.483477 140.735369 
L 275.906581 136.073242 
L 276.618134 134.194923 
L 277.329686 132.64645 
L 278.041238 132.410268 
L 278.75279 133.270447 
L 279.464342 134.400222 
L 280.887447 139.015265 
L 281.598999 142.029687 
L 282.310551 145.727594 
L 283.022103 148.168902 
L 283.733656 149.772307 
L 284.445208 150.720579 
L 285.868312 151.176742 
L 286.579864 149.758342 
L 287.291417 147.793137 
L 288.002969 147.064314 
L 288.002969 147.064314 
" clip-path="url(#pd39ee01718)" style="fill: none; stroke: #2166ac; stroke-opacity: 0.9; stroke-width: 1.5; stroke-linecap: round"/>
   </g>
   <g id="line2d_28">
    <path d="M 28.997969 134.088854 
L 29.709521 132.258107 
L 31.132625 130.933593 
L 32.55573 123.021303 
L 33.267282 120.365703 
L 33.978834 118.647522 
L 34.690386 116.413761 
L 35.401939 115.062143 
L 36.113491 115.883405 
L 38.9597 126.297436 
L 39.671252 130.449598 
L 40.382804 133.737703 
L 41.094356 134.763771 
L 41.805908 134.965011 
L 42.517461 135.387615 
L 43.229013 136.451383 
L 43.940565 136.86176 
L 44.652117 136.826606 
L 45.363669 137.395173 
L 46.075221 139.126599 
L 47.498326 143.718177 
L 48.209878 145.61034 
L 48.92143 146.716303 
L 49.632982 147.213987 
L 50.344535 146.813952 
L 51.767639 144.526307 
L 52.479191 142.898326 
L 53.902296 137.339656 
L 54.613848 134.259223 
L 56.036952 131.749355 
L 56.748504 130.791804 
L 57.460057 130.729495 
L 58.171609 132.142519 
L 58.883161 134.75409 
L 59.594713 138.086849 
L 61.72937 145.705541 
L 62.440922 147.317593 
L 63.152474 148.58952 
L 64.575579 150.166298 
L 65.287131 150.391589 
L 65.998683 150.256415 
L 66.710235 149.534969 
L 67.421787 149.512569 
L 68.13334 149.736572 
L 68.844892 150.131539 
L 70.267996 150.568611 
L 70.979548 150.890049 
L 71.691101 152.031563 
L 72.402653 152.322487 
L 73.114205 151.76903 
L 73.825757 150.697436 
L 74.537309 150.424876 
L 75.960414 150.329701 
L 77.383518 149.260208 
L 78.09507 149.91347 
L 78.806623 150.253975 
L 79.518175 148.929816 
L 80.229727 147.336728 
L 80.941279 146.481964 
L 81.652831 145.811845 
L 82.364384 145.82533 
L 83.075936 145.668433 
L 83.787488 146.069882 
L 84.49904 147.09062 
L 85.210592 147.7527 
L 85.922145 147.303274 
L 86.633697 147.271376 
L 87.345249 147.047571 
L 88.056801 146.222111 
L 88.768353 145.816513 
L 89.479906 146.034094 
L 90.191458 146.517493 
L 91.614562 146.566833 
L 92.326114 146.956322 
L 93.749219 149.083052 
L 94.460771 149.150278 
L 95.172323 150.12988 
L 95.883875 151.587939 
L 96.595428 152.789768 
L 97.30698 153.487286 
L 98.018532 153.190821 
L 99.441636 150.707858 
L 100.153189 148.974575 
L 100.864741 148.710045 
L 101.576293 149.422732 
L 102.287845 148.900059 
L 103.71095 146.518491 
L 104.422502 146.418162 
L 105.134054 144.714684 
L 105.845606 141.36548 
L 106.557158 135.76298 
L 107.268711 131.172027 
L 107.980263 128.88041 
L 108.691815 128.560792 
L 109.403367 129.218657 
L 111.538024 136.891889 
L 112.249576 138.402158 
L 112.961128 139.185922 
L 113.67268 138.640039 
L 114.384232 136.348025 
L 115.095785 133.271477 
L 115.807337 131.650978 
L 116.518889 133.344274 
L 117.230441 136.164105 
L 118.653546 138.449967 
L 119.365098 139.672254 
L 120.07665 140.263559 
L 120.788202 139.456087 
L 121.499754 134.903686 
L 122.211307 129.392059 
L 123.634411 120.503425 
L 125.057515 112.364808 
L 125.769068 109.848093 
L 126.48062 110.12893 
L 127.903724 115.802877 
L 128.615276 117.50336 
L 129.326829 118.29898 
L 130.749933 122.798047 
L 131.461485 122.390962 
L 133.596142 109.656144 
L 135.730798 99.888412 
L 136.442351 97.868646 
L 137.153903 97.319601 
L 137.865455 96.263718 
L 139.288559 87.69848 
L 140.000112 83.985125 
L 140.711664 81.003222 
L 141.423216 78.639599 
L 142.134768 75.785321 
L 142.84632 73.394752 
L 143.557873 73.87414 
L 144.269425 76.424422 
L 144.980977 76.257359 
L 145.692529 74.126939 
L 146.404081 72.834038 
L 147.115634 74.165888 
L 147.827186 75.872282 
L 148.538738 76.282345 
L 149.25029 70.125511 
L 149.961842 65.391161 
L 150.673395 63.01529 
L 152.096499 51.437237 
L 152.808051 47.907603 
L 153.519603 42.817081 
L 154.231156 42.535867 
L 154.942708 42.491529 
L 155.65426 40.387319 
L 156.365812 41.579237 
L 157.077364 39.898981 
L 157.788917 36.451275 
L 158.500469 36.122526 
L 159.212021 35.473304 
L 159.923573 34.294755 
L 160.635125 33.38869 
L 162.05823 29.054719 
L 163.481334 25.78343 
L 164.192886 24.763599 
L 164.904439 23.447745 
L 165.615991 22.955192 
L 167.039095 28.140541 
L 167.750647 29.25765 
L 168.4622 30.806975 
L 169.173752 30.941196 
L 170.596856 30.506518 
L 171.308408 33.089711 
L 172.019961 31.041184 
L 173.443065 27.898697 
L 174.154617 30.66315 
L 174.866169 32.590016 
L 175.577721 35.237241 
L 176.289274 33.275403 
L 177.000826 35.247584 
L 177.712378 38.510254 
L 178.42393 41.236709 
L 179.135482 39.526855 
L 179.847035 37.29175 
L 181.270139 29.105379 
L 181.981691 25.53769 
L 182.693243 25.416138 
L 183.404796 25.533301 
L 184.116348 27.684364 
L 184.8279 29.395442 
L 186.251004 37.512843 
L 186.962557 41.565437 
L 188.385661 41.218933 
L 189.097213 39.190518 
L 189.808765 37.929395 
L 190.520318 37.071363 
L 191.23187 37.895742 
L 191.943422 35.630258 
L 192.654974 33.988979 
L 193.366526 35.454763 
L 194.078079 38.649574 
L 194.789631 44.57852 
L 195.501183 48.582004 
L 196.212735 50.624878 
L 196.924287 55.18551 
L 197.63584 58.958657 
L 198.347392 60.550828 
L 199.058944 60.851463 
L 199.770496 59.886987 
L 200.482048 59.483237 
L 201.193601 60.244616 
L 202.616705 60.211575 
L 203.328257 57.589361 
L 204.039809 54.32747 
L 204.751362 52.32191 
L 205.462914 51.836879 
L 206.174466 51.143218 
L 206.886018 52.326024 
L 207.59757 55.05178 
L 208.309123 60.280863 
L 209.020675 67.852566 
L 209.732227 72.873503 
L 211.155331 78.47362 
L 213.289988 95.975379 
L 214.00154 98.276611 
L 215.424645 108.712511 
L 216.136197 110.189143 
L 216.847749 107.129385 
L 218.982406 89.890231 
L 220.40551 73.230983 
L 221.117062 68.863531 
L 221.828614 66.596722 
L 222.540167 65.226118 
L 223.251719 67.101801 
L 223.963271 69.83422 
L 225.386375 78.482492 
L 226.80948 83.431646 
L 227.521032 87.035695 
L 228.944136 90.507381 
L 229.655689 92.730339 
L 230.367241 95.807262 
L 233.21345 113.526725 
L 233.925002 119.684292 
L 235.348106 134.016279 
L 236.059658 139.004676 
L 236.771211 142.497996 
L 237.482763 143.969112 
L 238.194315 144.439479 
L 238.905867 143.546899 
L 240.328971 137.306285 
L 241.040524 136.145722 
L 241.752076 137.016435 
L 243.17518 143.77301 
L 243.886732 145.50417 
L 245.309837 148.143755 
L 246.021389 149.183554 
L 246.732941 148.334708 
L 247.444493 146.339805 
L 248.156046 143.717436 
L 248.867598 142.349689 
L 249.57915 141.430925 
L 250.290702 141.406227 
L 251.002254 140.510341 
L 251.713807 141.080474 
L 252.425359 140.273501 
L 253.136911 140.04472 
L 253.848463 141.233341 
L 254.560015 141.968301 
L 255.271568 141.231522 
L 255.98312 141.12779 
L 256.694672 139.928769 
L 258.117776 138.144536 
L 258.829329 136.471835 
L 259.540881 135.827868 
L 260.252433 136.53189 
L 260.963985 136.238894 
L 261.675537 136.667858 
L 263.098642 138.647855 
L 263.810194 140.361373 
L 264.521746 140.494742 
L 265.233298 139.986721 
L 265.944851 139.621622 
L 266.656403 138.873404 
L 267.367955 138.318386 
L 268.079507 137.916453 
L 268.791059 136.751368 
L 269.502612 136.243877 
L 270.214164 136.518008 
L 270.925716 137.116677 
L 271.637268 136.536976 
L 272.34882 134.587143 
L 273.060373 133.247931 
L 273.771925 132.317707 
L 274.483477 130.915095 
L 275.195029 129.879116 
L 275.906581 127.297354 
L 276.618134 126.096637 
L 277.329686 126.482758 
L 278.041238 126.477561 
L 278.75279 126.181604 
L 279.464342 126.72129 
L 280.175895 126.354138 
L 281.598999 129.92199 
L 282.310551 133.639509 
L 283.022103 134.634953 
L 283.733656 134.738889 
L 284.445208 134.594418 
L 285.15676 135.299102 
L 285.868312 135.752521 
L 286.579864 135.328983 
L 287.291417 133.052835 
L 288.002969 133.258793 
L 288.714521 134.543555 
L 288.714521 134.543555 
" clip-path="url(#pd39ee01718)" style="fill: none; stroke: #d6604d; stroke-opacity: 0.9; stroke-width: 1.5; stroke-linecap: round"/>
   </g>
   <g id="patch_3">
    <path d="M 28.997969 171.138828 
L 28.997969 15.898828 
" style="fill: none; stroke: #dddddd; stroke-width: 0.8; stroke-linejoin: miter; stroke-linecap: square"/>
   </g>
   <g id="patch_4">
    <path d="M 28.997969 171.138828 
L 288.002969 171.138828 
" style="fill: none; stroke: #dddddd; stroke-width: 0.8; stroke-linejoin: miter; stroke-linecap: square"/>
   </g>
   <g id="text_21">
    <!-- AZPS +9.6%  ·  Arizona Public Service -->
    <g style="fill: #222222" transform="translate(28.997969 12.898828) scale(0.075 -0.075)">
     <defs>
      <path id="DejaVuSans-Bold-41" d="M 3419 850 
L 1538 850 
L 1241 0 
L 31 0 
L 1759 4666 
L 3194 4666 
L 4922 0 
L 3713 0 
L 3419 850 
z
M 1838 1716 
L 3116 1716 
L 2478 3572 
L 1838 1716 
z
" transform="scale(0.015625)"/>
      <path id="DejaVuSans-Bold-5a" d="M 359 4666 
L 4281 4666 
L 4281 3938 
L 1778 909 
L 4353 909 
L 4353 0 
L 288 0 
L 288 728 
L 2791 3756 
L 359 3756 
L 359 4666 
z
" transform="scale(0.015625)"/>
      <path id="DejaVuSans-Bold-50" d="M 588 4666 
L 2584 4666 
Q 3475 4666 3951 4270 
Q 4428 3875 4428 3144 
Q 4428 2409 3951 2014 
Q 3475 1619 2584 1619 
L 1791 1619 
L 1791 0 
L 588 0 
L 588 4666 
z
M 1791 3794 
L 1791 2491 
L 2456 2491 
Q 2806 2491 2997 2661 
Q 3188 2831 3188 3144 
Q 3188 3456 2997 3625 
Q 2806 3794 2456 3794 
L 1791 3794 
z
" transform="scale(0.015625)"/>
      <path id="DejaVuSans-Bold-53" d="M 3834 4519 
L 3834 3531 
Q 3450 3703 3084 3790 
Q 2719 3878 2394 3878 
Q 1963 3878 1756 3759 
Q 1550 3641 1550 3391 
Q 1550 3203 1689 3098 
Q 1828 2994 2194 2919 
L 2706 2816 
Q 3484 2659 3812 2340 
Q 4141 2022 4141 1434 
Q 4141 663 3683 286 
Q 3225 -91 2284 -91 
Q 1841 -91 1394 -6 
Q 947 78 500 244 
L 500 1259 
Q 947 1022 1364 901 
Q 1781 781 2169 781 
Q 2563 781 2772 912 
Q 2981 1044 2981 1288 
Q 2981 1506 2839 1625 
Q 2697 1744 2272 1838 
L 1806 1941 
Q 1106 2091 782 2419 
Q 459 2747 459 3303 
Q 459 4000 909 4375 
Q 1359 4750 2203 4750 
Q 2588 4750 2994 4692 
Q 3400 4634 3834 4519 
z
" transform="scale(0.015625)"/>
      <path id="DejaVuSans-Bold-20" transform="scale(0.015625)"/>
      <path id="DejaVuSans-Bold-2b" d="M 3053 4013 
L 3053 2375 
L 4684 2375 
L 4684 1638 
L 3053 1638 
L 3053 0 
L 2309 0 
L 2309 1638 
L 678 1638 
L 678 2375 
L 2309 2375 
L 2309 4013 
L 3053 4013 
z
" transform="scale(0.015625)"/>
      <path id="DejaVuSans-Bold-39" d="M 641 103 
L 641 966 
Q 928 831 1190 764 
Q 1453 697 1709 697 
Q 2247 697 2547 995 
Q 2847 1294 2900 1881 
Q 2688 1725 2447 1647 
Q 2206 1569 1925 1569 
Q 1209 1569 770 1986 
Q 331 2403 331 3084 
Q 331 3838 820 4291 
Q 1309 4744 2131 4744 
Q 3044 4744 3544 4128 
Q 4044 3513 4044 2388 
Q 4044 1231 3459 570 
Q 2875 -91 1856 -91 
Q 1528 -91 1228 -42 
Q 928 6 641 103 
z
M 2125 2350 
Q 2441 2350 2600 2554 
Q 2759 2759 2759 3169 
Q 2759 3575 2600 3781 
Q 2441 3988 2125 3988 
Q 1809 3988 1650 3781 
Q 1491 3575 1491 3169 
Q 1491 2759 1650 2554 
Q 1809 2350 2125 2350 
z
" transform="scale(0.015625)"/>
      <path id="DejaVuSans-Bold-2e" d="M 653 1209 
L 1778 1209 
L 1778 0 
L 653 0 
L 653 1209 
z
" transform="scale(0.015625)"/>
      <path id="DejaVuSans-Bold-36" d="M 2316 2303 
Q 2000 2303 1842 2098 
Q 1684 1894 1684 1484 
Q 1684 1075 1842 870 
Q 2000 666 2316 666 
Q 2634 666 2792 870 
Q 2950 1075 2950 1484 
Q 2950 1894 2792 2098 
Q 2634 2303 2316 2303 
z
M 3803 4544 
L 3803 3681 
Q 3506 3822 3243 3889 
Q 2981 3956 2731 3956 
Q 2194 3956 1894 3657 
Q 1594 3359 1544 2772 
Q 1750 2925 1990 3001 
Q 2231 3078 2516 3078 
Q 3231 3078 3670 2659 
Q 4109 2241 4109 1563 
Q 4109 813 3618 361 
Q 3128 -91 2303 -91 
Q 1394 -91 895 523 
Q 397 1138 397 2266 
Q 397 3422 980 4083 
Q 1563 4744 2578 4744 
Q 2900 4744 3203 4694 
Q 3506 4644 3803 4544 
z
" transform="scale(0.015625)"/>
      <path id="DejaVuSans-Bold-25" d="M 4959 1925 
Q 4738 1925 4616 1733 
Q 4494 1541 4494 1184 
Q 4494 825 4614 633 
Q 4734 441 4959 441 
Q 5184 441 5303 633 
Q 5422 825 5422 1184 
Q 5422 1541 5301 1733 
Q 5181 1925 4959 1925 
z
M 4959 2450 
Q 5541 2450 5875 2112 
Q 6209 1775 6209 1184 
Q 6209 594 5875 251 
Q 5541 -91 4959 -91 
Q 4378 -91 4042 251 
Q 3706 594 3706 1184 
Q 3706 1772 4042 2111 
Q 4378 2450 4959 2450 
z
M 2094 -91 
L 1403 -91 
L 4319 4750 
L 5013 4750 
L 2094 -91 
z
M 1453 4750 
Q 2034 4750 2367 4411 
Q 2700 4072 2700 3481 
Q 2700 2891 2367 2550 
Q 2034 2209 1453 2209 
Q 872 2209 539 2550 
Q 206 2891 206 3481 
Q 206 4072 539 4411 
Q 872 4750 1453 4750 
z
M 1453 4225 
Q 1228 4225 1106 4031 
Q 984 3838 984 3481 
Q 984 3122 1106 2926 
Q 1228 2731 1453 2731 
Q 1678 2731 1798 2926 
Q 1919 3122 1919 3481 
Q 1919 3838 1797 4031 
Q 1675 4225 1453 4225 
z
" transform="scale(0.015625)"/>
      <path id="DejaVuSans-Bold-b7" d="M 653 2828 
L 1778 2828 
L 1778 1619 
L 653 1619 
L 653 2828 
z
" transform="scale(0.015625)"/>
      <path id="DejaVuSans-Bold-72" d="M 3138 2547 
Q 2991 2616 2845 2648 
Q 2700 2681 2553 2681 
Q 2122 2681 1889 2404 
Q 1656 2128 1656 1613 
L 1656 0 
L 538 0 
L 538 3500 
L 1656 3500 
L 1656 2925 
Q 1872 3269 2151 3426 
Q 2431 3584 2822 3584 
Q 2878 3584 2943 3579 
Q 3009 3575 3134 3559 
L 3138 2547 
z
" transform="scale(0.015625)"/>
      <path id="DejaVuSans-Bold-69" d="M 538 3500 
L 1656 3500 
L 1656 0 
L 538 0 
L 538 3500 
z
M 538 4863 
L 1656 4863 
L 1656 3950 
L 538 3950 
L 538 4863 
z
" transform="scale(0.015625)"/>
      <path id="DejaVuSans-Bold-7a" d="M 366 3500 
L 3419 3500 
L 3419 2719 
L 1575 800 
L 3419 800 
L 3419 0 
L 288 0 
L 288 781 
L 2131 2700 
L 366 2700 
L 366 3500 
z
" transform="scale(0.015625)"/>
      <path id="DejaVuSans-Bold-6f" d="M 2203 2784 
Q 1831 2784 1636 2517 
Q 1441 2250 1441 1747 
Q 1441 1244 1636 976 
Q 1831 709 2203 709 
Q 2569 709 2762 976 
Q 2956 1244 2956 1747 
Q 2956 2250 2762 2517 
Q 2569 2784 2203 2784 
z
M 2203 3584 
Q 3106 3584 3614 3096 
Q 4122 2609 4122 1747 
Q 4122 884 3614 396 
Q 3106 -91 2203 -91 
Q 1297 -91 786 396 
Q 275 884 275 1747 
Q 275 2609 786 3096 
Q 1297 3584 2203 3584 
z
" transform="scale(0.015625)"/>
      <path id="DejaVuSans-Bold-6e" d="M 4056 2131 
L 4056 0 
L 2931 0 
L 2931 347 
L 2931 1631 
Q 2931 2084 2911 2256 
Q 2891 2428 2841 2509 
Q 2775 2619 2662 2680 
Q 2550 2741 2406 2741 
Q 2056 2741 1856 2470 
Q 1656 2200 1656 1722 
L 1656 0 
L 538 0 
L 538 3500 
L 1656 3500 
L 1656 2988 
Q 1909 3294 2193 3439 
Q 2478 3584 2822 3584 
Q 3428 3584 3742 3212 
Q 4056 2841 4056 2131 
z
" transform="scale(0.015625)"/>
      <path id="DejaVuSans-Bold-61" d="M 2106 1575 
Q 1756 1575 1579 1456 
Q 1403 1338 1403 1106 
Q 1403 894 1545 773 
Q 1688 653 1941 653 
Q 2256 653 2472 879 
Q 2688 1106 2688 1447 
L 2688 1575 
L 2106 1575 
z
M 3816 1997 
L 3816 0 
L 2688 0 
L 2688 519 
Q 2463 200 2181 54 
Q 1900 -91 1497 -91 
Q 953 -91 614 226 
Q 275 544 275 1050 
Q 275 1666 698 1953 
Q 1122 2241 2028 2241 
L 2688 2241 
L 2688 2328 
Q 2688 2594 2478 2717 
Q 2269 2841 1825 2841 
Q 1466 2841 1156 2769 
Q 847 2697 581 2553 
L 581 3406 
Q 941 3494 1303 3539 
Q 1666 3584 2028 3584 
Q 2975 3584 3395 3211 
Q 3816 2838 3816 1997 
z
" transform="scale(0.015625)"/>
      <path id="DejaVuSans-Bold-75" d="M 500 1363 
L 500 3500 
L 1625 3500 
L 1625 3150 
Q 1625 2866 1622 2436 
Q 1619 2006 1619 1863 
Q 1619 1441 1641 1255 
Q 1663 1069 1716 984 
Q 1784 875 1895 815 
Q 2006 756 2150 756 
Q 2500 756 2700 1025 
Q 2900 1294 2900 1772 
L 2900 3500 
L 4019 3500 
L 4019 0 
L 2900 0 
L 2900 506 
Q 2647 200 2364 54 
Q 2081 -91 1741 -91 
Q 1134 -91 817 281 
Q 500 653 500 1363 
z
" transform="scale(0.015625)"/>
      <path id="DejaVuSans-Bold-62" d="M 2400 722 
Q 2759 722 2948 984 
Q 3138 1247 3138 1747 
Q 3138 2247 2948 2509 
Q 2759 2772 2400 2772 
Q 2041 2772 1848 2508 
Q 1656 2244 1656 1747 
Q 1656 1250 1848 986 
Q 2041 722 2400 722 
z
M 1656 2988 
Q 1888 3294 2169 3439 
Q 2450 3584 2816 3584 
Q 3463 3584 3878 3070 
Q 4294 2556 4294 1747 
Q 4294 938 3878 423 
Q 3463 -91 2816 -91 
Q 2450 -91 2169 54 
Q 1888 200 1656 506 
L 1656 0 
L 538 0 
L 538 4863 
L 1656 4863 
L 1656 2988 
z
" transform="scale(0.015625)"/>
      <path id="DejaVuSans-Bold-6c" d="M 538 4863 
L 1656 4863 
L 1656 0 
L 538 0 
L 538 4863 
z
" transform="scale(0.015625)"/>
      <path id="DejaVuSans-Bold-63" d="M 3366 3391 
L 3366 2478 
Q 3138 2634 2908 2709 
Q 2678 2784 2431 2784 
Q 1963 2784 1702 2511 
Q 1441 2238 1441 1747 
Q 1441 1256 1702 982 
Q 1963 709 2431 709 
Q 2694 709 2930 787 
Q 3166 866 3366 1019 
L 3366 103 
Q 3103 6 2833 -42 
Q 2563 -91 2291 -91 
Q 1344 -91 809 395 
Q 275 881 275 1747 
Q 275 2613 809 3098 
Q 1344 3584 2291 3584 
Q 2566 3584 2833 3536 
Q 3100 3488 3366 3391 
z
" transform="scale(0.015625)"/>
      <path id="DejaVuSans-Bold-65" d="M 4031 1759 
L 4031 1441 
L 1416 1441 
Q 1456 1047 1700 850 
Q 1944 653 2381 653 
Q 2734 653 3104 758 
Q 3475 863 3866 1075 
L 3866 213 
Q 3469 63 3072 -14 
Q 2675 -91 2278 -91 
Q 1328 -91 801 392 
Q 275 875 275 1747 
Q 275 2603 792 3093 
Q 1309 3584 2216 3584 
Q 3041 3584 3536 3087 
Q 4031 2591 4031 1759 
z
M 2881 2131 
Q 2881 2450 2695 2645 
Q 2509 2841 2209 2841 
Q 1884 2841 1681 2658 
Q 1478 2475 1428 2131 
L 2881 2131 
z
" transform="scale(0.015625)"/>
      <path id="DejaVuSans-Bold-76" d="M 97 3500 
L 1216 3500 
L 2088 1081 
L 2956 3500 
L 4078 3500 
L 2700 0 
L 1472 0 
L 97 3500 
z
" transform="scale(0.015625)"/>
     </defs>
     <use xlink:href="#DejaVuSans-Bold-41"/>
     <use xlink:href="#DejaVuSans-Bold-5a" transform="translate(77.392578 0)"/>
     <use xlink:href="#DejaVuSans-Bold-50" transform="translate(149.902344 0)"/>
     <use xlink:href="#DejaVuSans-Bold-53" transform="translate(223.193359 0)"/>
     <use xlink:href="#DejaVuSans-Bold-20" transform="translate(295.214844 0)"/>
     <use xlink:href="#DejaVuSans-Bold-2b" transform="translate(330.029297 0)"/>
     <use xlink:href="#DejaVuSans-Bold-39" transform="translate(413.818359 0)"/>
     <use xlink:href="#DejaVuSans-Bold-2e" transform="translate(483.398438 0)"/>
     <use xlink:href="#DejaVuSans-Bold-36" transform="translate(521.386719 0)"/>
     <use xlink:href="#DejaVuSans-Bold-25" transform="translate(590.966797 0)"/>
     <use xlink:href="#DejaVuSans-Bold-20" transform="translate(691.162109 0)"/>
     <use xlink:href="#DejaVuSans-Bold-20" transform="translate(725.976562 0)"/>
     <use xlink:href="#DejaVuSans-Bold-b7" transform="translate(760.791016 0)"/>
     <use xlink:href="#DejaVuSans-Bold-20" transform="translate(798.779297 0)"/>
     <use xlink:href="#DejaVuSans-Bold-20" transform="translate(833.59375 0)"/>
     <use xlink:href="#DejaVuSans-Bold-41" transform="translate(868.408203 0)"/>
     <use xlink:href="#DejaVuSans-Bold-72" transform="translate(945.800781 0)"/>
     <use xlink:href="#DejaVuSans-Bold-69" transform="translate(995.117188 0)"/>
     <use xlink:href="#DejaVuSans-Bold-7a" transform="translate(1029.394531 0)"/>
     <use xlink:href="#DejaVuSans-Bold-6f" transform="translate(1087.597656 0)"/>
     <use xlink:href="#DejaVuSans-Bold-6e" transform="translate(1156.298828 0)"/>
     <use xlink:href="#DejaVuSans-Bold-61" transform="translate(1227.490234 0)"/>
     <use xlink:href="#DejaVuSans-Bold-20" transform="translate(1294.970703 0)"/>
     <use xlink:href="#DejaVuSans-Bold-50" transform="translate(1329.785156 0)"/>
     <use xlink:href="#DejaVuSans-Bold-75" transform="translate(1403.076172 0)"/>
     <use xlink:href="#DejaVuSans-Bold-62" transform="translate(1474.267578 0)"/>
     <use xlink:href="#DejaVuSans-Bold-6c" transform="translate(1545.849609 0)"/>
     <use xlink:href="#DejaVuSans-Bold-69" transform="translate(1580.126953 0)"/>
     <use xlink:href="#DejaVuSans-Bold-63" transform="translate(1614.404297 0)"/>
     <use xlink:href="#DejaVuSans-Bold-20" transform="translate(1673.681641 0)"/>
     <use xlink:href="#DejaVuSans-Bold-53" transform="translate(1708.496094 0)"/>
     <use xlink:href="#DejaVuSans-Bold-65" transform="translate(1780.517578 0)"/>
     <use xlink:href="#DejaVuSans-Bold-72" transform="translate(1848.339844 0)"/>
     <use xlink:href="#DejaVuSans-Bold-76" transform="translate(1897.65625 0)"/>
     <use xlink:href="#DejaVuSans-Bold-69" transform="translate(1962.841797 0)"/>
     <use xlink:href="#DejaVuSans-Bold-63" transform="translate(1997.119141 0)"/>
     <use xlink:href="#DejaVuSans-Bold-65" transform="translate(2056.396484 0)"/>
    </g>
   </g>
   <g id="legend_1">
    <g id="line2d_29">
     <path d="M 245.665469 25.722656 
L 250.915469 25.722656 
L 256.165469 25.722656 
" style="fill: none; stroke: #2166ac; stroke-opacity: 0.9; stroke-width: 1.5; stroke-linecap: round"/>
    </g>
    <g id="text_22">
     <!-- 2022 -->
     <g style="fill: #555555" transform="translate(262.165469 28.347656) scale(0.075 -0.075)">
      <defs>
       <path id="DejaVuSans-32" d="M 1228 531 
L 3431 531 
L 3431 0 
L 469 0 
L 469 531 
Q 828 903 1448 1529 
Q 2069 2156 2228 2338 
Q 2531 2678 2651 2914 
Q 2772 3150 2772 3378 
Q 2772 3750 2511 3984 
Q 2250 4219 1831 4219 
Q 1534 4219 1204 4116 
Q 875 4013 500 3803 
L 500 4441 
Q 881 4594 1212 4672 
Q 1544 4750 1819 4750 
Q 2544 4750 2975 4387 
Q 3406 4025 3406 3419 
Q 3406 3131 3298 2873 
Q 3191 2616 2906 2266 
Q 2828 2175 2409 1742 
Q 1991 1309 1228 531 
z
" transform="scale(0.015625)"/>
       <path id="DejaVuSans-30" d="M 2034 4250 
Q 1547 4250 1301 3770 
Q 1056 3291 1056 2328 
Q 1056 1369 1301 889 
Q 1547 409 2034 409 
Q 2525 409 2770 889 
Q 3016 1369 3016 2328 
Q 3016 3291 2770 3770 
Q 2525 4250 2034 4250 
z
M 2034 4750 
Q 2819 4750 3233 4129 
Q 3647 3509 3647 2328 
Q 3647 1150 3233 529 
Q 2819 -91 2034 -91 
Q 1250 -91 836 529 
Q 422 1150 422 2328 
Q 422 3509 836 4129 
Q 1250 4750 2034 4750 
z
" transform="scale(0.015625)"/>
      </defs>
      <use xlink:href="#DejaVuSans-32"/>
      <use xlink:href="#DejaVuSans-30" transform="translate(63.623047 0)"/>
      <use xlink:href="#DejaVuSans-32" transform="translate(127.246094 0)"/>
      <use xlink:href="#DejaVuSans-32" transform="translate(190.869141 0)"/>
     </g>
    </g>
    <g id="line2d_30">
     <path d="M 245.665469 36.73125 
L 250.915469 36.73125 
L 256.165469 36.73125 
" style="fill: none; stroke: #d6604d; stroke-opacity: 0.9; stroke-width: 1.5; stroke-linecap: round"/>
    </g>
    <g id="text_23">
     <!-- 2024 -->
     <g style="fill: #555555" transform="translate(262.165469 39.35625) scale(0.075 -0.075)">
      <use xlink:href="#DejaVuSans-32"/>
      <use xlink:href="#DejaVuSans-30" transform="translate(63.623047 0)"/>
      <use xlink:href="#DejaVuSans-32" transform="translate(127.246094 0)"/>
      <use xlink:href="#DejaVuSans-34" transform="translate(190.869141 0)"/>
     </g>
    </g>
   </g>
  </g>
  <g id="axes_2">
   <g id="patch_5">
    <path d="M 311.962969 171.138828 
L 570.967969 171.138828 
L 570.967969 15.898828 
L 311.962969 15.898828 
z
" style="fill: #fafaf8"/>
   </g>
   <g id="matplotlib.axis_3">
    <g id="xtick_13">
     <g id="line2d_31">
      <g>
       <use xlink:href="#meb7954a93f" x="311.962969" y="171.138828" style="fill: #dddddd; stroke: #dddddd; stroke-width: 0.8"/>
      </g>
     </g>
     <g id="text_24">
      <!-- Jan -->
      <g style="fill: #aaaaaa" transform="translate(306.5675 180.457734) scale(0.07 -0.07)">
       <use xlink:href="#DejaVuSans-4a"/>
       <use xlink:href="#DejaVuSans-61" transform="translate(29.492188 0)"/>
       <use xlink:href="#DejaVuSans-6e" transform="translate(90.771484 0)"/>
      </g>
     </g>
    </g>
    <g id="xtick_14">
     <g id="line2d_32">
      <g>
       <use xlink:href="#meb7954a93f" x="334.021087" y="171.138828" style="fill: #dddddd; stroke: #dddddd; stroke-width: 0.8"/>
      </g>
     </g>
     <g id="text_25">
      <!-- Feb -->
      <g style="fill: #aaaaaa" transform="translate(327.824993 180.457734) scale(0.07 -0.07)">
       <use xlink:href="#DejaVuSans-46"/>
       <use xlink:href="#DejaVuSans-65" transform="translate(52.019531 0)"/>
       <use xlink:href="#DejaVuSans-62" transform="translate(113.542969 0)"/>
      </g>
     </g>
    </g>
    <g id="xtick_15">
     <g id="line2d_33">
      <g>
       <use xlink:href="#meb7954a93f" x="353.944548" y="171.138828" style="fill: #dddddd; stroke: #dddddd; stroke-width: 0.8"/>
      </g>
     </g>
     <g id="text_26">
      <!-- Mar -->
      <g style="fill: #aaaaaa" transform="translate(347.341033 180.457734) scale(0.07 -0.07)">
       <use xlink:href="#DejaVuSans-4d"/>
       <use xlink:href="#DejaVuSans-61" transform="translate(86.279297 0)"/>
       <use xlink:href="#DejaVuSans-72" transform="translate(147.558594 0)"/>
      </g>
     </g>
    </g>
    <g id="xtick_16">
     <g id="line2d_34">
      <g>
       <use xlink:href="#meb7954a93f" x="376.002667" y="171.138828" style="fill: #dddddd; stroke: #dddddd; stroke-width: 0.8"/>
      </g>
     </g>
     <g id="text_27">
      <!-- Apr -->
      <g style="fill: #aaaaaa" transform="translate(369.947667 180.457734) scale(0.07 -0.07)">
       <use xlink:href="#DejaVuSans-41"/>
       <use xlink:href="#DejaVuSans-70" transform="translate(68.408203 0)"/>
       <use xlink:href="#DejaVuSans-72" transform="translate(131.884766 0)"/>
      </g>
     </g>
    </g>
    <g id="xtick_17">
     <g id="line2d_35">
      <g>
       <use xlink:href="#meb7954a93f" x="397.349232" y="171.138828" style="fill: #dddddd; stroke: #dddddd; stroke-width: 0.8"/>
      </g>
     </g>
     <g id="text_28">
      <!-- May -->
      <g style="fill: #aaaaaa" transform="translate(390.112982 180.457734) scale(0.07 -0.07)">
       <use xlink:href="#DejaVuSans-4d"/>
       <use xlink:href="#DejaVuSans-61" transform="translate(86.279297 0)"/>
       <use xlink:href="#DejaVuSans-79" transform="translate(147.558594 0)"/>
      </g>
     </g>
    </g>
    <g id="xtick_18">
     <g id="line2d_36">
      <g>
       <use xlink:href="#meb7954a93f" x="419.407351" y="171.138828" style="fill: #dddddd; stroke: #dddddd; stroke-width: 0.8"/>
      </g>
     </g>
     <g id="text_29">
      <!-- Jun -->
      <g style="fill: #aaaaaa" transform="translate(413.938601 180.457734) scale(0.07 -0.07)">
       <use xlink:href="#DejaVuSans-4a"/>
       <use xlink:href="#DejaVuSans-75" transform="translate(29.492188 0)"/>
       <use xlink:href="#DejaVuSans-6e" transform="translate(92.871094 0)"/>
      </g>
     </g>
    </g>
    <g id="xtick_19">
     <g id="line2d_37">
      <g>
       <use xlink:href="#meb7954a93f" x="440.753917" y="171.138828" style="fill: #dddddd; stroke: #dddddd; stroke-width: 0.8"/>
      </g>
     </g>
     <g id="text_30">
      <!-- Jul -->
      <g style="fill: #aaaaaa" transform="translate(436.530948 180.457734) scale(0.07 -0.07)">
       <use xlink:href="#DejaVuSans-4a"/>
       <use xlink:href="#DejaVuSans-75" transform="translate(29.492188 0)"/>
       <use xlink:href="#DejaVuSans-6c" transform="translate(92.871094 0)"/>
      </g>
     </g>
    </g>
    <g id="xtick_20">
     <g id="line2d_38">
      <g>
       <use xlink:href="#meb7954a93f" x="462.812035" y="171.138828" style="fill: #dddddd; stroke: #dddddd; stroke-width: 0.8"/>
      </g>
     </g>
     <g id="text_31">
      <!-- Aug -->
      <g style="fill: #aaaaaa" transform="translate(455.977738 180.457734) scale(0.07 -0.07)">
       <use xlink:href="#DejaVuSans-41"/>
       <use xlink:href="#DejaVuSans-75" transform="translate(68.408203 0)"/>
       <use xlink:href="#DejaVuSans-67" transform="translate(131.787109 0)"/>
      </g>
     </g>
    </g>
    <g id="xtick_21">
     <g id="line2d_39">
      <g>
       <use xlink:href="#meb7954a93f" x="484.870153" y="171.138828" style="fill: #dddddd; stroke: #dddddd; stroke-width: 0.8"/>
      </g>
     </g>
     <g id="text_32">
      <!-- Sep -->
      <g style="fill: #aaaaaa" transform="translate(478.272653 180.457734) scale(0.07 -0.07)">
       <use xlink:href="#DejaVuSans-53"/>
       <use xlink:href="#DejaVuSans-65" transform="translate(63.476562 0)"/>
       <use xlink:href="#DejaVuSans-70" transform="translate(125 0)"/>
      </g>
     </g>
    </g>
    <g id="xtick_22">
     <g id="line2d_40">
      <g>
       <use xlink:href="#meb7954a93f" x="506.216719" y="171.138828" style="fill: #dddddd; stroke: #dddddd; stroke-width: 0.8"/>
      </g>
     </g>
     <g id="text_33">
      <!-- Oct -->
      <g style="fill: #aaaaaa" transform="translate(500.165 180.457734) scale(0.07 -0.07)">
       <use xlink:href="#DejaVuSans-4f"/>
       <use xlink:href="#DejaVuSans-63" transform="translate(78.710938 0)"/>
       <use xlink:href="#DejaVuSans-74" transform="translate(133.691406 0)"/>
      </g>
     </g>
    </g>
    <g id="xtick_23">
     <g id="line2d_41">
      <g>
       <use xlink:href="#meb7954a93f" x="528.274837" y="171.138828" style="fill: #dddddd; stroke: #dddddd; stroke-width: 0.8"/>
      </g>
     </g>
     <g id="text_34">
      <!-- Nov -->
      <g style="fill: #aaaaaa" transform="translate(521.443274 180.457734) scale(0.07 -0.07)">
       <use xlink:href="#DejaVuSans-4e"/>
       <use xlink:href="#DejaVuSans-6f" transform="translate(74.804688 0)"/>
       <use xlink:href="#DejaVuSans-76" transform="translate(135.986328 0)"/>
      </g>
     </g>
    </g>
    <g id="xtick_24">
     <g id="line2d_42">
      <g>
       <use xlink:href="#meb7954a93f" x="549.621403" y="171.138828" style="fill: #dddddd; stroke: #dddddd; stroke-width: 0.8"/>
      </g>
     </g>
     <g id="text_35">
      <!-- Dec -->
      <g style="fill: #aaaaaa" transform="translate(542.848356 180.457734) scale(0.07 -0.07)">
       <use xlink:href="#DejaVuSans-44"/>
       <use xlink:href="#DejaVuSans-65" transform="translate(77.001953 0)"/>
       <use xlink:href="#DejaVuSans-63" transform="translate(138.525391 0)"/>
      </g>
     </g>
    </g>
   </g>
   <g id="matplotlib.axis_4">
    <g id="ytick_8">
     <g id="line2d_43">
      <path d="M 311.962969 159.179252 
L 570.967969 159.179252 
" clip-path="url(#p165a7bf993)" style="fill: none; stroke: #eeeeee; stroke-width: 0.6; stroke-linecap: square"/>
     </g>
     <g id="line2d_44"/>
     <g id="text_36">
      <!-- 12k -->
      <g style="fill: #999999" transform="translate(296.002031 161.838705) scale(0.07 -0.07)">
       <defs>
        <path id="DejaVuSans-31" d="M 794 531 
L 1825 531 
L 1825 4091 
L 703 3866 
L 703 4441 
L 1819 4666 
L 2450 4666 
L 2450 531 
L 3481 531 
L 3481 0 
L 794 0 
L 794 531 
z
" transform="scale(0.015625)"/>
       </defs>
       <use xlink:href="#DejaVuSans-31"/>
       <use xlink:href="#DejaVuSans-32" transform="translate(63.623047 0)"/>
       <use xlink:href="#DejaVuSans-6b" transform="translate(127.246094 0)"/>
      </g>
     </g>
    </g>
    <g id="ytick_9">
     <g id="line2d_45">
      <path d="M 311.962969 129.537926 
L 570.967969 129.537926 
" clip-path="url(#p165a7bf993)" style="fill: none; stroke: #eeeeee; stroke-width: 0.6; stroke-linecap: square"/>
     </g>
     <g id="line2d_46"/>
     <g id="text_37">
      <!-- 14k -->
      <g style="fill: #999999" transform="translate(296.002031 132.197379) scale(0.07 -0.07)">
       <use xlink:href="#DejaVuSans-31"/>
       <use xlink:href="#DejaVuSans-34" transform="translate(63.623047 0)"/>
       <use xlink:href="#DejaVuSans-6b" transform="translate(127.246094 0)"/>
      </g>
     </g>
    </g>
    <g id="ytick_10">
     <g id="line2d_47">
      <path d="M 311.962969 99.8966 
L 570.967969 99.8966 
" clip-path="url(#p165a7bf993)" style="fill: none; stroke: #eeeeee; stroke-width: 0.6; stroke-linecap: square"/>
     </g>
     <g id="line2d_48"/>
     <g id="text_38">
      <!-- 16k -->
      <g style="fill: #999999" transform="translate(296.002031 102.556053) scale(0.07 -0.07)">
       <use xlink:href="#DejaVuSans-31"/>
       <use xlink:href="#DejaVuSans-36" transform="translate(63.623047 0)"/>
       <use xlink:href="#DejaVuSans-6b" transform="translate(127.246094 0)"/>
      </g>
     </g>
    </g>
    <g id="ytick_11">
     <g id="line2d_49">
      <path d="M 311.962969 70.255274 
L 570.967969 70.255274 
" clip-path="url(#p165a7bf993)" style="fill: none; stroke: #eeeeee; stroke-width: 0.6; stroke-linecap: square"/>
     </g>
     <g id="line2d_50"/>
     <g id="text_39">
      <!-- 18k -->
      <g style="fill: #999999" transform="translate(296.002031 72.914727) scale(0.07 -0.07)">
       <defs>
        <path id="DejaVuSans-38" d="M 2034 2216 
Q 1584 2216 1326 1975 
Q 1069 1734 1069 1313 
Q 1069 891 1326 650 
Q 1584 409 2034 409 
Q 2484 409 2743 651 
Q 3003 894 3003 1313 
Q 3003 1734 2745 1975 
Q 2488 2216 2034 2216 
z
M 1403 2484 
Q 997 2584 770 2862 
Q 544 3141 544 3541 
Q 544 4100 942 4425 
Q 1341 4750 2034 4750 
Q 2731 4750 3128 4425 
Q 3525 4100 3525 3541 
Q 3525 3141 3298 2862 
Q 3072 2584 2669 2484 
Q 3125 2378 3379 2068 
Q 3634 1759 3634 1313 
Q 3634 634 3220 271 
Q 2806 -91 2034 -91 
Q 1263 -91 848 271 
Q 434 634 434 1313 
Q 434 1759 690 2068 
Q 947 2378 1403 2484 
z
M 1172 3481 
Q 1172 3119 1398 2916 
Q 1625 2713 2034 2713 
Q 2441 2713 2670 2916 
Q 2900 3119 2900 3481 
Q 2900 3844 2670 4047 
Q 2441 4250 2034 4250 
Q 1625 4250 1398 4047 
Q 1172 3844 1172 3481 
z
" transform="scale(0.015625)"/>
       </defs>
       <use xlink:href="#DejaVuSans-31"/>
       <use xlink:href="#DejaVuSans-38" transform="translate(63.623047 0)"/>
       <use xlink:href="#DejaVuSans-6b" transform="translate(127.246094 0)"/>
      </g>
     </g>
    </g>
    <g id="ytick_12">
     <g id="line2d_51">
      <path d="M 311.962969 40.613948 
L 570.967969 40.613948 
" clip-path="url(#p165a7bf993)" style="fill: none; stroke: #eeeeee; stroke-width: 0.6; stroke-linecap: square"/>
     </g>
     <g id="line2d_52"/>
     <g id="text_40">
      <!-- 20k -->
      <g style="fill: #999999" transform="translate(296.002031 43.273401) scale(0.07 -0.07)">
       <use xlink:href="#DejaVuSans-32"/>
       <use xlink:href="#DejaVuSans-30" transform="translate(63.623047 0)"/>
       <use xlink:href="#DejaVuSans-6b" transform="translate(127.246094 0)"/>
      </g>
     </g>
    </g>
   </g>
   <g id="line2d_53">
    <path d="M 311.962969 147.640364 
L 312.674521 149.113627 
L 313.386073 150.217586 
L 314.097625 150.043044 
L 314.809178 150.660637 
L 315.52073 151.988808 
L 316.232282 151.102321 
L 316.943834 149.993433 
L 318.366939 150.86754 
L 319.790043 155.295788 
L 320.501595 158.28275 
L 321.213147 161.829677 
L 321.9247 162.317142 
L 322.636252 161.598102 
L 323.347804 161.334463 
L 324.059356 159.375516 
L 324.770908 157.828506 
L 325.482461 155.056821 
L 326.194013 149.097149 
L 327.617117 143.333782 
L 328.328669 141.082695 
L 329.040221 139.348447 
L 329.751774 135.68702 
L 330.463326 130.814541 
L 331.174878 134.163412 
L 331.88643 133.892825 
M 336.867296 143.719181 
L 337.578848 145.410657 
L 338.2904 144.110373 
L 341.136609 144.110373 
L 341.848161 144.305969 
L 342.559713 141.509804 
M 345.405922 164.082464 
L 346.117474 156.55776 
L 347.540579 145.500916 
L 348.252131 141.971515 
L 348.963683 139.239597 
L 349.675235 137.698884 
L 350.386787 133.51925 
L 351.09834 131.283759 
L 351.809892 133.409299 
L 353.232996 142.332763 
L 353.944548 146.126323 
L 354.656101 149.120616 
L 355.367653 150.667155 
L 356.079205 150.522441 
L 356.790757 145.896339 
L 357.502309 139.835939 
L 358.925414 131.161702 
L 359.636966 128.110519 
L 360.348518 130.693687 
L 361.771623 140.885647 
L 362.483175 144.122717 
L 363.194727 145.620895 
L 363.906279 146.5274 
L 364.617831 145.692559 
L 365.329384 140.885518 
L 366.040936 137.335817 
L 366.752488 135.338951 
L 368.175592 129.613858 
L 368.887145 132.111273 
L 370.310249 144.982727 
L 371.021801 147.117167 
L 371.733353 147.643607 
L 372.444906 149.834566 
L 373.156458 150.83118 
L 373.86801 145.315472 
L 374.579562 137.239835 
L 375.291114 132.898553 
L 376.002667 129.577 
L 376.714219 124.997493 
L 377.425771 118.823154 
L 378.137323 114.814708 
L 378.848875 118.12583 
L 379.560428 125.871473 
L 380.27198 130.850597 
L 380.983532 134.196518 
L 382.406636 143.11593 
L 383.118189 145.458336 
L 383.829741 143.058947 
L 384.541293 136.050433 
L 385.252845 126.701689 
L 385.964397 119.432706 
L 386.67595 115.576544 
L 387.387502 116.144898 
L 388.099054 119.308995 
L 388.810606 121.549179 
L 389.522158 123.393699 
L 390.233711 125.928804 
L 390.945263 127.187657 
L 391.656815 126.642966 
L 393.079919 122.187566 
L 393.791471 121.758408 
L 394.503024 122.429071 
L 395.214576 122.864426 
L 395.926128 122.938254 
L 396.63768 122.269345 
L 397.349232 120.700235 
L 398.060785 117.755247 
L 399.483889 105.806131 
L 400.195441 102.564055 
L 400.906993 100.800649 
L 401.618546 102.30843 
L 402.330098 106.270406 
L 403.753202 117.006499 
L 404.464754 120.399005 
L 405.176307 120.702827 
L 405.887859 120.844279 
L 406.599411 118.156595 
L 407.310963 111.877954 
L 408.022515 104.197077 
L 408.734068 99.345598 
L 409.44562 96.859503 
L 410.868724 88.713916 
L 411.580276 85.808258 
L 412.291829 85.010529 
L 413.003381 85.389914 
L 414.426485 82.622484 
L 415.138037 85.330562 
L 415.84959 91.214304 
L 416.561142 95.325577 
L 417.272694 95.001599 
L 417.984246 96.28319 
L 418.695798 102.323705 
L 419.407351 110.208581 
L 420.118903 111.244952 
L 420.830455 106.019773 
L 421.542007 103.203095 
L 422.253559 105.053142 
L 422.965112 105.861079 
L 423.676664 102.317248 
L 424.388216 97.757394 
L 425.81132 94.759198 
L 427.945977 78.887425 
L 429.369081 66.469152 
L 430.080634 64.41235 
L 430.792186 65.710906 
L 432.21529 74.733892 
L 432.926842 78.304255 
L 433.638395 78.812089 
L 434.349947 80.039745 
L 435.061499 80.543053 
L 435.773051 80.545804 
L 436.484603 77.79651 
L 437.196156 75.628435 
L 437.907708 74.202277 
L 438.61926 76.362656 
L 439.330812 76.437721 
L 440.042364 74.992364 
L 440.753917 74.511585 
L 441.465469 73.194364 
L 442.177021 71.412568 
L 442.888573 70.821317 
L 443.600125 69.17986 
L 444.311678 66.937147 
L 445.02323 65.51023 
L 445.734782 63.727949 
L 446.446334 63.828701 
L 447.869439 57.449056 
L 448.580991 56.374597 
L 449.292543 56.845773 
L 450.004095 58.498151 
L 450.715647 56.581562 
L 451.4272 53.425999 
L 452.138752 52.686736 
L 452.850304 51.334062 
L 453.561856 48.58512 
L 454.273408 46.543207 
L 454.984961 42.277868 
L 455.696513 41.301784 
L 457.119617 47.901341 
L 457.831169 48.281981 
L 458.542721 47.265561 
L 459.965826 43.051743 
L 460.677378 40.213133 
L 461.38893 36.076117 
L 462.100482 34.685797 
L 462.812035 35.4528 
L 464.235139 37.887747 
L 464.946691 39.832695 
L 465.658243 43.57163 
L 466.369796 46.150475 
L 467.081348 44.713739 
L 467.7929 44.30719 
L 468.504452 45.819973 
L 469.216004 47.913152 
L 469.927557 51.72638 
L 470.639109 54.63292 
L 472.062213 56.763027 
L 472.773765 56.768552 
L 473.485318 55.878618 
L 474.19687 52.099598 
L 475.619974 40.15425 
L 476.331526 37.204292 
L 477.043079 35.699052 
L 478.466183 35.332237 
L 479.177735 38.245092 
L 480.60084 48.273915 
L 482.023944 50.511733 
L 483.447048 52.254711 
L 484.158601 51.109868 
L 484.870153 48.239712 
L 485.581705 43.742469 
L 487.004809 39.273338 
L 487.716362 40.513673 
L 488.427914 44.000862 
L 489.139466 46.197786 
L 489.851018 46.893388 
L 490.56257 49.212753 
L 491.274123 53.074463 
L 491.985675 59.44815 
L 492.697227 64.215529 
L 493.408779 65.659363 
L 494.120331 68.487654 
L 494.831884 73.812091 
L 495.543436 76.580556 
L 496.254988 77.080487 
L 496.96654 74.71686 
L 498.389645 65.381194 
L 499.812749 59.229357 
L 500.524301 57.379155 
L 501.235853 63.05886 
L 501.947406 70.184917 
L 504.082062 105.564101 
L 505.505167 119.343278 
L 506.216719 119.954744 
L 506.928271 118.988667 
L 507.639823 113.221637 
L 508.351375 106.14286 
L 509.77448 99.597839 
L 510.486032 95.029467 
L 511.909136 80.519569 
L 512.620689 76.56514 
L 513.332241 74.404242 
L 514.043793 71.709332 
L 514.755345 69.976528 
L 515.466897 69.62347 
L 516.17845 73.862228 
L 517.601554 95.801297 
L 519.024658 110.521523 
L 519.736211 116.382743 
L 520.447763 121.311233 
L 521.159315 123.563079 
L 521.870867 119.788474 
L 524.005524 97.658472 
L 525.428628 86.587257 
L 526.14018 85.195385 
L 526.851732 82.307658 
L 527.563285 81.737075 
L 529.697941 92.728523 
L 530.409493 98.447921 
L 531.121046 101.713411 
L 532.54415 115.382962 
L 533.255702 116.52064 
L 533.967254 117.032906 
L 534.678807 120.623628 
L 535.390359 122.986713 
L 536.101911 123.804267 
L 536.813463 122.552447 
L 537.525015 122.535786 
L 538.94812 132.008152 
L 541.082776 140.302637 
L 541.794329 141.769227 
L 542.505881 139.549573 
L 543.928985 131.460243 
L 544.640537 127.101338 
L 545.35209 124.149176 
L 546.063642 123.809572 
L 546.775194 122.41518 
L 547.486746 121.780785 
L 548.198298 121.530922 
L 548.909851 122.278805 
L 549.621403 124.575681 
L 550.332955 125.859956 
L 551.044507 124.283413 
L 551.756059 124.467055 
L 553.179164 125.494492 
L 554.602268 127.549722 
L 555.31382 128.783412 
L 556.025373 131.126666 
L 556.736925 132.607093 
L 557.448477 132.776954 
L 558.160029 133.580698 
L 558.871581 134.830048 
L 560.294686 133.756876 
L 561.006238 133.736589 
L 561.71779 134.106474 
L 562.429342 134.672289 
L 563.140895 133.166058 
L 563.852447 127.151542 
L 565.275551 105.203433 
L 565.987103 99.829564 
L 566.698656 98.904453 
L 568.12176 103.726475 
L 568.833312 107.424252 
L 569.544864 114.67618 
L 570.256417 126.124034 
L 570.967969 132.640082 
L 570.967969 132.640082 
" clip-path="url(#p165a7bf993)" style="fill: none; stroke: #2166ac; stroke-opacity: 0.9; stroke-width: 1.5; stroke-linecap: round"/>
   </g>
   <g id="line2d_54">
    <path d="M 311.962969 146.491334 
L 312.674521 144.963726 
L 313.386073 145.519926 
L 314.097625 146.729643 
L 314.809178 145.297149 
L 315.52073 143.604649 
L 316.232282 144.629565 
L 317.655386 143.364933 
L 319.078491 138.724787 
L 319.790043 137.143755 
L 320.501595 134.886005 
L 321.9247 128.163173 
L 322.636252 128.460687 
L 323.347804 129.831254 
L 324.059356 125.966383 
L 324.770908 125.173276 
L 326.194013 130.853535 
L 326.905565 132.72725 
L 327.617117 131.701718 
L 328.328669 130.070266 
L 329.040221 133.269222 
L 329.751774 137.129701 
L 330.463326 137.199622 
L 331.174878 139.311909 
L 331.88643 140.325904 
L 332.597982 141.889551 
L 334.021087 145.765922 
L 334.732639 144.045394 
L 335.444191 142.675891 
L 336.155743 139.75348 
L 338.2904 139.031398 
L 339.001952 136.28743 
L 339.713504 132.47263 
L 340.425057 129.677518 
L 341.136609 129.659839 
L 341.848161 129.116151 
L 342.559713 127.493594 
L 343.271265 125.506498 
L 343.982818 124.925467 
L 344.69437 127.247606 
L 345.405922 128.372703 
L 346.117474 128.018847 
L 346.829026 127.924404 
L 347.540579 129.086749 
L 348.252131 131.599477 
L 348.963683 135.147301 
L 349.675235 136.400876 
L 350.386787 138.443088 
L 351.09834 138.552374 
L 351.809892 137.235553 
L 352.521444 137.217984 
L 353.232996 136.684217 
L 353.944548 135.604812 
L 354.656101 135.272986 
L 355.367653 133.667187 
L 356.079205 133.975777 
L 356.790757 136.167134 
L 357.502309 134.028133 
L 358.213862 129.118513 
L 358.925414 125.865911 
L 359.636966 126.28802 
L 360.348518 128.516429 
L 361.06007 129.310098 
L 361.771623 127.899514 
L 362.483175 127.715282 
L 363.194727 129.810009 
L 363.906279 129.117654 
L 364.617831 124.095157 
L 365.329384 122.253265 
L 366.040936 124.145535 
L 366.752488 126.835599 
L 367.46404 131.04027 
L 368.175592 136.061994 
L 368.887145 142.224013 
L 369.598697 147.412861 
L 370.310249 147.405983 
L 371.733353 138.34869 
L 372.444906 137.481604 
L 373.156458 136.803221 
L 373.86801 135.574376 
L 374.579562 132.507154 
L 376.002667 123.848592 
L 376.714219 123.40187 
L 377.425771 122.07471 
L 378.848875 118.551406 
L 379.560428 119.971963 
L 380.983532 125.111415 
L 382.406636 116.862391 
L 383.118189 115.683985 
L 383.829741 115.097578 
L 385.252845 111.624961 
L 385.964397 110.896489 
L 386.67595 112.26187 
L 387.387502 108.918303 
L 388.810606 94.608881 
L 389.522158 91.303259 
L 390.233711 93.14662 
L 390.945263 96.381485 
L 391.656815 98.766068 
L 392.368367 101.722485 
L 393.791471 109.157889 
L 394.503024 110.074803 
L 395.214576 105.707819 
L 395.926128 104.473114 
L 396.63768 103.53363 
L 398.060785 103.225184 
L 398.772337 102.716809 
L 399.483889 102.054419 
L 400.195441 101.979238 
L 401.618546 92.894761 
L 402.330098 89.199348 
L 403.04165 84.902541 
L 404.464754 81.169306 
L 405.176307 77.719651 
L 405.887859 75.217161 
L 406.599411 74.480784 
L 407.310963 73.523837 
L 408.022515 71.295634 
L 408.734068 67.387067 
L 409.44562 65.567319 
L 410.157172 67.759168 
L 410.868724 70.328416 
L 411.580276 71.37739 
L 412.291829 71.712892 
L 413.003381 73.1325 
L 413.714933 73.651729 
L 414.426485 71.211595 
L 415.138037 66.307364 
L 415.84959 62.650831 
L 416.561142 56.480316 
L 417.272694 56.991278 
L 417.984246 57.165451 
L 418.695798 58.90231 
L 420.118903 64.282548 
L 420.830455 63.07425 
L 421.542007 62.670583 
L 422.253559 57.335937 
L 422.965112 55.26931 
L 423.676664 50.701086 
L 424.388216 44.876931 
L 425.099768 45.148313 
L 425.81132 51.403471 
L 426.522873 59.615221 
L 427.234425 65.001645 
L 427.945977 68.183811 
L 429.369081 73.037043 
L 430.080634 70.926781 
L 430.792186 65.090209 
L 431.503738 60.536471 
L 432.926842 53.547538 
L 433.638395 54.581153 
L 434.349947 53.847136 
L 435.061499 54.669217 
L 435.773051 54.792792 
L 437.196156 51.555349 
L 437.907708 51.023709 
L 438.61926 50.279758 
L 439.330812 53.786712 
L 440.753917 48.579718 
L 441.465469 46.815161 
L 442.177021 45.651768 
L 442.888573 45.112803 
L 443.600125 40.376791 
L 444.311678 33.313069 
L 445.02323 31.339411 
L 445.734782 33.127202 
L 447.157886 43.535759 
L 448.580991 45.786245 
L 449.292543 48.46467 
L 450.004095 49.413656 
L 450.715647 48.329861 
L 452.138752 38.956272 
L 452.850304 36.289431 
L 453.561856 34.978321 
L 454.273408 36.468262 
L 454.984961 39.746937 
L 455.696513 39.605949 
L 456.408065 39.168827 
L 457.119617 39.143941 
L 457.831169 40.007031 
L 458.542721 41.519625 
L 459.254274 41.566306 
L 459.965826 41.839186 
L 460.677378 42.830735 
L 461.38893 41.251854 
L 462.100482 39.053007 
L 462.812035 39.65534 
L 463.523587 42.248277 
L 464.235139 43.466187 
L 465.658243 37.052325 
L 466.369796 36.98115 
L 467.081348 38.182102 
L 467.7929 36.807547 
L 469.216004 27.096803 
L 469.927557 24.492407 
L 470.639109 22.955192 
L 471.350661 23.169854 
L 474.19687 33.620271 
L 474.908422 35.958441 
L 475.619974 41.349505 
L 476.331526 48.378286 
L 477.043079 51.513473 
L 477.754631 54.106313 
L 478.466183 56.247681 
L 479.177735 57.133118 
L 479.889287 56.765076 
L 480.60084 55.302975 
L 481.312392 54.938173 
L 482.735496 52.88864 
L 483.447048 54.817658 
L 484.870153 63.59379 
L 485.581705 66.189949 
L 487.716362 59.933212 
L 488.427914 55.580555 
L 489.139466 50.413566 
L 489.851018 50.602446 
L 490.56257 52.090736 
L 491.274123 53.175595 
L 491.985675 52.835868 
L 492.697227 53.650199 
L 494.120331 59.694451 
L 494.831884 59.848731 
L 495.543436 58.512576 
L 496.254988 59.118967 
L 496.96654 63.133873 
L 497.678092 63.98495 
L 498.389645 63.592937 
L 499.101197 62.074942 
L 499.812749 59.392156 
L 500.524301 59.117679 
L 501.235853 59.234527 
L 501.947406 57.13521 
L 502.658958 56.934568 
L 503.37051 54.761501 
L 504.082062 53.38259 
L 505.505167 47.307629 
L 506.216719 43.077621 
L 506.928271 41.319122 
L 507.639823 41.634112 
L 508.351375 46.952912 
L 509.062928 54.695473 
L 509.77448 64.40354 
L 510.486032 71.560955 
L 511.909136 95.585202 
L 512.620689 102.912835 
L 513.332241 105.146545 
L 514.043793 103.150293 
L 514.755345 102.2001 
L 515.466897 104.416797 
L 516.17845 105.278416 
L 516.890002 105.502102 
L 517.601554 105.526226 
L 518.313106 106.495143 
L 519.024658 108.716701 
L 519.736211 108.58663 
L 520.447763 106.906779 
L 521.870867 97.327793 
L 522.582419 95.5699 
L 523.293971 95.716443 
L 524.717076 98.915199 
L 525.428628 98.364581 
L 526.14018 97.452553 
L 526.851732 97.834232 
L 527.563285 97.50869 
L 528.274837 95.814834 
L 529.697941 93.511818 
L 530.409493 92.845998 
L 531.832598 88.391164 
L 532.54415 87.416132 
L 533.255702 87.32036 
L 533.967254 86.19702 
L 534.678807 86.354716 
L 535.390359 88.869938 
L 536.813463 99.135634 
L 537.525015 105.919258 
L 539.659672 122.430721 
L 541.082776 129.86718 
L 541.794329 136.330243 
L 543.928985 147.477955 
L 545.35209 153.265532 
L 546.063642 153.814068 
L 546.775194 151.983461 
L 547.486746 149.466861 
L 548.198298 146.504544 
L 548.909851 144.320191 
L 549.621403 142.669182 
L 550.332955 140.579575 
L 551.044507 140.731446 
L 551.756059 139.129242 
L 552.467612 137.228365 
L 553.890716 136.707232 
L 554.602268 136.796986 
L 556.025373 135.264833 
L 556.736925 134.614005 
L 557.448477 135.618323 
L 558.160029 134.832095 
L 558.871581 132.824365 
L 559.583134 129.634893 
L 560.294686 128.129639 
L 561.006238 125.782185 
L 561.71779 125.242304 
L 563.140895 126.275966 
L 563.852447 128.372906 
L 564.563999 131.942496 
L 565.275551 136.848701 
L 565.987103 140.568453 
L 566.698656 141.0885 
L 567.410208 139.263266 
L 568.12176 138.862318 
L 568.833312 137.586022 
L 569.544864 134.572706 
L 570.967969 130.888383 
L 571.679521 130.338024 
L 571.679521 130.338024 
" clip-path="url(#p165a7bf993)" style="fill: none; stroke: #d6604d; stroke-opacity: 0.9; stroke-width: 1.5; stroke-linecap: round"/>
   </g>
   <g id="patch_6">
    <path d="M 311.962969 171.138828 
L 311.962969 15.898828 
" style="fill: none; stroke: #dddddd; stroke-width: 0.8; stroke-linejoin: miter; stroke-linecap: square"/>
   </g>
   <g id="patch_7">
    <path d="M 311.962969 171.138828 
L 570.967969 171.138828 
" style="fill: none; stroke: #dddddd; stroke-width: 0.8; stroke-linejoin: miter; stroke-linecap: square"/>
   </g>
   <g id="text_41">
    <!-- FPL +9.6%  ·  Florida Power &amp; Light -->
    <g style="fill: #222222" transform="translate(311.962969 12.898828) scale(0.075 -0.075)">
     <defs>
      <path id="DejaVuSans-Bold-46" d="M 588 4666 
L 3834 4666 
L 3834 3756 
L 1791 3756 
L 1791 2888 
L 3713 2888 
L 3713 1978 
L 1791 1978 
L 1791 0 
L 588 0 
L 588 4666 
z
" transform="scale(0.015625)"/>
      <path id="DejaVuSans-Bold-4c" d="M 588 4666 
L 1791 4666 
L 1791 909 
L 3903 909 
L 3903 0 
L 588 0 
L 588 4666 
z
" transform="scale(0.015625)"/>
      <path id="DejaVuSans-Bold-64" d="M 2919 2988 
L 2919 4863 
L 4044 4863 
L 4044 0 
L 2919 0 
L 2919 506 
Q 2688 197 2409 53 
Q 2131 -91 1766 -91 
Q 1119 -91 703 423 
Q 288 938 288 1747 
Q 288 2556 703 3070 
Q 1119 3584 1766 3584 
Q 2128 3584 2408 3439 
Q 2688 3294 2919 2988 
z
M 2181 722 
Q 2541 722 2730 984 
Q 2919 1247 2919 1747 
Q 2919 2247 2730 2509 
Q 2541 2772 2181 2772 
Q 1825 2772 1636 2509 
Q 1447 2247 1447 1747 
Q 1447 1247 1636 984 
Q 1825 722 2181 722 
z
" transform="scale(0.015625)"/>
      <path id="DejaVuSans-Bold-77" d="M 225 3500 
L 1313 3500 
L 1900 1088 
L 2491 3500 
L 3425 3500 
L 4013 1113 
L 4603 3500 
L 5691 3500 
L 4769 0 
L 3547 0 
L 2956 2406 
L 2369 0 
L 1147 0 
L 225 3500 
z
" transform="scale(0.015625)"/>
      <path id="DejaVuSans-Bold-26" d="M 2497 3097 
L 3775 1691 
Q 3941 1909 4027 2181 
Q 4113 2453 4128 2797 
L 5100 2797 
Q 5053 2228 4879 1784 
Q 4706 1341 4397 1006 
L 5313 0 
L 3988 0 
L 3681 341 
Q 3353 122 2990 15 
Q 2628 -91 2222 -91 
Q 1400 -91 892 342 
Q 384 775 384 1459 
Q 384 1916 607 2267 
Q 831 2619 1338 2950 
Q 1206 3116 1143 3281 
Q 1081 3447 1081 3628 
Q 1081 4138 1478 4444 
Q 1875 4750 2534 4750 
Q 2819 4750 3126 4704 
Q 3434 4659 3769 4569 
L 3769 3700 
Q 3475 3850 3212 3922 
Q 2950 3994 2700 3994 
Q 2459 3994 2326 3901 
Q 2194 3809 2194 3641 
Q 2194 3534 2270 3398 
Q 2347 3263 2497 3097 
z
M 1875 2322 
Q 1672 2175 1569 1989 
Q 1466 1803 1466 1581 
Q 1466 1222 1731 969 
Q 1997 716 2369 716 
Q 2578 716 2759 780 
Q 2941 844 3097 972 
L 1875 2322 
z
" transform="scale(0.015625)"/>
      <path id="DejaVuSans-Bold-67" d="M 2919 594 
Q 2688 288 2409 144 
Q 2131 0 1766 0 
Q 1125 0 706 504 
Q 288 1009 288 1791 
Q 288 2575 706 3076 
Q 1125 3578 1766 3578 
Q 2131 3578 2409 3434 
Q 2688 3291 2919 2981 
L 2919 3500 
L 4044 3500 
L 4044 353 
Q 4044 -491 3511 -936 
Q 2978 -1381 1966 -1381 
Q 1638 -1381 1331 -1331 
Q 1025 -1281 716 -1178 
L 716 -306 
Q 1009 -475 1290 -558 
Q 1572 -641 1856 -641 
Q 2406 -641 2662 -400 
Q 2919 -159 2919 353 
L 2919 594 
z
M 2181 2772 
Q 1834 2772 1640 2515 
Q 1447 2259 1447 1791 
Q 1447 1309 1634 1061 
Q 1822 813 2181 813 
Q 2531 813 2725 1069 
Q 2919 1325 2919 1791 
Q 2919 2259 2725 2515 
Q 2531 2772 2181 2772 
z
" transform="scale(0.015625)"/>
      <path id="DejaVuSans-Bold-68" d="M 4056 2131 
L 4056 0 
L 2931 0 
L 2931 347 
L 2931 1625 
Q 2931 2084 2911 2256 
Q 2891 2428 2841 2509 
Q 2775 2619 2662 2680 
Q 2550 2741 2406 2741 
Q 2056 2741 1856 2470 
Q 1656 2200 1656 1722 
L 1656 0 
L 538 0 
L 538 4863 
L 1656 4863 
L 1656 2988 
Q 1909 3294 2193 3439 
Q 2478 3584 2822 3584 
Q 3428 3584 3742 3212 
Q 4056 2841 4056 2131 
z
" transform="scale(0.015625)"/>
      <path id="DejaVuSans-Bold-74" d="M 1759 4494 
L 1759 3500 
L 2913 3500 
L 2913 2700 
L 1759 2700 
L 1759 1216 
Q 1759 972 1856 886 
Q 1953 800 2241 800 
L 2816 800 
L 2816 0 
L 1856 0 
Q 1194 0 917 276 
Q 641 553 641 1216 
L 641 2700 
L 84 2700 
L 84 3500 
L 641 3500 
L 641 4494 
L 1759 4494 
z
" transform="scale(0.015625)"/>
     </defs>
     <use xlink:href="#DejaVuSans-Bold-46"/>
     <use xlink:href="#DejaVuSans-Bold-50" transform="translate(68.310547 0)"/>
     <use xlink:href="#DejaVuSans-Bold-4c" transform="translate(141.601562 0)"/>
     <use xlink:href="#DejaVuSans-Bold-20" transform="translate(205.322266 0)"/>
     <use xlink:href="#DejaVuSans-Bold-2b" transform="translate(240.136719 0)"/>
     <use xlink:href="#DejaVuSans-Bold-39" transform="translate(323.925781 0)"/>
     <use xlink:href="#DejaVuSans-Bold-2e" transform="translate(393.505859 0)"/>
     <use xlink:href="#DejaVuSans-Bold-36" transform="translate(431.494141 0)"/>
     <use xlink:href="#DejaVuSans-Bold-25" transform="translate(501.074219 0)"/>
     <use xlink:href="#DejaVuSans-Bold-20" transform="translate(601.269531 0)"/>
     <use xlink:href="#DejaVuSans-Bold-20" transform="translate(636.083984 0)"/>
     <use xlink:href="#DejaVuSans-Bold-b7" transform="translate(670.898438 0)"/>
     <use xlink:href="#DejaVuSans-Bold-20" transform="translate(708.886719 0)"/>
     <use xlink:href="#DejaVuSans-Bold-20" transform="translate(743.701172 0)"/>
     <use xlink:href="#DejaVuSans-Bold-46" transform="translate(778.515625 0)"/>
     <use xlink:href="#DejaVuSans-Bold-6c" transform="translate(846.826172 0)"/>
     <use xlink:href="#DejaVuSans-Bold-6f" transform="translate(881.103516 0)"/>
     <use xlink:href="#DejaVuSans-Bold-72" transform="translate(949.804688 0)"/>
     <use xlink:href="#DejaVuSans-Bold-69" transform="translate(999.121094 0)"/>
     <use xlink:href="#DejaVuSans-Bold-64" transform="translate(1033.398438 0)"/>
     <use xlink:href="#DejaVuSans-Bold-61" transform="translate(1104.980469 0)"/>
     <use xlink:href="#DejaVuSans-Bold-20" transform="translate(1172.460938 0)"/>
     <use xlink:href="#DejaVuSans-Bold-50" transform="translate(1207.275391 0)"/>
     <use xlink:href="#DejaVuSans-Bold-6f" transform="translate(1280.566406 0)"/>
     <use xlink:href="#DejaVuSans-Bold-77" transform="translate(1349.267578 0)"/>
     <use xlink:href="#DejaVuSans-Bold-65" transform="translate(1441.650391 0)"/>
     <use xlink:href="#DejaVuSans-Bold-72" transform="translate(1509.472656 0)"/>
     <use xlink:href="#DejaVuSans-Bold-20" transform="translate(1558.789062 0)"/>
     <use xlink:href="#DejaVuSans-Bold-26" transform="translate(1593.603516 0)"/>
     <use xlink:href="#DejaVuSans-Bold-20" transform="translate(1680.810547 0)"/>
     <use xlink:href="#DejaVuSans-Bold-4c" transform="translate(1715.625 0)"/>
     <use xlink:href="#DejaVuSans-Bold-69" transform="translate(1779.345703 0)"/>
     <use xlink:href="#DejaVuSans-Bold-67" transform="translate(1813.623047 0)"/>
     <use xlink:href="#DejaVuSans-Bold-68" transform="translate(1885.205078 0)"/>
     <use xlink:href="#DejaVuSans-Bold-74" transform="translate(1956.396484 0)"/>
    </g>
   </g>
  </g>
 </g>
 <defs>
  <clipPath id="pd39ee01718">
   <rect x="28.997969" y="15.898828" width="259.005" height="155.24"/>
  </clipPath>
  <clipPath id="p165a7bf993">
   <rect x="311.962969" y="15.898828" width="259.005" height="155.24"/>
  </clipPath>
 </defs>
</svg>
