<?xml version="1.0" encoding="utf-8" standalone="no"?>
<!DOCTYPE svg PUBLIC "-//W3C//DTD SVG 1.1//EN"
  "http://www.w3.org/Graphics/SVG/1.1/DTD/svg11.dtd">
<svg xmlns:xlink="http://www.w3.org/1999/xlink" width="578.167969pt" height="189.113516pt" viewBox="0 0 578.167969 189.113516" xmlns="http://www.w3.org/2000/svg" version="1.1">
 <metadata>
  <rdf:RDF xmlns:dc="http://purl.org/dc/elements/1.1/" xmlns:cc="http://creativecommons.org/ns#" xmlns:rdf="http://www.w3.org/1999/02/22-rdf-syntax-ns#">
   <cc:Work>
    <dc:type rdf:resource="http://purl.org/dc/dcmitype/StillImage"/>
    <dc:date>2026-05-28T09:22:30.413094</dc:date>
    <dc:format>image/svg+xml</dc:format>
    <dc:creator>
     <cc:Agent>
      <dc:title>Matplotlib v3.10.9, https://matplotlib.org/</dc:title>
     </cc:Agent>
    </dc:creator>
   </cc:Work>
  </rdf:RDF>
 </metadata>
 <defs>
  <style type="text/css">*{stroke-linejoin: round; stroke-linecap: butt}</style>
 </defs>
 <g id="figure_1">
  <g id="patch_1">
   <path d="M 0 189.113516 
L 578.167969 189.113516 
L 578.167969 0 
L 0 0 
z
" style="fill: #ffffff"/>
  </g>
  <g id="axes_1">
   <g id="patch_2">
    <path d="M 28.997969 171.138828 
L 290.207969 171.138828 
L 290.207969 15.898828 
L 28.997969 15.898828 
z
" style="fill: #fafaf8"/>
   </g>
   <g id="matplotlib.axis_1">
    <g id="xtick_1">
     <g id="line2d_1">
      <defs>
       <path id="m61c3724ea5" d="M 0 0 
L 0 2 
" style="stroke: #dddddd; stroke-width: 0.8"/>
      </defs>
      <g>
       <use xlink:href="#m61c3724ea5" x="28.997969" y="171.138828" style="fill: #dddddd; stroke: #dddddd; stroke-width: 0.8"/>
      </g>
     </g>
     <g id="text_1">
      <!-- Jan -->
      <g style="fill: #aaaaaa" transform="translate(23.6025 180.457734) scale(0.07 -0.07)">
       <defs>
        <path id="DejaVuSans-4a" d="M 628 4666 
L 1259 4666 
L 1259 325 
Q 1259 -519 939 -900 
Q 619 -1281 -91 -1281 
L -331 -1281 
L -331 -750 
L -134 -750 
Q 284 -750 456 -515 
Q 628 -281 628 325 
L 628 4666 
z
" transform="scale(0.015625)"/>
        <path id="DejaVuSans-61" d="M 2194 1759 
Q 1497 1759 1228 1600 
Q 959 1441 959 1056 
Q 959 750 1161 570 
Q 1363 391 1709 391 
Q 2188 391 2477 730 
Q 2766 1069 2766 1631 
L 2766 1759 
L 2194 1759 
z
M 3341 1997 
L 3341 0 
L 2766 0 
L 2766 531 
Q 2569 213 2275 61 
Q 1981 -91 1556 -91 
Q 1019 -91 701 211 
Q 384 513 384 1019 
Q 384 1609 779 1909 
Q 1175 2209 1959 2209 
L 2766 2209 
L 2766 2266 
Q 2766 2663 2505 2880 
Q 2244 3097 1772 3097 
Q 1472 3097 1187 3025 
Q 903 2953 641 2809 
L 641 3341 
Q 956 3463 1253 3523 
Q 1550 3584 1831 3584 
Q 2591 3584 2966 3190 
Q 3341 2797 3341 1997 
z
" transform="scale(0.015625)"/>
        <path id="DejaVuSans-6e" d="M 3513 2113 
L 3513 0 
L 2938 0 
L 2938 2094 
Q 2938 2591 2744 2837 
Q 2550 3084 2163 3084 
Q 1697 3084 1428 2787 
Q 1159 2491 1159 1978 
L 1159 0 
L 581 0 
L 581 3500 
L 1159 3500 
L 1159 2956 
Q 1366 3272 1645 3428 
Q 1925 3584 2291 3584 
Q 2894 3584 3203 3211 
Q 3513 2838 3513 2113 
z
" transform="scale(0.015625)"/>
       </defs>
       <use xlink:href="#DejaVuSans-4a"/>
       <use xlink:href="#DejaVuSans-61" transform="translate(29.492188 0)"/>
       <use xlink:href="#DejaVuSans-6e" transform="translate(90.771484 0)"/>
      </g>
     </g>
    </g>
    <g id="xtick_2">
     <g id="line2d_2">
      <g>
       <use xlink:href="#m61c3724ea5" x="51.243875" y="171.138828" style="fill: #dddddd; stroke: #dddddd; stroke-width: 0.8"/>
      </g>
     </g>
     <g id="text_2">
      <!-- Feb -->
      <g style="fill: #aaaaaa" transform="translate(45.047782 180.457734) scale(0.07 -0.07)">
       <defs>
        <path id="DejaVuSans-46" d="M 628 4666 
L 3309 4666 
L 3309 4134 
L 1259 4134 
L 1259 2759 
L 3109 2759 
L 3109 2228 
L 1259 2228 
L 1259 0 
L 628 0 
L 628 4666 
z
" transform="scale(0.015625)"/>
        <path id="DejaVuSans-65" d="M 3597 1894 
L 3597 1613 
L 953 1613 
Q 991 1019 1311 708 
Q 1631 397 2203 397 
Q 2534 397 2845 478 
Q 3156 559 3463 722 
L 3463 178 
Q 3153 47 2828 -22 
Q 2503 -91 2169 -91 
Q 1331 -91 842 396 
Q 353 884 353 1716 
Q 353 2575 817 3079 
Q 1281 3584 2069 3584 
Q 2775 3584 3186 3129 
Q 3597 2675 3597 1894 
z
M 3022 2063 
Q 3016 2534 2758 2815 
Q 2500 3097 2075 3097 
Q 1594 3097 1305 2825 
Q 1016 2553 972 2059 
L 3022 2063 
z
" transform="scale(0.015625)"/>
        <path id="DejaVuSans-62" d="M 3116 1747 
Q 3116 2381 2855 2742 
Q 2594 3103 2138 3103 
Q 1681 3103 1420 2742 
Q 1159 2381 1159 1747 
Q 1159 1113 1420 752 
Q 1681 391 2138 391 
Q 2594 391 2855 752 
Q 3116 1113 3116 1747 
z
M 1159 2969 
Q 1341 3281 1617 3432 
Q 1894 3584 2278 3584 
Q 2916 3584 3314 3078 
Q 3713 2572 3713 1747 
Q 3713 922 3314 415 
Q 2916 -91 2278 -91 
Q 1894 -91 1617 61 
Q 1341 213 1159 525 
L 1159 0 
L 581 0 
L 581 4863 
L 1159 4863 
L 1159 2969 
z
" transform="scale(0.015625)"/>
       </defs>
       <use xlink:href="#DejaVuSans-46"/>
       <use xlink:href="#DejaVuSans-65" transform="translate(52.019531 0)"/>
       <use xlink:href="#DejaVuSans-62" transform="translate(113.542969 0)"/>
      </g>
     </g>
    </g>
    <g id="xtick_3">
     <g id="line2d_3">
      <g>
       <use xlink:href="#m61c3724ea5" x="71.336952" y="171.138828" style="fill: #dddddd; stroke: #dddddd; stroke-width: 0.8"/>
      </g>
     </g>
     <g id="text_3">
      <!-- Mar -->
      <g style="fill: #aaaaaa" transform="translate(64.733437 180.457734) scale(0.07 -0.07)">
       <defs>
        <path id="DejaVuSans-4d" d="M 628 4666 
L 1569 4666 
L 2759 1491 
L 3956 4666 
L 4897 4666 
L 4897 0 
L 4281 0 
L 4281 4097 
L 3078 897 
L 2444 897 
L 1241 4097 
L 1241 0 
L 628 0 
L 628 4666 
z
" transform="scale(0.015625)"/>
        <path id="DejaVuSans-72" d="M 2631 2963 
Q 2534 3019 2420 3045 
Q 2306 3072 2169 3072 
Q 1681 3072 1420 2755 
Q 1159 2438 1159 1844 
L 1159 0 
L 581 0 
L 581 3500 
L 1159 3500 
L 1159 2956 
Q 1341 3275 1631 3429 
Q 1922 3584 2338 3584 
Q 2397 3584 2469 3576 
Q 2541 3569 2628 3553 
L 2631 2963 
z
" transform="scale(0.015625)"/>
       </defs>
       <use xlink:href="#DejaVuSans-4d"/>
       <use xlink:href="#DejaVuSans-61" transform="translate(86.279297 0)"/>
       <use xlink:href="#DejaVuSans-72" transform="translate(147.558594 0)"/>
      </g>
     </g>
    </g>
    <g id="xtick_4">
     <g id="line2d_4">
      <g>
       <use xlink:href="#m61c3724ea5" x="93.582859" y="171.138828" style="fill: #dddddd; stroke: #dddddd; stroke-width: 0.8"/>
      </g>
     </g>
     <g id="text_4">
      <!-- Apr -->
      <g style="fill: #aaaaaa" transform="translate(87.527859 180.457734) scale(0.07 -0.07)">
       <defs>
        <path id="DejaVuSans-41" d="M 2188 4044 
L 1331 1722 
L 3047 1722 
L 2188 4044 
z
M 1831 4666 
L 2547 4666 
L 4325 0 
L 3669 0 
L 3244 1197 
L 1141 1197 
L 716 0 
L 50 0 
L 1831 4666 
z
" transform="scale(0.015625)"/>
        <path id="DejaVuSans-70" d="M 1159 525 
L 1159 -1331 
L 581 -1331 
L 581 3500 
L 1159 3500 
L 1159 2969 
Q 1341 3281 1617 3432 
Q 1894 3584 2278 3584 
Q 2916 3584 3314 3078 
Q 3713 2572 3713 1747 
Q 3713 922 3314 415 
Q 2916 -91 2278 -91 
Q 1894 -91 1617 61 
Q 1341 213 1159 525 
z
M 3116 1747 
Q 3116 2381 2855 2742 
Q 2594 3103 2138 3103 
Q 1681 3103 1420 2742 
Q 1159 2381 1159 1747 
Q 1159 1113 1420 752 
Q 1681 391 2138 391 
Q 2594 391 2855 752 
Q 3116 1113 3116 1747 
z
" transform="scale(0.015625)"/>
       </defs>
       <use xlink:href="#DejaVuSans-41"/>
       <use xlink:href="#DejaVuSans-70" transform="translate(68.408203 0)"/>
       <use xlink:href="#DejaVuSans-72" transform="translate(131.884766 0)"/>
      </g>
     </g>
    </g>
    <g id="xtick_5">
     <g id="line2d_5">
      <g>
       <use xlink:href="#m61c3724ea5" x="115.111156" y="171.138828" style="fill: #dddddd; stroke: #dddddd; stroke-width: 0.8"/>
      </g>
     </g>
     <g id="text_5">
      <!-- May -->
      <g style="fill: #aaaaaa" transform="translate(107.874906 180.457734) scale(0.07 -0.07)">
       <defs>
        <path id="DejaVuSans-79" d="M 2059 -325 
Q 1816 -950 1584 -1140 
Q 1353 -1331 966 -1331 
L 506 -1331 
L 506 -850 
L 844 -850 
Q 1081 -850 1212 -737 
Q 1344 -625 1503 -206 
L 1606 56 
L 191 3500 
L 800 3500 
L 1894 763 
L 2988 3500 
L 3597 3500 
L 2059 -325 
z
" transform="scale(0.015625)"/>
       </defs>
       <use xlink:href="#DejaVuSans-4d"/>
       <use xlink:href="#DejaVuSans-61" transform="translate(86.279297 0)"/>
       <use xlink:href="#DejaVuSans-79" transform="translate(147.558594 0)"/>
      </g>
     </g>
    </g>
    <g id="xtick_6">
     <g id="line2d_6">
      <g>
       <use xlink:href="#m61c3724ea5" x="137.357062" y="171.138828" style="fill: #dddddd; stroke: #dddddd; stroke-width: 0.8"/>
      </g>
     </g>
     <g id="text_6">
      <!-- Jun -->
      <g style="fill: #aaaaaa" transform="translate(131.888312 180.457734) scale(0.07 -0.07)">
       <defs>
        <path id="DejaVuSans-75" d="M 544 1381 
L 544 3500 
L 1119 3500 
L 1119 1403 
Q 1119 906 1312 657 
Q 1506 409 1894 409 
Q 2359 409 2629 706 
Q 2900 1003 2900 1516 
L 2900 3500 
L 3475 3500 
L 3475 0 
L 2900 0 
L 2900 538 
Q 2691 219 2414 64 
Q 2138 -91 1772 -91 
Q 1169 -91 856 284 
Q 544 659 544 1381 
z
M 1991 3584 
L 1991 3584 
z
" transform="scale(0.015625)"/>
       </defs>
       <use xlink:href="#DejaVuSans-4a"/>
       <use xlink:href="#DejaVuSans-75" transform="translate(29.492188 0)"/>
       <use xlink:href="#DejaVuSans-6e" transform="translate(92.871094 0)"/>
      </g>
     </g>
    </g>
    <g id="xtick_7">
     <g id="line2d_7">
      <g>
       <use xlink:href="#m61c3724ea5" x="158.885359" y="171.138828" style="fill: #dddddd; stroke: #dddddd; stroke-width: 0.8"/>
      </g>
     </g>
     <g id="text_7">
      <!-- Jul -->
      <g style="fill: #aaaaaa" transform="translate(154.66239 180.457734) scale(0.07 -0.07)">
       <defs>
        <path id="DejaVuSans-6c" d="M 603 4863 
L 1178 4863 
L 1178 0 
L 603 0 
L 603 4863 
z
" transform="scale(0.015625)"/>
       </defs>
       <use xlink:href="#DejaVuSans-4a"/>
       <use xlink:href="#DejaVuSans-75" transform="translate(29.492188 0)"/>
       <use xlink:href="#DejaVuSans-6c" transform="translate(92.871094 0)"/>
      </g>
     </g>
    </g>
    <g id="xtick_8">
     <g id="line2d_8">
      <g>
       <use xlink:href="#m61c3724ea5" x="181.131265" y="171.138828" style="fill: #dddddd; stroke: #dddddd; stroke-width: 0.8"/>
      </g>
     </g>
     <g id="text_8">
      <!-- Aug -->
      <g style="fill: #aaaaaa" transform="translate(174.296969 180.457734) scale(0.07 -0.07)">
       <defs>
        <path id="DejaVuSans-67" d="M 2906 1791 
Q 2906 2416 2648 2759 
Q 2391 3103 1925 3103 
Q 1463 3103 1205 2759 
Q 947 2416 947 1791 
Q 947 1169 1205 825 
Q 1463 481 1925 481 
Q 2391 481 2648 825 
Q 2906 1169 2906 1791 
z
M 3481 434 
Q 3481 -459 3084 -895 
Q 2688 -1331 1869 -1331 
Q 1566 -1331 1297 -1286 
Q 1028 -1241 775 -1147 
L 775 -588 
Q 1028 -725 1275 -790 
Q 1522 -856 1778 -856 
Q 2344 -856 2625 -561 
Q 2906 -266 2906 331 
L 2906 616 
Q 2728 306 2450 153 
Q 2172 0 1784 0 
Q 1141 0 747 490 
Q 353 981 353 1791 
Q 353 2603 747 3093 
Q 1141 3584 1784 3584 
Q 2172 3584 2450 3431 
Q 2728 3278 2906 2969 
L 2906 3500 
L 3481 3500 
L 3481 434 
z
" transform="scale(0.015625)"/>
       </defs>
       <use xlink:href="#DejaVuSans-41"/>
       <use xlink:href="#DejaVuSans-75" transform="translate(68.408203 0)"/>
       <use xlink:href="#DejaVuSans-67" transform="translate(131.787109 0)"/>
      </g>
     </g>
    </g>
    <g id="xtick_9">
     <g id="line2d_9">
      <g>
       <use xlink:href="#m61c3724ea5" x="203.377172" y="171.138828" style="fill: #dddddd; stroke: #dddddd; stroke-width: 0.8"/>
      </g>
     </g>
     <g id="text_9">
      <!-- Sep -->
      <g style="fill: #aaaaaa" transform="translate(196.779672 180.457734) scale(0.07 -0.07)">
       <defs>
        <path id="DejaVuSans-53" d="M 3425 4513 
L 3425 3897 
Q 3066 4069 2747 4153 
Q 2428 4238 2131 4238 
Q 1616 4238 1336 4038 
Q 1056 3838 1056 3469 
Q 1056 3159 1242 3001 
Q 1428 2844 1947 2747 
L 2328 2669 
Q 3034 2534 3370 2195 
Q 3706 1856 3706 1288 
Q 3706 609 3251 259 
Q 2797 -91 1919 -91 
Q 1588 -91 1214 -16 
Q 841 59 441 206 
L 441 856 
Q 825 641 1194 531 
Q 1563 422 1919 422 
Q 2459 422 2753 634 
Q 3047 847 3047 1241 
Q 3047 1584 2836 1778 
Q 2625 1972 2144 2069 
L 1759 2144 
Q 1053 2284 737 2584 
Q 422 2884 422 3419 
Q 422 4038 858 4394 
Q 1294 4750 2059 4750 
Q 2388 4750 2728 4690 
Q 3069 4631 3425 4513 
z
" transform="scale(0.015625)"/>
       </defs>
       <use xlink:href="#DejaVuSans-53"/>
       <use xlink:href="#DejaVuSans-65" transform="translate(63.476562 0)"/>
       <use xlink:href="#DejaVuSans-70" transform="translate(125 0)"/>
      </g>
     </g>
    </g>
    <g id="xtick_10">
     <g id="line2d_10">
      <g>
       <use xlink:href="#m61c3724ea5" x="224.905469" y="171.138828" style="fill: #dddddd; stroke: #dddddd; stroke-width: 0.8"/>
      </g>
     </g>
     <g id="text_10">
      <!-- Oct -->
      <g style="fill: #aaaaaa" transform="translate(218.85375 180.457734) scale(0.07 -0.07)">
       <defs>
        <path id="DejaVuSans-4f" d="M 2522 4238 
Q 1834 4238 1429 3725 
Q 1025 3213 1025 2328 
Q 1025 1447 1429 934 
Q 1834 422 2522 422 
Q 3209 422 3611 934 
Q 4013 1447 4013 2328 
Q 4013 3213 3611 3725 
Q 3209 4238 2522 4238 
z
M 2522 4750 
Q 3503 4750 4090 4092 
Q 4678 3434 4678 2328 
Q 4678 1225 4090 567 
Q 3503 -91 2522 -91 
Q 1538 -91 948 565 
Q 359 1222 359 2328 
Q 359 3434 948 4092 
Q 1538 4750 2522 4750 
z
" transform="scale(0.015625)"/>
        <path id="DejaVuSans-63" d="M 3122 3366 
L 3122 2828 
Q 2878 2963 2633 3030 
Q 2388 3097 2138 3097 
Q 1578 3097 1268 2742 
Q 959 2388 959 1747 
Q 959 1106 1268 751 
Q 1578 397 2138 397 
Q 2388 397 2633 464 
Q 2878 531 3122 666 
L 3122 134 
Q 2881 22 2623 -34 
Q 2366 -91 2075 -91 
Q 1284 -91 818 406 
Q 353 903 353 1747 
Q 353 2603 823 3093 
Q 1294 3584 2113 3584 
Q 2378 3584 2631 3529 
Q 2884 3475 3122 3366 
z
" transform="scale(0.015625)"/>
        <path id="DejaVuSans-74" d="M 1172 4494 
L 1172 3500 
L 2356 3500 
L 2356 3053 
L 1172 3053 
L 1172 1153 
Q 1172 725 1289 603 
Q 1406 481 1766 481 
L 2356 481 
L 2356 0 
L 1766 0 
Q 1100 0 847 248 
Q 594 497 594 1153 
L 594 3053 
L 172 3053 
L 172 3500 
L 594 3500 
L 594 4494 
L 1172 4494 
z
" transform="scale(0.015625)"/>
       </defs>
       <use xlink:href="#DejaVuSans-4f"/>
       <use xlink:href="#DejaVuSans-63" transform="translate(78.710938 0)"/>
       <use xlink:href="#DejaVuSans-74" transform="translate(133.691406 0)"/>
      </g>
     </g>
    </g>
    <g id="xtick_11">
     <g id="line2d_11">
      <g>
       <use xlink:href="#m61c3724ea5" x="247.151375" y="171.138828" style="fill: #dddddd; stroke: #dddddd; stroke-width: 0.8"/>
      </g>
     </g>
     <g id="text_11">
      <!-- Nov -->
      <g style="fill: #aaaaaa" transform="translate(240.319813 180.457734) scale(0.07 -0.07)">
       <defs>
        <path id="DejaVuSans-4e" d="M 628 4666 
L 1478 4666 
L 3547 763 
L 3547 4666 
L 4159 4666 
L 4159 0 
L 3309 0 
L 1241 3903 
L 1241 0 
L 628 0 
L 628 4666 
z
" transform="scale(0.015625)"/>
        <path id="DejaVuSans-6f" d="M 1959 3097 
Q 1497 3097 1228 2736 
Q 959 2375 959 1747 
Q 959 1119 1226 758 
Q 1494 397 1959 397 
Q 2419 397 2687 759 
Q 2956 1122 2956 1747 
Q 2956 2369 2687 2733 
Q 2419 3097 1959 3097 
z
M 1959 3584 
Q 2709 3584 3137 3096 
Q 3566 2609 3566 1747 
Q 3566 888 3137 398 
Q 2709 -91 1959 -91 
Q 1206 -91 779 398 
Q 353 888 353 1747 
Q 353 2609 779 3096 
Q 1206 3584 1959 3584 
z
" transform="scale(0.015625)"/>
        <path id="DejaVuSans-76" d="M 191 3500 
L 800 3500 
L 1894 563 
L 2988 3500 
L 3597 3500 
L 2284 0 
L 1503 0 
L 191 3500 
z
" transform="scale(0.015625)"/>
       </defs>
       <use xlink:href="#DejaVuSans-4e"/>
       <use xlink:href="#DejaVuSans-6f" transform="translate(74.804688 0)"/>
       <use xlink:href="#DejaVuSans-76" transform="translate(135.986328 0)"/>
      </g>
     </g>
    </g>
    <g id="xtick_12">
     <g id="line2d_12">
      <g>
       <use xlink:href="#m61c3724ea5" x="268.679672" y="171.138828" style="fill: #dddddd; stroke: #dddddd; stroke-width: 0.8"/>
      </g>
     </g>
     <g id="text_12">
      <!-- Dec -->
      <g style="fill: #aaaaaa" transform="translate(261.906625 180.457734) scale(0.07 -0.07)">
       <defs>
        <path id="DejaVuSans-44" d="M 1259 4147 
L 1259 519 
L 2022 519 
Q 2988 519 3436 956 
Q 3884 1394 3884 2338 
Q 3884 3275 3436 3711 
Q 2988 4147 2022 4147 
L 1259 4147 
z
M 628 4666 
L 1925 4666 
Q 3281 4666 3915 4102 
Q 4550 3538 4550 2338 
Q 4550 1131 3912 565 
Q 3275 0 1925 0 
L 628 0 
L 628 4666 
z
" transform="scale(0.015625)"/>
       </defs>
       <use xlink:href="#DejaVuSans-44"/>
       <use xlink:href="#DejaVuSans-65" transform="translate(77.001953 0)"/>
       <use xlink:href="#DejaVuSans-63" transform="translate(138.525391 0)"/>
      </g>
     </g>
    </g>
   </g>
   <g id="matplotlib.axis_2">
    <g id="ytick_1">
     <g id="line2d_13">
      <path d="M 28.997969 156.158708 
L 290.207969 156.158708 
" clip-path="url(#pd9009c4242)" style="fill: none; stroke: #eeeeee; stroke-width: 0.6; stroke-linecap: square"/>
     </g>
     <g id="line2d_14"/>
     <g id="text_13">
      <!-- 1k -->
      <g style="fill: #999999" transform="translate(17.490781 158.818162) scale(0.07 -0.07)">
       <defs>
        <path id="DejaVuSans-31" d="M 794 531 
L 1825 531 
L 1825 4091 
L 703 3866 
L 703 4441 
L 1819 4666 
L 2450 4666 
L 2450 531 
L 3481 531 
L 3481 0 
L 794 0 
L 794 531 
z
" transform="scale(0.015625)"/>
        <path id="DejaVuSans-6b" d="M 581 4863 
L 1159 4863 
L 1159 1991 
L 2875 3500 
L 3609 3500 
L 1753 1863 
L 3688 0 
L 2938 0 
L 1159 1709 
L 1159 0 
L 581 0 
L 581 4863 
z
" transform="scale(0.015625)"/>
       </defs>
       <use xlink:href="#DejaVuSans-31"/>
       <use xlink:href="#DejaVuSans-6b" transform="translate(63.623047 0)"/>
      </g>
     </g>
    </g>
    <g id="ytick_2">
     <g id="line2d_15">
      <path d="M 28.997969 132.595539 
L 290.207969 132.595539 
" clip-path="url(#pd9009c4242)" style="fill: none; stroke: #eeeeee; stroke-width: 0.6; stroke-linecap: square"/>
     </g>
     <g id="line2d_16"/>
     <g id="text_14">
      <!-- 1k -->
      <g style="fill: #999999" transform="translate(17.490781 135.254992) scale(0.07 -0.07)">
       <use xlink:href="#DejaVuSans-31"/>
       <use xlink:href="#DejaVuSans-6b" transform="translate(63.623047 0)"/>
      </g>
     </g>
    </g>
    <g id="ytick_3">
     <g id="line2d_17">
      <path d="M 28.997969 109.032369 
L 290.207969 109.032369 
" clip-path="url(#pd9009c4242)" style="fill: none; stroke: #eeeeee; stroke-width: 0.6; stroke-linecap: square"/>
     </g>
     <g id="line2d_18"/>
     <g id="text_15">
      <!-- 1k -->
      <g style="fill: #999999" transform="translate(17.490781 111.691822) scale(0.07 -0.07)">
       <use xlink:href="#DejaVuSans-31"/>
       <use xlink:href="#DejaVuSans-6b" transform="translate(63.623047 0)"/>
      </g>
     </g>
    </g>
    <g id="ytick_4">
     <g id="line2d_19">
      <path d="M 28.997969 85.469199 
L 290.207969 85.469199 
" clip-path="url(#pd9009c4242)" style="fill: none; stroke: #eeeeee; stroke-width: 0.6; stroke-linecap: square"/>
     </g>
     <g id="line2d_20"/>
     <g id="text_16">
      <!-- 2k -->
      <g style="fill: #999999" transform="translate(17.490781 88.128652) scale(0.07 -0.07)">
       <defs>
        <path id="DejaVuSans-32" d="M 1228 531 
L 3431 531 
L 3431 0 
L 469 0 
L 469 531 
Q 828 903 1448 1529 
Q 2069 2156 2228 2338 
Q 2531 2678 2651 2914 
Q 2772 3150 2772 3378 
Q 2772 3750 2511 3984 
Q 2250 4219 1831 4219 
Q 1534 4219 1204 4116 
Q 875 4013 500 3803 
L 500 4441 
Q 881 4594 1212 4672 
Q 1544 4750 1819 4750 
Q 2544 4750 2975 4387 
Q 3406 4025 3406 3419 
Q 3406 3131 3298 2873 
Q 3191 2616 2906 2266 
Q 2828 2175 2409 1742 
Q 1991 1309 1228 531 
z
" transform="scale(0.015625)"/>
       </defs>
       <use xlink:href="#DejaVuSans-32"/>
       <use xlink:href="#DejaVuSans-6b" transform="translate(63.623047 0)"/>
      </g>
     </g>
    </g>
    <g id="ytick_5">
     <g id="line2d_21">
      <path d="M 28.997969 61.906029 
L 290.207969 61.906029 
" clip-path="url(#pd9009c4242)" style="fill: none; stroke: #eeeeee; stroke-width: 0.6; stroke-linecap: square"/>
     </g>
     <g id="line2d_22"/>
     <g id="text_17">
      <!-- 2k -->
      <g style="fill: #999999" transform="translate(17.490781 64.565482) scale(0.07 -0.07)">
       <use xlink:href="#DejaVuSans-32"/>
       <use xlink:href="#DejaVuSans-6b" transform="translate(63.623047 0)"/>
      </g>
     </g>
    </g>
    <g id="ytick_6">
     <g id="line2d_23">
      <path d="M 28.997969 38.34286 
L 290.207969 38.34286 
" clip-path="url(#pd9009c4242)" style="fill: none; stroke: #eeeeee; stroke-width: 0.6; stroke-linecap: square"/>
     </g>
     <g id="line2d_24"/>
     <g id="text_18">
      <!-- 2k -->
      <g style="fill: #999999" transform="translate(17.490781 41.002313) scale(0.07 -0.07)">
       <use xlink:href="#DejaVuSans-32"/>
       <use xlink:href="#DejaVuSans-6b" transform="translate(63.623047 0)"/>
      </g>
     </g>
    </g>
    <g id="text_19">
     <!-- Electricity demand (MW) -->
     <g style="fill: #aaaaaa" transform="translate(12.138984 133.625352) rotate(-90) scale(0.065 -0.065)">
      <defs>
       <path id="DejaVuSans-45" d="M 628 4666 
L 3578 4666 
L 3578 4134 
L 1259 4134 
L 1259 2753 
L 3481 2753 
L 3481 2222 
L 1259 2222 
L 1259 531 
L 3634 531 
L 3634 0 
L 628 0 
L 628 4666 
z
" transform="scale(0.015625)"/>
       <path id="DejaVuSans-69" d="M 603 3500 
L 1178 3500 
L 1178 0 
L 603 0 
L 603 3500 
z
M 603 4863 
L 1178 4863 
L 1178 4134 
L 603 4134 
L 603 4863 
z
" transform="scale(0.015625)"/>
       <path id="DejaVuSans-20" transform="scale(0.015625)"/>
       <path id="DejaVuSans-64" d="M 2906 2969 
L 2906 4863 
L 3481 4863 
L 3481 0 
L 2906 0 
L 2906 525 
Q 2725 213 2448 61 
Q 2172 -91 1784 -91 
Q 1150 -91 751 415 
Q 353 922 353 1747 
Q 353 2572 751 3078 
Q 1150 3584 1784 3584 
Q 2172 3584 2448 3432 
Q 2725 3281 2906 2969 
z
M 947 1747 
Q 947 1113 1208 752 
Q 1469 391 1925 391 
Q 2381 391 2643 752 
Q 2906 1113 2906 1747 
Q 2906 2381 2643 2742 
Q 2381 3103 1925 3103 
Q 1469 3103 1208 2742 
Q 947 2381 947 1747 
z
" transform="scale(0.015625)"/>
       <path id="DejaVuSans-6d" d="M 3328 2828 
Q 3544 3216 3844 3400 
Q 4144 3584 4550 3584 
Q 5097 3584 5394 3201 
Q 5691 2819 5691 2113 
L 5691 0 
L 5113 0 
L 5113 2094 
Q 5113 2597 4934 2840 
Q 4756 3084 4391 3084 
Q 3944 3084 3684 2787 
Q 3425 2491 3425 1978 
L 3425 0 
L 2847 0 
L 2847 2094 
Q 2847 2600 2669 2842 
Q 2491 3084 2119 3084 
Q 1678 3084 1418 2786 
Q 1159 2488 1159 1978 
L 1159 0 
L 581 0 
L 581 3500 
L 1159 3500 
L 1159 2956 
Q 1356 3278 1631 3431 
Q 1906 3584 2284 3584 
Q 2666 3584 2933 3390 
Q 3200 3197 3328 2828 
z
" transform="scale(0.015625)"/>
       <path id="DejaVuSans-28" d="M 1984 4856 
Q 1566 4138 1362 3434 
Q 1159 2731 1159 2009 
Q 1159 1288 1364 580 
Q 1569 -128 1984 -844 
L 1484 -844 
Q 1016 -109 783 600 
Q 550 1309 550 2009 
Q 550 2706 781 3412 
Q 1013 4119 1484 4856 
L 1984 4856 
z
" transform="scale(0.015625)"/>
       <path id="DejaVuSans-57" d="M 213 4666 
L 850 4666 
L 1831 722 
L 2809 4666 
L 3519 4666 
L 4500 722 
L 5478 4666 
L 6119 4666 
L 4947 0 
L 4153 0 
L 3169 4050 
L 2175 0 
L 1381 0 
L 213 4666 
z
" transform="scale(0.015625)"/>
       <path id="DejaVuSans-29" d="M 513 4856 
L 1013 4856 
Q 1481 4119 1714 3412 
Q 1947 2706 1947 2009 
Q 1947 1309 1714 600 
Q 1481 -109 1013 -844 
L 513 -844 
Q 928 -128 1133 580 
Q 1338 1288 1338 2009 
Q 1338 2731 1133 3434 
Q 928 4138 513 4856 
z
" transform="scale(0.015625)"/>
      </defs>
      <use xlink:href="#DejaVuSans-45"/>
      <use xlink:href="#DejaVuSans-6c" transform="translate(63.183594 0)"/>
      <use xlink:href="#DejaVuSans-65" transform="translate(90.966797 0)"/>
      <use xlink:href="#DejaVuSans-63" transform="translate(152.490234 0)"/>
      <use xlink:href="#DejaVuSans-74" transform="translate(207.470703 0)"/>
      <use xlink:href="#DejaVuSans-72" transform="translate(246.679688 0)"/>
      <use xlink:href="#DejaVuSans-69" transform="translate(287.792969 0)"/>
      <use xlink:href="#DejaVuSans-63" transform="translate(315.576172 0)"/>
      <use xlink:href="#DejaVuSans-69" transform="translate(370.556641 0)"/>
      <use xlink:href="#DejaVuSans-74" transform="translate(398.339844 0)"/>
      <use xlink:href="#DejaVuSans-79" transform="translate(437.548828 0)"/>
      <use xlink:href="#DejaVuSans-20" transform="translate(496.728516 0)"/>
      <use xlink:href="#DejaVuSans-64" transform="translate(528.515625 0)"/>
      <use xlink:href="#DejaVuSans-65" transform="translate(591.992188 0)"/>
      <use xlink:href="#DejaVuSans-6d" transform="translate(653.515625 0)"/>
      <use xlink:href="#DejaVuSans-61" transform="translate(750.927734 0)"/>
      <use xlink:href="#DejaVuSans-6e" transform="translate(812.207031 0)"/>
      <use xlink:href="#DejaVuSans-64" transform="translate(875.585938 0)"/>
      <use xlink:href="#DejaVuSans-20" transform="translate(939.0625 0)"/>
      <use xlink:href="#DejaVuSans-28" transform="translate(970.849609 0)"/>
      <use xlink:href="#DejaVuSans-4d" transform="translate(1009.863281 0)"/>
      <use xlink:href="#DejaVuSans-57" transform="translate(1096.142578 0)"/>
      <use xlink:href="#DejaVuSans-29" transform="translate(1195.019531 0)"/>
     </g>
    </g>
   </g>
   <g id="line2d_25">
    <path d="M 28.997969 130.322167 
L 29.715579 132.39591 
L 30.433189 130.458246 
L 31.150798 126.562873 
L 31.868408 122.030717 
L 32.586018 128.414044 
L 33.303628 130.40272 
L 34.021238 130.411613 
L 34.738848 129.801397 
L 35.456458 133.555732 
L 36.174068 140.138815 
L 36.891678 139.655842 
L 37.609287 134.490895 
L 38.326897 135.04091 
L 39.044507 137.639802 
L 39.762117 139.417091 
L 40.479727 132.790909 
L 41.197337 124.997654 
L 41.914947 123.262779 
L 42.632557 125.310287 
L 43.350167 126.399373 
L 44.067776 125.557247 
L 44.785386 121.724241 
L 45.502996 125.293869 
L 46.220606 129.786347 
L 47.655826 135.38638 
L 48.373436 136.910553 
L 49.808656 142.123539 
L 51.243875 131.478126 
L 52.679095 123.257436 
L 54.114315 118.361996 
L 54.831925 119.799417 
L 56.267145 138.141261 
L 56.984754 144.682528 
L 59.137584 152.331495 
L 59.855194 154.500904 
L 60.572804 154.754834 
L 61.290414 150.751563 
L 62.008024 149.641919 
L 62.725634 152.633359 
L 63.443243 154.303332 
L 64.160853 153.579116 
L 65.596073 136.238736 
L 68.466513 124.270383 
L 69.184123 122.493659 
L 69.901732 129.037767 
L 71.336952 145.013947 
L 72.054562 150.571006 
L 72.772172 153.527362 
L 73.489782 151.81039 
L 74.207392 148.52016 
L 74.925002 144.026715 
L 75.642612 141.292203 
L 77.077831 126.230709 
L 77.795441 122.928194 
L 78.513051 124.463827 
L 79.948271 132.613887 
L 80.665881 135.898336 
L 82.101101 149.182108 
L 82.818711 152.5381 
L 83.53632 154.259455 
L 84.25393 151.756191 
L 85.68915 145.84346 
L 86.40676 144.898955 
L 87.12437 145.562349 
L 87.84198 145.689535 
L 88.55959 145.428658 
L 89.2772 146.597185 
L 89.994809 149.680015 
L 90.712419 151.620333 
L 91.430029 152.80582 
L 92.147639 152.59707 
L 92.865249 151.686825 
L 93.582859 151.729906 
L 94.300469 152.986017 
L 95.735689 153.697866 
L 96.453298 153.430795 
L 97.170908 152.99746 
L 97.888518 152.995497 
L 98.606128 152.585072 
L 99.323738 150.939446 
L 100.041348 150.634409 
L 100.758958 151.116183 
L 101.476568 151.382599 
L 102.194178 152.024747 
L 102.911787 153.530292 
L 103.629397 155.433825 
L 104.347007 159.187869 
L 105.064617 160.504239 
L 106.499837 155.59158 
L 107.935057 153.646808 
L 110.087886 155.860614 
L 110.805496 158.270796 
L 111.523106 158.68253 
L 112.958326 159.910424 
L 113.675936 157.369792 
L 114.393546 156.063896 
L 115.111156 156.153905 
L 115.828765 155.921881 
L 116.546375 158.653211 
L 117.263985 157.856923 
L 118.699205 148.340963 
L 120.134425 136.932373 
L 121.569645 127.9625 
L 122.287254 125.440066 
L 123.004864 124.667945 
L 124.440084 127.397738 
L 125.875304 126.527733 
L 126.592914 124.372362 
L 127.310524 124.714311 
L 128.745743 135.654734 
L 129.463353 140.281666 
L 131.616183 157.851127 
L 132.333793 158.360508 
L 133.051403 152.53901 
L 134.486623 142.171077 
L 135.204232 134.74372 
L 135.921842 130.800758 
L 136.639452 129.48422 
L 137.357062 129.890276 
L 138.074672 130.122151 
L 139.509892 127.341175 
L 140.227502 128.709875 
L 140.945112 126.351572 
L 141.662721 122.087569 
L 143.097941 110.712583 
L 143.815551 106.195395 
L 144.533161 103.18507 
L 145.968381 94.857843 
L 146.685991 92.53425 
L 147.403601 92.01835 
L 148.121211 93.47621 
L 148.83882 95.318613 
L 149.55643 95.553423 
L 150.27404 95.365575 
L 150.99165 94.734653 
L 151.70926 93.101876 
L 152.42687 91.965943 
L 153.14448 91.243819 
L 153.86209 93.323074 
L 155.297309 101.128956 
L 156.014919 103.166013 
L 156.732529 103.9274 
L 157.450139 104.52445 
L 158.167749 104.452362 
L 158.885359 102.703607 
L 161.038189 88.767355 
L 162.473408 85.139318 
L 163.191018 83.60133 
L 163.908628 80.680406 
L 164.626238 80.063681 
L 165.343848 79.923927 
L 166.061458 79.451824 
L 166.779068 80.63104 
L 167.496678 81.407682 
L 168.214287 81.039872 
L 168.931897 79.820329 
L 170.367117 74.791277 
L 171.802337 75.622847 
L 172.519947 76.099818 
L 173.237557 76.023335 
L 173.955167 76.240962 
L 174.672776 77.235926 
L 175.390386 77.914531 
L 176.107996 77.266519 
L 176.825606 75.401048 
L 177.543216 75.826567 
L 178.260826 77.290159 
L 179.696046 78.4232 
L 180.413656 78.349498 
L 181.131265 77.41813 
L 181.848875 77.270831 
L 182.566485 74.672856 
L 183.284095 73.145247 
L 184.001705 73.6385 
L 184.719315 75.487849 
L 185.436925 79.482358 
L 186.154535 82.822007 
L 186.872145 85.278437 
L 187.589754 87.156594 
L 188.307364 88.495826 
L 189.024974 87.945659 
L 189.742584 87.042064 
L 190.460194 85.548953 
L 191.177804 86.556539 
L 192.613024 90.844049 
L 193.330634 95.274898 
L 194.765853 107.894315 
L 195.483463 112.409481 
L 196.201073 113.908212 
L 196.918683 114.433787 
L 197.636293 114.408492 
L 198.353903 111.350602 
L 199.071513 106.844571 
L 199.789123 105.12521 
L 200.506732 104.263071 
L 201.224342 104.74258 
L 201.941952 104.703731 
L 202.659562 105.044079 
L 203.377172 106.667399 
L 204.094782 110.176647 
L 204.812392 109.811615 
L 206.247612 108.562583 
L 206.965221 109.050355 
L 207.682831 110.494584 
L 208.400441 112.960307 
L 209.835661 116.122342 
L 211.270881 117.676144 
L 211.988491 117.327634 
L 212.706101 114.946034 
L 214.14132 105.631709 
L 214.85893 102.394741 
L 215.57654 100.155231 
L 216.29415 98.514479 
L 217.01176 98.221816 
L 217.72937 99.502041 
L 218.44698 101.308918 
L 221.317419 118.378111 
L 223.470249 129.634116 
L 224.187859 130.190179 
L 224.905469 130.046466 
L 225.623079 130.121684 
L 227.058298 129.176116 
L 228.493518 133.269343 
L 229.211128 134.791507 
L 229.928738 135.696497 
L 230.646348 135.838922 
L 231.363958 137.784651 
L 232.081568 139.12285 
L 232.799178 136.931586 
L 233.516787 135.169081 
L 234.952007 138.466361 
L 235.669617 141.063386 
L 236.387227 142.376364 
L 237.104837 141.907549 
L 237.822447 141.581159 
L 238.540057 140.188068 
L 239.257667 137.466421 
L 239.975276 137.232013 
L 240.692886 136.778035 
L 241.410496 136.465739 
L 242.128106 137.489416 
L 242.845716 139.625787 
L 243.563326 142.473539 
L 244.280936 143.153765 
L 245.716156 143.896819 
L 246.433765 143.405854 
L 247.151375 143.169956 
L 248.586595 145.267456 
L 249.304205 147.157804 
L 250.021815 145.923526 
L 250.739425 143.869907 
L 251.457035 143.030907 
L 252.174645 143.735106 
L 252.892254 140.60518 
L 254.327474 132.406151 
L 255.045084 129.245333 
L 255.762694 127.557504 
L 256.480304 125.235686 
L 257.197914 120.827251 
L 257.915524 117.702942 
L 258.633134 115.691449 
L 259.350743 115.689342 
L 260.068353 117.283793 
L 260.785963 119.590165 
L 261.503573 122.512974 
L 262.221183 126.161043 
L 263.656403 135.477101 
L 264.374013 136.669955 
L 265.091623 138.595793 
L 265.809232 137.263222 
L 266.526842 134.858532 
L 267.962062 147.293442 
L 268.679672 144.878844 
L 269.397282 151.903813 
L 270.114892 155.298736 
L 271.550112 159.072112 
L 272.267721 149.689852 
L 272.985331 143.029195 
L 273.702941 141.894261 
L 274.420551 141.121555 
L 275.138161 144.355033 
L 275.855771 145.871775 
L 276.573381 143.325691 
L 277.290991 143.150171 
L 278.008601 139.2293 
L 278.726211 143.082341 
L 279.44382 141.315256 
L 280.16143 133.449738 
L 280.87904 128.633786 
L 281.59665 130.39108 
L 282.31426 122.855622 
L 283.03187 119.070411 
L 283.74948 113.074772 
L 285.1847 110.998605 
L 285.902309 118.358543 
L 286.619919 124.529003 
L 287.337529 134.672082 
L 288.055139 148.505269 
L 288.772749 155.641087 
L 289.490359 156.140864 
L 290.207969 164.082464 
L 290.207969 164.082464 
" clip-path="url(#pd9009c4242)" style="fill: none; stroke: #2166ac; stroke-opacity: 0.9; stroke-width: 1.5; stroke-linecap: round"/>
   </g>
   <g id="line2d_26">
    <path d="M 28.997969 99.775435 
L 30.433189 102.790098 
L 31.868408 103.89035 
L 32.586018 103.183068 
L 33.303628 101.314198 
L 34.021238 102.847077 
L 34.738848 100.930488 
L 35.456458 96.53776 
L 37.609287 66.114196 
L 38.326897 60.133679 
L 39.044507 55.535042 
L 39.762117 51.663951 
L 40.479727 46.913006 
L 41.197337 49.674803 
L 41.914947 54.66238 
L 42.632557 62.354883 
L 43.350167 67.834027 
L 44.067776 70.320625 
L 44.785386 74.128963 
L 45.502996 81.650203 
L 46.938216 92.328062 
L 48.373436 100.175487 
L 49.091046 100.567852 
L 49.808656 101.429007 
L 50.526265 101.199574 
L 51.243875 101.452534 
L 51.961485 99.384975 
L 53.396705 92.702155 
L 54.114315 92.566404 
L 54.831925 91.052997 
L 55.549535 91.097005 
L 56.267145 89.002551 
L 56.984754 84.618968 
L 57.702364 82.024024 
L 58.419974 81.368388 
L 59.137584 82.448434 
L 59.855194 84.80544 
L 60.572804 81.765946 
L 61.290414 80.203311 
L 62.008024 84.319121 
L 62.725634 89.746947 
L 63.443243 93.929887 
L 64.160853 94.256586 
L 64.878463 93.602442 
L 65.596073 96.700115 
L 66.313683 102.558319 
L 67.031293 105.542616 
L 67.748903 104.668436 
L 68.466513 101.228401 
L 69.184123 94.203628 
L 69.901732 91.328237 
L 70.619342 91.969945 
L 71.336952 92.288361 
L 72.054562 91.786729 
L 72.772172 94.579675 
L 73.489782 97.893351 
L 74.207392 106.620803 
L 74.925002 110.980797 
L 75.642612 109.941188 
L 77.077831 108.964521 
L 77.795441 108.086864 
L 78.513051 108.171023 
L 79.230661 107.167482 
L 79.948271 106.431269 
L 80.665881 109.021805 
L 81.383491 110.397343 
L 82.101101 110.114456 
L 82.818711 107.712039 
L 83.53632 106.667479 
L 84.25393 106.098877 
L 84.97154 107.107368 
L 86.40676 107.853482 
L 87.12437 109.993522 
L 87.84198 111.39169 
L 90.712419 107.867627 
L 91.430029 105.783458 
L 92.147639 105.054768 
L 92.865249 105.834433 
L 94.300469 110.596396 
L 95.735689 113.409794 
L 96.453298 116.124317 
L 97.170908 117.987115 
L 97.888518 118.984398 
L 98.606128 118.902127 
L 99.323738 119.292746 
L 100.041348 120.562927 
L 100.758958 120.607072 
L 101.476568 118.606487 
L 102.194178 116.062781 
L 103.629397 111.832858 
L 104.347007 108.755395 
L 105.064617 108.03168 
L 105.782227 108.461762 
L 107.935057 114.306333 
L 108.652667 116.954383 
L 109.370276 119.145595 
L 110.805496 115.302947 
L 111.523106 114.682906 
L 112.240716 114.983897 
L 112.958326 114.28996 
L 113.675936 111.883396 
L 114.393546 110.954019 
L 115.111156 112.251054 
L 115.828765 112.157837 
L 116.546375 112.690501 
L 117.263985 109.911976 
L 117.981595 109.720436 
L 118.699205 108.632046 
L 119.416815 109.406553 
L 120.134425 108.866307 
L 120.852035 109.473673 
L 121.569645 109.241387 
L 122.287254 110.480467 
L 123.004864 109.023577 
L 123.722474 108.562294 
L 124.440084 106.093347 
L 125.157694 104.536436 
L 125.875304 101.73189 
L 126.592914 96.180706 
L 127.310524 91.788865 
L 128.028134 88.121635 
L 128.745743 87.616264 
L 129.463353 86.035006 
L 130.180963 83.629887 
L 130.898573 82.227614 
L 131.616183 82.645467 
L 132.333793 84.473603 
L 133.051403 86.735269 
L 133.769013 87.570316 
L 134.486623 88.917972 
L 135.204232 91.546822 
L 135.921842 91.387497 
L 136.639452 90.478919 
L 137.357062 88.293964 
L 138.074672 86.670197 
L 138.792282 83.48558 
L 139.509892 79.149407 
L 140.227502 72.968934 
L 141.662721 63.116962 
L 142.380331 62.552533 
L 143.097941 62.852688 
L 143.815551 62.885118 
L 144.533161 61.522347 
L 145.250771 60.728835 
L 145.968381 61.432646 
L 146.685991 63.081771 
L 147.403601 59.501306 
L 148.121211 53.686586 
L 148.83882 50.313124 
L 149.55643 50.133032 
L 150.27404 50.243433 
L 150.99165 49.683145 
L 151.70926 48.212732 
L 152.42687 47.462 
L 153.14448 46.965193 
L 154.5797 41.760442 
L 156.014919 36.189986 
L 156.732529 33.749419 
L 157.450139 30.087449 
L 158.167749 27.35397 
L 159.602969 22.955192 
L 160.320579 26.145198 
L 161.038189 30.00118 
L 161.755798 31.423367 
L 163.191018 43.182092 
L 163.908628 46.729142 
L 164.626238 49.510975 
L 165.343848 46.635893 
L 166.061458 43.125146 
L 166.779068 42.238205 
L 168.214287 32.558025 
L 168.931897 30.818312 
L 169.649507 32.28397 
L 170.367117 36.680234 
L 171.084727 39.02002 
L 171.802337 41.762702 
L 172.519947 46.391735 
L 173.237557 52.129087 
L 173.955167 55.792878 
L 174.672776 54.548598 
L 175.390386 51.195877 
L 176.107996 50.300395 
L 176.825606 48.712302 
L 177.543216 43.873279 
L 178.978436 31.821281 
L 179.696046 28.909034 
L 181.131265 25.829177 
L 181.848875 25.642885 
L 183.284095 30.280082 
L 184.001705 31.976629 
L 184.719315 32.875403 
L 185.436925 32.727001 
L 186.154535 34.826229 
L 186.872145 34.968361 
L 187.589754 33.56934 
L 188.307364 31.343307 
L 189.024974 30.720436 
L 189.742584 31.234618 
L 190.460194 32.037244 
L 191.177804 30.043917 
L 191.895414 29.527645 
L 192.613024 30.411091 
L 194.048243 34.837377 
L 194.765853 35.69156 
L 196.918683 33.317822 
L 197.636293 33.285076 
L 198.353903 34.002702 
L 199.789123 35.066599 
L 200.506732 39.014235 
L 201.224342 43.774949 
L 202.659562 55.342734 
L 204.812392 69.812141 
L 205.530002 71.946325 
L 206.247612 75.121781 
L 206.965221 77.334853 
L 207.682831 78.572445 
L 208.400441 79.569886 
L 209.118051 79.824914 
L 209.835661 81.381291 
L 210.553271 81.803503 
L 211.270881 79.314151 
L 211.988491 75.762183 
L 212.706101 74.337571 
L 214.14132 68.539945 
L 215.57654 59.958268 
L 216.29415 57.901045 
L 217.01176 56.354587 
L 217.72937 56.443138 
L 218.44698 59.969602 
L 219.8822 70.141659 
L 221.317419 81.45709 
L 222.035029 85.688423 
L 223.470249 86.457736 
L 224.187859 85.687226 
L 225.623079 85.381777 
L 226.340689 85.30109 
L 227.775908 89.349348 
L 228.493518 90.256423 
L 229.211128 92.024055 
L 229.928738 93.332807 
L 230.646348 94.233596 
L 231.363958 94.887972 
L 232.081568 94.370632 
L 232.799178 96.50474 
L 233.516787 97.100027 
L 236.387227 105.786069 
L 237.104837 108.691474 
L 237.822447 108.545009 
L 238.540057 108.214992 
L 239.975276 102.303606 
L 240.692886 100.425968 
L 241.410496 99.577982 
L 242.128106 99.0971 
L 243.563326 97.301809 
L 244.280936 97.271636 
L 244.998546 100.847132 
L 245.716156 103.102545 
L 246.433765 101.708847 
L 247.151375 100.717711 
L 247.868985 101.251448 
L 249.304205 104.352846 
L 250.021815 102.712011 
L 250.739425 102.026328 
L 251.457035 102.823874 
L 252.174645 102.750679 
L 252.892254 104.710365 
L 253.609864 104.232527 
L 254.327474 102.552501 
L 255.045084 102.098832 
L 255.762694 104.031587 
L 256.480304 105.472695 
L 257.197914 107.480026 
L 257.915524 106.339983 
L 258.633134 107.542863 
L 259.350743 110.703356 
L 260.068353 111.139072 
L 260.785963 108.084918 
L 262.221183 105.05148 
L 262.938793 105.485815 
L 264.374013 99.174495 
L 265.091623 98.465335 
L 265.809232 96.807405 
L 266.526842 93.813327 
L 267.244452 87.432824 
L 267.962062 79.088166 
L 268.679672 76.864667 
L 269.397282 73.592627 
L 270.114892 71.32578 
L 270.832502 67.089223 
L 271.550112 65.469584 
L 272.267721 66.84084 
L 272.985331 70.713225 
L 273.702941 70.54888 
L 274.420551 68.15707 
L 275.138161 63.869419 
L 275.855771 66.296446 
L 276.573381 67.845987 
L 277.290991 67.642023 
L 278.008601 68.297937 
L 278.726211 69.867287 
L 279.44382 71.876848 
L 280.16143 71.692694 
L 280.87904 68.777766 
L 281.59665 64.396938 
L 283.03187 59.342588 
L 283.74948 58.823139 
L 284.46709 60.276568 
L 285.1847 63.502577 
L 285.902309 65.802677 
L 288.055139 74.616425 
L 288.772749 75.349376 
L 289.490359 74.712782 
L 290.207969 75.377696 
L 290.925579 77.626915 
L 290.925579 77.626915 
" clip-path="url(#pd9009c4242)" style="fill: none; stroke: #d6604d; stroke-opacity: 0.9; stroke-width: 1.5; stroke-linecap: round"/>
   </g>
   <g id="patch_3">
    <path d="M 28.997969 171.138828 
L 28.997969 15.898828 
" style="fill: none; stroke: #dddddd; stroke-width: 0.8; stroke-linejoin: miter; stroke-linecap: square"/>
   </g>
   <g id="patch_4">
    <path d="M 28.997969 171.138828 
L 290.207969 171.138828 
" style="fill: none; stroke: #dddddd; stroke-width: 0.8; stroke-linejoin: miter; stroke-linecap: square"/>
   </g>
   <g id="text_20">
    <!-- ERCO-NRTH +31.0%  ·  ERCOT North -->
    <g style="fill: #222222" transform="translate(28.997969 12.898828) scale(0.075 -0.075)">
     <defs>
      <path id="DejaVuSans-Bold-45" d="M 588 4666 
L 3834 4666 
L 3834 3756 
L 1791 3756 
L 1791 2888 
L 3713 2888 
L 3713 1978 
L 1791 1978 
L 1791 909 
L 3903 909 
L 3903 0 
L 588 0 
L 588 4666 
z
" transform="scale(0.015625)"/>
      <path id="DejaVuSans-Bold-52" d="M 2297 2597 
Q 2675 2597 2839 2737 
Q 3003 2878 3003 3200 
Q 3003 3519 2839 3656 
Q 2675 3794 2297 3794 
L 1791 3794 
L 1791 2597 
L 2297 2597 
z
M 1791 1766 
L 1791 0 
L 588 0 
L 588 4666 
L 2425 4666 
Q 3347 4666 3776 4356 
Q 4206 4047 4206 3378 
Q 4206 2916 3982 2619 
Q 3759 2322 3309 2181 
Q 3556 2125 3751 1926 
Q 3947 1728 4147 1325 
L 4800 0 
L 3519 0 
L 2950 1159 
Q 2778 1509 2601 1637 
Q 2425 1766 2131 1766 
L 1791 1766 
z
" transform="scale(0.015625)"/>
      <path id="DejaVuSans-Bold-43" d="M 4288 256 
Q 3956 84 3597 -3 
Q 3238 -91 2847 -91 
Q 1681 -91 1000 561 
Q 319 1213 319 2328 
Q 319 3447 1000 4098 
Q 1681 4750 2847 4750 
Q 3238 4750 3597 4662 
Q 3956 4575 4288 4403 
L 4288 3438 
Q 3953 3666 3628 3772 
Q 3303 3878 2944 3878 
Q 2300 3878 1931 3465 
Q 1563 3053 1563 2328 
Q 1563 1606 1931 1193 
Q 2300 781 2944 781 
Q 3303 781 3628 887 
Q 3953 994 4288 1222 
L 4288 256 
z
" transform="scale(0.015625)"/>
      <path id="DejaVuSans-Bold-4f" d="M 2719 3878 
Q 2169 3878 1866 3472 
Q 1563 3066 1563 2328 
Q 1563 1594 1866 1187 
Q 2169 781 2719 781 
Q 3272 781 3575 1187 
Q 3878 1594 3878 2328 
Q 3878 3066 3575 3472 
Q 3272 3878 2719 3878 
z
M 2719 4750 
Q 3844 4750 4481 4106 
Q 5119 3463 5119 2328 
Q 5119 1197 4481 553 
Q 3844 -91 2719 -91 
Q 1597 -91 958 553 
Q 319 1197 319 2328 
Q 319 3463 958 4106 
Q 1597 4750 2719 4750 
z
" transform="scale(0.015625)"/>
      <path id="DejaVuSans-Bold-2d" d="M 347 2297 
L 2309 2297 
L 2309 1388 
L 347 1388 
L 347 2297 
z
" transform="scale(0.015625)"/>
      <path id="DejaVuSans-Bold-4e" d="M 588 4666 
L 1931 4666 
L 3628 1466 
L 3628 4666 
L 4769 4666 
L 4769 0 
L 3425 0 
L 1728 3200 
L 1728 0 
L 588 0 
L 588 4666 
z
" transform="scale(0.015625)"/>
      <path id="DejaVuSans-Bold-54" d="M 31 4666 
L 4331 4666 
L 4331 3756 
L 2784 3756 
L 2784 0 
L 1581 0 
L 1581 3756 
L 31 3756 
L 31 4666 
z
" transform="scale(0.015625)"/>
      <path id="DejaVuSans-Bold-48" d="M 588 4666 
L 1791 4666 
L 1791 2888 
L 3566 2888 
L 3566 4666 
L 4769 4666 
L 4769 0 
L 3566 0 
L 3566 1978 
L 1791 1978 
L 1791 0 
L 588 0 
L 588 4666 
z
" transform="scale(0.015625)"/>
      <path id="DejaVuSans-Bold-20" transform="scale(0.015625)"/>
      <path id="DejaVuSans-Bold-2b" d="M 3053 4013 
L 3053 2375 
L 4684 2375 
L 4684 1638 
L 3053 1638 
L 3053 0 
L 2309 0 
L 2309 1638 
L 678 1638 
L 678 2375 
L 2309 2375 
L 2309 4013 
L 3053 4013 
z
" transform="scale(0.015625)"/>
      <path id="DejaVuSans-Bold-33" d="M 2981 2516 
Q 3453 2394 3698 2092 
Q 3944 1791 3944 1325 
Q 3944 631 3412 270 
Q 2881 -91 1863 -91 
Q 1503 -91 1142 -33 
Q 781 25 428 141 
L 428 1069 
Q 766 900 1098 814 
Q 1431 728 1753 728 
Q 2231 728 2486 893 
Q 2741 1059 2741 1369 
Q 2741 1688 2480 1852 
Q 2219 2016 1709 2016 
L 1228 2016 
L 1228 2791 
L 1734 2791 
Q 2188 2791 2409 2933 
Q 2631 3075 2631 3366 
Q 2631 3634 2415 3781 
Q 2200 3928 1806 3928 
Q 1516 3928 1219 3862 
Q 922 3797 628 3669 
L 628 4550 
Q 984 4650 1334 4700 
Q 1684 4750 2022 4750 
Q 2931 4750 3382 4451 
Q 3834 4153 3834 3553 
Q 3834 3144 3618 2883 
Q 3403 2622 2981 2516 
z
" transform="scale(0.015625)"/>
      <path id="DejaVuSans-Bold-31" d="M 750 831 
L 1813 831 
L 1813 3847 
L 722 3622 
L 722 4441 
L 1806 4666 
L 2950 4666 
L 2950 831 
L 4013 831 
L 4013 0 
L 750 0 
L 750 831 
z
" transform="scale(0.015625)"/>
      <path id="DejaVuSans-Bold-2e" d="M 653 1209 
L 1778 1209 
L 1778 0 
L 653 0 
L 653 1209 
z
" transform="scale(0.015625)"/>
      <path id="DejaVuSans-Bold-30" d="M 2944 2338 
Q 2944 3213 2780 3570 
Q 2616 3928 2228 3928 
Q 1841 3928 1675 3570 
Q 1509 3213 1509 2338 
Q 1509 1453 1675 1090 
Q 1841 728 2228 728 
Q 2613 728 2778 1090 
Q 2944 1453 2944 2338 
z
M 4147 2328 
Q 4147 1169 3647 539 
Q 3147 -91 2228 -91 
Q 1306 -91 806 539 
Q 306 1169 306 2328 
Q 306 3491 806 4120 
Q 1306 4750 2228 4750 
Q 3147 4750 3647 4120 
Q 4147 3491 4147 2328 
z
" transform="scale(0.015625)"/>
      <path id="DejaVuSans-Bold-25" d="M 4959 1925 
Q 4738 1925 4616 1733 
Q 4494 1541 4494 1184 
Q 4494 825 4614 633 
Q 4734 441 4959 441 
Q 5184 441 5303 633 
Q 5422 825 5422 1184 
Q 5422 1541 5301 1733 
Q 5181 1925 4959 1925 
z
M 4959 2450 
Q 5541 2450 5875 2112 
Q 6209 1775 6209 1184 
Q 6209 594 5875 251 
Q 5541 -91 4959 -91 
Q 4378 -91 4042 251 
Q 3706 594 3706 1184 
Q 3706 1772 4042 2111 
Q 4378 2450 4959 2450 
z
M 2094 -91 
L 1403 -91 
L 4319 4750 
L 5013 4750 
L 2094 -91 
z
M 1453 4750 
Q 2034 4750 2367 4411 
Q 2700 4072 2700 3481 
Q 2700 2891 2367 2550 
Q 2034 2209 1453 2209 
Q 872 2209 539 2550 
Q 206 2891 206 3481 
Q 206 4072 539 4411 
Q 872 4750 1453 4750 
z
M 1453 4225 
Q 1228 4225 1106 4031 
Q 984 3838 984 3481 
Q 984 3122 1106 2926 
Q 1228 2731 1453 2731 
Q 1678 2731 1798 2926 
Q 1919 3122 1919 3481 
Q 1919 3838 1797 4031 
Q 1675 4225 1453 4225 
z
" transform="scale(0.015625)"/>
      <path id="DejaVuSans-Bold-b7" d="M 653 2828 
L 1778 2828 
L 1778 1619 
L 653 1619 
L 653 2828 
z
" transform="scale(0.015625)"/>
      <path id="DejaVuSans-Bold-6f" d="M 2203 2784 
Q 1831 2784 1636 2517 
Q 1441 2250 1441 1747 
Q 1441 1244 1636 976 
Q 1831 709 2203 709 
Q 2569 709 2762 976 
Q 2956 1244 2956 1747 
Q 2956 2250 2762 2517 
Q 2569 2784 2203 2784 
z
M 2203 3584 
Q 3106 3584 3614 3096 
Q 4122 2609 4122 1747 
Q 4122 884 3614 396 
Q 3106 -91 2203 -91 
Q 1297 -91 786 396 
Q 275 884 275 1747 
Q 275 2609 786 3096 
Q 1297 3584 2203 3584 
z
" transform="scale(0.015625)"/>
      <path id="DejaVuSans-Bold-72" d="M 3138 2547 
Q 2991 2616 2845 2648 
Q 2700 2681 2553 2681 
Q 2122 2681 1889 2404 
Q 1656 2128 1656 1613 
L 1656 0 
L 538 0 
L 538 3500 
L 1656 3500 
L 1656 2925 
Q 1872 3269 2151 3426 
Q 2431 3584 2822 3584 
Q 2878 3584 2943 3579 
Q 3009 3575 3134 3559 
L 3138 2547 
z
" transform="scale(0.015625)"/>
      <path id="DejaVuSans-Bold-74" d="M 1759 4494 
L 1759 3500 
L 2913 3500 
L 2913 2700 
L 1759 2700 
L 1759 1216 
Q 1759 972 1856 886 
Q 1953 800 2241 800 
L 2816 800 
L 2816 0 
L 1856 0 
Q 1194 0 917 276 
Q 641 553 641 1216 
L 641 2700 
L 84 2700 
L 84 3500 
L 641 3500 
L 641 4494 
L 1759 4494 
z
" transform="scale(0.015625)"/>
      <path id="DejaVuSans-Bold-68" d="M 4056 2131 
L 4056 0 
L 2931 0 
L 2931 347 
L 2931 1625 
Q 2931 2084 2911 2256 
Q 2891 2428 2841 2509 
Q 2775 2619 2662 2680 
Q 2550 2741 2406 2741 
Q 2056 2741 1856 2470 
Q 1656 2200 1656 1722 
L 1656 0 
L 538 0 
L 538 4863 
L 1656 4863 
L 1656 2988 
Q 1909 3294 2193 3439 
Q 2478 3584 2822 3584 
Q 3428 3584 3742 3212 
Q 4056 2841 4056 2131 
z
" transform="scale(0.015625)"/>
     </defs>
     <use xlink:href="#DejaVuSans-Bold-45"/>
     <use xlink:href="#DejaVuSans-Bold-52" transform="translate(68.310547 0)"/>
     <use xlink:href="#DejaVuSans-Bold-43" transform="translate(145.3125 0)"/>
     <use xlink:href="#DejaVuSans-Bold-4f" transform="translate(218.701172 0)"/>
     <use xlink:href="#DejaVuSans-Bold-2d" transform="translate(305.585938 0)"/>
     <use xlink:href="#DejaVuSans-Bold-4e" transform="translate(347.089844 0)"/>
     <use xlink:href="#DejaVuSans-Bold-52" transform="translate(430.78125 0)"/>
     <use xlink:href="#DejaVuSans-Bold-54" transform="translate(503.283203 0)"/>
     <use xlink:href="#DejaVuSans-Bold-48" transform="translate(571.496094 0)"/>
     <use xlink:href="#DejaVuSans-Bold-20" transform="translate(655.1875 0)"/>
     <use xlink:href="#DejaVuSans-Bold-2b" transform="translate(690.001953 0)"/>
     <use xlink:href="#DejaVuSans-Bold-33" transform="translate(773.791016 0)"/>
     <use xlink:href="#DejaVuSans-Bold-31" transform="translate(843.371094 0)"/>
     <use xlink:href="#DejaVuSans-Bold-2e" transform="translate(912.951172 0)"/>
     <use xlink:href="#DejaVuSans-Bold-30" transform="translate(950.939453 0)"/>
     <use xlink:href="#DejaVuSans-Bold-25" transform="translate(1020.519531 0)"/>
     <use xlink:href="#DejaVuSans-Bold-20" transform="translate(1120.714844 0)"/>
     <use xlink:href="#DejaVuSans-Bold-20" transform="translate(1155.529297 0)"/>
     <use xlink:href="#DejaVuSans-Bold-b7" transform="translate(1190.34375 0)"/>
     <use xlink:href="#DejaVuSans-Bold-20" transform="translate(1228.332031 0)"/>
     <use xlink:href="#DejaVuSans-Bold-20" transform="translate(1263.146484 0)"/>
     <use xlink:href="#DejaVuSans-Bold-45" transform="translate(1297.960938 0)"/>
     <use xlink:href="#DejaVuSans-Bold-52" transform="translate(1366.271484 0)"/>
     <use xlink:href="#DejaVuSans-Bold-43" transform="translate(1443.273438 0)"/>
     <use xlink:href="#DejaVuSans-Bold-4f" transform="translate(1516.662109 0)"/>
     <use xlink:href="#DejaVuSans-Bold-54" transform="translate(1601.671875 0)"/>
     <use xlink:href="#DejaVuSans-Bold-20" transform="translate(1669.884766 0)"/>
     <use xlink:href="#DejaVuSans-Bold-4e" transform="translate(1704.699219 0)"/>
     <use xlink:href="#DejaVuSans-Bold-6f" transform="translate(1788.390625 0)"/>
     <use xlink:href="#DejaVuSans-Bold-72" transform="translate(1857.091797 0)"/>
     <use xlink:href="#DejaVuSans-Bold-74" transform="translate(1906.408203 0)"/>
     <use xlink:href="#DejaVuSans-Bold-68" transform="translate(1954.210938 0)"/>
    </g>
   </g>
   <g id="legend_1">
    <g id="line2d_27">
     <path d="M 247.870469 25.722656 
L 253.120469 25.722656 
L 258.370469 25.722656 
" style="fill: none; stroke: #2166ac; stroke-opacity: 0.9; stroke-width: 1.5; stroke-linecap: round"/>
    </g>
    <g id="text_21">
     <!-- 2022 -->
     <g style="fill: #555555" transform="translate(264.370469 28.347656) scale(0.075 -0.075)">
      <defs>
       <path id="DejaVuSans-30" d="M 2034 4250 
Q 1547 4250 1301 3770 
Q 1056 3291 1056 2328 
Q 1056 1369 1301 889 
Q 1547 409 2034 409 
Q 2525 409 2770 889 
Q 3016 1369 3016 2328 
Q 3016 3291 2770 3770 
Q 2525 4250 2034 4250 
z
M 2034 4750 
Q 2819 4750 3233 4129 
Q 3647 3509 3647 2328 
Q 3647 1150 3233 529 
Q 2819 -91 2034 -91 
Q 1250 -91 836 529 
Q 422 1150 422 2328 
Q 422 3509 836 4129 
Q 1250 4750 2034 4750 
z
" transform="scale(0.015625)"/>
      </defs>
      <use xlink:href="#DejaVuSans-32"/>
      <use xlink:href="#DejaVuSans-30" transform="translate(63.623047 0)"/>
      <use xlink:href="#DejaVuSans-32" transform="translate(127.246094 0)"/>
      <use xlink:href="#DejaVuSans-32" transform="translate(190.869141 0)"/>
     </g>
    </g>
    <g id="line2d_28">
     <path d="M 247.870469 36.73125 
L 253.120469 36.73125 
L 258.370469 36.73125 
" style="fill: none; stroke: #d6604d; stroke-opacity: 0.9; stroke-width: 1.5; stroke-linecap: round"/>
    </g>
    <g id="text_22">
     <!-- 2024 -->
     <g style="fill: #555555" transform="translate(264.370469 39.35625) scale(0.075 -0.075)">
      <defs>
       <path id="DejaVuSans-34" d="M 2419 4116 
L 825 1625 
L 2419 1625 
L 2419 4116 
z
M 2253 4666 
L 3047 4666 
L 3047 1625 
L 3713 1625 
L 3713 1100 
L 3047 1100 
L 3047 0 
L 2419 0 
L 2419 1100 
L 313 1100 
L 313 1709 
L 2253 4666 
z
" transform="scale(0.015625)"/>
      </defs>
      <use xlink:href="#DejaVuSans-32"/>
      <use xlink:href="#DejaVuSans-30" transform="translate(63.623047 0)"/>
      <use xlink:href="#DejaVuSans-32" transform="translate(127.246094 0)"/>
      <use xlink:href="#DejaVuSans-34" transform="translate(190.869141 0)"/>
     </g>
    </g>
   </g>
  </g>
  <g id="axes_2">
   <g id="patch_5">
    <path d="M 309.757969 171.138828 
L 570.967969 171.138828 
L 570.967969 15.898828 
L 309.757969 15.898828 
z
" style="fill: #fafaf8"/>
   </g>
   <g id="matplotlib.axis_3">
    <g id="xtick_13">
     <g id="line2d_29">
      <g>
       <use xlink:href="#m61c3724ea5" x="309.757969" y="171.138828" style="fill: #dddddd; stroke: #dddddd; stroke-width: 0.8"/>
      </g>
     </g>
     <g id="text_23">
      <!-- Jan -->
      <g style="fill: #aaaaaa" transform="translate(304.3625 180.457734) scale(0.07 -0.07)">
       <use xlink:href="#DejaVuSans-4a"/>
       <use xlink:href="#DejaVuSans-61" transform="translate(29.492188 0)"/>
       <use xlink:href="#DejaVuSans-6e" transform="translate(90.771484 0)"/>
      </g>
     </g>
    </g>
    <g id="xtick_14">
     <g id="line2d_30">
      <g>
       <use xlink:href="#m61c3724ea5" x="332.003875" y="171.138828" style="fill: #dddddd; stroke: #dddddd; stroke-width: 0.8"/>
      </g>
     </g>
     <g id="text_24">
      <!-- Feb -->
      <g style="fill: #aaaaaa" transform="translate(325.807782 180.457734) scale(0.07 -0.07)">
       <use xlink:href="#DejaVuSans-46"/>
       <use xlink:href="#DejaVuSans-65" transform="translate(52.019531 0)"/>
       <use xlink:href="#DejaVuSans-62" transform="translate(113.542969 0)"/>
      </g>
     </g>
    </g>
    <g id="xtick_15">
     <g id="line2d_31">
      <g>
       <use xlink:href="#m61c3724ea5" x="352.096952" y="171.138828" style="fill: #dddddd; stroke: #dddddd; stroke-width: 0.8"/>
      </g>
     </g>
     <g id="text_25">
      <!-- Mar -->
      <g style="fill: #aaaaaa" transform="translate(345.493437 180.457734) scale(0.07 -0.07)">
       <use xlink:href="#DejaVuSans-4d"/>
       <use xlink:href="#DejaVuSans-61" transform="translate(86.279297 0)"/>
       <use xlink:href="#DejaVuSans-72" transform="translate(147.558594 0)"/>
      </g>
     </g>
    </g>
    <g id="xtick_16">
     <g id="line2d_32">
      <g>
       <use xlink:href="#m61c3724ea5" x="374.342859" y="171.138828" style="fill: #dddddd; stroke: #dddddd; stroke-width: 0.8"/>
      </g>
     </g>
     <g id="text_26">
      <!-- Apr -->
      <g style="fill: #aaaaaa" transform="translate(368.287859 180.457734) scale(0.07 -0.07)">
       <use xlink:href="#DejaVuSans-41"/>
       <use xlink:href="#DejaVuSans-70" transform="translate(68.408203 0)"/>
       <use xlink:href="#DejaVuSans-72" transform="translate(131.884766 0)"/>
      </g>
     </g>
    </g>
    <g id="xtick_17">
     <g id="line2d_33">
      <g>
       <use xlink:href="#m61c3724ea5" x="395.871156" y="171.138828" style="fill: #dddddd; stroke: #dddddd; stroke-width: 0.8"/>
      </g>
     </g>
     <g id="text_27">
      <!-- May -->
      <g style="fill: #aaaaaa" transform="translate(388.634906 180.457734) scale(0.07 -0.07)">
       <use xlink:href="#DejaVuSans-4d"/>
       <use xlink:href="#DejaVuSans-61" transform="translate(86.279297 0)"/>
       <use xlink:href="#DejaVuSans-79" transform="translate(147.558594 0)"/>
      </g>
     </g>
    </g>
    <g id="xtick_18">
     <g id="line2d_34">
      <g>
       <use xlink:href="#m61c3724ea5" x="418.117062" y="171.138828" style="fill: #dddddd; stroke: #dddddd; stroke-width: 0.8"/>
      </g>
     </g>
     <g id="text_28">
      <!-- Jun -->
      <g style="fill: #aaaaaa" transform="translate(412.648312 180.457734) scale(0.07 -0.07)">
       <use xlink:href="#DejaVuSans-4a"/>
       <use xlink:href="#DejaVuSans-75" transform="translate(29.492188 0)"/>
       <use xlink:href="#DejaVuSans-6e" transform="translate(92.871094 0)"/>
      </g>
     </g>
    </g>
    <g id="xtick_19">
     <g id="line2d_35">
      <g>
       <use xlink:href="#m61c3724ea5" x="439.645359" y="171.138828" style="fill: #dddddd; stroke: #dddddd; stroke-width: 0.8"/>
      </g>
     </g>
     <g id="text_29">
      <!-- Jul -->
      <g style="fill: #aaaaaa" transform="translate(435.42239 180.457734) scale(0.07 -0.07)">
       <use xlink:href="#DejaVuSans-4a"/>
       <use xlink:href="#DejaVuSans-75" transform="translate(29.492188 0)"/>
       <use xlink:href="#DejaVuSans-6c" transform="translate(92.871094 0)"/>
      </g>
     </g>
    </g>
    <g id="xtick_20">
     <g id="line2d_36">
      <g>
       <use xlink:href="#m61c3724ea5" x="461.891265" y="171.138828" style="fill: #dddddd; stroke: #dddddd; stroke-width: 0.8"/>
      </g>
     </g>
     <g id="text_30">
      <!-- Aug -->
      <g style="fill: #aaaaaa" transform="translate(455.056969 180.457734) scale(0.07 -0.07)">
       <use xlink:href="#DejaVuSans-41"/>
       <use xlink:href="#DejaVuSans-75" transform="translate(68.408203 0)"/>
       <use xlink:href="#DejaVuSans-67" transform="translate(131.787109 0)"/>
      </g>
     </g>
    </g>
    <g id="xtick_21">
     <g id="line2d_37">
      <g>
       <use xlink:href="#m61c3724ea5" x="484.137172" y="171.138828" style="fill: #dddddd; stroke: #dddddd; stroke-width: 0.8"/>
      </g>
     </g>
     <g id="text_31">
      <!-- Sep -->
      <g style="fill: #aaaaaa" transform="translate(477.539672 180.457734) scale(0.07 -0.07)">
       <use xlink:href="#DejaVuSans-53"/>
       <use xlink:href="#DejaVuSans-65" transform="translate(63.476562 0)"/>
       <use xlink:href="#DejaVuSans-70" transform="translate(125 0)"/>
      </g>
     </g>
    </g>
    <g id="xtick_22">
     <g id="line2d_38">
      <g>
       <use xlink:href="#m61c3724ea5" x="505.665469" y="171.138828" style="fill: #dddddd; stroke: #dddddd; stroke-width: 0.8"/>
      </g>
     </g>
     <g id="text_32">
      <!-- Oct -->
      <g style="fill: #aaaaaa" transform="translate(499.61375 180.457734) scale(0.07 -0.07)">
       <use xlink:href="#DejaVuSans-4f"/>
       <use xlink:href="#DejaVuSans-63" transform="translate(78.710938 0)"/>
       <use xlink:href="#DejaVuSans-74" transform="translate(133.691406 0)"/>
      </g>
     </g>
    </g>
    <g id="xtick_23">
     <g id="line2d_39">
      <g>
       <use xlink:href="#m61c3724ea5" x="527.911375" y="171.138828" style="fill: #dddddd; stroke: #dddddd; stroke-width: 0.8"/>
      </g>
     </g>
     <g id="text_33">
      <!-- Nov -->
      <g style="fill: #aaaaaa" transform="translate(521.079813 180.457734) scale(0.07 -0.07)">
       <use xlink:href="#DejaVuSans-4e"/>
       <use xlink:href="#DejaVuSans-6f" transform="translate(74.804688 0)"/>
       <use xlink:href="#DejaVuSans-76" transform="translate(135.986328 0)"/>
      </g>
     </g>
    </g>
    <g id="xtick_24">
     <g id="line2d_40">
      <g>
       <use xlink:href="#m61c3724ea5" x="549.439672" y="171.138828" style="fill: #dddddd; stroke: #dddddd; stroke-width: 0.8"/>
      </g>
     </g>
     <g id="text_34">
      <!-- Dec -->
      <g style="fill: #aaaaaa" transform="translate(542.666625 180.457734) scale(0.07 -0.07)">
       <use xlink:href="#DejaVuSans-44"/>
       <use xlink:href="#DejaVuSans-65" transform="translate(77.001953 0)"/>
       <use xlink:href="#DejaVuSans-63" transform="translate(138.525391 0)"/>
      </g>
     </g>
    </g>
   </g>
   <g id="matplotlib.axis_4">
    <g id="ytick_7">
     <g id="line2d_41">
      <path d="M 309.757969 150.535736 
L 570.967969 150.535736 
" clip-path="url(#p25116ccaed)" style="fill: none; stroke: #eeeeee; stroke-width: 0.6; stroke-linecap: square"/>
     </g>
     <g id="line2d_42"/>
     <g id="text_35">
      <!-- 4k -->
      <g style="fill: #999999" transform="translate(298.250781 153.195189) scale(0.07 -0.07)">
       <use xlink:href="#DejaVuSans-34"/>
       <use xlink:href="#DejaVuSans-6b" transform="translate(63.623047 0)"/>
      </g>
     </g>
    </g>
    <g id="ytick_8">
     <g id="line2d_43">
      <path d="M 309.757969 128.795153 
L 570.967969 128.795153 
" clip-path="url(#p25116ccaed)" style="fill: none; stroke: #eeeeee; stroke-width: 0.6; stroke-linecap: square"/>
     </g>
     <g id="line2d_44"/>
     <g id="text_36">
      <!-- 5k -->
      <g style="fill: #999999" transform="translate(298.250781 131.454606) scale(0.07 -0.07)">
       <defs>
        <path id="DejaVuSans-35" d="M 691 4666 
L 3169 4666 
L 3169 4134 
L 1269 4134 
L 1269 2991 
Q 1406 3038 1543 3061 
Q 1681 3084 1819 3084 
Q 2600 3084 3056 2656 
Q 3513 2228 3513 1497 
Q 3513 744 3044 326 
Q 2575 -91 1722 -91 
Q 1428 -91 1123 -41 
Q 819 9 494 109 
L 494 744 
Q 775 591 1075 516 
Q 1375 441 1709 441 
Q 2250 441 2565 725 
Q 2881 1009 2881 1497 
Q 2881 1984 2565 2268 
Q 2250 2553 1709 2553 
Q 1456 2553 1204 2497 
Q 953 2441 691 2322 
L 691 4666 
z
" transform="scale(0.015625)"/>
       </defs>
       <use xlink:href="#DejaVuSans-35"/>
       <use xlink:href="#DejaVuSans-6b" transform="translate(63.623047 0)"/>
      </g>
     </g>
    </g>
    <g id="ytick_9">
     <g id="line2d_45">
      <path d="M 309.757969 107.054569 
L 570.967969 107.054569 
" clip-path="url(#p25116ccaed)" style="fill: none; stroke: #eeeeee; stroke-width: 0.6; stroke-linecap: square"/>
     </g>
     <g id="line2d_46"/>
     <g id="text_37">
      <!-- 6k -->
      <g style="fill: #999999" transform="translate(298.250781 109.714023) scale(0.07 -0.07)">
       <defs>
        <path id="DejaVuSans-36" d="M 2113 2584 
Q 1688 2584 1439 2293 
Q 1191 2003 1191 1497 
Q 1191 994 1439 701 
Q 1688 409 2113 409 
Q 2538 409 2786 701 
Q 3034 994 3034 1497 
Q 3034 2003 2786 2293 
Q 2538 2584 2113 2584 
z
M 3366 4563 
L 3366 3988 
Q 3128 4100 2886 4159 
Q 2644 4219 2406 4219 
Q 1781 4219 1451 3797 
Q 1122 3375 1075 2522 
Q 1259 2794 1537 2939 
Q 1816 3084 2150 3084 
Q 2853 3084 3261 2657 
Q 3669 2231 3669 1497 
Q 3669 778 3244 343 
Q 2819 -91 2113 -91 
Q 1303 -91 875 529 
Q 447 1150 447 2328 
Q 447 3434 972 4092 
Q 1497 4750 2381 4750 
Q 2619 4750 2861 4703 
Q 3103 4656 3366 4563 
z
" transform="scale(0.015625)"/>
       </defs>
       <use xlink:href="#DejaVuSans-36"/>
       <use xlink:href="#DejaVuSans-6b" transform="translate(63.623047 0)"/>
      </g>
     </g>
    </g>
    <g id="ytick_10">
     <g id="line2d_47">
      <path d="M 309.757969 85.313986 
L 570.967969 85.313986 
" clip-path="url(#p25116ccaed)" style="fill: none; stroke: #eeeeee; stroke-width: 0.6; stroke-linecap: square"/>
     </g>
     <g id="line2d_48"/>
     <g id="text_38">
      <!-- 6k -->
      <g style="fill: #999999" transform="translate(298.250781 87.973439) scale(0.07 -0.07)">
       <use xlink:href="#DejaVuSans-36"/>
       <use xlink:href="#DejaVuSans-6b" transform="translate(63.623047 0)"/>
      </g>
     </g>
    </g>
    <g id="ytick_11">
     <g id="line2d_49">
      <path d="M 309.757969 63.573403 
L 570.967969 63.573403 
" clip-path="url(#p25116ccaed)" style="fill: none; stroke: #eeeeee; stroke-width: 0.6; stroke-linecap: square"/>
     </g>
     <g id="line2d_50"/>
     <g id="text_39">
      <!-- 6k -->
      <g style="fill: #999999" transform="translate(298.250781 66.232856) scale(0.07 -0.07)">
       <use xlink:href="#DejaVuSans-36"/>
       <use xlink:href="#DejaVuSans-6b" transform="translate(63.623047 0)"/>
      </g>
     </g>
    </g>
    <g id="ytick_12">
     <g id="line2d_51">
      <path d="M 309.757969 41.832819 
L 570.967969 41.832819 
" clip-path="url(#p25116ccaed)" style="fill: none; stroke: #eeeeee; stroke-width: 0.6; stroke-linecap: square"/>
     </g>
     <g id="line2d_52"/>
     <g id="text_40">
      <!-- 7k -->
      <g style="fill: #999999" transform="translate(298.250781 44.492272) scale(0.07 -0.07)">
       <defs>
        <path id="DejaVuSans-37" d="M 525 4666 
L 3525 4666 
L 3525 4397 
L 1831 0 
L 1172 0 
L 2766 4134 
L 525 4134 
L 525 4666 
z
" transform="scale(0.015625)"/>
       </defs>
       <use xlink:href="#DejaVuSans-37"/>
       <use xlink:href="#DejaVuSans-6b" transform="translate(63.623047 0)"/>
      </g>
     </g>
    </g>
    <g id="ytick_13">
     <g id="line2d_53">
      <path d="M 309.757969 20.092236 
L 570.967969 20.092236 
" clip-path="url(#p25116ccaed)" style="fill: none; stroke: #eeeeee; stroke-width: 0.6; stroke-linecap: square"/>
     </g>
     <g id="line2d_54"/>
     <g id="text_41">
      <!-- 8k -->
      <g style="fill: #999999" transform="translate(298.250781 22.751689) scale(0.07 -0.07)">
       <defs>
        <path id="DejaVuSans-38" d="M 2034 2216 
Q 1584 2216 1326 1975 
Q 1069 1734 1069 1313 
Q 1069 891 1326 650 
Q 1584 409 2034 409 
Q 2484 409 2743 651 
Q 3003 894 3003 1313 
Q 3003 1734 2745 1975 
Q 2488 2216 2034 2216 
z
M 1403 2484 
Q 997 2584 770 2862 
Q 544 3141 544 3541 
Q 544 4100 942 4425 
Q 1341 4750 2034 4750 
Q 2731 4750 3128 4425 
Q 3525 4100 3525 3541 
Q 3525 3141 3298 2862 
Q 3072 2584 2669 2484 
Q 3125 2378 3379 2068 
Q 3634 1759 3634 1313 
Q 3634 634 3220 271 
Q 2806 -91 2034 -91 
Q 1263 -91 848 271 
Q 434 634 434 1313 
Q 434 1759 690 2068 
Q 947 2378 1403 2484 
z
M 1172 3481 
Q 1172 3119 1398 2916 
Q 1625 2713 2034 2713 
Q 2441 2713 2670 2916 
Q 2900 3119 2900 3481 
Q 2900 3844 2670 4047 
Q 2441 4250 2034 4250 
Q 1625 4250 1398 4047 
Q 1172 3844 1172 3481 
z
" transform="scale(0.015625)"/>
       </defs>
       <use xlink:href="#DejaVuSans-38"/>
       <use xlink:href="#DejaVuSans-6b" transform="translate(63.623047 0)"/>
      </g>
     </g>
    </g>
   </g>
   <g id="line2d_55">
    <path d="M 309.757969 164.082464 
L 311.193189 161.926161 
L 311.910798 160.384457 
L 312.628408 159.148408 
L 313.346018 158.329603 
L 314.063628 155.328039 
L 315.498848 154.016545 
L 316.216458 153.525208 
L 316.934068 154.274247 
L 317.651678 153.845645 
L 318.369287 153.082004 
L 319.086897 154.659853 
L 319.804507 154.29615 
L 320.522117 154.617939 
L 321.239727 152.469523 
L 321.957337 150.91574 
L 322.674947 149.009071 
L 323.392557 148.992576 
L 324.110167 148.525036 
L 324.827776 149.067751 
L 325.545386 147.529111 
L 326.262996 148.828166 
L 326.980606 149.318422 
L 327.698216 150.765392 
L 328.415826 150.358153 
L 329.133436 150.101532 
L 329.851046 149.428955 
L 330.568656 149.173397 
L 331.286265 149.744009 
L 332.003875 151.294844 
L 333.439095 153.452389 
L 334.874315 152.104647 
L 335.591925 152.687783 
L 336.309535 152.099051 
L 337.027145 150.574895 
L 337.744754 147.968693 
L 338.462364 146.238873 
L 339.179974 146.253703 
L 339.897584 146.402845 
L 341.332804 147.778418 
L 342.050414 146.523725 
L 342.768024 146.806059 
L 344.203243 148.696213 
L 344.920853 149.262001 
L 346.356073 144.970189 
L 347.073683 145.051055 
L 347.791293 144.956198 
L 348.508903 143.468978 
L 349.226513 142.760205 
L 349.944123 143.690743 
L 353.532172 158.918628 
L 354.249782 160.239316 
L 354.967392 159.216866 
L 355.685002 159.404742 
L 356.402612 159.249472 
L 357.837831 155.797313 
L 358.555441 154.744068 
L 359.990661 155.648513 
L 360.708271 155.692247 
L 361.425881 155.407327 
L 362.143491 157.104941 
L 362.861101 157.404353 
L 363.578711 158.262734 
L 364.29632 158.53782 
L 365.01393 159.130432 
L 366.44915 159.166144 
L 367.16676 158.886918 
L 367.88437 158.888988 
L 368.60198 158.003175 
L 369.31959 156.834255 
L 370.0372 156.306338 
L 370.754809 156.262345 
L 371.472419 157.525463 
L 372.190029 158.0451 
L 372.907639 159.111206 
L 373.625249 160.656311 
L 375.060469 163.242142 
L 375.778079 163.788228 
L 376.495689 163.013118 
L 377.213298 162.575712 
L 377.930908 161.898943 
L 379.366128 159.467093 
L 380.083738 157.565952 
L 382.236568 154.058393 
L 382.954178 153.677125 
L 383.671787 153.424506 
L 384.389397 153.919348 
L 385.107007 153.704154 
L 385.824617 152.976964 
L 387.259837 149.716826 
L 387.977447 148.375761 
L 389.412667 147.489255 
L 390.130276 148.437097 
L 392.283106 152.03458 
L 393.718326 155.001504 
L 394.435936 155.738837 
L 395.153546 155.838047 
L 395.871156 154.931328 
L 396.588765 156.154656 
L 397.306375 156.462041 
L 398.023985 155.590802 
L 398.741595 154.0572 
L 399.459205 153.063026 
L 400.176815 151.101473 
L 400.894425 151.115628 
L 401.612035 149.621207 
L 402.329645 148.590128 
L 403.047254 148.568136 
L 403.764864 148.266067 
L 404.482474 148.326986 
L 405.200084 147.872998 
L 405.917694 145.998653 
L 406.635304 144.538862 
L 407.352914 144.171829 
L 408.070524 144.440026 
L 408.788134 145.489811 
L 409.505743 145.780758 
L 410.223353 147.429626 
L 410.940963 153.697245 
L 411.658573 157.132997 
L 412.376183 159.545759 
L 413.093793 158.499513 
L 414.529013 155.34763 
L 415.246623 153.055696 
L 415.964232 146.620371 
L 416.681842 147.237842 
L 417.399452 146.866422 
L 418.117062 149.186467 
L 419.552282 148.99785 
L 420.987502 149.625698 
L 421.705112 146.747045 
L 422.422721 144.814315 
L 423.140331 142.245859 
L 423.857941 142.182235 
L 425.293161 142.712177 
L 426.010771 142.861655 
L 426.728381 141.945626 
L 428.163601 141.51738 
L 429.59882 140.07652 
L 430.31643 139.974825 
L 431.03404 139.615823 
L 431.75165 139.573407 
L 432.46926 139.249923 
L 433.18687 138.324185 
L 435.3397 139.469923 
L 436.057309 140.618472 
L 436.774919 141.211015 
L 437.492529 140.703338 
L 438.210139 140.404693 
L 438.927749 138.990704 
L 441.080579 135.555188 
L 441.798189 133.816293 
L 442.515798 133.197219 
L 443.233408 133.026237 
L 443.951018 133.344105 
L 444.668628 133.807064 
L 445.386238 133.708371 
L 446.103848 133.437927 
L 446.821458 134.799889 
L 447.539068 135.483817 
L 448.256678 135.435624 
L 448.974287 134.678381 
L 449.691897 133.498937 
L 451.127117 131.620185 
L 452.562337 127.580699 
L 453.279947 126.406639 
L 453.997557 125.720147 
L 454.715167 125.329477 
L 455.432776 125.587873 
L 456.150386 125.207457 
L 457.585606 125.281284 
L 458.303216 125.071594 
L 459.738436 124.88616 
L 461.173656 123.28515 
L 461.891265 122.317462 
L 462.608875 121.766949 
L 463.326485 121.830257 
L 464.761705 120.842288 
L 465.479315 120.320697 
L 466.196925 120.971326 
L 466.914535 121.811366 
L 467.632145 123.789165 
L 468.349754 124.363874 
L 469.067364 124.506645 
L 469.784974 124.287696 
L 470.502584 125.156756 
L 471.937804 128.450842 
L 472.655414 128.107778 
L 473.373024 129.242428 
L 474.090634 131.765916 
L 474.808243 133.633333 
L 475.525853 134.730671 
L 476.243463 133.978211 
L 476.961073 132.708823 
L 477.678683 132.819982 
L 478.396293 132.279216 
L 479.113903 130.404284 
L 479.831513 130.546796 
L 480.549123 131.150785 
L 481.266732 131.52261 
L 481.984342 133.209897 
L 482.701952 134.511656 
L 483.419562 135.355031 
L 484.137172 135.718688 
L 485.572392 133.5402 
L 486.290002 133.182143 
L 487.725221 130.622906 
L 488.442831 129.265129 
L 489.160441 129.606326 
L 489.878051 130.116563 
L 490.595661 129.745764 
L 491.313271 129.609701 
L 492.030881 130.421148 
L 492.748491 130.179401 
L 493.466101 130.452826 
L 494.183711 129.745505 
L 494.90132 129.83405 
L 495.61893 130.159407 
L 496.33654 129.752516 
L 497.05415 128.493151 
L 499.20698 128.597276 
L 499.92459 128.413694 
L 502.077419 128.644534 
L 502.795029 128.035365 
L 503.512639 127.768121 
L 504.230249 127.293954 
L 506.383079 126.537922 
L 507.100689 127.672614 
L 507.818298 128.205893 
L 509.253518 129.925135 
L 509.971128 129.746635 
L 510.688738 129.84006 
L 511.406348 130.847388 
L 512.123958 130.7263 
L 512.841568 131.162113 
L 513.559178 130.311886 
L 514.994397 133.591181 
L 515.712007 132.492777 
L 516.429617 131.060336 
L 517.147227 129.905563 
L 517.864837 128.311323 
L 518.582447 127.121059 
L 519.300057 124.600652 
L 520.017667 123.118106 
L 520.735276 123.907527 
L 522.170496 124.153879 
L 523.605716 126.544063 
L 524.323326 127.461358 
L 525.040936 127.215789 
L 525.758546 127.967651 
L 526.476156 129.218463 
L 527.193765 129.626845 
L 529.346595 128.346376 
L 530.064205 129.249466 
L 530.781815 128.587914 
L 531.499425 127.488612 
L 532.217035 126.996143 
L 532.934645 128.193732 
L 533.652254 126.800868 
L 534.369864 126.883594 
L 535.087474 125.62247 
L 535.805084 123.604878 
L 536.522694 122.9843 
L 537.240304 123.281493 
L 537.957914 120.850528 
L 538.675524 121.193104 
L 539.393134 120.363506 
L 540.110743 120.334979 
L 540.828353 121.421055 
L 541.545963 121.229929 
L 542.981183 121.707097 
L 543.698793 122.571446 
L 544.416403 123.097887 
L 545.134013 122.863193 
L 545.851623 122.355423 
L 546.569232 121.580803 
L 547.286842 120.390919 
L 548.722062 119.629191 
L 549.439672 117.932131 
L 550.157282 117.261116 
L 550.874892 117.357668 
L 551.592502 118.252314 
L 552.310112 118.715076 
L 553.027721 118.408316 
L 553.745331 117.570364 
L 554.462941 118.264637 
L 555.180551 118.484088 
L 555.898161 117.451331 
L 556.615771 115.783816 
L 557.333381 113.000431 
L 558.050991 111.147026 
L 561.63904 105.923196 
L 562.35665 105.535683 
L 563.07426 109.435202 
L 563.79187 115.632272 
L 565.22709 123.271113 
L 565.9447 126.121356 
L 566.662309 127.81404 
L 567.379919 130.079343 
L 568.097529 129.784119 
L 568.815139 124.230196 
L 570.250359 119.26803 
L 570.967969 118.163629 
L 570.967969 118.163629 
" clip-path="url(#p25116ccaed)" style="fill: none; stroke: #2166ac; stroke-opacity: 0.9; stroke-width: 1.5; stroke-linecap: round"/>
   </g>
   <g id="line2d_56">
    <path d="M 309.757969 38.77172 
L 310.475579 38.338358 
L 311.193189 38.700529 
L 311.910798 38.892472 
L 313.346018 40.593318 
L 314.063628 40.090255 
L 315.498848 43.340398 
L 316.216458 43.946594 
L 316.934068 45.485864 
L 318.369287 57.626128 
L 319.086897 62.581128 
L 319.804507 64.421491 
L 320.522117 63.15839 
L 321.239727 62.23649 
L 321.957337 60.828715 
L 322.674947 54.427266 
L 324.110167 44.502084 
L 324.827776 41.715469 
L 325.545386 41.445889 
L 326.262996 41.449327 
L 326.980606 41.709167 
L 327.698216 41.661897 
L 328.415826 40.827087 
L 329.133436 39.198435 
L 329.851046 43.659684 
L 331.286265 53.975003 
L 332.003875 58.229729 
L 332.721485 61.411157 
L 334.156705 71.987452 
L 334.874315 73.143591 
L 335.591925 73.678047 
L 336.309535 73.190817 
L 337.744754 72.88604 
L 338.462364 72.079324 
L 339.179974 72.191841 
L 339.897584 71.235446 
L 340.615194 71.65145 
L 341.332804 70.919315 
L 342.050414 71.211962 
L 342.768024 72.201132 
L 343.485634 72.622812 
L 344.203243 73.714176 
L 344.920853 74.048372 
L 345.638463 72.945654 
L 346.356073 73.478045 
L 347.073683 73.478045 
L 348.508903 74.693022 
L 349.226513 73.894564 
L 349.944123 72.714942 
L 350.661732 73.268008 
L 351.379342 74.066489 
L 352.096952 74.484138 
L 352.814562 73.933192 
L 353.532172 73.565206 
L 354.249782 73.440493 
L 354.967392 73.766673 
L 355.685002 72.623302 
L 356.402612 69.86215 
L 357.120221 69.185127 
L 357.837831 67.524691 
L 358.555441 66.220843 
L 359.273051 64.370798 
L 360.708271 61.511852 
L 361.425881 62.549884 
L 362.143491 62.054407 
L 362.861101 60.868121 
L 363.578711 61.580516 
L 365.01393 63.705479 
L 365.73154 65.313117 
L 366.44915 65.846568 
L 367.16676 67.21518 
L 367.88437 70.315753 
L 370.0372 72.919288 
L 370.754809 71.760052 
L 371.472419 71.594112 
L 372.190029 70.674162 
L 372.907639 69.044887 
L 373.625249 69.124526 
L 374.342859 67.763332 
L 375.060469 66.70162 
L 375.778079 66.706375 
L 376.495689 66.294246 
L 377.213298 65.045942 
L 377.930908 64.886188 
L 378.648518 62.976695 
L 379.366128 62.853628 
L 380.083738 62.557277 
L 381.518958 63.453873 
L 382.236568 63.086753 
L 382.954178 63.353702 
L 383.671787 63.216845 
L 384.389397 63.735653 
L 385.107007 63.367232 
L 385.824617 63.942499 
L 386.542227 64.729037 
L 387.259837 65.869425 
L 387.977447 65.709932 
L 388.695057 66.206885 
L 389.412667 65.563448 
L 390.130276 65.577759 
L 390.847886 64.706661 
L 391.565496 63.062816 
L 392.283106 62.832813 
L 393.000716 63.241042 
L 393.718326 62.882248 
L 394.435936 64.098704 
L 395.871156 65.781231 
L 396.588765 67.747114 
L 397.306375 71.08397 
L 398.023985 71.51823 
L 398.741595 72.86533 
L 399.459205 72.917497 
L 400.176815 74.298275 
L 400.894425 74.117598 
L 401.612035 74.576161 
L 402.329645 72.074933 
L 403.047254 72.295308 
L 404.482474 70.792128 
L 405.200084 68.833694 
L 405.917694 71.170022 
L 406.635304 69.987226 
L 408.070524 67.182665 
L 408.788134 66.140847 
L 409.505743 66.346462 
L 410.223353 65.82988 
L 410.940963 62.519933 
L 411.658573 61.378615 
L 412.376183 60.678811 
L 413.093793 60.872721 
L 414.529013 60.095047 
L 415.246623 59.420181 
L 415.964232 59.44003 
L 416.681842 58.873176 
L 417.399452 57.614378 
L 418.117062 55.017141 
L 418.834672 54.444576 
L 419.552282 53.39338 
L 420.269892 53.205955 
L 420.987502 51.78117 
L 421.705112 50.889442 
L 422.422721 50.92724 
L 423.140331 53.52117 
L 423.857941 53.794757 
L 424.575551 53.908151 
L 425.293161 53.783957 
L 426.010771 53.544312 
L 426.728381 53.094077 
L 427.445991 52.779863 
L 428.163601 50.445892 
L 428.881211 48.835999 
L 429.59882 47.546491 
L 430.31643 47.368814 
L 431.03404 47.558319 
L 431.75165 47.00806 
L 432.46926 46.126618 
L 433.90448 46.318694 
L 434.62209 46.102447 
L 436.057309 45.157494 
L 436.774919 44.964132 
L 437.492529 45.046413 
L 438.210139 43.80377 
L 438.927749 42.904374 
L 439.645359 41.743012 
L 440.362969 39.655786 
L 441.080579 40.353339 
L 441.798189 40.194805 
L 442.515798 40.241639 
L 443.233408 41.653597 
L 443.951018 42.748425 
L 444.668628 43.274715 
L 445.386238 44.618865 
L 446.103848 42.570822 
L 446.821458 41.966815 
L 447.539068 41.005515 
L 448.256678 38.90792 
L 448.974287 37.727029 
L 449.691897 37.103201 
L 450.409507 37.926278 
L 451.127117 39.497062 
L 451.844727 39.498627 
L 452.562337 40.392641 
L 453.997557 44.370325 
L 454.715167 45.308414 
L 455.432776 43.942356 
L 456.150386 41.706278 
L 456.867996 41.195636 
L 457.585606 40.292494 
L 459.020826 35.367072 
L 459.738436 34.474623 
L 460.456046 35.310932 
L 461.173656 36.403912 
L 461.891265 37.019215 
L 462.608875 39.378217 
L 463.326485 42.421359 
L 464.761705 46.333351 
L 465.479315 47.750383 
L 466.196925 48.009745 
L 466.914535 47.840529 
L 468.349754 43.668849 
L 470.502584 38.776778 
L 472.655414 39.405479 
L 474.090634 40.302299 
L 474.808243 40.423609 
L 475.525853 39.21334 
L 476.961073 37.350675 
L 477.678683 36.129331 
L 478.396293 34.649399 
L 479.113903 33.490384 
L 479.831513 33.253945 
L 480.549123 33.646465 
L 481.266732 34.298604 
L 481.984342 35.967069 
L 483.419562 42.629121 
L 484.137172 46.199208 
L 484.854782 47.755989 
L 486.290002 50.148214 
L 487.007612 50.623878 
L 487.725221 49.306248 
L 489.160441 45.434772 
L 489.878051 45.514267 
L 490.595661 45.913556 
L 491.313271 45.154204 
L 492.030881 45.085881 
L 492.748491 45.481274 
L 493.466101 47.041024 
L 494.183711 47.911823 
L 494.90132 47.80661 
L 495.61893 47.186763 
L 496.33654 46.830858 
L 497.05415 45.668319 
L 499.20698 43.613679 
L 499.92459 43.980236 
L 501.359809 43.244264 
L 502.077419 43.978677 
L 502.795029 44.49513 
L 503.512639 43.420658 
L 504.230249 43.534653 
L 504.947859 42.629644 
L 505.665469 43.050156 
L 506.383079 42.535684 
L 507.100689 41.470993 
L 507.818298 40.869871 
L 510.688738 39.19375 
L 511.406348 39.470837 
L 512.123958 39.898326 
L 512.841568 39.152084 
L 514.276787 38.098399 
L 514.994397 38.824591 
L 515.712007 39.72841 
L 517.147227 41.068201 
L 517.864837 42.084869 
L 518.582447 42.630862 
L 520.017667 42.049652 
L 521.452886 40.053332 
L 522.170496 39.67597 
L 522.888106 39.878275 
L 523.605716 39.708874 
L 524.323326 39.35079 
L 525.040936 38.012542 
L 526.476156 38.481798 
L 527.911375 35.015894 
L 528.628985 34.106758 
L 529.346595 34.830565 
L 530.064205 36.245309 
L 530.781815 36.089223 
L 532.217035 38.419125 
L 532.934645 39.228016 
L 533.652254 41.10193 
L 534.369864 41.600255 
L 536.522694 36.705965 
L 537.240304 36.546343 
L 537.957914 37.581913 
L 538.675524 39.2444 
L 539.393134 39.435315 
L 540.110743 40.147434 
L 540.828353 40.477722 
L 541.545963 39.452934 
L 542.263573 37.334459 
L 544.416403 27.936227 
L 545.134013 25.760689 
L 546.569232 22.955192 
L 547.286842 23.075368 
L 548.004452 24.225969 
L 548.722062 24.100606 
L 549.439672 25.691937 
L 550.157282 26.50856 
L 550.874892 28.380811 
L 551.592502 29.127349 
L 553.027721 28.712449 
L 553.745331 28.981044 
L 554.462941 28.900923 
L 555.180551 28.583492 
L 555.898161 27.509618 
L 556.615771 28.154655 
L 557.333381 29.170028 
L 558.050991 28.867095 
L 558.768601 28.056729 
L 560.20382 28.249528 
L 560.92143 28.385352 
L 562.35665 27.213552 
L 563.07426 26.783952 
L 563.79187 26.138915 
L 564.50948 25.153555 
L 565.22709 26.537484 
L 565.9447 26.644567 
L 566.662309 27.514451 
L 567.379919 27.937438 
L 568.097529 28.541524 
L 568.815139 28.980027 
L 569.532749 30.061023 
L 570.250359 28.673024 
L 570.967969 28.560143 
L 571.685579 28.172268 
L 571.685579 28.172268 
" clip-path="url(#p25116ccaed)" style="fill: none; stroke: #d6604d; stroke-opacity: 0.9; stroke-width: 1.5; stroke-linecap: round"/>
   </g>
   <g id="patch_6">
    <path d="M 309.757969 171.138828 
L 309.757969 15.898828 
" style="fill: none; stroke: #dddddd; stroke-width: 0.8; stroke-linejoin: miter; stroke-linecap: square"/>
   </g>
   <g id="patch_7">
    <path d="M 309.757969 171.138828 
L 570.967969 171.138828 
" style="fill: none; stroke: #dddddd; stroke-width: 0.8; stroke-linejoin: miter; stroke-linecap: square"/>
   </g>
   <g id="text_42">
    <!-- ERCO-FWES +43.3%  ·  ERCOT Far West -->
    <g style="fill: #222222" transform="translate(309.757969 12.898828) scale(0.075 -0.075)">
     <defs>
      <path id="DejaVuSans-Bold-46" d="M 588 4666 
L 3834 4666 
L 3834 3756 
L 1791 3756 
L 1791 2888 
L 3713 2888 
L 3713 1978 
L 1791 1978 
L 1791 0 
L 588 0 
L 588 4666 
z
" transform="scale(0.015625)"/>
      <path id="DejaVuSans-Bold-57" d="M 191 4666 
L 1344 4666 
L 2150 1275 
L 2950 4666 
L 4109 4666 
L 4909 1275 
L 5716 4666 
L 6859 4666 
L 5759 0 
L 4372 0 
L 3525 3547 
L 2688 0 
L 1300 0 
L 191 4666 
z
" transform="scale(0.015625)"/>
      <path id="DejaVuSans-Bold-53" d="M 3834 4519 
L 3834 3531 
Q 3450 3703 3084 3790 
Q 2719 3878 2394 3878 
Q 1963 3878 1756 3759 
Q 1550 3641 1550 3391 
Q 1550 3203 1689 3098 
Q 1828 2994 2194 2919 
L 2706 2816 
Q 3484 2659 3812 2340 
Q 4141 2022 4141 1434 
Q 4141 663 3683 286 
Q 3225 -91 2284 -91 
Q 1841 -91 1394 -6 
Q 947 78 500 244 
L 500 1259 
Q 947 1022 1364 901 
Q 1781 781 2169 781 
Q 2563 781 2772 912 
Q 2981 1044 2981 1288 
Q 2981 1506 2839 1625 
Q 2697 1744 2272 1838 
L 1806 1941 
Q 1106 2091 782 2419 
Q 459 2747 459 3303 
Q 459 4000 909 4375 
Q 1359 4750 2203 4750 
Q 2588 4750 2994 4692 
Q 3400 4634 3834 4519 
z
" transform="scale(0.015625)"/>
      <path id="DejaVuSans-Bold-34" d="M 2356 3675 
L 1038 1722 
L 2356 1722 
L 2356 3675 
z
M 2156 4666 
L 3494 4666 
L 3494 1722 
L 4159 1722 
L 4159 850 
L 3494 850 
L 3494 0 
L 2356 0 
L 2356 850 
L 288 850 
L 288 1881 
L 2156 4666 
z
" transform="scale(0.015625)"/>
      <path id="DejaVuSans-Bold-61" d="M 2106 1575 
Q 1756 1575 1579 1456 
Q 1403 1338 1403 1106 
Q 1403 894 1545 773 
Q 1688 653 1941 653 
Q 2256 653 2472 879 
Q 2688 1106 2688 1447 
L 2688 1575 
L 2106 1575 
z
M 3816 1997 
L 3816 0 
L 2688 0 
L 2688 519 
Q 2463 200 2181 54 
Q 1900 -91 1497 -91 
Q 953 -91 614 226 
Q 275 544 275 1050 
Q 275 1666 698 1953 
Q 1122 2241 2028 2241 
L 2688 2241 
L 2688 2328 
Q 2688 2594 2478 2717 
Q 2269 2841 1825 2841 
Q 1466 2841 1156 2769 
Q 847 2697 581 2553 
L 581 3406 
Q 941 3494 1303 3539 
Q 1666 3584 2028 3584 
Q 2975 3584 3395 3211 
Q 3816 2838 3816 1997 
z
" transform="scale(0.015625)"/>
      <path id="DejaVuSans-Bold-65" d="M 4031 1759 
L 4031 1441 
L 1416 1441 
Q 1456 1047 1700 850 
Q 1944 653 2381 653 
Q 2734 653 3104 758 
Q 3475 863 3866 1075 
L 3866 213 
Q 3469 63 3072 -14 
Q 2675 -91 2278 -91 
Q 1328 -91 801 392 
Q 275 875 275 1747 
Q 275 2603 792 3093 
Q 1309 3584 2216 3584 
Q 3041 3584 3536 3087 
Q 4031 2591 4031 1759 
z
M 2881 2131 
Q 2881 2450 2695 2645 
Q 2509 2841 2209 2841 
Q 1884 2841 1681 2658 
Q 1478 2475 1428 2131 
L 2881 2131 
z
" transform="scale(0.015625)"/>
      <path id="DejaVuSans-Bold-73" d="M 3272 3391 
L 3272 2541 
Q 2913 2691 2578 2766 
Q 2244 2841 1947 2841 
Q 1628 2841 1473 2761 
Q 1319 2681 1319 2516 
Q 1319 2381 1436 2309 
Q 1553 2238 1856 2203 
L 2053 2175 
Q 2913 2066 3209 1816 
Q 3506 1566 3506 1031 
Q 3506 472 3093 190 
Q 2681 -91 1863 -91 
Q 1516 -91 1145 -36 
Q 775 19 384 128 
L 384 978 
Q 719 816 1070 734 
Q 1422 653 1784 653 
Q 2113 653 2278 743 
Q 2444 834 2444 1013 
Q 2444 1163 2330 1236 
Q 2216 1309 1875 1350 
L 1678 1375 
Q 931 1469 631 1722 
Q 331 1975 331 2491 
Q 331 3047 712 3315 
Q 1094 3584 1881 3584 
Q 2191 3584 2531 3537 
Q 2872 3491 3272 3391 
z
" transform="scale(0.015625)"/>
     </defs>
     <use xlink:href="#DejaVuSans-Bold-45"/>
     <use xlink:href="#DejaVuSans-Bold-52" transform="translate(68.310547 0)"/>
     <use xlink:href="#DejaVuSans-Bold-43" transform="translate(145.3125 0)"/>
     <use xlink:href="#DejaVuSans-Bold-4f" transform="translate(218.701172 0)"/>
     <use xlink:href="#DejaVuSans-Bold-2d" transform="translate(305.585938 0)"/>
     <use xlink:href="#DejaVuSans-Bold-46" transform="translate(347.089844 0)"/>
     <use xlink:href="#DejaVuSans-Bold-57" transform="translate(415.400391 0)"/>
     <use xlink:href="#DejaVuSans-Bold-45" transform="translate(525.703125 0)"/>
     <use xlink:href="#DejaVuSans-Bold-53" transform="translate(594.013672 0)"/>
     <use xlink:href="#DejaVuSans-Bold-20" transform="translate(666.035156 0)"/>
     <use xlink:href="#DejaVuSans-Bold-2b" transform="translate(700.849609 0)"/>
     <use xlink:href="#DejaVuSans-Bold-34" transform="translate(784.638672 0)"/>
     <use xlink:href="#DejaVuSans-Bold-33" transform="translate(854.21875 0)"/>
     <use xlink:href="#DejaVuSans-Bold-2e" transform="translate(923.798828 0)"/>
     <use xlink:href="#DejaVuSans-Bold-33" transform="translate(961.787109 0)"/>
     <use xlink:href="#DejaVuSans-Bold-25" transform="translate(1031.367188 0)"/>
     <use xlink:href="#DejaVuSans-Bold-20" transform="translate(1131.5625 0)"/>
     <use xlink:href="#DejaVuSans-Bold-20" transform="translate(1166.376953 0)"/>
     <use xlink:href="#DejaVuSans-Bold-b7" transform="translate(1201.191406 0)"/>
     <use xlink:href="#DejaVuSans-Bold-20" transform="translate(1239.179688 0)"/>
     <use xlink:href="#DejaVuSans-Bold-20" transform="translate(1273.994141 0)"/>
     <use xlink:href="#DejaVuSans-Bold-45" transform="translate(1308.808594 0)"/>
     <use xlink:href="#DejaVuSans-Bold-52" transform="translate(1377.119141 0)"/>
     <use xlink:href="#DejaVuSans-Bold-43" transform="translate(1454.121094 0)"/>
     <use xlink:href="#DejaVuSans-Bold-4f" transform="translate(1527.509766 0)"/>
     <use xlink:href="#DejaVuSans-Bold-54" transform="translate(1612.519531 0)"/>
     <use xlink:href="#DejaVuSans-Bold-20" transform="translate(1680.732422 0)"/>
     <use xlink:href="#DejaVuSans-Bold-46" transform="translate(1715.546875 0)"/>
     <use xlink:href="#DejaVuSans-Bold-61" transform="translate(1777.982422 0)"/>
     <use xlink:href="#DejaVuSans-Bold-72" transform="translate(1845.462891 0)"/>
     <use xlink:href="#DejaVuSans-Bold-20" transform="translate(1894.779297 0)"/>
     <use xlink:href="#DejaVuSans-Bold-57" transform="translate(1929.59375 0)"/>
     <use xlink:href="#DejaVuSans-Bold-65" transform="translate(2036.271484 0)"/>
     <use xlink:href="#DejaVuSans-Bold-73" transform="translate(2104.09375 0)"/>
     <use xlink:href="#DejaVuSans-Bold-74" transform="translate(2163.615234 0)"/>
    </g>
   </g>
  </g>
 </g>
 <defs>
  <clipPath id="pd9009c4242">
   <rect x="28.997969" y="15.898828" width="261.21" height="155.24"/>
  </clipPath>
  <clipPath id="p25116ccaed">
   <rect x="309.757969" y="15.898828" width="261.21" height="155.24"/>
  </clipPath>
 </defs>
</svg>
