<svg class="main-svg" xmlns="http://www.w3.org/2000/svg" xmlns:xlink="http://www.w3.org/1999/xlink" width="1100" height="440" style="" viewBox="0 0 1100 440"><rect x="0" y="0" width="1100" height="440" style="fill: rgb(255, 255, 255); fill-opacity: 1;"/><defs id="defs-8a1b9b"><g class="clips"><clipPath id="clip8a1b9bxyplot" class="plotclip"><rect width="171.5" height="315"/></clipPath><clipPath id="clip8a1b9bxy2plot" class="plotclip"><rect width="171.5" height="315"/></clipPath><clipPath id="clip8a1b9bx2y3plot" class="plotclip"><rect width="171.5" height="315"/></clipPath><clipPath id="clip8a1b9bx2y4plot" class="plotclip"><rect width="171.5" height="315"/></clipPath><clipPath id="clip8a1b9bx3y5plot" class="plotclip"><rect width="171.50000000000006" height="315"/></clipPath><clipPath id="clip8a1b9bx3y6plot" class="plotclip"><rect width="171.50000000000006" height="315"/></clipPath><clipPath id="clip8a1b9bx4y7plot" class="plotclip"><rect width="171.50000000000006" height="315"/></clipPath><clipPath id="clip8a1b9bx4y8plot" class="plotclip"><rect width="171.50000000000006" height="315"/></clipPath><clipPath class="axesclip" id="clip8a1b9bx"><rect x="80" y="0" width="171.5" height="440"/></clipPath><clipPath class="axesclip" id="clip8a1b9by"><rect x="0" y="20" width="1100" height="315"/></clipPath><clipPath class="axesclip" id="clip8a1b9bxy"><rect x="80" y="20" width="171.5" height="315"/></clipPath><clipPath class="axesclip" id="clip8a1b9by2"><rect x="0" y="20" width="1100" height="315"/></clipPath><clipPath class="axesclip" id="clip8a1b9bxy2"><rect x="80" y="20" width="171.5" height="315"/></clipPath><clipPath class="axesclip" id="clip8a1b9by3"><rect x="0" y="20" width="1100" height="315"/></clipPath><clipPath class="axesclip" id="clip8a1b9bxy3"><rect x="80" y="20" width="171.5" height="315"/></clipPath><clipPath class="axesclip" id="clip8a1b9by4"><rect x="0" y="20" width="1100" height="315"/></clipPath><clipPath class="axesclip" id="clip8a1b9bxy4"><rect x="80" y="20" width="171.5" height="315"/></clipPath><clipPath class="axesclip" id="clip8a1b9by5"><rect x="0" y="20" width="1100" height="315"/></clipPath><clipPath class="axesclip" id="clip8a1b9bxy5"><rect x="80" y="20" width="171.5" height="315"/></clipPath><clipPath class="axesclip" id="clip8a1b9by6"><rect x="0" y="20" width="1100" height="315"/></clipPath><clipPath class="axesclip" id="clip8a1b9bxy6"><rect x="80" y="20" width="171.5" height="315"/></clipPath><clipPath class="axesclip" id="clip8a1b9by7"><rect x="0" y="20" width="1100" height="315"/></clipPath><clipPath class="axesclip" id="clip8a1b9bxy7"><rect x="80" y="20" width="171.5" height="315"/></clipPath><clipPath class="axesclip" id="clip8a1b9by8"><rect x="0" y="20" width="1100" height="315"/></clipPath><clipPath class="axesclip" id="clip8a1b9bxy8"><rect x="80" y="20" width="171.5" height="315"/></clipPath><clipPath class="axesclip" id="clip8a1b9bx2"><rect x="329.9" y="0" width="171.5" height="440"/></clipPath><clipPath class="axesclip" id="clip8a1b9bx2y"><rect x="329.9" y="20" width="171.5" height="315"/></clipPath><clipPath class="axesclip" id="clip8a1b9bx2y2"><rect x="329.9" y="20" width="171.5" height="315"/></clipPath><clipPath class="axesclip" id="clip8a1b9bx2y3"><rect x="329.9" y="20" width="171.5" height="315"/></clipPath><clipPath class="axesclip" id="clip8a1b9bx2y4"><rect x="329.9" y="20" width="171.5" height="315"/></clipPath><clipPath class="axesclip" id="clip8a1b9bx2y5"><rect x="329.9" y="20" width="171.5" height="315"/></clipPath><clipPath class="axesclip" id="clip8a1b9bx2y6"><rect x="329.9" y="20" width="171.5" height="315"/></clipPath><clipPath class="axesclip" id="clip8a1b9bx2y7"><rect x="329.9" y="20" width="171.5" height="315"/></clipPath><clipPath class="axesclip" id="clip8a1b9bx2y8"><rect x="329.9" y="20" width="171.5" height="315"/></clipPath><clipPath class="axesclip" id="clip8a1b9bx3"><rect x="579.8" y="0" width="171.50000000000006" height="440"/></clipPath><clipPath class="axesclip" id="clip8a1b9bx3y"><rect x="579.8" y="20" width="171.50000000000006" height="315"/></clipPath><clipPath class="axesclip" id="clip8a1b9bx3y2"><rect x="579.8" y="20" width="171.50000000000006" height="315"/></clipPath><clipPath class="axesclip" id="clip8a1b9bx3y3"><rect x="579.8" y="20" width="171.50000000000006" height="315"/></clipPath><clipPath class="axesclip" id="clip8a1b9bx3y4"><rect x="579.8" y="20" width="171.50000000000006" height="315"/></clipPath><clipPath class="axesclip" id="clip8a1b9bx3y5"><rect x="579.8" y="20" width="171.50000000000006" height="315"/></clipPath><clipPath class="axesclip" id="clip8a1b9bx3y6"><rect x="579.8" y="20" width="171.50000000000006" height="315"/></clipPath><clipPath class="axesclip" id="clip8a1b9bx3y7"><rect x="579.8" y="20" width="171.50000000000006" height="315"/></clipPath><clipPath class="axesclip" id="clip8a1b9bx3y8"><rect x="579.8" y="20" width="171.50000000000006" height="315"/></clipPath><clipPath class="axesclip" id="clip8a1b9bx4"><rect x="829.6999999999999" y="0" width="171.50000000000006" height="440"/></clipPath><clipPath class="axesclip" id="clip8a1b9bx4y"><rect x="829.6999999999999" y="20" width="171.50000000000006" height="315"/></clipPath><clipPath class="axesclip" id="clip8a1b9bx4y2"><rect x="829.6999999999999" y="20" width="171.50000000000006" height="315"/></clipPath><clipPath class="axesclip" id="clip8a1b9bx4y3"><rect x="829.6999999999999" y="20" width="171.50000000000006" height="315"/></clipPath><clipPath class="axesclip" id="clip8a1b9bx4y4"><rect x="829.6999999999999" y="20" width="171.50000000000006" height="315"/></clipPath><clipPath class="axesclip" id="clip8a1b9bx4y5"><rect x="829.6999999999999" y="20" width="171.50000000000006" height="315"/></clipPath><clipPath class="axesclip" id="clip8a1b9bx4y6"><rect x="829.6999999999999" y="20" width="171.50000000000006" height="315"/></clipPath><clipPath class="axesclip" id="clip8a1b9bx4y7"><rect x="829.6999999999999" y="20" width="171.50000000000006" height="315"/></clipPath><clipPath class="axesclip" id="clip8a1b9bx4y8"><rect x="829.6999999999999" y="20" width="171.50000000000006" height="315"/></clipPath></g><g class="gradients"/><g class="patterns"/></defs><g class="bglayer"/><g class="layer-below"><g class="imagelayer"/><g class="shapelayer"/></g><g class="cartesianlayer"><g class="subplot xy"><g class="layer-subplot"><g class="shapelayer"/><g class="imagelayer"/></g><g class="minor-gridlayer"><g class="x"/><g class="y"/><g class="y2"/></g><g class="gridlayer"><g class="x"/><g class="y"><path class="ygrid crisp" transform="translate(0,282.32)" d="M80,0h171.5" style="stroke: rgb(235, 240, 248); stroke-opacity: 1; stroke-width: 1px;"/><path class="ygrid crisp" transform="translate(0,229.65)" d="M80,0h171.5" style="stroke: rgb(235, 240, 248); stroke-opacity: 1; stroke-width: 1px;"/><path class="ygrid crisp" transform="translate(0,176.97)" d="M80,0h171.5" style="stroke: rgb(235, 240, 248); stroke-opacity: 1; stroke-width: 1px;"/><path class="ygrid crisp" transform="translate(0,124.3)" d="M80,0h171.5" style="stroke: rgb(235, 240, 248); stroke-opacity: 1; stroke-width: 1px;"/><path class="ygrid crisp" transform="translate(0,71.62)" d="M80,0h171.5" style="stroke: rgb(235, 240, 248); stroke-opacity: 1; stroke-width: 1px;"/></g><g class="y2"/></g><g class="zerolinelayer"><path class="yzl zl crisp" transform="translate(0,335)" d="M80,0h171.5" style="stroke: rgb(235, 240, 248); stroke-opacity: 1; stroke-width: 2px;"/><path class="y2zl zl crisp" transform="translate(0,335)" d="M80,0h171.5" style="stroke: rgb(235, 240, 248); stroke-opacity: 1; stroke-width: 2px;"/></g><g class="layer-between"><g class="shapelayer"/><g class="imagelayer"/></g><path class="xlines-below"/><path class="ylines-below"/><g class="overlines-below"><path class="xy2-x"/><path class="xy2-y"/></g><g class="xaxislayer-below"/><g class="yaxislayer-below"/><g class="overaxes-below"><g class="xy2-x"/><g class="xy2-y"/></g><g class="overplot"><g class="xy" transform="translate(80,20)" clip-path="url(#clip8a1b9bxyplot)"><g class="barlayer mlayer"><g class="trace bars" style="opacity: 0.82;"><g class="points"><g class="point"><path d="M2.86,315V273.19H25.72V315Z" style="vector-effect: none; opacity: 1; stroke-width: 0.5px; fill: rgb(31, 120, 180); fill-opacity: 1; stroke: rgb(255, 255, 255); stroke-opacity: 1;"/></g><g class="point"><path d="M31.44,315V275.37H54.31V315Z" style="vector-effect: none; opacity: 1; stroke-width: 0.5px; fill: rgb(31, 120, 180); fill-opacity: 1; stroke: rgb(255, 255, 255); stroke-opacity: 1;"/></g><g class="point"><path d="M60.02,315V250.49H82.89V315Z" style="vector-effect: none; opacity: 1; stroke-width: 0.5px; fill: rgb(31, 120, 180); fill-opacity: 1; stroke: rgb(255, 255, 255); stroke-opacity: 1;"/></g><g class="point"><path d="M88.61,315V244.95H111.47V315Z" style="vector-effect: none; opacity: 1; stroke-width: 0.5px; fill: rgb(31, 120, 180); fill-opacity: 1; stroke: rgb(255, 255, 255); stroke-opacity: 1;"/></g><g class="point"><path d="M117.19,315V224.84H140.06V315Z" style="vector-effect: none; opacity: 1; stroke-width: 0.5px; fill: rgb(31, 120, 180); fill-opacity: 1; stroke: rgb(255, 255, 255); stroke-opacity: 1;"/></g><g class="point"><path d="M145.77,315V215.82H168.64V315Z" style="vector-effect: none; opacity: 1; stroke-width: 0.5px; fill: rgb(31, 120, 180); fill-opacity: 1; stroke: rgb(255, 255, 255); stroke-opacity: 1;"/></g></g></g></g></g><g class="xy2" transform="translate(80,20)" clip-path="url(#clip8a1b9bxy2plot)"><g class="scatterlayer mlayer"><g class="trace scatter trace56271a" style="stroke-miterlimit: 2; opacity: 1;"><g class="fills"/><g class="errorbars"/><g class="lines"><path class="js-line" d="M14.29,306.73L42.88,276.15L71.46,231.1L100.04,181.53L128.63,114.84L157.21,41.09" style="vector-effect: none; fill: none; stroke: rgb(17, 17, 17); stroke-opacity: 1; stroke-width: 2px; opacity: 1;"/></g><g class="points"><path class="point" transform="translate(14.29,306.73)" d="M3,0A3,3 0 1,1 0,-3A3,3 0 0,1 3,0Z" style="opacity: 1; stroke-width: 0px; fill: rgb(17, 17, 17); fill-opacity: 1;"/><path class="point" transform="translate(42.88,276.15)" d="M3,0A3,3 0 1,1 0,-3A3,3 0 0,1 3,0Z" style="opacity: 1; stroke-width: 0px; fill: rgb(17, 17, 17); fill-opacity: 1;"/><path class="point" transform="translate(71.46,231.1)" d="M3,0A3,3 0 1,1 0,-3A3,3 0 0,1 3,0Z" style="opacity: 1; stroke-width: 0px; fill: rgb(17, 17, 17); fill-opacity: 1;"/><path class="point" transform="translate(100.04,181.53)" d="M3,0A3,3 0 1,1 0,-3A3,3 0 0,1 3,0Z" style="opacity: 1; stroke-width: 0px; fill: rgb(17, 17, 17); fill-opacity: 1;"/><path class="point" transform="translate(128.63,114.84)" d="M3,0A3,3 0 1,1 0,-3A3,3 0 0,1 3,0Z" style="opacity: 1; stroke-width: 0px; fill: rgb(17, 17, 17); fill-opacity: 1;"/><path class="point" transform="translate(157.21,41.09)" d="M3,0A3,3 0 1,1 0,-3A3,3 0 0,1 3,0Z" style="opacity: 1; stroke-width: 0px; fill: rgb(17, 17, 17); fill-opacity: 1;"/></g><g class="text"/></g></g></g></g><g class="zerolinelayer-above"/><path class="xlines-above crisp" d="M0,0" style="fill: none;"/><path class="ylines-above crisp" d="M0,0" style="fill: none;"/><g class="overlines-above"><path class="xy2-x crisp" d="M0,0" style="fill: none;"/><path class="xy2-y crisp" d="M0,0" style="fill: none;"/></g><g class="xaxislayer-above"><g class="xtick"><text text-anchor="start" x="0" y="348" transform="translate(94.28999999999999,0) rotate(45,0,342)" style="font-family: 'Open Sans', verdana, arial, sans-serif; font-size: 12px; fill: rgb(42, 63, 95); fill-opacity: 1; white-space: pre;">2020</text></g><g class="xtick"><text text-anchor="start" x="0" y="348" style="font-family: 'Open Sans', verdana, arial, sans-serif; font-size: 12px; fill: rgb(42, 63, 95); fill-opacity: 1; white-space: pre;" transform="translate(122.88,0) rotate(45,0,342)">2021</text></g><g class="xtick"><text text-anchor="start" x="0" y="348" style="font-family: 'Open Sans', verdana, arial, sans-serif; font-size: 12px; fill: rgb(42, 63, 95); fill-opacity: 1; white-space: pre;" transform="translate(151.45999999999998,0) rotate(45,0,342)">2022</text></g><g class="xtick"><text text-anchor="start" x="0" y="348" style="font-family: 'Open Sans', verdana, arial, sans-serif; font-size: 12px; fill: rgb(42, 63, 95); fill-opacity: 1; white-space: pre;" transform="translate(180.04000000000002,0) rotate(45,0,342)">2023</text></g><g class="xtick"><text text-anchor="start" x="0" y="348" style="font-family: 'Open Sans', verdana, arial, sans-serif; font-size: 12px; fill: rgb(42, 63, 95); fill-opacity: 1; white-space: pre;" transform="translate(208.63,0) rotate(45,0,342)">2024</text></g><g class="xtick"><text text-anchor="start" x="0" y="348" style="font-family: 'Open Sans', verdana, arial, sans-serif; font-size: 12px; fill: rgb(42, 63, 95); fill-opacity: 1; white-space: pre;" transform="translate(237.21,0) rotate(45,0,342)">2025</text></g></g><g class="yaxislayer-above"><g class="ytick"><text text-anchor="end" x="79" y="4.199999999999999" transform="translate(0,335)" style="font-family: 'Open Sans', verdana, arial, sans-serif; font-size: 12px; fill: rgb(42, 63, 95); fill-opacity: 1; white-space: pre;">0</text></g><g class="ytick"><text text-anchor="end" x="79" y="4.199999999999999" style="font-family: 'Open Sans', verdana, arial, sans-serif; font-size: 12px; fill: rgb(42, 63, 95); fill-opacity: 1; white-space: pre;" transform="translate(0,282.32)">2,000</text></g><g class="ytick"><text text-anchor="end" x="79" y="4.199999999999999" style="font-family: 'Open Sans', verdana, arial, sans-serif; font-size: 12px; fill: rgb(42, 63, 95); fill-opacity: 1; white-space: pre;" transform="translate(0,229.65)">4,000</text></g><g class="ytick"><text text-anchor="end" x="79" y="4.199999999999999" style="font-family: 'Open Sans', verdana, arial, sans-serif; font-size: 12px; fill: rgb(42, 63, 95); fill-opacity: 1; white-space: pre;" transform="translate(0,176.97)">6,000</text></g><g class="ytick"><text text-anchor="end" x="79" y="4.199999999999999" style="font-family: 'Open Sans', verdana, arial, sans-serif; font-size: 12px; fill: rgb(42, 63, 95); fill-opacity: 1; white-space: pre;" transform="translate(0,124.3)">8,000</text></g><g class="ytick"><text text-anchor="end" x="79" y="4.199999999999999" style="font-family: 'Open Sans', verdana, arial, sans-serif; font-size: 12px; fill: rgb(42, 63, 95); fill-opacity: 1; white-space: pre;" transform="translate(0,71.62)">10,000</text></g></g><g class="overaxes-above"><g class="xy2-x"/><g class="xy2-y"/></g></g><g class="subplot x2y3"><g class="layer-subplot"><g class="shapelayer"/><g class="imagelayer"/></g><g class="minor-gridlayer"><g class="x2"/><g class="y3"/><g class="y4"/></g><g class="gridlayer"><g class="x2"/><g class="y3"><path class="y3grid crisp" transform="translate(0,282.32)" d="M329.9,0h171.5" style="stroke: rgb(235, 240, 248); stroke-opacity: 1; stroke-width: 1px;"/><path class="y3grid crisp" transform="translate(0,229.65)" d="M329.9,0h171.5" style="stroke: rgb(235, 240, 248); stroke-opacity: 1; stroke-width: 1px;"/><path class="y3grid crisp" transform="translate(0,176.97)" d="M329.9,0h171.5" style="stroke: rgb(235, 240, 248); stroke-opacity: 1; stroke-width: 1px;"/><path class="y3grid crisp" transform="translate(0,124.3)" d="M329.9,0h171.5" style="stroke: rgb(235, 240, 248); stroke-opacity: 1; stroke-width: 1px;"/><path class="y3grid crisp" transform="translate(0,71.62)" d="M329.9,0h171.5" style="stroke: rgb(235, 240, 248); stroke-opacity: 1; stroke-width: 1px;"/></g><g class="y4"/></g><g class="zerolinelayer"><path class="y3zl zl crisp" transform="translate(0,335)" d="M329.9,0h171.5" style="stroke: rgb(235, 240, 248); stroke-opacity: 1; stroke-width: 2px;"/><path class="y4zl zl crisp" transform="translate(0,335)" d="M329.9,0h171.5" style="stroke: rgb(235, 240, 248); stroke-opacity: 1; stroke-width: 2px;"/></g><g class="layer-between"><g class="shapelayer"/><g class="imagelayer"/></g><path class="xlines-below"/><path class="ylines-below"/><g class="overlines-below"><path class="x2y4-x"/><path class="x2y4-y"/></g><g class="xaxislayer-below"/><g class="yaxislayer-below"/><g class="overaxes-below"><g class="x2y4-x"/><g class="x2y4-y"/></g><g class="overplot"><g class="x2y3" transform="translate(329.9,20)" clip-path="url(#clip8a1b9bx2y3plot)"><g class="barlayer mlayer"><g class="trace bars" style="opacity: 0.82;"><g class="points"><g class="point"><path d="M2.86,315V196.48H25.72V315Z" style="vector-effect: none; opacity: 1; stroke-width: 0.5px; fill: rgb(227, 26, 28); fill-opacity: 1; stroke: rgb(255, 255, 255); stroke-opacity: 1;"/></g><g class="point"><path d="M31.44,315V149.07H54.31V315Z" style="vector-effect: none; opacity: 1; stroke-width: 0.5px; fill: rgb(227, 26, 28); fill-opacity: 1; stroke: rgb(255, 255, 255); stroke-opacity: 1;"/></g><g class="point"><path d="M60.02,315V112.2H82.89V315Z" style="vector-effect: none; opacity: 1; stroke-width: 0.5px; fill: rgb(227, 26, 28); fill-opacity: 1; stroke: rgb(255, 255, 255); stroke-opacity: 1;"/></g><g class="point"><path d="M88.61,315V149.07H111.47V315Z" style="vector-effect: none; opacity: 1; stroke-width: 0.5px; fill: rgb(227, 26, 28); fill-opacity: 1; stroke: rgb(255, 255, 255); stroke-opacity: 1;"/></g><g class="point"><path d="M117.19,315V99.03H140.06V315Z" style="vector-effect: none; opacity: 1; stroke-width: 0.5px; fill: rgb(227, 26, 28); fill-opacity: 1; stroke: rgb(255, 255, 255); stroke-opacity: 1;"/></g><g class="point"><path d="M145.77,315V56.89H168.64V315Z" style="vector-effect: none; opacity: 1; stroke-width: 0.5px; fill: rgb(227, 26, 28); fill-opacity: 1; stroke: rgb(255, 255, 255); stroke-opacity: 1;"/></g></g></g></g></g><g class="x2y4" transform="translate(329.9,20)" clip-path="url(#clip8a1b9bx2y4plot)"><g class="scatterlayer mlayer"><g class="trace scatter tracec2764c" style="stroke-miterlimit: 2; opacity: 1;"><g class="fills"/><g class="errorbars"/><g class="lines"><path class="js-line" d="M14.29,313.83L42.88,309.61L71.46,301.03L100.04,284.63L128.63,254.55L157.21,205.37" style="vector-effect: none; fill: none; stroke: rgb(17, 17, 17); stroke-opacity: 1; stroke-width: 2px; opacity: 1;"/></g><g class="points"><path class="point" transform="translate(14.29,313.83)" d="M3,0A3,3 0 1,1 0,-3A3,3 0 0,1 3,0Z" style="opacity: 1; stroke-width: 0px; fill: rgb(17, 17, 17); fill-opacity: 1;"/><path class="point" transform="translate(42.88,309.61)" d="M3,0A3,3 0 1,1 0,-3A3,3 0 0,1 3,0Z" style="opacity: 1; stroke-width: 0px; fill: rgb(17, 17, 17); fill-opacity: 1;"/><path class="point" transform="translate(71.46,301.03)" d="M3,0A3,3 0 1,1 0,-3A3,3 0 0,1 3,0Z" style="opacity: 1; stroke-width: 0px; fill: rgb(17, 17, 17); fill-opacity: 1;"/><path class="point" transform="translate(100.04,284.63)" d="M3,0A3,3 0 1,1 0,-3A3,3 0 0,1 3,0Z" style="opacity: 1; stroke-width: 0px; fill: rgb(17, 17, 17); fill-opacity: 1;"/><path class="point" transform="translate(128.63,254.55)" d="M3,0A3,3 0 1,1 0,-3A3,3 0 0,1 3,0Z" style="opacity: 1; stroke-width: 0px; fill: rgb(17, 17, 17); fill-opacity: 1;"/><path class="point" transform="translate(157.21,205.37)" d="M3,0A3,3 0 1,1 0,-3A3,3 0 0,1 3,0Z" style="opacity: 1; stroke-width: 0px; fill: rgb(17, 17, 17); fill-opacity: 1;"/></g><g class="text"/></g></g></g></g><g class="zerolinelayer-above"/><path class="xlines-above crisp" d="M0,0" style="fill: none;"/><path class="ylines-above crisp" d="M0,0" style="fill: none;"/><g class="overlines-above"><path class="x2y4-x crisp" d="M0,0" style="fill: none;"/><path class="x2y4-y crisp" d="M0,0" style="fill: none;"/></g><g class="xaxislayer-above"><g class="x2tick"><text text-anchor="start" x="0" y="348" transform="translate(344.19,0) rotate(45,0,342)" style="font-family: 'Open Sans', verdana, arial, sans-serif; font-size: 12px; fill: rgb(42, 63, 95); fill-opacity: 1; white-space: pre;">2020</text></g><g class="x2tick"><text text-anchor="start" x="0" y="348" style="font-family: 'Open Sans', verdana, arial, sans-serif; font-size: 12px; fill: rgb(42, 63, 95); fill-opacity: 1; white-space: pre;" transform="translate(372.78,0) rotate(45,0,342)">2021</text></g><g class="x2tick"><text text-anchor="start" x="0" y="348" style="font-family: 'Open Sans', verdana, arial, sans-serif; font-size: 12px; fill: rgb(42, 63, 95); fill-opacity: 1; white-space: pre;" transform="translate(401.35999999999996,0) rotate(45,0,342)">2022</text></g><g class="x2tick"><text text-anchor="start" x="0" y="348" style="font-family: 'Open Sans', verdana, arial, sans-serif; font-size: 12px; fill: rgb(42, 63, 95); fill-opacity: 1; white-space: pre;" transform="translate(429.94,0) rotate(45,0,342)">2023</text></g><g class="x2tick"><text text-anchor="start" x="0" y="348" style="font-family: 'Open Sans', verdana, arial, sans-serif; font-size: 12px; fill: rgb(42, 63, 95); fill-opacity: 1; white-space: pre;" transform="translate(458.53,0) rotate(45,0,342)">2024</text></g><g class="x2tick"><text text-anchor="start" x="0" y="348" style="font-family: 'Open Sans', verdana, arial, sans-serif; font-size: 12px; fill: rgb(42, 63, 95); fill-opacity: 1; white-space: pre;" transform="translate(487.11,0) rotate(45,0,342)">2025</text></g></g><g class="yaxislayer-above"/><g class="overaxes-above"><g class="x2y4-x"/><g class="x2y4-y"/></g></g><g class="subplot x3y5"><g class="layer-subplot"><g class="shapelayer"/><g class="imagelayer"/></g><g class="minor-gridlayer"><g class="x3"/><g class="y5"/><g class="y6"/></g><g class="gridlayer"><g class="x3"/><g class="y5"><path class="y5grid crisp" transform="translate(0,282.32)" d="M579.8,0h171.50000000000006" style="stroke: rgb(235, 240, 248); stroke-opacity: 1; stroke-width: 1px;"/><path class="y5grid crisp" transform="translate(0,229.65)" d="M579.8,0h171.50000000000006" style="stroke: rgb(235, 240, 248); stroke-opacity: 1; stroke-width: 1px;"/><path class="y5grid crisp" transform="translate(0,176.97)" d="M579.8,0h171.50000000000006" style="stroke: rgb(235, 240, 248); stroke-opacity: 1; stroke-width: 1px;"/><path class="y5grid crisp" transform="translate(0,124.3)" d="M579.8,0h171.50000000000006" style="stroke: rgb(235, 240, 248); stroke-opacity: 1; stroke-width: 1px;"/><path class="y5grid crisp" transform="translate(0,71.62)" d="M579.8,0h171.50000000000006" style="stroke: rgb(235, 240, 248); stroke-opacity: 1; stroke-width: 1px;"/></g><g class="y6"/></g><g class="zerolinelayer"><path class="y5zl zl crisp" transform="translate(0,335)" d="M579.8,0h171.50000000000006" style="stroke: rgb(235, 240, 248); stroke-opacity: 1; stroke-width: 2px;"/><path class="y6zl zl crisp" transform="translate(0,335)" d="M579.8,0h171.50000000000006" style="stroke: rgb(235, 240, 248); stroke-opacity: 1; stroke-width: 2px;"/></g><g class="layer-between"><g class="shapelayer"/><g class="imagelayer"/></g><path class="xlines-below"/><path class="ylines-below"/><g class="overlines-below"><path class="x3y6-x"/><path class="x3y6-y"/></g><g class="xaxislayer-below"/><g class="yaxislayer-below"/><g class="overaxes-below"><g class="x3y6-x"/><g class="x3y6-y"/></g><g class="overplot"><g class="x3y5" transform="translate(579.8,20)" clip-path="url(#clip8a1b9bx3y5plot)"><g class="barlayer mlayer"><g class="trace bars" style="opacity: 0.4;"><g class="points"><g class="point"><path d="M2.86,315V137.35H25.72V315Z" style="vector-effect: none; opacity: 1; stroke-width: 0.5px; fill: rgb(106, 61, 154); fill-opacity: 1; stroke: rgb(255, 255, 255); stroke-opacity: 1;"/></g><g class="point"><path d="M31.44,315V189.53H54.31V315Z" style="vector-effect: none; opacity: 1; stroke-width: 0.5px; fill: rgb(106, 61, 154); fill-opacity: 1; stroke: rgb(255, 255, 255); stroke-opacity: 1;"/></g><g class="point"><path d="M60.02,315V104.3H82.89V315Z" style="vector-effect: none; opacity: 1; stroke-width: 0.5px; fill: rgb(106, 61, 154); fill-opacity: 1; stroke: rgb(255, 255, 255); stroke-opacity: 1;"/></g><g class="point"><path d="M88.61,315V41.09H111.47V315Z" style="vector-effect: none; opacity: 1; stroke-width: 0.5px; fill: rgb(106, 61, 154); fill-opacity: 1; stroke: rgb(255, 255, 255); stroke-opacity: 1;"/></g><g class="point"><path d="M117.19,315V69.14H140.06V315Z" style="vector-effect: none; opacity: 1; stroke-width: 0.5px; fill: rgb(106, 61, 154); fill-opacity: 1; stroke: rgb(255, 255, 255); stroke-opacity: 1;"/></g><g class="point"><path d="M145.77,315V67.95H168.64V315Z" style="vector-effect: none; opacity: 1; stroke-width: 0.5px; fill: rgb(106, 61, 154); fill-opacity: 1; stroke: rgb(255, 255, 255); stroke-opacity: 1;"/></g></g></g></g></g><g class="x3y6" transform="translate(579.8,20)" clip-path="url(#clip8a1b9bx3y6plot)"><g class="scatterlayer mlayer"><g class="trace scatter traceeb1398" style="stroke-miterlimit: 2; opacity: 1;"><g class="fills"/><g class="errorbars"/><g class="lines"><path class="js-line" d="M14.29,311.44L42.88,311.44L71.46,308.9L128.63,305.34L157.21,297.21" style="vector-effect: none; fill: none; stroke: rgb(17, 17, 17); stroke-opacity: 1; stroke-width: 2px; opacity: 1;"/></g><g class="points"><path class="point" transform="translate(14.29,311.44)" d="M3,0A3,3 0 1,1 0,-3A3,3 0 0,1 3,0Z" style="opacity: 1; stroke-width: 0px; fill: rgb(17, 17, 17); fill-opacity: 1;"/><path class="point" transform="translate(42.88,311.44)" d="M3,0A3,3 0 1,1 0,-3A3,3 0 0,1 3,0Z" style="opacity: 1; stroke-width: 0px; fill: rgb(17, 17, 17); fill-opacity: 1;"/><path class="point" transform="translate(71.46,308.9)" d="M3,0A3,3 0 1,1 0,-3A3,3 0 0,1 3,0Z" style="opacity: 1; stroke-width: 0px; fill: rgb(17, 17, 17); fill-opacity: 1;"/><path class="point" transform="translate(100.04,307.38)" d="M3,0A3,3 0 1,1 0,-3A3,3 0 0,1 3,0Z" style="opacity: 1; stroke-width: 0px; fill: rgb(17, 17, 17); fill-opacity: 1;"/><path class="point" transform="translate(128.63,305.34)" d="M3,0A3,3 0 1,1 0,-3A3,3 0 0,1 3,0Z" style="opacity: 1; stroke-width: 0px; fill: rgb(17, 17, 17); fill-opacity: 1;"/><path class="point" transform="translate(157.21,297.21)" d="M3,0A3,3 0 1,1 0,-3A3,3 0 0,1 3,0Z" style="opacity: 1; stroke-width: 0px; fill: rgb(17, 17, 17); fill-opacity: 1;"/></g><g class="text"/></g></g></g></g><g class="zerolinelayer-above"/><path class="xlines-above crisp" d="M0,0" style="fill: none;"/><path class="ylines-above crisp" d="M0,0" style="fill: none;"/><g class="overlines-above"><path class="x3y6-x crisp" d="M0,0" style="fill: none;"/><path class="x3y6-y crisp" d="M0,0" style="fill: none;"/></g><g class="xaxislayer-above"><g class="x3tick"><text text-anchor="start" x="0" y="348" transform="translate(594.0899999999999,0) rotate(45,0,342)" style="font-family: 'Open Sans', verdana, arial, sans-serif; font-size: 12px; fill: rgb(42, 63, 95); fill-opacity: 1; white-space: pre;">2020</text></g><g class="x3tick"><text text-anchor="start" x="0" y="348" style="font-family: 'Open Sans', verdana, arial, sans-serif; font-size: 12px; fill: rgb(42, 63, 95); fill-opacity: 1; white-space: pre;" transform="translate(622.68,0) rotate(45,0,342)">2021</text></g><g class="x3tick"><text text-anchor="start" x="0" y="348" style="font-family: 'Open Sans', verdana, arial, sans-serif; font-size: 12px; fill: rgb(42, 63, 95); fill-opacity: 1; white-space: pre;" transform="translate(651.26,0) rotate(45,0,342)">2022</text></g><g class="x3tick"><text text-anchor="start" x="0" y="348" style="font-family: 'Open Sans', verdana, arial, sans-serif; font-size: 12px; fill: rgb(42, 63, 95); fill-opacity: 1; white-space: pre;" transform="translate(679.8399999999999,0) rotate(45,0,342)">2023</text></g><g class="x3tick"><text text-anchor="start" x="0" y="348" style="font-family: 'Open Sans', verdana, arial, sans-serif; font-size: 12px; fill: rgb(42, 63, 95); fill-opacity: 1; white-space: pre;" transform="translate(708.43,0) rotate(45,0,342)">2024</text></g><g class="x3tick"><text text-anchor="start" x="0" y="348" style="font-family: 'Open Sans', verdana, arial, sans-serif; font-size: 12px; fill: rgb(42, 63, 95); fill-opacity: 1; white-space: pre;" transform="translate(737.01,0) rotate(45,0,342)">2025</text></g></g><g class="yaxislayer-above"/><g class="overaxes-above"><g class="x3y6-x"/><g class="x3y6-y"/></g></g><g class="subplot x4y7"><g class="layer-subplot"><g class="shapelayer"/><g class="imagelayer"/></g><g class="minor-gridlayer"><g class="x4"/><g class="y7"/><g class="y8"/></g><g class="gridlayer"><g class="x4"/><g class="y7"><path class="y7grid crisp" transform="translate(0,282.32)" d="M829.6999999999999,0h171.50000000000006" style="stroke: rgb(235, 240, 248); stroke-opacity: 1; stroke-width: 1px;"/><path class="y7grid crisp" transform="translate(0,229.65)" d="M829.6999999999999,0h171.50000000000006" style="stroke: rgb(235, 240, 248); stroke-opacity: 1; stroke-width: 1px;"/><path class="y7grid crisp" transform="translate(0,176.97)" d="M829.6999999999999,0h171.50000000000006" style="stroke: rgb(235, 240, 248); stroke-opacity: 1; stroke-width: 1px;"/><path class="y7grid crisp" transform="translate(0,124.3)" d="M829.6999999999999,0h171.50000000000006" style="stroke: rgb(235, 240, 248); stroke-opacity: 1; stroke-width: 1px;"/><path class="y7grid crisp" transform="translate(0,71.62)" d="M829.6999999999999,0h171.50000000000006" style="stroke: rgb(235, 240, 248); stroke-opacity: 1; stroke-width: 1px;"/></g><g class="y8"/></g><g class="zerolinelayer"><path class="y7zl zl crisp" transform="translate(0,335)" d="M829.6999999999999,0h171.50000000000006" style="stroke: rgb(235, 240, 248); stroke-opacity: 1; stroke-width: 2px;"/><path class="y8zl zl crisp" transform="translate(0,335)" d="M829.6999999999999,0h171.50000000000006" style="stroke: rgb(235, 240, 248); stroke-opacity: 1; stroke-width: 2px;"/></g><g class="layer-between"><g class="shapelayer"/><g class="imagelayer"/></g><path class="xlines-below"/><path class="ylines-below"/><g class="overlines-below"><path class="x4y8-x"/><path class="x4y8-y"/></g><g class="xaxislayer-below"/><g class="yaxislayer-below"/><g class="overaxes-below"><g class="x4y8-x"/><g class="x4y8-y"/></g><g class="overplot"><g class="x4y7" transform="translate(829.6999999999999,20)" clip-path="url(#clip8a1b9bx4y7plot)"><g class="barlayer mlayer"><g class="trace bars" style="opacity: 0.4;"><g class="points"><g class="point"><path d="M2.86,315V293.93H25.72V315Z" style="vector-effect: none; opacity: 1; stroke-width: 0.5px; fill: rgb(255, 127, 0); fill-opacity: 1; stroke: rgb(255, 255, 255); stroke-opacity: 1;"/></g><g class="point"><path d="M31.44,315V283.39H54.31V315Z" style="vector-effect: none; opacity: 1; stroke-width: 0.5px; fill: rgb(255, 127, 0); fill-opacity: 1; stroke: rgb(255, 255, 255); stroke-opacity: 1;"/></g><g class="point"><path d="M60.02,315V270.23H82.89V315Z" style="vector-effect: none; opacity: 1; stroke-width: 0.5px; fill: rgb(255, 127, 0); fill-opacity: 1; stroke: rgb(255, 255, 255); stroke-opacity: 1;"/></g><g class="point"><path d="M88.61,315V257.06H111.47V315Z" style="vector-effect: none; opacity: 1; stroke-width: 0.5px; fill: rgb(255, 127, 0); fill-opacity: 1; stroke: rgb(255, 255, 255); stroke-opacity: 1;"/></g><g class="point"><path d="M117.19,315V201.75H140.06V315Z" style="vector-effect: none; opacity: 1; stroke-width: 0.5px; fill: rgb(255, 127, 0); fill-opacity: 1; stroke: rgb(255, 255, 255); stroke-opacity: 1;"/></g><g class="point"><path d="M145.77,315V125.37H168.64V315Z" style="vector-effect: none; opacity: 1; stroke-width: 0.5px; fill: rgb(255, 127, 0); fill-opacity: 1; stroke: rgb(255, 255, 255); stroke-opacity: 1;"/></g></g></g></g></g><g class="x4y8" transform="translate(829.6999999999999,20)" clip-path="url(#clip8a1b9bx4y8plot)"><g class="scatterlayer mlayer"><g class="trace scatter traceaa7703" style="stroke-miterlimit: 2; opacity: 1;"><g class="fills"/><g class="errorbars"/><g class="lines"><path class="js-line" d="M14.29,311.44L42.88,309.92L71.46,303.82L100.04,296.19L128.63,279.42L157.21,238.76" style="vector-effect: none; fill: none; stroke: rgb(17, 17, 17); stroke-opacity: 1; stroke-width: 2px; opacity: 1;"/></g><g class="points"><path class="point" transform="translate(14.29,311.44)" d="M3,0A3,3 0 1,1 0,-3A3,3 0 0,1 3,0Z" style="opacity: 1; stroke-width: 0px; fill: rgb(17, 17, 17); fill-opacity: 1;"/><path class="point" transform="translate(42.88,309.92)" d="M3,0A3,3 0 1,1 0,-3A3,3 0 0,1 3,0Z" style="opacity: 1; stroke-width: 0px; fill: rgb(17, 17, 17); fill-opacity: 1;"/><path class="point" transform="translate(71.46,303.82)" d="M3,0A3,3 0 1,1 0,-3A3,3 0 0,1 3,0Z" style="opacity: 1; stroke-width: 0px; fill: rgb(17, 17, 17); fill-opacity: 1;"/><path class="point" transform="translate(100.04,296.19)" d="M3,0A3,3 0 1,1 0,-3A3,3 0 0,1 3,0Z" style="opacity: 1; stroke-width: 0px; fill: rgb(17, 17, 17); fill-opacity: 1;"/><path class="point" transform="translate(128.63,279.42)" d="M3,0A3,3 0 1,1 0,-3A3,3 0 0,1 3,0Z" style="opacity: 1; stroke-width: 0px; fill: rgb(17, 17, 17); fill-opacity: 1;"/><path class="point" transform="translate(157.21,238.76)" d="M3,0A3,3 0 1,1 0,-3A3,3 0 0,1 3,0Z" style="opacity: 1; stroke-width: 0px; fill: rgb(17, 17, 17); fill-opacity: 1;"/></g><g class="text"/></g></g></g></g><g class="zerolinelayer-above"/><path class="xlines-above crisp" d="M0,0" style="fill: none;"/><path class="ylines-above crisp" d="M0,0" style="fill: none;"/><g class="overlines-above"><path class="x4y8-x crisp" d="M0,0" style="fill: none;"/><path class="x4y8-y crisp" d="M0,0" style="fill: none;"/></g><g class="xaxislayer-above"><g class="x4tick"><text text-anchor="start" x="0" y="348" transform="translate(843.9899999999999,0) rotate(45,0,342)" style="font-family: 'Open Sans', verdana, arial, sans-serif; font-size: 12px; fill: rgb(42, 63, 95); fill-opacity: 1; white-space: pre;">2020</text></g><g class="x4tick"><text text-anchor="start" x="0" y="348" style="font-family: 'Open Sans', verdana, arial, sans-serif; font-size: 12px; fill: rgb(42, 63, 95); fill-opacity: 1; white-space: pre;" transform="translate(872.5799999999999,0) rotate(45,0,342)">2021</text></g><g class="x4tick"><text text-anchor="start" x="0" y="348" style="font-family: 'Open Sans', verdana, arial, sans-serif; font-size: 12px; fill: rgb(42, 63, 95); fill-opacity: 1; white-space: pre;" transform="translate(901.16,0) rotate(45,0,342)">2022</text></g><g class="x4tick"><text text-anchor="start" x="0" y="348" style="font-family: 'Open Sans', verdana, arial, sans-serif; font-size: 12px; fill: rgb(42, 63, 95); fill-opacity: 1; white-space: pre;" transform="translate(929.7399999999999,0) rotate(45,0,342)">2023</text></g><g class="x4tick"><text text-anchor="start" x="0" y="348" style="font-family: 'Open Sans', verdana, arial, sans-serif; font-size: 12px; fill: rgb(42, 63, 95); fill-opacity: 1; white-space: pre;" transform="translate(958.3299999999999,0) rotate(45,0,342)">2024</text></g><g class="x4tick"><text text-anchor="start" x="0" y="348" style="font-family: 'Open Sans', verdana, arial, sans-serif; font-size: 12px; fill: rgb(42, 63, 95); fill-opacity: 1; white-space: pre;" transform="translate(986.91,0) rotate(45,0,342)">2025</text></g></g><g class="yaxislayer-above"/><g class="overaxes-above"><g class="x4y8-x"/><g class="x4y8-y"><g class="y8tick"><text text-anchor="start" x="1002.2" y="4.199999999999999" transform="translate(0,335)" style="font-family: 'Open Sans', verdana, arial, sans-serif; font-size: 12px; fill: rgb(42, 63, 95); fill-opacity: 1; white-space: pre;">0.0</text></g><g class="y8tick"><text text-anchor="start" x="1002.2" y="4.199999999999999" style="font-family: 'Open Sans', verdana, arial, sans-serif; font-size: 12px; fill: rgb(42, 63, 95); fill-opacity: 1; white-space: pre;" transform="translate(0,284.17)">10.0</text></g><g class="y8tick"><text text-anchor="start" x="1002.2" y="4.199999999999999" style="font-family: 'Open Sans', verdana, arial, sans-serif; font-size: 12px; fill: rgb(42, 63, 95); fill-opacity: 1; white-space: pre;" transform="translate(0,233.35)">20.0</text></g><g class="y8tick"><text text-anchor="start" x="1002.2" y="4.199999999999999" style="font-family: 'Open Sans', verdana, arial, sans-serif; font-size: 12px; fill: rgb(42, 63, 95); fill-opacity: 1; white-space: pre;" transform="translate(0,182.52)">30.0</text></g><g class="y8tick"><text text-anchor="start" x="1002.2" y="4.199999999999999" style="font-family: 'Open Sans', verdana, arial, sans-serif; font-size: 12px; fill: rgb(42, 63, 95); fill-opacity: 1; white-space: pre;" transform="translate(0,131.7)">40.0</text></g><g class="y8tick"><text text-anchor="start" x="1002.2" y="4.199999999999999" style="font-family: 'Open Sans', verdana, arial, sans-serif; font-size: 12px; fill: rgb(42, 63, 95); fill-opacity: 1; white-space: pre;" transform="translate(0,80.87)">50.0</text></g><g class="y8tick"><text text-anchor="start" x="1002.2" y="4.199999999999999" style="font-family: 'Open Sans', verdana, arial, sans-serif; font-size: 12px; fill: rgb(42, 63, 95); fill-opacity: 1; white-space: pre;" transform="translate(0,30.05)">60.0</text></g></g></g></g><g class="subplot xy2"/><g class="subplot x2y4"/><g class="subplot x3y6"/><g class="subplot x4y8"/></g><g class="polarlayer"/><g class="smithlayer"/><g class="ternarylayer"/><g class="geolayer"/><g class="funnelarealayer"/><g class="pielayer"/><g class="iciclelayer"/><g class="treemaplayer"/><g class="sunburstlayer"/><g class="glimages"/><defs id="topdefs-8a1b9b"><g class="clips"/><clipPath id="legend8a1b9b"><rect width="584" height="36" x="0" y="0"/></clipPath></defs><g class="layer-above"><g class="imagelayer"/><g class="shapelayer"/></g><g class="infolayer"><g class="legend" pointer-events="all" transform="translate(278,391.7)"><rect class="bg" shape-rendering="crispEdges" style="stroke: rgb(68, 68, 68); stroke-opacity: 1; fill: rgb(255, 255, 255); fill-opacity: 1; stroke-width: 0px;" width="584" height="36" x="0" y="0"/><g class="scrollbox" transform="" clip-path="url(#legend8a1b9b)"><g class="groups" transform=""><g class="traces" transform="translate(0,17.55)" style="opacity: 1;"><text class="legendtext" text-anchor="start" x="40" y="6.63" style="font-family: 'Open Sans', verdana, arial, sans-serif; font-size: 17px; fill: rgb(42, 63, 95); fill-opacity: 1; white-space: pre;">Curtailment (GWh/yr)</text><g class="layers" style="opacity: 0.82;"><g class="legendfill"/><g class="legendlines"/><g class="legendsymbols"><g class="legendpoints"><path class="legendundefined" d="M6,6H-6V-6H6Z" transform="translate(20,0)" style="stroke-width: 0.5px; fill: rgb(31, 120, 180); fill-opacity: 1; stroke: rgb(255, 255, 255); stroke-opacity: 1;"/></g></g></g><rect class="legendtoggle" x="0" y="-12.55" width="229.953125" height="25.1" style="fill: rgb(0, 0, 0); fill-opacity: 0;"/></g></g><g class="groups" transform="translate(232.453125,0)"><g class="traces" transform="translate(0,17.55)" style="opacity: 1;"><text class="legendtext" text-anchor="start" x="40" y="6.63" style="font-family: 'Open Sans', verdana, arial, sans-serif; font-size: 17px; fill: rgb(42, 63, 95); fill-opacity: 1; white-space: pre;">Battery capacity (GWh, cumulative)</text><g class="layers" style="opacity: 1;"><g class="legendfill"/><g class="legendlines"><path class="js-line" d="M5,0h30" style="fill: none; stroke: rgb(17, 17, 17); stroke-opacity: 1; stroke-width: 2px;"/></g><g class="legendsymbols"><g class="legendpoints"><path class="scatterpts" transform="translate(20,0)" d="M3,0A3,3 0 1,1 0,-3A3,3 0 0,1 3,0Z" style="opacity: 1; stroke-width: 0px; fill: rgb(17, 17, 17); fill-opacity: 1;"/></g></g></g><rect class="legendtoggle" x="0" y="-12.55" width="348.765625" height="25.1" style="fill: rgb(0, 0, 0); fill-opacity: 0;"/></g></g></g><rect class="scrollbar" rx="20" ry="3" width="0" height="0" style="fill: rgb(128, 139, 164); fill-opacity: 1;" x="0" y="0"/></g><g class="g-gtitle"/><g class="g-xtitle"/><g class="g-x2title"/><g class="g-x3title"/><g class="g-x4title"/><g class="g-ytitle"><text class="ytitle" transform="rotate(-90,17.084375,177.5)" x="17.084375" y="177.5" text-anchor="middle" style="opacity: 1; font-family: 'Open Sans', verdana, arial, sans-serif; font-size: 14px; fill: rgb(42, 63, 95); fill-opacity: 1; white-space: pre;">Curtailment (GWh/yr)</text></g><g class="g-y2title"/><g class="g-y3title"/><g class="g-y4title"/><g class="g-y5title"/><g class="g-y6title"/><g class="g-y7title"/><g class="g-y8title"><text class="y8title" transform="rotate(-90,1053.7658203125,177.5)" x="1053.7658203125" y="177.5" text-anchor="middle" style="opacity: 1; font-family: 'Open Sans', verdana, arial, sans-serif; font-size: 14px; fill: rgb(42, 63, 95); fill-opacity: 1; white-space: pre;">Battery (GWh)</text></g><g class="annotation" data-index="0" style="opacity: 1;"><g class="annotation-text-g" transform="rotate(0,165.75,8.499999999999995)"><g class="cursor-pointer" transform="translate(90,-3)"><rect class="bg" x="0.5" y="0.5" width="151" height="22" style="stroke-width: 1px; stroke: rgb(0, 0, 0); stroke-opacity: 0; fill: rgb(0, 0, 0); fill-opacity: 0;"/><text class="annotation-text" text-anchor="middle" x="76.1953125" y="18" style="font-family: 'Open Sans', verdana, arial, sans-serif; font-size: 16px; fill: rgb(42, 63, 95); fill-opacity: 1; white-space: pre;">CAISO (California)</text></g></g></g><g class="annotation" data-index="1" style="opacity: 1;"><g class="annotation-text-g" transform="rotate(0,415.65000000000003,8.499999999999996)"><g class="cursor-pointer" transform="translate(354,-3)"><rect class="bg" x="0.5" y="0.5" width="123" height="22" style="stroke-width: 1px; stroke: rgb(0, 0, 0); stroke-opacity: 0; fill: rgb(0, 0, 0); fill-opacity: 0;"/><text class="annotation-text" text-anchor="middle" x="61.859375" y="18" style="font-family: 'Open Sans', verdana, arial, sans-serif; font-size: 16px; fill: rgb(42, 63, 95); fill-opacity: 1; white-space: pre;">ERCOT (Texas)</text></g></g></g><g class="annotation" data-index="2" style="opacity: 1;"><g class="annotation-text-g" transform="rotate(0,665.5500000000001,8.499999999999993)"><g class="cursor-pointer" transform="translate(550,-3)"><rect class="bg" x="0.5" y="0.5" width="231" height="22" style="stroke-width: 1px; stroke: rgb(0, 0, 0); stroke-opacity: 0; fill: rgb(0, 0, 0); fill-opacity: 0;"/><text class="annotation-text" text-anchor="middle" x="116.2109375" y="18" style="font-family: 'Open Sans', verdana, arial, sans-serif; font-size: 16px; fill: rgb(42, 63, 95); fill-opacity: 1; white-space: pre;">Germany ‡ (Redispatch 2.0)</text></g></g></g><g class="annotation" data-index="3" style="opacity: 1;"><g class="annotation-text-g" transform="rotate(0,915.4499999999999,8.499999999999995)"><g class="cursor-pointer" transform="translate(842,-3)"><rect class="bg" x="0.5" y="0.5" width="145" height="22" style="stroke-width: 1px; stroke: rgb(0, 0, 0); stroke-opacity: 0; fill: rgb(0, 0, 0); fill-opacity: 0;"/><text class="annotation-text" text-anchor="middle" x="72.8515625" y="18" style="font-family: 'Open Sans', verdana, arial, sans-serif; font-size: 16px; fill: rgb(42, 63, 95); fill-opacity: 1; white-space: pre;">Australia ‡ (NEM)</text></g></g></g></g></svg>